<?xml version="1.0" standalone="no"?>
<!DOCTYPE svg PUBLIC "-//W3C//DTD SVG 1.1//EN" "http://www.w3.org/Graphics/SVG/1.1/DTD/svg11.dtd" >
<svg>
<metadata>
Created by FontForge 20090622 at Fri Feb 22 05:08:18 2019
 By ffonts
Copyright 2016 Google Inc. &#38; Colophon Foundry. Copyright 2017 Florian Karsten. All rights reserved.
</metadata>
<defs>
<font id="SpaceGrotesk-SemiBold" horiz-adv-x="620" >
  <font-face 
    font-family="Space Grotesk SemiBold"
    font-weight="600"
    font-stretch="normal"
    units-per-em="1000"
    panose-1="0 0 7 0 0 0 0 0 0 0"
    ascent="800"
    descent="-200"
    x-height="493"
    cap-height="700"
    bbox="-675 -330 951 1000"
    underline-thickness="50"
    underline-position="-50"
    stemh="108"
    stemv="116"
    unicode-range="U+0020-U+E133"
  />
<missing-glyph horiz-adv-x="915" 
d="M98 618c0 132 73 200 193 200h333c120 0 194 -68 194 -200v-546c0 -132 -74 -200 -194 -200h-333c-120 0 -193 68 -193 200v546zM194 602v-514c0 -82 35 -127 116 -127h296c80 0 116 45 116 127v514c0 82 -36 127 -116 127h-296c-81 0 -116 -45 -116 -127zM289 447
c0 92 74 148 173 148s168 -58 168 -137v-4c0 -72 -45 -105 -102 -131l-12 -5c-15 -6 -20 -16 -20 -36v-24h-86v29c0 45 16 73 58 92l13 5c45 21 64 35 64 71c0 37 -33 63 -83 63s-88 -26 -88 -75v-19h-85v23zM394 165c0 34 27 59 60 59c34 0 60 -25 60 -59s-26 -59 -60 -59
c-33 0 -60 25 -60 59z" />
    <glyph glyph-name="f_f.liga" unicode="ff" horiz-adv-x="707" 
d="M556 493h135v-95h-135v-398h-110v398h-190v-398h-110v398h-131v95h131v113c0 55 38 94 92 94h127v-95h-82c-18 0 -27 -9 -27 -29v-83h190v114c0 55 38 93 92 93h127v-95h-82c-18 0 -27 -9 -27 -29v-83z" />
    <glyph glyph-name="f_f_i.liga" unicode="ffi" horiz-adv-x="919" 
d="M801 720c46 0 82 -33 82 -80c0 -46 -36 -80 -82 -80s-83 34 -83 80c0 47 37 80 83 80zM556 493h300v-493h-110v398h-190v-398h-110v398h-190v-398h-110v398h-131v95h131v113c0 55 38 94 92 94h127v-95h-82c-18 0 -27 -9 -27 -29v-83h190v114c0 55 38 93 92 93h115v-95
h-70c-18 0 -27 -9 -27 -29v-83z" />
    <glyph glyph-name="f_f_j.liga" unicode="ffj" horiz-adv-x="919" 
d="M801 720c46 0 82 -33 82 -80c0 -46 -36 -80 -82 -80s-83 34 -83 80c0 47 37 80 83 80zM556 493h300v-603c0 -53 -38 -90 -90 -90h-134v94h86c18 0 28 10 28 30v474h-190v-398h-110v398h-190v-398h-110v398h-131v95h131v113c0 55 38 94 92 94h127v-95h-82
c-18 0 -27 -9 -27 -29v-83h190v114c0 55 38 93 92 93h115v-95h-70c-18 0 -27 -9 -27 -29v-83z" />
    <glyph glyph-name="f_i.liga" unicode="fi" horiz-adv-x="619" 
d="M501 720c46 0 82 -33 82 -80c0 -46 -36 -80 -82 -80s-83 34 -83 80c0 47 37 80 83 80zM256 493h300v-493h-110v398h-190v-398h-110v398h-131v95h131v113c0 55 38 94 92 94h115v-95h-70c-18 0 -27 -9 -27 -29v-83z" />
    <glyph glyph-name="f_j.liga" unicode="fj" horiz-adv-x="619" 
d="M501 720c46 0 82 -33 82 -80c0 -46 -36 -80 -82 -80s-83 34 -83 80c0 47 37 80 83 80zM256 493h300v-603c0 -53 -38 -90 -90 -90h-134v94h86c18 0 28 10 28 30v474h-190v-398h-110v398h-131v95h131v113c0 55 38 94 92 94h115v-95h-70c-18 0 -27 -9 -27 -29v-83z" />
    <glyph glyph-name="f_l.liga" unicode="fl" horiz-adv-x="619" 
d="M15 493h131v113c0 55 38 94 92 94h117v-95h-72c-18 0 -27 -9 -27 -29v-83h121v-95h-121v-398h-110v398h-131v95zM446 700h110v-700h-110v700z" />
    <glyph glyph-name="f_lcaron.liga" unicode="f&#x13e;" horiz-adv-x="699" 
d="M15 493h131v113c0 55 38 94 92 94h117v-95h-72c-18 0 -27 -9 -27 -29v-83h121v-95h-121v-398h-110v398h-131v95zM556 700v-700h-110v700h110zM614 700h113l-55 -180h-69z" />
    <glyph glyph-name=".notdef" horiz-adv-x="915" 
d="M98 618c0 132 73 200 193 200h333c120 0 194 -68 194 -200v-546c0 -132 -74 -200 -194 -200h-333c-120 0 -193 68 -193 200v546zM194 602v-514c0 -82 35 -127 116 -127h296c80 0 116 45 116 127v514c0 82 -36 127 -116 127h-296c-81 0 -116 -45 -116 -127zM289 447
c0 92 74 148 173 148s168 -58 168 -137v-4c0 -72 -45 -105 -102 -131l-12 -5c-15 -6 -20 -16 -20 -36v-24h-86v29c0 45 16 73 58 92l13 5c45 21 64 35 64 71c0 37 -33 63 -83 63s-88 -26 -88 -75v-19h-85v23zM394 165c0 34 27 59 60 59c34 0 60 -25 60 -59s-26 -59 -60 -59
c-33 0 -60 25 -60 59z" />
    <glyph glyph-name="A" unicode="A" horiz-adv-x="618" 
d="M217 700h185l206 -700h-121l-46 162h-263l-47 -162h-121zM207 268h205l-97 333h-12z" />
    <glyph glyph-name="Aacute" unicode="&#xc1;" horiz-adv-x="618" 
d="M294 880h129l-84 -117h-100zM217 700h185l206 -700h-121l-46 162h-263l-47 -162h-121zM207 268h205l-97 333h-12z" />
    <glyph glyph-name="Abreve" unicode="&#x102;" horiz-adv-x="618" 
d="M350 880h83v-8c0 -72 -49 -117 -124 -117s-124 45 -124 117v8h83v-4c0 -23 14 -40 41 -40s41 17 41 40v4zM217 700h185l206 -700h-121l-46 162h-263l-47 -162h-121zM207 268h205l-97 333h-12z" />
    <glyph glyph-name="Acircumflex" unicode="&#xc2;" horiz-adv-x="618" 
d="M361 763l-45 58h-12l-45 -58h-116l98 117h137l98 -117h-115zM217 700h185l206 -700h-121l-46 162h-263l-47 -162h-121zM207 268h205l-97 333h-12z" />
    <glyph glyph-name="Adieresis" unicode="&#xc4;" horiz-adv-x="618" 
d="M123 821c0 46 37 80 83 80s82 -34 82 -80c0 -47 -36 -80 -82 -80s-83 33 -83 80zM331 821c0 46 37 80 83 80s82 -34 82 -80c0 -47 -36 -80 -82 -80s-83 33 -83 80zM217 700h185l206 -700h-121l-46 162h-263l-47 -162h-121zM207 268h205l-97 333h-12z" />
    <glyph glyph-name="Agrave" unicode="&#xc0;" horiz-adv-x="618" 
d="M325 880l54 -117h-100l-84 117h130zM217 700h185l206 -700h-121l-46 162h-263l-47 -162h-121zM207 268h205l-97 333h-12z" />
    <glyph glyph-name="Amacron" unicode="&#x100;" horiz-adv-x="618" 
d="M454 853v-90h-290v90h290zM217 700h185l206 -700h-121l-46 162h-263l-47 -162h-121zM207 268h205l-97 333h-12z" />
    <glyph glyph-name="Aogonek" unicode="&#x104;" horiz-adv-x="618" 
d="M595 -90h45v-78h-72c-40 0 -80 25 -80 74c0 6 1 14 3 24l16 70h-20l-46 162h-263l-47 -162h-121l207 700h185l206 -700h-21l-14 -60c-1 -3 -1 -6 -1 -8c0 -15 8 -22 23 -22zM207 268h205l-97 333h-12z" />
    <glyph glyph-name="Aring" unicode="&#xc5;" horiz-adv-x="618" 
d="M203 841c0 59 47 102 107 102s106 -42 106 -102c0 -62 -48 -103 -106 -103c-59 0 -107 43 -107 103zM276 841c0 -19 14 -34 34 -34s33 15 33 34s-13 33 -33 33s-34 -14 -34 -33zM217 700h185l206 -700h-121l-46 162h-263l-47 -162h-121zM207 268h205l-97 333h-12z" />
    <glyph glyph-name="Aringacute" unicode="&#x1fa;" horiz-adv-x="618" 
d="M310 738c-59 0 -107 43 -107 103c0 58 46 101 104 102l27 57h129l-68 -95c13 -17 21 -39 21 -64c0 -62 -48 -103 -106 -103zM310 874c-20 0 -34 -14 -34 -33s14 -34 34 -34s33 15 33 34s-13 33 -33 33zM402 700l206 -700h-121l-46 162h-263l-47 -162h-121l207 700h185z
M207 268h205l-97 333h-12z" />
    <glyph glyph-name="Atilde" unicode="&#xc3;" horiz-adv-x="618" 
d="M120 797l52 65c23 29 46 45 79 45s57 -16 81 -47c10 -13 17 -22 33 -22s24 8 33 20l34 43l67 -53l-51 -65c-23 -28 -45 -45 -79 -45s-57 16 -81 47c-10 13 -17 22 -33 22s-24 -8 -34 -20l-34 -43zM217 700h185l206 -700h-121l-46 162h-263l-47 -162h-121zM207 268h205
l-97 333h-12z" />
    <glyph glyph-name="AE" unicode="&#xc6;" horiz-adv-x="560" 
d="M393 108h133v-108h-249v161h-109l-39 -161h-119l174 700h336v-108h-127v-187h102v-108h-102v-189zM277 268v324h-12l-74 -324h86z" />
    <glyph glyph-name="AEacute" unicode="&#x1fc;" horiz-adv-x="560" 
d="M441 880l-84 -117h-100l55 117h129zM393 108h133v-108h-249v161h-109l-39 -161h-119l174 700h336v-108h-127v-187h102v-108h-102v-189zM277 268v324h-12l-74 -324h86z" />
    <glyph glyph-name="B" unicode="B" horiz-adv-x="614" 
d="M65 700h304c121 0 207 -68 207 -188c0 -83 -48 -136 -117 -155v-12c68 -19 118 -72 118 -156c0 -117 -87 -189 -207 -189h-305v700zM181 594v-190h178c64 0 106 34 106 96c0 61 -43 94 -107 94h-177zM181 298v-192h178c64 0 107 34 107 95c0 62 -42 97 -106 97h-179z" />
    <glyph glyph-name="C" unicode="C" horiz-adv-x="624" 
d="M39 429c0 178 108 285 282 285c173 0 269 -100 269 -253v-21h-116v20c0 89 -49 149 -153 149c-105 0 -166 -70 -166 -175v-168c0 -109 59 -175 166 -175c109 0 153 61 153 149v20h116v-19c0 -155 -92 -255 -269 -255c-172 0 -282 101 -282 285v158z" />
    <glyph glyph-name="Cacute" unicode="&#x106;" horiz-adv-x="624" 
d="M304 880h129l-84 -117h-100zM39 429c0 178 108 285 282 285c173 0 269 -100 269 -253v-21h-116v20c0 89 -49 149 -153 149c-105 0 -166 -70 -166 -175v-168c0 -109 59 -175 166 -175c109 0 153 61 153 149v20h116v-19c0 -155 -92 -255 -269 -255
c-172 0 -282 101 -282 285v158z" />
    <glyph glyph-name="Ccaron" unicode="&#x10c;" horiz-adv-x="624" 
d="M371 882h115l-98 -117h-137l-98 117h116l45 -58h12zM39 429c0 178 108 285 282 285c173 0 269 -100 269 -253v-21h-116v20c0 89 -49 149 -153 149c-105 0 -166 -70 -166 -175v-168c0 -109 59 -175 166 -175c109 0 153 61 153 149v20h116v-19c0 -155 -92 -255 -269 -255
c-172 0 -282 101 -282 285v158z" />
    <glyph glyph-name="Ccedilla" unicode="&#xc7;" horiz-adv-x="624" 
d="M590 440h-116v20c0 89 -49 149 -153 149c-105 0 -166 -70 -166 -175v-168c0 -109 59 -175 166 -175c109 0 153 61 153 149v20h116v-19c0 -147 -83 -245 -243 -254l-9 -47h10c9 13 26 25 52 25c42 0 77 -30 77 -81c0 -61 -45 -97 -104 -97c-46 0 -70 17 -89 34l38 54
c11 -14 24 -23 45 -23c20 0 36 11 36 31c0 16 -10 28 -25 28c-11 0 -19 -5 -22 -14h-90v10l17 81c-150 14 -244 113 -244 283v158c0 178 108 285 282 285c173 0 269 -100 269 -253v-21z" />
    <glyph glyph-name="Cdotaccent" unicode="&#x10a;" horiz-adv-x="624" 
d="M237 821c0 46 37 80 83 80s82 -34 82 -80c0 -47 -36 -80 -82 -80s-83 33 -83 80zM39 429c0 178 108 285 282 285c173 0 269 -100 269 -253v-21h-116v20c0 89 -49 149 -153 149c-105 0 -166 -70 -166 -175v-168c0 -109 59 -175 166 -175c109 0 153 61 153 149v20h116v-19
c0 -155 -92 -255 -269 -255c-172 0 -282 101 -282 285v158z" />
    <glyph glyph-name="D" unicode="D" horiz-adv-x="618" 
d="M65 700h228c183 0 286 -91 286 -278v-144c0 -186 -103 -278 -286 -278h-228v700zM181 594v-488h112c118 0 170 56 170 171v146c0 115 -52 171 -170 171h-112z" />
    <glyph glyph-name="Eth" unicode="&#xd0;" horiz-adv-x="618" 
d="M293 700c183 0 286 -91 286 -278v-144c0 -186 -103 -278 -286 -278h-228v304h-82v97h82v299h228zM463 277v146c0 115 -52 171 -170 171h-112v-193h126v-97h-126v-198h112c118 0 170 56 170 171z" />
    <glyph glyph-name="Dcaron" unicode="&#x10e;" horiz-adv-x="618" 
d="M346 882h115l-98 -117h-137l-98 117h116l45 -58h12zM65 700h228c183 0 286 -91 286 -278v-144c0 -186 -103 -278 -286 -278h-228v700zM181 594v-488h112c118 0 170 56 170 171v146c0 115 -52 171 -170 171h-112z" />
    <glyph glyph-name="Dcroat" unicode="&#x110;" horiz-adv-x="618" 
d="M293 700c183 0 286 -91 286 -278v-144c0 -186 -103 -278 -286 -278h-228v304h-82v97h82v299h228zM463 277v146c0 115 -52 171 -170 171h-112v-193h126v-97h-126v-198h112c118 0 170 56 170 171z" />
    <glyph glyph-name="E" unicode="E" horiz-adv-x="558" 
d="M65 700h454v-106h-338v-189h310v-106h-310v-193h343v-106h-459v700z" />
    <glyph glyph-name="Eacute" unicode="&#xc9;" horiz-adv-x="558" 
d="M283 880h129l-84 -117h-100zM65 700h454v-106h-338v-189h310v-106h-310v-193h343v-106h-459v700z" />
    <glyph glyph-name="Ecaron" unicode="&#x11a;" horiz-adv-x="558" 
d="M350 882h115l-98 -117h-137l-98 117h116l45 -58h12zM65 700h454v-106h-338v-189h310v-106h-310v-193h343v-106h-459v700z" />
    <glyph glyph-name="Ecircumflex" unicode="&#xca;" horiz-adv-x="558" 
d="M350 763l-45 58h-12l-45 -58h-116l98 117h137l98 -117h-115zM65 700h454v-106h-338v-189h310v-106h-310v-193h343v-106h-459v700z" />
    <glyph glyph-name="Edieresis" unicode="&#xcb;" horiz-adv-x="558" 
d="M112 821c0 46 37 80 83 80s82 -34 82 -80c0 -47 -36 -80 -82 -80s-83 33 -83 80zM320 821c0 46 37 80 83 80s82 -34 82 -80c0 -47 -36 -80 -82 -80s-83 33 -83 80zM65 700h454v-106h-338v-189h310v-106h-310v-193h343v-106h-459v700z" />
    <glyph glyph-name="Edotaccent" unicode="&#x116;" horiz-adv-x="558" 
d="M216 821c0 46 37 80 83 80s82 -34 82 -80c0 -47 -36 -80 -82 -80s-83 33 -83 80zM65 700h454v-106h-338v-189h310v-106h-310v-193h343v-106h-459v700z" />
    <glyph glyph-name="Egrave" unicode="&#xc8;" horiz-adv-x="558" 
d="M314 880l54 -117h-100l-84 117h130zM65 700h454v-106h-338v-189h310v-106h-310v-193h343v-106h-459v700z" />
    <glyph glyph-name="Emacron" unicode="&#x112;" horiz-adv-x="558" 
d="M443 853v-90h-290v90h290zM65 700h454v-106h-338v-189h310v-106h-310v-193h343v-106h-459v700z" />
    <glyph glyph-name="Eogonek" unicode="&#x118;" horiz-adv-x="558" 
d="M346 0l-14 -60c-1 -3 -1 -6 -1 -8c0 -15 8 -22 23 -22h45v-78h-72c-40 0 -80 25 -80 74c0 6 1 14 3 24l16 70h-201v700h454v-106h-338v-189h310v-106h-310v-193h343v-106h-178z" />
    <glyph glyph-name="F" unicode="F" horiz-adv-x="527" 
d="M65 700h441v-106h-325v-190h306v-106h-306v-298h-116v700z" />
    <glyph glyph-name="G" unicode="G" horiz-adv-x="627" 
d="M39 271v158c0 178 108 285 282 285c171 0 267 -99 267 -258v-8h-116v9c0 92 -48 152 -151 152c-105 0 -166 -70 -166 -175v-168c0 -109 59 -175 166 -175c108 0 151 59 151 150v9h-179v104h295v-110c0 -161 -94 -258 -267 -258c-172 0 -282 101 -282 285z" />
    <glyph glyph-name="Gbreve" unicode="&#x11e;" horiz-adv-x="627" 
d="M359 880h83v-8c0 -72 -49 -117 -124 -117s-124 45 -124 117v8h83v-4c0 -23 14 -40 41 -40s41 17 41 40v4zM39 271v158c0 178 108 285 282 285c171 0 267 -99 267 -258v-8h-116v9c0 92 -48 152 -151 152c-105 0 -166 -70 -166 -175v-168c0 -109 59 -175 166 -175
c108 0 151 59 151 150v9h-179v104h295v-110c0 -161 -94 -258 -267 -258c-172 0 -282 101 -282 285z" />
    <glyph glyph-name="uni0122" unicode="&#x122;" horiz-adv-x="627" 
d="M39 271v158c0 178 108 285 282 285c171 0 267 -99 267 -258v-8h-116v9c0 92 -48 152 -151 152c-105 0 -166 -70 -166 -175v-168c0 -109 59 -175 166 -175c108 0 151 59 151 150v9h-179v104h295v-110c0 -161 -94 -258 -267 -258c-172 0 -282 101 -282 285zM235 -137
c0 52 38 87 87 87s86 -35 86 -85v-109c0 -49 -36 -86 -85 -86h-83v62h70c20 0 28 10 28 29v21c-4 -1 -10 -2 -18 -2c-46 0 -85 33 -85 83z" />
    <glyph glyph-name="Gdotaccent" unicode="&#x120;" horiz-adv-x="627" 
d="M236 821c0 46 37 80 83 80s82 -34 82 -80c0 -47 -36 -80 -82 -80s-83 33 -83 80zM39 271v158c0 178 108 285 282 285c171 0 267 -99 267 -258v-8h-116v9c0 92 -48 152 -151 152c-105 0 -166 -70 -166 -175v-168c0 -109 59 -175 166 -175c108 0 151 59 151 150v9h-179v104
h295v-110c0 -161 -94 -258 -267 -258c-172 0 -282 101 -282 285z" />
    <glyph glyph-name="H" unicode="H" horiz-adv-x="646" 
d="M65 700h116v-296h284v296h116v-700h-116v298h-284v-298h-116v700z" />
    <glyph glyph-name="Hbar" unicode="&#x126;" horiz-adv-x="646" 
d="M638 600v-97h-57v-503h-116v298h-284v-298h-116v503h-57v97h57v100h116v-100h284v100h116v-100h57zM465 404v99h-284v-99h284z" />
    <glyph glyph-name="I" unicode="I" horiz-adv-x="246" 
d="M65 700h116v-700h-116v700z" />
    <glyph glyph-name="IJ" unicode="&#x132;" horiz-adv-x="574" 
d="M62 700h116v-351h-116v351zM396 700h116v-490c0 -145 -80 -224 -218 -224c-143 0 -232 82 -232 224v47h116v-47c0 -71 39 -116 113 -116c72 0 105 44 105 116v490z" />
    <glyph glyph-name="Iacute" unicode="&#xcd;" horiz-adv-x="246" 
d="M108 880h129l-84 -117h-100zM65 700h116v-700h-116v700z" />
    <glyph glyph-name="Icircumflex" unicode="&#xce;" horiz-adv-x="246" 
d="M174 763l-45 58h-12l-45 -58h-116l98 117h137l98 -117h-115zM65 700h116v-700h-116v700z" />
    <glyph glyph-name="Idieresis" unicode="&#xcf;" horiz-adv-x="246" 
d="M-64 821c0 46 36 80 83 80c46 0 82 -34 82 -80c0 -47 -36 -80 -82 -80c-47 0 -83 33 -83 80zM144 821c0 46 37 80 83 80s82 -34 82 -80c0 -47 -36 -80 -82 -80s-83 33 -83 80zM65 700h116v-700h-116v700z" />
    <glyph glyph-name="Idotaccent" unicode="&#x130;" horiz-adv-x="246" 
d="M40 821c0 46 37 80 83 80s82 -34 82 -80c0 -47 -36 -80 -82 -80s-83 33 -83 80zM65 700h116v-700h-116v700z" />
    <glyph glyph-name="Igrave" unicode="&#xcc;" horiz-adv-x="246" 
d="M139 880l54 -117h-100l-84 117h130zM65 700h116v-700h-116v700z" />
    <glyph glyph-name="Imacron" unicode="&#x12a;" horiz-adv-x="246" 
d="M268 853v-90h-290v90h290zM65 700h116v-700h-116v700z" />
    <glyph glyph-name="Iogonek" unicode="&#x12e;" horiz-adv-x="246" 
d="M171 -90h45v-78h-72c-40 0 -80 25 -80 74c0 6 1 14 3 24l16 70h-18v700h116v-700h-18l-14 -60c-1 -3 -1 -6 -1 -8c0 -15 8 -22 23 -22z" />
    <glyph glyph-name="J" unicode="J" horiz-adv-x="543" 
d="M481 700v-490c0 -145 -80 -224 -222 -224c-147 0 -236 82 -236 224v62h116v-62c0 -72 39 -118 117 -118c76 0 109 45 109 118v490h116z" />
    <glyph glyph-name="K" unicode="K" horiz-adv-x="650" 
d="M656 700l-304 -285l296 -415h-141l-237 337l-89 -83v-254h-116v700h116v-292h12l305 292h158z" />
    <glyph glyph-name="uni0136" unicode="&#x136;" horiz-adv-x="650" 
d="M656 700l-304 -285l296 -415h-141l-237 337l-89 -83v-254h-116v700h116v-292h12l305 292h158zM325 -50c49 0 86 -35 86 -85v-109c0 -49 -36 -86 -85 -86h-83v62h70c20 0 28 10 28 29v21c-4 -1 -10 -2 -18 -2c-46 0 -85 33 -85 83c0 52 38 87 87 87z" />
    <glyph glyph-name="L" unicode="L" horiz-adv-x="531" 
d="M65 700h116v-594h334v-106h-450v700z" />
    <glyph glyph-name="Lacute" unicode="&#x139;" horiz-adv-x="531" 
d="M108 880h129l-84 -117h-100zM65 700h116v-594h334v-106h-450v700z" />
    <glyph glyph-name="Lcaron" unicode="&#x13d;" horiz-adv-x="531" 
d="M65 700h116v-594h334v-106h-450v700zM249 700h113l-55 -180h-69z" />
    <glyph glyph-name="uni013B" unicode="&#x13b;" horiz-adv-x="531" 
d="M65 700h116v-594h334v-106h-450v700zM206 -137c0 52 38 87 87 87s86 -35 86 -85v-109c0 -49 -36 -86 -85 -86h-83v62h70c20 0 28 10 28 29v21c-4 -1 -10 -2 -18 -2c-46 0 -85 33 -85 83z" />
    <glyph glyph-name="Ldot" unicode="&#x13f;" horiz-adv-x="531" 
d="M65 700h116v-594h334v-106h-450v700zM304 350c0 50 38 87 86 87c49 0 87 -37 87 -87s-38 -86 -87 -86c-48 0 -86 36 -86 86z" />
    <glyph glyph-name="Lslash" unicode="&#x141;" 
d="M106 700h116v-276l55 29l48 -94l-103 -52v-197h328v-110h-444v248l-46 -23l-48 94l94 46v335z" />
    <glyph glyph-name="M" unicode="M" horiz-adv-x="876" 
d="M65 700h204l163 -579h12l163 579h204v-700h-114v577h-12l-161 -577h-172l-161 577h-12v-577h-114v700z" />
    <glyph glyph-name="N" unicode="N" horiz-adv-x="656" 
d="M65 700h209l189 -593h12v593h116v-700h-210l-188 593h-12v-593h-116v700z" />
    <glyph glyph-name="Nacute" unicode="&#x143;" horiz-adv-x="656" 
d="M311 880h129l-84 -117h-100zM65 700h209l189 -593h12v593h116v-700h-210l-188 593h-12v-593h-116v700z" />
    <glyph glyph-name="Ncaron" unicode="&#x147;" horiz-adv-x="656" 
d="M378 882h115l-98 -117h-137l-98 117h116l45 -58h12zM65 700h209l189 -593h12v593h116v-700h-210l-188 593h-12v-593h-116v700z" />
    <glyph glyph-name="uni0145" unicode="&#x145;" horiz-adv-x="656" 
d="M65 700h209l189 -593h12v593h116v-700h-210l-188 593h-12v-593h-116v700zM241 -137c0 52 38 87 87 87s86 -35 86 -85v-109c0 -49 -36 -86 -85 -86h-83v62h70c20 0 28 10 28 29v21c-4 -1 -10 -2 -18 -2c-46 0 -85 33 -85 83z" />
    <glyph glyph-name="Eng" unicode="&#x14a;" horiz-adv-x="656" 
d="M475 700h116v-806c0 -61 -38 -94 -93 -94h-198v99h146c20 0 29 10 29 32v69h-94l-188 593h-12v-593h-116v700h209l189 -593h12v593z" />
    <glyph glyph-name="Ntilde" unicode="&#xd1;" horiz-adv-x="656" 
d="M137 797l52 65c23 29 46 45 79 45s57 -16 81 -47c10 -13 17 -22 33 -22s24 8 33 20l34 43l67 -53l-51 -65c-23 -28 -45 -45 -79 -45s-57 16 -81 47c-10 13 -17 22 -33 22s-24 -8 -34 -20l-34 -43zM65 700h209l189 -593h12v593h116v-700h-210l-188 593h-12v-593h-116v700z
" />
    <glyph glyph-name="O" unicode="O" horiz-adv-x="638" 
d="M39 426c0 180 106 288 280 288c173 0 280 -108 280 -288v-152c0 -182 -105 -288 -280 -288c-174 0 -280 106 -280 288v152zM155 430v-160c0 -112 53 -179 164 -179c113 0 164 69 164 179v160c0 112 -57 179 -164 179c-108 0 -164 -69 -164 -179z" />
    <glyph glyph-name="Oacute" unicode="&#xd3;" horiz-adv-x="638" 
d="M304 880h129l-84 -117h-100zM39 426c0 180 106 288 280 288c173 0 280 -108 280 -288v-152c0 -182 -105 -288 -280 -288c-174 0 -280 106 -280 288v152zM155 430v-160c0 -112 53 -179 164 -179c113 0 164 69 164 179v160c0 112 -57 179 -164 179
c-108 0 -164 -69 -164 -179z" />
    <glyph glyph-name="Ocircumflex" unicode="&#xd4;" horiz-adv-x="638" 
d="M371 763l-45 58h-12l-45 -58h-116l98 117h137l98 -117h-115zM39 426c0 180 106 288 280 288c173 0 280 -108 280 -288v-152c0 -182 -105 -288 -280 -288c-174 0 -280 106 -280 288v152zM155 430v-160c0 -112 53 -179 164 -179c113 0 164 69 164 179v160
c0 112 -57 179 -164 179c-108 0 -164 -69 -164 -179z" />
    <glyph glyph-name="Odieresis" unicode="&#xd6;" horiz-adv-x="638" 
d="M133 821c0 46 37 80 83 80s82 -34 82 -80c0 -47 -36 -80 -82 -80s-83 33 -83 80zM341 821c0 46 37 80 83 80s82 -34 82 -80c0 -47 -36 -80 -82 -80s-83 33 -83 80zM39 426c0 180 106 288 280 288c173 0 280 -108 280 -288v-152c0 -182 -105 -288 -280 -288
c-174 0 -280 106 -280 288v152zM155 430v-160c0 -112 53 -179 164 -179c113 0 164 69 164 179v160c0 112 -57 179 -164 179c-108 0 -164 -69 -164 -179z" />
    <glyph glyph-name="Ograve" unicode="&#xd2;" horiz-adv-x="638" 
d="M335 880l54 -117h-100l-84 117h130zM39 426c0 180 106 288 280 288c173 0 280 -108 280 -288v-152c0 -182 -105 -288 -280 -288c-174 0 -280 106 -280 288v152zM155 430v-160c0 -112 53 -179 164 -179c113 0 164 69 164 179v160c0 112 -57 179 -164 179
c-108 0 -164 -69 -164 -179z" />
    <glyph glyph-name="Ohungarumlaut" unicode="&#x150;" horiz-adv-x="638" 
d="M237 880h127l-84 -117h-98zM397 880h127l-83 -117h-98zM39 426c0 180 106 288 280 288c173 0 280 -108 280 -288v-152c0 -182 -105 -288 -280 -288c-174 0 -280 106 -280 288v152zM155 430v-160c0 -112 53 -179 164 -179c113 0 164 69 164 179v160
c0 112 -57 179 -164 179c-108 0 -164 -69 -164 -179z" />
    <glyph glyph-name="Omacron" unicode="&#x14c;" horiz-adv-x="638" 
d="M464 853v-90h-290v90h290zM39 426c0 180 106 288 280 288c173 0 280 -108 280 -288v-152c0 -182 -105 -288 -280 -288c-174 0 -280 106 -280 288v152zM155 430v-160c0 -112 53 -179 164 -179c113 0 164 69 164 179v160c0 112 -57 179 -164 179c-108 0 -164 -69 -164 -179
z" />
    <glyph glyph-name="Oslash" unicode="&#xd8;" horiz-adv-x="638" 
d="M481 672c75 -47 118 -132 118 -246v-152c0 -182 -105 -288 -280 -288c-22 0 -43 2 -63 5l-27 -82l-97 30l28 86c-77 46 -121 132 -121 249v152c0 180 106 288 280 288c24 0 46 -2 67 -6l24 71l96 -30zM155 270c0 -57 14 -103 42 -134l156 471c-11 1 -22 2 -34 2
c-108 0 -164 -69 -164 -179v-160zM483 270v160c0 54 -13 98 -40 129l-153 -466c9 -1 19 -2 29 -2c113 0 164 69 164 179z" />
    <glyph glyph-name="Oslashacute" unicode="&#x1fe;" horiz-adv-x="638" 
d="M433 880l-84 -117h-100l55 117h129zM481 672c75 -47 118 -132 118 -246v-152c0 -182 -105 -288 -280 -288c-22 0 -43 2 -63 5l-27 -82l-97 30l28 86c-77 46 -121 132 -121 249v152c0 180 106 288 280 288c24 0 46 -2 67 -6l24 71l96 -30zM155 270c0 -57 14 -103 42 -134
l156 471c-11 1 -22 2 -34 2c-108 0 -164 -69 -164 -179v-160zM483 270v160c0 54 -13 98 -40 129l-153 -466c9 -1 19 -2 29 -2c113 0 164 69 164 179z" />
    <glyph glyph-name="Otilde" unicode="&#xd5;" horiz-adv-x="638" 
d="M130 797l52 65c23 29 46 45 79 45s57 -16 81 -47c10 -13 17 -22 33 -22s24 8 33 20l34 43l67 -53l-51 -65c-23 -28 -45 -45 -79 -45s-57 16 -81 47c-10 13 -17 22 -33 22s-24 -8 -34 -20l-34 -43zM39 426c0 180 106 288 280 288c173 0 280 -108 280 -288v-152
c0 -182 -105 -288 -280 -288c-174 0 -280 106 -280 288v152zM155 430v-160c0 -112 53 -179 164 -179c113 0 164 69 164 179v160c0 112 -57 179 -164 179c-108 0 -164 -69 -164 -179z" />
    <glyph glyph-name="OE" unicode="&#x152;" horiz-adv-x="560" 
d="M393 106h133v-106h-249c-149 0 -238 102 -238 284v132c0 180 89 284 238 284h243v-106h-127v-190h102v-106h-102v-192zM277 104v492c-83 0 -122 -65 -122 -172v-148c0 -109 36 -172 122 -172z" />
    <glyph glyph-name="P" unicode="P" horiz-adv-x="584" 
d="M65 700h280c130 0 220 -85 220 -216c0 -130 -93 -216 -220 -216h-164v-268h-116v700zM181 594v-220h152c72 0 116 41 116 110s-43 110 -116 110h-152z" />
    <glyph glyph-name="Thorn" unicode="&#xde;" horiz-adv-x="584" 
d="M65 700h116v-124h164c130 0 220 -85 220 -216c0 -130 -93 -216 -220 -216h-164v-144h-116v700zM181 468v-216h152c72 0 116 40 116 108s-43 108 -116 108h-152z" />
    <glyph glyph-name="Q" unicode="Q" horiz-adv-x="638" 
d="M319 714c173 0 280 -108 280 -288v-152c0 -161 -82 -262 -222 -284v-37c0 -20 10 -30 28 -30h53v-101h-107c-52 0 -90 37 -90 90v78c-139 22 -222 123 -222 284v152c0 180 106 288 280 288zM483 270v160c0 112 -57 179 -164 179c-108 0 -164 -69 -164 -179v-160
c0 -112 53 -179 164 -179c113 0 164 69 164 179z" />
    <glyph glyph-name="R" unicode="R" horiz-adv-x="616" 
d="M585 486c0 -107 -64 -183 -159 -206l149 -280h-128l-139 273h-127v-273h-116v700h300c130 0 220 -85 220 -214zM181 594v-215h172c72 0 116 40 116 107c0 68 -43 108 -116 108h-172z" />
    <glyph glyph-name="Racute" unicode="&#x154;" horiz-adv-x="616" 
d="M414 880l-84 -117h-100l55 117h129zM585 486c0 -107 -64 -183 -159 -206l149 -280h-128l-139 273h-127v-273h-116v700h300c130 0 220 -85 220 -214zM181 594v-215h172c72 0 116 40 116 107c0 68 -43 108 -116 108h-172z" />
    <glyph glyph-name="Rcaron" unicode="&#x158;" horiz-adv-x="616" 
d="M369 765h-137l-98 117h116l45 -58h12l45 58h115zM585 486c0 -107 -64 -183 -159 -206l149 -280h-128l-139 273h-127v-273h-116v700h300c130 0 220 -85 220 -214zM181 594v-215h172c72 0 116 40 116 107c0 68 -43 108 -116 108h-172z" />
    <glyph glyph-name="uni0156" unicode="&#x156;" horiz-adv-x="616" 
d="M585 486c0 -107 -64 -183 -159 -206l149 -280h-128l-139 273h-127v-273h-116v700h300c130 0 220 -85 220 -214zM181 594v-215h172c72 0 116 40 116 107c0 68 -43 108 -116 108h-172zM310 -50c49 0 86 -35 86 -85v-109c0 -49 -36 -86 -85 -86h-83v62h70c20 0 28 10 28 29
v21c-4 -1 -10 -2 -18 -2c-46 0 -85 33 -85 83c0 52 38 87 87 87z" />
    <glyph glyph-name="S" unicode="S" horiz-adv-x="604" 
d="M298 714c147 0 257 -79 257 -221v-31h-114v23c0 85 -57 126 -143 126c-74 0 -124 -38 -124 -93c0 -65 52 -83 144 -104l27 -6c137 -30 219 -83 219 -207c0 -135 -108 -215 -254 -215c-171 0 -280 96 -280 255v27h115v-21c0 -98 57 -158 167 -158c89 0 137 48 137 107
c0 64 -48 88 -139 107l-27 6c-135 30 -224 78 -224 207c0 122 106 198 239 198z" />
    <glyph glyph-name="Sacute" unicode="&#x15a;" horiz-adv-x="604" 
d="M282 880h129l-84 -117h-100zM298 714c147 0 257 -79 257 -221v-31h-114v23c0 85 -57 126 -143 126c-74 0 -124 -38 -124 -93c0 -65 52 -83 144 -104l27 -6c137 -30 219 -83 219 -207c0 -135 -108 -215 -254 -215c-171 0 -280 96 -280 255v27h115v-21
c0 -98 57 -158 167 -158c89 0 137 48 137 107c0 64 -48 88 -139 107l-27 6c-135 30 -224 78 -224 207c0 122 106 198 239 198z" />
    <glyph glyph-name="Scaron" unicode="&#x160;" horiz-adv-x="604" 
d="M349 882h115l-98 -117h-137l-98 117h116l45 -58h12zM298 714c147 0 257 -79 257 -221v-31h-114v23c0 85 -57 126 -143 126c-74 0 -124 -38 -124 -93c0 -65 52 -83 144 -104l27 -6c137 -30 219 -83 219 -207c0 -135 -108 -215 -254 -215c-171 0 -280 96 -280 255v27h115
v-21c0 -98 57 -158 167 -158c89 0 137 48 137 107c0 64 -48 88 -139 107l-27 6c-135 30 -224 78 -224 207c0 122 106 198 239 198z" />
    <glyph glyph-name="Scedilla" unicode="&#x15e;" horiz-adv-x="604" 
d="M564 201c0 -126 -93 -203 -224 -214l-9 -47h10c9 13 26 25 52 25c42 0 77 -30 77 -81c0 -61 -45 -97 -104 -97c-46 0 -70 17 -89 34l38 54c11 -14 24 -23 45 -23c20 0 36 11 36 31c0 16 -10 28 -25 28c-11 0 -19 -5 -22 -14h-90v10l17 80c-151 12 -246 106 -246 254v27
h115v-21c0 -98 57 -158 167 -158c89 0 137 48 137 107c0 64 -48 88 -139 107l-27 6c-135 30 -224 78 -224 207c0 122 106 198 239 198c147 0 257 -79 257 -221v-31h-114v23c0 85 -57 126 -143 126c-74 0 -124 -38 -124 -93c0 -65 52 -83 144 -104l27 -6
c137 -30 219 -83 219 -207z" />
    <glyph glyph-name="uni0218" unicode="&#x218;" horiz-adv-x="604" 
d="M298 714c147 0 257 -79 257 -221v-31h-114v23c0 85 -57 126 -143 126c-74 0 -124 -38 -124 -93c0 -65 52 -83 144 -104l27 -6c137 -30 219 -83 219 -207c0 -135 -108 -215 -254 -215c-171 0 -280 96 -280 255v27h115v-21c0 -98 57 -158 167 -158c89 0 137 48 137 107
c0 64 -48 88 -139 107l-27 6c-135 30 -224 78 -224 207c0 122 106 198 239 198zM225 -137c0 52 38 87 87 87s86 -35 86 -85v-109c0 -49 -36 -86 -85 -86h-83v62h70c20 0 28 10 28 29v21c-4 -1 -10 -2 -18 -2c-46 0 -85 33 -85 83z" />
    <glyph glyph-name="uni1E9E" unicode="&#x1e9e;" horiz-adv-x="636" 
d="M62 0v426c0 179 108 274 264 274h258v-95l-153 -205c-8 -10 -13 -19 -13 -30c0 -13 9 -21 29 -29l32 -14c68 -30 132 -75 132 -169c0 -97 -67 -172 -190 -172s-198 76 -198 182h118c0 -45 32 -76 80 -76s75 29 75 65c0 39 -34 57 -69 72l-44 19c-56 23 -81 61 -81 110
s26 83 59 125l88 111h-123c-75 0 -148 -42 -148 -164v-430h-116z" />
    <glyph glyph-name="T" unicode="T" horiz-adv-x="582" 
d="M14 700h554v-106h-219v-594h-116v594h-219v106z" />
    <glyph glyph-name="Tbar" unicode="&#x166;" horiz-adv-x="582" 
d="M568 594h-219v-193h104v-97h-104v-304h-116v304h-104v97h104v193h-219v106h554v-106z" />
    <glyph glyph-name="Tcaron" unicode="&#x164;" horiz-adv-x="582" 
d="M343 882h115l-98 -117h-137l-98 117h116l45 -58h12zM14 700h554v-106h-219v-594h-116v594h-219v106z" />
    <glyph glyph-name="uni0162" unicode="&#x162;" horiz-adv-x="582" 
d="M349 0h-27l-12 -60h10c9 13 26 25 52 25c42 0 77 -30 77 -81c0 -61 -45 -97 -104 -97c-46 0 -70 17 -89 34l38 54c11 -14 24 -23 45 -23c20 0 36 11 36 31c0 16 -10 28 -25 28c-11 0 -19 -5 -22 -14h-90v10l20 93h-25v594h-219v106h554v-106h-219v-594z" />
    <glyph glyph-name="uni021A" unicode="&#x21a;" horiz-adv-x="582" 
d="M14 700h554v-106h-219v-594h-116v594h-219v106zM205 -137c0 52 38 87 87 87s86 -35 86 -85v-109c0 -49 -36 -86 -85 -86h-83v62h70c20 0 28 10 28 29v21c-4 -1 -10 -2 -18 -2c-46 0 -85 33 -85 83z" />
    <glyph glyph-name="U" unicode="U" horiz-adv-x="660" 
d="M62 700h116v-461c0 -94 53 -148 152 -148c100 0 152 54 152 148v461h116v-458c0 -161 -97 -256 -268 -256c-170 0 -268 95 -268 256v458z" />
    <glyph glyph-name="Uacute" unicode="&#xda;" horiz-adv-x="660" 
d="M315 880h129l-84 -117h-100zM62 700h116v-461c0 -94 53 -148 152 -148c100 0 152 54 152 148v461h116v-458c0 -161 -97 -256 -268 -256c-170 0 -268 95 -268 256v458z" />
    <glyph glyph-name="Ubreve" unicode="&#x16c;" horiz-adv-x="660" 
d="M371 880h83v-8c0 -72 -49 -117 -124 -117s-124 45 -124 117v8h83v-4c0 -23 14 -40 41 -40s41 17 41 40v4zM62 700h116v-461c0 -94 53 -148 152 -148c100 0 152 54 152 148v461h116v-458c0 -161 -97 -256 -268 -256c-170 0 -268 95 -268 256v458z" />
    <glyph glyph-name="Ucircumflex" unicode="&#xdb;" horiz-adv-x="660" 
d="M382 763l-45 58h-12l-45 -58h-116l98 117h137l98 -117h-115zM62 700h116v-461c0 -94 53 -148 152 -148c100 0 152 54 152 148v461h116v-458c0 -161 -97 -256 -268 -256c-170 0 -268 95 -268 256v458z" />
    <glyph glyph-name="Udieresis" unicode="&#xdc;" horiz-adv-x="660" 
d="M144 821c0 46 37 80 83 80s82 -34 82 -80c0 -47 -36 -80 -82 -80s-83 33 -83 80zM352 821c0 46 37 80 83 80s82 -34 82 -80c0 -47 -36 -80 -82 -80s-83 33 -83 80zM62 700h116v-461c0 -94 53 -148 152 -148c100 0 152 54 152 148v461h116v-458c0 -161 -97 -256 -268 -256
c-170 0 -268 95 -268 256v458z" />
    <glyph glyph-name="Ugrave" unicode="&#xd9;" horiz-adv-x="660" 
d="M346 880l54 -117h-100l-84 117h130zM62 700h116v-461c0 -94 53 -148 152 -148c100 0 152 54 152 148v461h116v-458c0 -161 -97 -256 -268 -256c-170 0 -268 95 -268 256v458z" />
    <glyph glyph-name="Uhungarumlaut" unicode="&#x170;" horiz-adv-x="660" 
d="M248 880h127l-84 -117h-98zM408 880h127l-83 -117h-98zM62 700h116v-461c0 -94 53 -148 152 -148c100 0 152 54 152 148v461h116v-458c0 -161 -97 -256 -268 -256c-170 0 -268 95 -268 256v458z" />
    <glyph glyph-name="Umacron" unicode="&#x16a;" horiz-adv-x="660" 
d="M475 853v-90h-290v90h290zM62 700h116v-461c0 -94 53 -148 152 -148c100 0 152 54 152 148v461h116v-458c0 -161 -97 -256 -268 -256c-170 0 -268 95 -268 256v458z" />
    <glyph glyph-name="Uogonek" unicode="&#x172;" horiz-adv-x="660" 
d="M482 700h116v-458c0 -149 -83 -241 -231 -254l-11 -48c-1 -3 -1 -6 -1 -8c0 -15 8 -22 23 -22h45v-78h-72c-40 0 -80 25 -80 74c0 6 1 14 3 24l13 58c-143 15 -225 107 -225 254v458h116v-461c0 -94 53 -148 152 -148c100 0 152 54 152 148v461z" />
    <glyph glyph-name="Uring" unicode="&#x16e;" horiz-adv-x="660" 
d="M224 841c0 59 47 102 107 102s106 -42 106 -102c0 -62 -48 -103 -106 -103c-59 0 -107 43 -107 103zM297 841c0 -19 14 -34 34 -34s33 15 33 34s-13 33 -33 33s-34 -14 -34 -33zM62 700h116v-461c0 -94 53 -148 152 -148c100 0 152 54 152 148v461h116v-458
c0 -161 -97 -256 -268 -256c-170 0 -268 95 -268 256v458z" />
    <glyph glyph-name="V" unicode="V" horiz-adv-x="608" 
d="M8 700h122l168 -596h12l168 596h122l-205 -700h-182z" />
    <glyph glyph-name="W" unicode="W" horiz-adv-x="856" 
d="M19 700h117l82 -591h12l106 591h184l106 -591h12l82 591h117l-103 -700h-194l-106 591h-12l-106 -591h-193z" />
    <glyph glyph-name="Wacute" unicode="&#x1e82;" horiz-adv-x="856" 
d="M413 880h129l-84 -117h-100zM19 700h117l82 -591h12l106 591h184l106 -591h12l82 591h117l-103 -700h-194l-106 591h-12l-106 -591h-193z" />
    <glyph glyph-name="Wcircumflex" unicode="&#x174;" horiz-adv-x="856" 
d="M480 763l-45 58h-12l-45 -58h-116l98 117h137l98 -117h-115zM19 700h117l82 -591h12l106 591h184l106 -591h12l82 591h117l-103 -700h-194l-106 591h-12l-106 -591h-193z" />
    <glyph glyph-name="Wdieresis" unicode="&#x1e84;" horiz-adv-x="856" 
d="M242 821c0 46 37 80 83 80s82 -34 82 -80c0 -47 -36 -80 -82 -80s-83 33 -83 80zM450 821c0 46 37 80 83 80s82 -34 82 -80c0 -47 -36 -80 -82 -80s-83 33 -83 80zM19 700h117l82 -591h12l106 591h184l106 -591h12l82 591h117l-103 -700h-194l-106 591h-12l-106 -591
h-193z" />
    <glyph glyph-name="Wgrave" unicode="&#x1e80;" horiz-adv-x="856" 
d="M444 880l54 -117h-100l-84 117h130zM19 700h117l82 -591h12l106 591h184l106 -591h12l82 591h117l-103 -700h-194l-106 591h-12l-106 -591h-193z" />
    <glyph glyph-name="X" unicode="X" horiz-adv-x="622" 
d="M19 700h131l155 -263h13l154 263h131l-201 -340v-13l204 -347h-131l-157 270h-13l-157 -270h-132l205 347v13z" />
    <glyph glyph-name="Y" unicode="Y" horiz-adv-x="610" 
d="M1 700h132l165 -311h15l164 311h132l-246 -452v-248h-116v248z" />
    <glyph glyph-name="Yacute" unicode="&#xdd;" horiz-adv-x="610" 
d="M290 880h129l-84 -117h-100zM1 700h132l165 -311h15l164 311h132l-246 -452v-248h-116v248z" />
    <glyph glyph-name="Ycircumflex" unicode="&#x176;" horiz-adv-x="610" 
d="M357 763l-45 58h-12l-45 -58h-116l98 117h137l98 -117h-115zM1 700h132l165 -311h15l164 311h132l-246 -452v-248h-116v248z" />
    <glyph glyph-name="Ydieresis" unicode="&#x178;" horiz-adv-x="610" 
d="M119 821c0 46 37 80 83 80s82 -34 82 -80c0 -47 -36 -80 -82 -80s-83 33 -83 80zM327 821c0 46 37 80 83 80s82 -34 82 -80c0 -47 -36 -80 -82 -80s-83 33 -83 80zM1 700h132l165 -311h15l164 311h132l-246 -452v-248h-116v248z" />
    <glyph glyph-name="Ygrave" unicode="&#x1ef2;" horiz-adv-x="610" 
d="M321 880l54 -117h-100l-84 117h130zM1 700h132l165 -311h15l164 311h132l-246 -452v-248h-116v248z" />
    <glyph glyph-name="Z" unicode="Z" horiz-adv-x="573" 
d="M45 700h490v-101l-356 -494h360v-105h-504v101l356 494h-346v105z" />
    <glyph glyph-name="Zacute" unicode="&#x179;" horiz-adv-x="573" 
d="M279 880h129l-84 -117h-100zM45 700h490v-101l-356 -494h360v-105h-504v101l356 494h-346v105z" />
    <glyph glyph-name="Zcaron" unicode="&#x17d;" horiz-adv-x="573" 
d="M345 882h115l-98 -117h-137l-98 117h116l45 -58h12zM45 700h490v-101l-356 -494h360v-105h-504v101l356 494h-346v105z" />
    <glyph glyph-name="Zdotaccent" unicode="&#x17b;" horiz-adv-x="573" 
d="M211 821c0 46 37 80 83 80s82 -34 82 -80c0 -47 -36 -80 -82 -80s-83 33 -83 80zM45 700h490v-101l-356 -494h360v-105h-504v101l356 494h-346v105z" />
    <glyph glyph-name="A.ss03" horiz-adv-x="618" 
d="M199 700h220l187 -700h-121l-41 161h-270l-41 -161h-121zM202 268h215l-102 395h-12z" />
    <glyph glyph-name="Aacute.ss03" horiz-adv-x="618" 
d="M294 880h129l-84 -117h-100zM199 700h220l187 -700h-121l-41 161h-270l-41 -161h-121zM202 268h215l-102 395h-12z" />
    <glyph glyph-name="Abreve.ss03" horiz-adv-x="618" 
d="M350 880h83v-8c0 -72 -49 -117 -124 -117s-124 45 -124 117v8h83v-4c0 -23 14 -40 41 -40s41 17 41 40v4zM199 700h220l187 -700h-121l-41 161h-270l-41 -161h-121zM202 268h215l-102 395h-12z" />
    <glyph glyph-name="Acircumflex.ss03" horiz-adv-x="618" 
d="M361 763l-45 58h-12l-45 -58h-116l98 117h137l98 -117h-115zM199 700h220l187 -700h-121l-41 161h-270l-41 -161h-121zM202 268h215l-102 395h-12z" />
    <glyph glyph-name="Adieresis.ss03" horiz-adv-x="618" 
d="M123 821c0 46 37 80 83 80s82 -34 82 -80c0 -47 -36 -80 -82 -80s-83 33 -83 80zM331 821c0 46 37 80 83 80s82 -34 82 -80c0 -47 -36 -80 -82 -80s-83 33 -83 80zM199 700h220l187 -700h-121l-41 161h-270l-41 -161h-121zM202 268h215l-102 395h-12z" />
    <glyph glyph-name="Agrave.ss03" horiz-adv-x="618" 
d="M325 880l54 -117h-100l-84 117h130zM199 700h220l187 -700h-121l-41 161h-270l-41 -161h-121zM202 268h215l-102 395h-12z" />
    <glyph glyph-name="Amacron.ss03" horiz-adv-x="618" 
d="M454 853v-90h-290v90h290zM199 700h220l187 -700h-121l-41 161h-270l-41 -161h-121zM202 268h215l-102 395h-12z" />
    <glyph glyph-name="Aogonek.ss03" horiz-adv-x="618" 
d="M595 -90h45v-78h-72c-40 0 -80 25 -80 74c0 6 1 14 3 24l16 70h-22l-41 161h-270l-41 -161h-121l187 700h220l187 -700h-19l-14 -60c-1 -3 -1 -6 -1 -8c0 -15 8 -22 23 -22zM202 268h215l-102 395h-12z" />
    <glyph glyph-name="Aring.ss03" horiz-adv-x="618" 
d="M203 841c0 59 47 102 107 102s106 -42 106 -102c0 -62 -48 -103 -106 -103c-59 0 -107 43 -107 103zM276 841c0 -19 14 -34 34 -34s33 15 33 34s-13 33 -33 33s-34 -14 -34 -33zM199 700h220l187 -700h-121l-41 161h-270l-41 -161h-121zM202 268h215l-102 395h-12z" />
    <glyph glyph-name="Aringacute.ss03" horiz-adv-x="618" 
d="M310 738c-59 0 -107 43 -107 103c0 58 46 101 104 102l27 57h129l-68 -95c13 -17 21 -39 21 -64c0 -62 -48 -103 -106 -103zM310 874c-20 0 -34 -14 -34 -33s14 -34 34 -34s33 15 33 34s-13 33 -33 33zM419 700l187 -700h-121l-41 161h-270l-41 -161h-121l187 700h220z
M202 268h215l-102 395h-12z" />
    <glyph glyph-name="Atilde.ss03" horiz-adv-x="618" 
d="M120 797l52 65c23 29 46 45 79 45s57 -16 81 -47c10 -13 17 -22 33 -22s24 8 33 20l34 43l67 -53l-51 -65c-23 -28 -45 -45 -79 -45s-57 16 -81 47c-10 13 -17 22 -33 22s-24 -8 -34 -20l-34 -43zM199 700h220l187 -700h-121l-41 161h-270l-41 -161h-121zM202 268h215
l-102 395h-12z" />
    <glyph glyph-name="AE.ss03" horiz-adv-x="561" 
d="M394 106h133v-106h-249v162h-114l-34 -162h-120l154 700h357v-106h-127v-190h102v-106h-102v-192zM278 268v395h-12l-81 -395h93z" />
    <glyph glyph-name="AEacute.ss03" horiz-adv-x="561" 
d="M442 880l-84 -117h-100l55 117h129zM394 106h133v-106h-249v162h-114l-34 -162h-120l154 700h357v-106h-127v-190h102v-106h-102v-192zM278 268v395h-12l-81 -395h93z" />
    <glyph glyph-name="M.ss03" horiz-adv-x="876" 
d="M65 700h227l140 -662h12l140 662h227v-700h-114v663h-12l-139 -663h-215l-140 663h-12v-663h-114v700z" />
    <glyph glyph-name="N.ss03" horiz-adv-x="656" 
d="M65 700h232l166 -662h12v662h116v-700h-233l-165 663h-12v-663h-116v700z" />
    <glyph glyph-name="Nacute.ss03" horiz-adv-x="656" 
d="M311 880h129l-84 -117h-100zM65 700h232l166 -662h12v662h116v-700h-233l-165 663h-12v-663h-116v700z" />
    <glyph glyph-name="Ncaron.ss03" horiz-adv-x="656" 
d="M378 882h115l-98 -117h-137l-98 117h116l45 -58h12zM65 700h232l166 -662h12v662h116v-700h-233l-165 663h-12v-663h-116v700z" />
    <glyph glyph-name="uni0145.ss03" horiz-adv-x="656" 
d="M65 700h232l166 -662h12v662h116v-700h-233l-165 663h-12v-663h-116v700zM241 -137c0 52 38 87 87 87s86 -35 86 -85v-109c0 -49 -36 -86 -85 -86h-83v62h70c20 0 28 10 28 29v21c-4 -1 -10 -2 -18 -2c-46 0 -85 33 -85 83z" />
    <glyph glyph-name="Eng.ss03" horiz-adv-x="656" 
d="M475 700h116v-806c0 -61 -38 -94 -93 -94h-198v99h146c20 0 29 10 29 32v69h-113l-169 645h-12v-645h-116v700h228l170 -645h12v645z" />
    <glyph glyph-name="Ntilde.ss03" horiz-adv-x="656" 
d="M137 797l52 65c23 29 46 45 79 45s57 -16 81 -47c10 -13 17 -22 33 -22s24 8 33 20l34 43l67 -53l-51 -65c-23 -28 -45 -45 -79 -45s-57 16 -81 47c-10 13 -17 22 -33 22s-24 -8 -34 -20l-34 -43zM65 700h232l166 -662h12v662h116v-700h-233l-165 663h-12v-663h-116v700z
" />
    <glyph glyph-name="V.ss03" horiz-adv-x="608" 
d="M10 700h122l166 -662h12l166 662h122l-184 -700h-220z" />
    <glyph glyph-name="W.ss03" horiz-adv-x="856" 
d="M23 700h117l74 -662h12l94 662h217l93 -662h12l74 662h117l-86 -700h-219l-94 663h-12l-93 -663h-219z" />
    <glyph glyph-name="Wacute.ss03" horiz-adv-x="856" 
d="M413 880h129l-84 -117h-100zM23 700h117l74 -662h12l94 662h217l93 -662h12l74 662h117l-86 -700h-219l-94 663h-12l-93 -663h-219z" />
    <glyph glyph-name="Wcircumflex.ss03" horiz-adv-x="856" 
d="M480 763l-45 58h-12l-45 -58h-116l98 117h137l98 -117h-115zM23 700h117l74 -662h12l94 662h217l93 -662h12l74 662h117l-86 -700h-219l-94 663h-12l-93 -663h-219z" />
    <glyph glyph-name="Wdieresis.ss03" horiz-adv-x="856" 
d="M242 821c0 46 37 80 83 80s82 -34 82 -80c0 -47 -36 -80 -82 -80s-83 33 -83 80zM450 821c0 46 37 80 83 80s82 -34 82 -80c0 -47 -36 -80 -82 -80s-83 33 -83 80zM23 700h117l74 -662h12l94 662h217l93 -662h12l74 662h117l-86 -700h-219l-94 663h-12l-93 -663h-219z
" />
    <glyph glyph-name="Wgrave.ss03" horiz-adv-x="856" 
d="M444 880l54 -117h-100l-84 117h130zM23 700h117l74 -662h12l94 662h217l93 -662h12l74 662h117l-86 -700h-219l-94 663h-12l-93 -663h-219z" />
    <glyph glyph-name="I.ss04" horiz-adv-x="406" 
d="M35 700h336v-102h-110v-496h110v-102h-336v102h110v496h-110v102z" />
    <glyph glyph-name="IJ.ss04" horiz-adv-x="685" 
d="M35 700h272v-104h-78v-257h-116v257h-78v104zM383 700h284v-104h-78v-386c0 -145 -83 -224 -231 -224c-153 0 -245 82 -245 224v44h116v-44c0 -71 42 -116 126 -116c82 0 118 44 118 116v386h-90v104z" />
    <glyph glyph-name="Iacute.ss04" horiz-adv-x="406" 
d="M188 880h129l-84 -117h-100zM35 700h336v-102h-110v-496h110v-102h-336v102h110v496h-110v102z" />
    <glyph glyph-name="Icircumflex.ss04" horiz-adv-x="406" 
d="M254 763l-45 58h-12l-45 -58h-116l98 117h137l98 -117h-115zM35 700h336v-102h-110v-496h110v-102h-336v102h110v496h-110v102z" />
    <glyph glyph-name="Idieresis.ss04" horiz-adv-x="406" 
d="M16 821c0 46 37 80 83 80s82 -34 82 -80c0 -47 -36 -80 -82 -80s-83 33 -83 80zM224 821c0 46 37 80 83 80s82 -34 82 -80c0 -47 -36 -80 -82 -80s-83 33 -83 80zM35 700h336v-102h-110v-496h110v-102h-336v102h110v496h-110v102z" />
    <glyph glyph-name="Idotaccent.ss04" horiz-adv-x="406" 
d="M121 821c0 46 37 80 83 80s82 -34 82 -80c0 -47 -36 -80 -82 -80s-83 33 -83 80zM35 700h336v-102h-110v-496h110v-102h-336v102h110v496h-110v102z" />
    <glyph glyph-name="Igrave.ss04" horiz-adv-x="406" 
d="M219 880l54 -117h-100l-84 117h130zM35 700h336v-102h-110v-496h110v-102h-336v102h110v496h-110v102z" />
    <glyph glyph-name="Imacron.ss04" horiz-adv-x="406" 
d="M348 853v-90h-290v90h290zM35 700h336v-102h-110v-496h110v-102h-336v102h110v496h-110v102z" />
    <glyph glyph-name="Iogonek.ss04" horiz-adv-x="406" 
d="M371 598h-110v-496h110v-102h-128l-14 -60c-1 -3 -1 -6 -1 -8c0 -15 8 -22 23 -22h45v-78h-72c-40 0 -80 25 -80 74c0 6 1 14 3 24l16 70h-128v102h110v496h-110v102h336v-102z" />
    <glyph glyph-name="J.ss04" horiz-adv-x="577" 
d="M251 700h308v-102h-78v-388c0 -145 -80 -224 -222 -224c-147 0 -236 82 -236 224v62h116v-62c0 -71 39 -116 117 -116c76 0 109 44 109 116v388h-114v102z" />
    <glyph glyph-name="R.ss05" horiz-adv-x="619" 
d="M65 700h299c131 0 215 -81 215 -198c0 -91 -51 -138 -105 -162v-12c51 -3 84 -39 84 -90v-238h-116v218c0 33 -14 54 -54 54h-207v-272h-116v700zM181 594v-216h169c75 0 113 45 113 108s-38 108 -113 108h-169z" />
    <glyph glyph-name="Racute.ss05" horiz-adv-x="619" 
d="M285 880h129l-84 -117h-100zM65 700h299c131 0 215 -81 215 -198c0 -91 -51 -138 -105 -162v-12c51 -3 84 -39 84 -90v-238h-116v218c0 33 -14 54 -54 54h-207v-272h-116v700zM181 594v-216h169c75 0 113 45 113 108s-38 108 -113 108h-169z" />
    <glyph glyph-name="Rcaron.ss05" horiz-adv-x="619" 
d="M352 882h115l-98 -117h-137l-98 117h116l45 -58h12zM65 700h299c131 0 215 -81 215 -198c0 -91 -51 -138 -105 -162v-12c51 -3 84 -39 84 -90v-238h-116v218c0 33 -14 54 -54 54h-207v-272h-116v700zM181 594v-216h169c75 0 113 45 113 108s-38 108 -113 108h-169z" />
    <glyph glyph-name="uni0156.ss05" horiz-adv-x="619" 
d="M65 700h299c131 0 215 -81 215 -198c0 -91 -51 -138 -105 -162v-12c51 -3 84 -39 84 -90v-238h-116v218c0 33 -14 54 -54 54h-207v-272h-116v700zM181 594v-216h169c75 0 113 45 113 108s-38 108 -113 108h-169zM223 -137c0 52 38 87 87 87s86 -35 86 -85v-109
c0 -49 -36 -86 -85 -86h-83v62h70c20 0 28 10 28 29v21c-4 -1 -10 -2 -18 -2c-46 0 -85 33 -85 83z" />
    <glyph glyph-name="a" unicode="a" horiz-adv-x="564" 
d="M47 372c47 75 120 135 240 135c134 0 220 -77 220 -194v-313h-108v74h-14c-18 -39 -61 -88 -164 -88c-111 0 -184 60 -184 152c0 84 65 135 176 146l185 19v13c0 57 -41 95 -115 95c-73 0 -117 -36 -144 -91zM151 143c0 -40 33 -66 93 -66c102 0 154 61 154 137v8
l-161 -17c-52 -5 -86 -22 -86 -62z" />
    <glyph glyph-name="aacute" unicode="&#xe1;" horiz-adv-x="564" 
d="M271 700h125l-86 -130h-97zM47 372c47 75 120 135 240 135c134 0 220 -77 220 -194v-313h-108v74h-14c-18 -39 -61 -88 -164 -88c-111 0 -184 60 -184 152c0 84 65 135 176 146l185 19v13c0 57 -41 95 -115 95c-73 0 -117 -36 -144 -91zM151 143c0 -40 33 -66 93 -66
c102 0 154 61 154 137v8l-161 -17c-52 -5 -86 -22 -86 -62z" />
    <glyph glyph-name="abreve" unicode="&#x103;" horiz-adv-x="564" 
d="M324 700h83v-21c0 -72 -49 -118 -124 -118s-124 46 -124 118v21h83v-17c0 -23 14 -41 41 -41s41 18 41 41v17zM47 372c47 75 120 135 240 135c134 0 220 -77 220 -194v-313h-108v74h-14c-18 -39 -61 -88 -164 -88c-111 0 -184 60 -184 152c0 84 65 135 176 146l185 19v13
c0 57 -41 95 -115 95c-73 0 -117 -36 -144 -91zM151 143c0 -40 33 -66 93 -66c102 0 154 61 154 137v8l-161 -17c-52 -5 -86 -22 -86 -62z" />
    <glyph glyph-name="acircumflex" unicode="&#xe2;" horiz-adv-x="564" 
d="M336 570l-46 68h-12l-46 -68h-112l94 130h139l94 -130h-111zM47 372c47 75 120 135 240 135c134 0 220 -77 220 -194v-313h-108v74h-14c-18 -39 -61 -88 -164 -88c-111 0 -184 60 -184 152c0 84 65 135 176 146l185 19v13c0 57 -41 95 -115 95c-73 0 -117 -36 -144 -91z
M151 143c0 -40 33 -66 93 -66c102 0 154 61 154 137v8l-161 -17c-52 -5 -86 -22 -86 -62z" />
    <glyph glyph-name="adieresis" unicode="&#xe4;" horiz-adv-x="564" 
d="M101 640c0 47 37 80 83 80s82 -33 82 -80c0 -46 -36 -80 -82 -80s-83 34 -83 80zM301 640c0 47 37 80 83 80s82 -33 82 -80c0 -46 -36 -80 -82 -80s-83 34 -83 80zM47 372c47 75 120 135 240 135c134 0 220 -77 220 -194v-313h-108v74h-14c-18 -39 -61 -88 -164 -88
c-111 0 -184 60 -184 152c0 84 65 135 176 146l185 19v13c0 57 -41 95 -115 95c-73 0 -117 -36 -144 -91zM151 143c0 -40 33 -66 93 -66c102 0 154 61 154 137v8l-161 -17c-52 -5 -86 -22 -86 -62z" />
    <glyph glyph-name="agrave" unicode="&#xe0;" horiz-adv-x="564" 
d="M296 700l57 -130h-97l-86 130h126zM47 372c47 75 120 135 240 135c134 0 220 -77 220 -194v-313h-108v74h-14c-18 -39 -61 -88 -164 -88c-111 0 -184 60 -184 152c0 84 65 135 176 146l185 19v13c0 57 -41 95 -115 95c-73 0 -117 -36 -144 -91zM151 143
c0 -40 33 -66 93 -66c102 0 154 61 154 137v8l-161 -17c-52 -5 -86 -22 -86 -62z" />
    <glyph glyph-name="amacron" unicode="&#x101;" horiz-adv-x="564" 
d="M428 660v-90h-290v90h290zM47 372c47 75 120 135 240 135c134 0 220 -77 220 -194v-313h-108v74h-14c-18 -39 -61 -88 -164 -88c-111 0 -184 60 -184 152c0 84 65 135 176 146l185 19v13c0 57 -41 95 -115 95c-73 0 -117 -36 -144 -91zM151 143c0 -40 33 -66 93 -66
c102 0 154 61 154 137v8l-161 -17c-52 -5 -86 -22 -86 -62z" />
    <glyph glyph-name="aogonek" unicode="&#x105;" horiz-adv-x="564" 
d="M501 -90h45v-78h-72c-40 0 -80 25 -80 74c0 6 1 14 3 24l16 70h-14v74h-14c-18 -39 -61 -88 -164 -88c-111 0 -184 60 -184 152c0 84 65 135 176 146l185 19v13c0 57 -41 95 -115 95c-73 0 -117 -36 -144 -91l-92 52c47 75 120 135 240 135c134 0 220 -77 220 -194v-313
h-14l-14 -60c-1 -3 -1 -6 -1 -8c0 -15 8 -22 23 -22zM398 214v8l-161 -17c-52 -5 -86 -22 -86 -62s33 -66 93 -66c102 0 154 61 154 137z" />
    <glyph glyph-name="aring" unicode="&#xe5;" horiz-adv-x="564" 
d="M177 639c0 60 47 103 107 103s106 -42 106 -103s-48 -102 -106 -102c-59 0 -107 43 -107 102zM250 639c0 -19 14 -33 34 -33s33 14 33 33s-13 34 -33 34s-34 -15 -34 -34zM47 372c47 75 120 135 240 135c134 0 220 -77 220 -194v-313h-108v74h-14
c-18 -39 -61 -88 -164 -88c-111 0 -184 60 -184 152c0 84 65 135 176 146l185 19v13c0 57 -41 95 -115 95c-73 0 -117 -36 -144 -91zM151 143c0 -40 33 -66 93 -66c102 0 154 61 154 137v8l-161 -17c-52 -5 -86 -22 -86 -62z" />
    <glyph glyph-name="aringacute" unicode="&#x1fb;" horiz-adv-x="564" 
d="M284 537c-59 0 -107 43 -107 102c0 58 45 101 102 103l39 88h126l-80 -121c16 -18 26 -42 26 -70c0 -61 -48 -102 -106 -102zM284 673c-20 0 -34 -15 -34 -34s14 -33 34 -33s33 14 33 33s-13 34 -33 34zM287 507c134 0 220 -77 220 -194v-313h-108v74h-14
c-18 -39 -61 -88 -164 -88c-111 0 -184 60 -184 152c0 84 65 135 176 146l185 19v13c0 57 -41 95 -115 95c-73 0 -117 -36 -144 -91l-92 52c47 75 120 135 240 135zM398 214v8l-161 -17c-52 -5 -86 -22 -86 -62s33 -66 93 -66c102 0 154 61 154 137z" />
    <glyph glyph-name="atilde" unicode="&#xe3;" horiz-adv-x="564" 
d="M94 615l52 64c23 29 47 45 81 45c33 0 55 -16 79 -47c10 -12 17 -22 33 -22s24 8 33 21l34 42l67 -53l-51 -64c-23 -29 -47 -45 -81 -45c-33 0 -55 16 -79 47c-10 12 -17 22 -33 22s-24 -8 -34 -21l-34 -42zM47 372c47 75 120 135 240 135c134 0 220 -77 220 -194v-313
h-108v74h-14c-18 -39 -61 -88 -164 -88c-111 0 -184 60 -184 152c0 84 65 135 176 146l185 19v13c0 57 -41 95 -115 95c-73 0 -117 -36 -144 -91zM151 143c0 -40 33 -66 93 -66c102 0 154 61 154 137v8l-161 -17c-52 -5 -86 -22 -86 -62z" />
    <glyph glyph-name="ae" unicode="&#xe6;" horiz-adv-x="585" 
d="M557 211h-216v-125c55 10 88 36 111 77l81 -64c-39 -48 -111 -113 -248 -113c-146 0 -248 60 -248 164c0 101 93 143 187 143h13v114c-43 -4 -90 -39 -113 -81l-77 61c47 62 119 120 239 120c162 0 271 -105 271 -253v-43zM443 293c-5 57 -40 98 -102 113v-113h102z
M221 86h16v125h-16c-39 0 -76 -20 -76 -62c0 -41 37 -63 76 -63z" />
    <glyph glyph-name="aeacute" unicode="&#x1fd;" horiz-adv-x="585" 
d="M402 700l-86 -130h-97l58 130h125zM557 211h-216v-125c55 10 88 36 111 77l81 -64c-39 -48 -111 -113 -248 -113c-146 0 -248 60 -248 164c0 101 93 143 187 143h13v114c-43 -4 -90 -39 -113 -81l-77 61c47 62 119 120 239 120c162 0 271 -105 271 -253v-43zM443 293
c-5 57 -40 98 -102 113v-113h102zM221 86h16v125h-16c-39 0 -76 -20 -76 -62c0 -41 37 -63 76 -63z" />
    <glyph glyph-name="b" unicode="b" horiz-adv-x="609" 
d="M63 700h110v-280h12c27 43 71 87 163 87c127 0 229 -108 229 -260s-102 -261 -229 -261c-92 0 -136 44 -163 88h-14v-74h-108v700zM319 409c-87 0 -146 -61 -146 -162s59 -163 146 -163c85 0 148 59 148 163s-63 162 -148 162z" />
    <glyph glyph-name="c" unicode="c" horiz-adv-x="561" 
d="M32 247c0 152 111 260 256 260c135 0 221 -79 244 -190l-108 -25c-8 64 -53 116 -135 116c-85 0 -147 -64 -147 -161s60 -162 148 -162c85 0 122 52 135 116l108 -25c-23 -103 -102 -190 -244 -190c-146 0 -257 109 -257 261z" />
    <glyph glyph-name="cacute" unicode="&#x107;" horiz-adv-x="561" 
d="M278 700h125l-86 -130h-97zM32 247c0 152 111 260 256 260c135 0 221 -79 244 -190l-108 -25c-8 64 -53 116 -135 116c-85 0 -147 -64 -147 -161s60 -162 148 -162c85 0 122 52 135 116l108 -25c-23 -103 -102 -190 -244 -190c-146 0 -257 109 -257 261z" />
    <glyph glyph-name="ccaron" unicode="&#x10d;" horiz-adv-x="561" 
d="M343 700h111l-94 -130h-139l-94 130h112l46 -67h12zM32 247c0 152 111 260 256 260c135 0 221 -79 244 -190l-108 -25c-8 64 -53 116 -135 116c-85 0 -147 -64 -147 -161s60 -162 148 -162c85 0 122 52 135 116l108 -25c-23 -103 -102 -190 -244 -190
c-146 0 -257 109 -257 261z" />
    <glyph glyph-name="ccedilla" unicode="&#xe7;" horiz-adv-x="561" 
d="M533 176c-21 -95 -91 -177 -214 -189l-9 -47h10c9 13 26 25 52 25c42 0 77 -30 77 -81c0 -61 -45 -97 -104 -97c-46 0 -70 17 -89 34l38 54c11 -14 24 -23 45 -23c20 0 36 11 36 31c0 16 -10 28 -25 28c-11 0 -19 -5 -22 -14h-90v10l17 81c-129 15 -223 119 -223 259
c0 152 111 260 256 260c135 0 221 -79 244 -190l-108 -25c-8 64 -53 116 -135 116c-85 0 -147 -64 -147 -161s60 -162 148 -162c85 0 122 52 135 116z" />
    <glyph glyph-name="cdotaccent" unicode="&#x10b;" horiz-adv-x="561" 
d="M208 640c0 47 37 80 83 80s82 -33 82 -80c0 -46 -36 -80 -82 -80s-83 34 -83 80zM32 247c0 152 111 260 256 260c135 0 221 -79 244 -190l-108 -25c-8 64 -53 116 -135 116c-85 0 -147 -64 -147 -161s60 -162 148 -162c85 0 122 52 135 116l108 -25
c-23 -103 -102 -190 -244 -190c-146 0 -257 109 -257 261z" />
    <glyph glyph-name="d" unicode="d" horiz-adv-x="609" 
d="M546 700v-700h-108v74h-14c-26 -44 -71 -88 -163 -88c-126 0 -229 109 -229 261s103 260 229 260c92 0 137 -44 163 -87h12v280h110zM290 409c-85 0 -148 -58 -148 -162s63 -163 148 -163c87 0 146 62 146 163s-59 162 -146 162z" />
    <glyph glyph-name="eth" unicode="&#xf0;" horiz-adv-x="583" 
d="M126 626l19 101c36 -4 70 -11 104 -22l18 47l87 -29l-19 -50c143 -76 212 -218 212 -404c0 -180 -114 -283 -260 -283c-144 0 -255 107 -255 261s101 258 229 258c74 0 114 -26 139 -58h12c-19 61 -60 102 -111 129l-18 -46l-86 29l18 49c-28 8 -58 14 -89 18zM142 247
c0 -98 59 -160 146 -160s146 62 146 160s-59 159 -146 159s-146 -61 -146 -159z" />
    <glyph glyph-name="dcaron" unicode="&#x10f;" horiz-adv-x="692" 
d="M546 700v-700h-108v74h-14c-26 -44 -71 -88 -163 -88c-126 0 -229 109 -229 261s103 260 229 260c92 0 137 -44 163 -87h12v280h110zM607 700h113l-55 -180h-69zM290 409c-85 0 -148 -58 -148 -162s63 -163 148 -163c87 0 146 62 146 163s-59 162 -146 162z" />
    <glyph glyph-name="dcroat" unicode="&#x111;" horiz-adv-x="609" 
d="M624 634v-79h-78v-555h-108v74h-14c-26 -44 -71 -88 -163 -88c-126 0 -229 109 -229 261s103 260 229 260c92 0 137 -44 163 -87h12v135h-116v79h116v66h110v-66h78zM290 84c87 0 146 62 146 163s-59 162 -146 162c-85 0 -148 -58 -148 -162s63 -163 148 -163z" />
    <glyph glyph-name="e" unicode="e" horiz-adv-x="547" 
d="M32 251c0 147 103 257 247 257s240 -103 240 -249v-48h-373c5 -77 60 -130 140 -130c71 0 110 38 132 81l91 -52c-36 -56 -96 -124 -221 -124c-150 0 -256 114 -256 265zM146 293h260c-5 74 -52 120 -128 120c-78 0 -123 -46 -132 -120z" />
    <glyph glyph-name="eacute" unicode="&#xe9;" horiz-adv-x="547" 
d="M267 700h125l-86 -130h-97zM32 251c0 147 103 257 247 257s240 -103 240 -249v-48h-373c5 -77 60 -130 140 -130c71 0 110 38 132 81l91 -52c-36 -56 -96 -124 -221 -124c-150 0 -256 114 -256 265zM146 293h260c-5 74 -52 120 -128 120c-78 0 -123 -46 -132 -120z" />
    <glyph glyph-name="ecaron" unicode="&#x11b;" horiz-adv-x="547" 
d="M332 700h111l-94 -130h-139l-94 130h112l46 -67h12zM32 251c0 147 103 257 247 257s240 -103 240 -249v-48h-373c5 -77 60 -130 140 -130c71 0 110 38 132 81l91 -52c-36 -56 -96 -124 -221 -124c-150 0 -256 114 -256 265zM146 293h260c-5 74 -52 120 -128 120
c-78 0 -123 -46 -132 -120z" />
    <glyph glyph-name="ecircumflex" unicode="&#xea;" horiz-adv-x="547" 
d="M332 570l-46 68h-12l-46 -68h-112l94 130h139l94 -130h-111zM32 251c0 147 103 257 247 257s240 -103 240 -249v-48h-373c5 -77 60 -130 140 -130c71 0 110 38 132 81l91 -52c-36 -56 -96 -124 -221 -124c-150 0 -256 114 -256 265zM146 293h260c-5 74 -52 120 -128 120
c-78 0 -123 -46 -132 -120z" />
    <glyph glyph-name="edieresis" unicode="&#xeb;" horiz-adv-x="547" 
d="M97 640c0 47 37 80 83 80s82 -33 82 -80c0 -46 -36 -80 -82 -80s-83 34 -83 80zM297 640c0 47 37 80 83 80s82 -33 82 -80c0 -46 -36 -80 -82 -80s-83 34 -83 80zM32 251c0 147 103 257 247 257s240 -103 240 -249v-48h-373c5 -77 60 -130 140 -130c71 0 110 38 132 81
l91 -52c-36 -56 -96 -124 -221 -124c-150 0 -256 114 -256 265zM146 293h260c-5 74 -52 120 -128 120c-78 0 -123 -46 -132 -120z" />
    <glyph glyph-name="edotaccent" unicode="&#x117;" horiz-adv-x="547" 
d="M197 640c0 47 37 80 83 80s82 -33 82 -80c0 -46 -36 -80 -82 -80s-83 34 -83 80zM32 251c0 147 103 257 247 257s240 -103 240 -249v-48h-373c5 -77 60 -130 140 -130c71 0 110 38 132 81l91 -52c-36 -56 -96 -124 -221 -124c-150 0 -256 114 -256 265zM146 293h260
c-5 74 -52 120 -128 120c-78 0 -123 -46 -132 -120z" />
    <glyph glyph-name="egrave" unicode="&#xe8;" horiz-adv-x="547" 
d="M292 700l57 -130h-97l-86 130h126zM32 251c0 147 103 257 247 257s240 -103 240 -249v-48h-373c5 -77 60 -130 140 -130c71 0 110 38 132 81l91 -52c-36 -56 -96 -124 -221 -124c-150 0 -256 114 -256 265zM146 293h260c-5 74 -52 120 -128 120c-78 0 -123 -46 -132 -120
z" />
    <glyph glyph-name="emacron" unicode="&#x113;" horiz-adv-x="547" 
d="M424 660v-90h-290v90h290zM32 251c0 147 103 257 247 257s240 -103 240 -249v-48h-373c5 -77 60 -130 140 -130c71 0 110 38 132 81l91 -52c-36 -56 -96 -124 -221 -124c-150 0 -256 114 -256 265zM146 293h260c-5 74 -52 120 -128 120c-78 0 -123 -46 -132 -120z" />
    <glyph glyph-name="eogonek" unicode="&#x119;" horiz-adv-x="547" 
d="M519 259v-48h-373c5 -77 60 -130 140 -130c71 0 110 38 132 81l91 -52c-33 -51 -86 -112 -190 -123l-11 -47c-1 -3 -1 -6 -1 -8c0 -15 8 -22 23 -22h45v-78h-72c-40 0 -80 25 -80 74c0 6 1 14 3 24l14 60c-124 22 -208 127 -208 261c0 147 103 257 247 257
s240 -103 240 -249zM146 293h260c-5 74 -52 120 -128 120c-78 0 -123 -46 -132 -120z" />
    <glyph glyph-name="f" unicode="f" horiz-adv-x="407" 
d="M15 493h131v113c0 55 38 94 92 94h127v-95h-82c-18 0 -27 -9 -27 -29v-83h135v-95h-135v-398h-110v398h-131v95z" />
    <glyph glyph-name="g" unicode="g" horiz-adv-x="609" 
d="M438 493h108v-477c0 -134 -96 -230 -248 -230c-134 0 -210 63 -259 138l95 57c27 -52 77 -99 157 -99c84 0 145 44 145 139v67h-12c-26 -44 -71 -88 -163 -88c-126 0 -229 105 -229 254c0 148 103 253 229 253c92 0 137 -44 163 -87h14v73zM290 98c87 0 146 58 146 156
c0 97 -59 155 -146 155c-85 0 -148 -55 -148 -155c0 -101 63 -156 148 -156z" />
    <glyph glyph-name="gbreve" unicode="&#x11f;" horiz-adv-x="609" 
d="M306 561c-75 0 -124 46 -124 118v21h83v-17c0 -23 14 -41 41 -41s41 18 41 41v17h83v-21c0 -72 -49 -118 -124 -118zM438 493h108v-477c0 -134 -96 -230 -248 -230c-134 0 -210 63 -259 138l95 57c27 -52 77 -99 157 -99c84 0 145 44 145 139v67h-12
c-26 -44 -71 -88 -163 -88c-126 0 -229 105 -229 254c0 148 103 253 229 253c92 0 137 -44 163 -87h14v73zM290 98c87 0 146 58 146 156c0 97 -59 155 -146 155c-85 0 -148 -55 -148 -155c0 -101 63 -156 148 -156z" />
    <glyph glyph-name="uni0123" unicode="&#x123;" horiz-adv-x="609" 
d="M306 554c-50 0 -87 34 -87 85v108c0 49 36 86 85 86h83v-62h-70c-19 0 -28 -9 -28 -29v-20c4 1 10 2 18 2c47 0 85 -33 85 -83c0 -53 -38 -87 -86 -87zM438 493h108v-477c0 -134 -96 -230 -248 -230c-134 0 -210 63 -259 138l95 57c27 -52 77 -99 157 -99
c84 0 145 44 145 139v67h-12c-26 -44 -71 -88 -163 -88c-126 0 -229 105 -229 254c0 148 103 253 229 253c92 0 137 -44 163 -87h14v73zM290 98c87 0 146 58 146 156c0 97 -59 155 -146 155c-85 0 -148 -55 -148 -155c0 -101 63 -156 148 -156z" />
    <glyph glyph-name="gdotaccent" unicode="&#x121;" horiz-adv-x="609" 
d="M306 560c-46 0 -83 34 -83 80c0 47 37 80 83 80s82 -33 82 -80c0 -46 -36 -80 -82 -80zM438 493h108v-477c0 -134 -96 -230 -248 -230c-134 0 -210 63 -259 138l95 57c27 -52 77 -99 157 -99c84 0 145 44 145 139v67h-12c-26 -44 -71 -88 -163 -88
c-126 0 -229 105 -229 254c0 148 103 253 229 253c92 0 137 -44 163 -87h14v73zM290 98c87 0 146 58 146 156c0 97 -59 155 -146 155c-85 0 -148 -55 -148 -155c0 -101 63 -156 148 -156z" />
    <glyph glyph-name="h" unicode="h" horiz-adv-x="595" 
d="M63 700h110v-288h12c22 46 67 89 161 89c107 0 192 -73 192 -205v-296h-110v286c0 77 -43 119 -119 119c-86 0 -136 -54 -136 -149v-256h-110v700z" />
    <glyph glyph-name="hbar" unicode="&#x127;" horiz-adv-x="595" 
d="M346 501c107 0 192 -73 192 -205v-296h-110v286c0 77 -43 119 -119 119c-86 0 -136 -54 -136 -149v-256h-110v555h-78v79h78v66h110v-66h116v-79h-116v-143h12c22 46 67 89 161 89z" />
    <glyph glyph-name="i" unicode="i" horiz-adv-x="236" 
d="M35 640c0 47 37 80 83 80s82 -33 82 -80c0 -46 -36 -80 -82 -80s-83 34 -83 80zM173 493v-493h-110v493h110z" />
    <glyph glyph-name="dotlessi" unicode="&#x131;" horiz-adv-x="236" 
d="M173 493v-493h-110v493h110z" />
    <glyph glyph-name="iacute" unicode="&#xed;" horiz-adv-x="236" 
d="M106 700h125l-86 -130h-97zM173 493v-493h-110v493h110z" />
    <glyph glyph-name="icircumflex" unicode="&#xee;" horiz-adv-x="236" 
d="M170 570l-46 68h-12l-46 -68h-112l94 130h139l94 -130h-111zM173 493v-493h-110v493h110z" />
    <glyph glyph-name="idieresis" unicode="&#xef;" horiz-adv-x="236" 
d="M-65 640c0 47 36 80 83 80c46 0 82 -33 82 -80c0 -46 -36 -80 -82 -80c-47 0 -83 34 -83 80zM135 640c0 47 37 80 83 80s82 -33 82 -80c0 -46 -36 -80 -82 -80s-83 34 -83 80zM173 493v-493h-110v493h110z" />
    <glyph glyph-name="i.loclTRK" horiz-adv-x="236" 
d="M35 640c0 47 37 80 83 80s82 -33 82 -80c0 -46 -36 -80 -82 -80s-83 34 -83 80zM173 493v-493h-110v493h110z" />
    <glyph glyph-name="igrave" unicode="&#xec;" horiz-adv-x="236" 
d="M131 700l57 -130h-97l-86 130h126zM173 493v-493h-110v493h110z" />
    <glyph glyph-name="ij" unicode="&#x133;" horiz-adv-x="474" 
d="M35 640c0 47 37 80 83 80s82 -33 82 -80c0 -46 -36 -80 -82 -80s-83 34 -83 80zM274 640c0 47 36 80 82 80s83 -33 83 -80c0 -46 -37 -80 -83 -80s-82 34 -82 80zM173 493v-493h-110v493h110zM411 493v-603c0 -53 -38 -90 -90 -90h-134v94h86c18 0 28 10 28 30v569h110z
" />
    <glyph glyph-name="imacron" unicode="&#x12b;" horiz-adv-x="236" 
d="M263 660v-90h-290v90h290zM173 493v-493h-110v493h110z" />
    <glyph glyph-name="iogonek" unicode="&#x12f;" horiz-adv-x="236" 
d="M200 640c0 -46 -36 -80 -82 -80s-83 34 -83 80c0 47 37 80 83 80s82 -33 82 -80zM166 -90h45v-78h-72c-40 0 -80 25 -80 74c0 6 1 14 3 24l16 70h-15v493h110v-493h-15l-14 -60c-1 -3 -1 -6 -1 -8c0 -15 8 -22 23 -22z" />
    <glyph glyph-name="j" unicode="j" horiz-adv-x="238" 
d="M37 640c0 47 37 80 83 80s82 -33 82 -80c0 -46 -36 -80 -82 -80s-83 34 -83 80zM175 493v-603c0 -53 -38 -90 -90 -90h-134v94h86c18 0 28 10 28 30v569h110z" />
    <glyph glyph-name="uni0237" unicode="&#x237;" horiz-adv-x="238" 
d="M175 493v-603c0 -53 -38 -90 -90 -90h-134v94h86c18 0 28 10 28 30v569h110z" />
    <glyph glyph-name="uni006A0301" horiz-adv-x="238" 
d="M108 700h125l-86 -130h-97zM175 493v-603c0 -53 -38 -90 -90 -90h-134v94h86c18 0 28 10 28 30v569h110z" />
    <glyph glyph-name="k" unicode="k" horiz-adv-x="573" 
d="M565 493l-224 -188l218 -305h-129l-168 239l-89 -74v-165h-110v700h110v-395h12l223 188h157z" />
    <glyph glyph-name="uni0137" unicode="&#x137;" horiz-adv-x="573" 
d="M565 493l-224 -188l218 -305h-129l-168 239l-89 -74v-165h-110v700h110v-395h12l223 188h157zM297 -50c49 0 86 -35 86 -85v-109c0 -49 -36 -86 -85 -86h-83v62h70c20 0 28 10 28 29v21c-4 -1 -10 -2 -18 -2c-46 0 -85 33 -85 83c0 52 38 87 87 87z" />
    <glyph glyph-name="l" unicode="l" horiz-adv-x="236" 
d="M173 700v-700h-110v700h110z" />
    <glyph glyph-name="lacute" unicode="&#x13a;" horiz-adv-x="236" 
d="M103 880h129l-84 -117h-100zM173 700v-700h-110v700h110z" />
    <glyph glyph-name="lcaron" unicode="&#x13e;" horiz-adv-x="316" 
d="M173 700v-700h-110v700h110zM231 700h113l-55 -180h-69z" />
    <glyph glyph-name="uni013C" unicode="&#x13c;" horiz-adv-x="236" 
d="M173 700v-700h-110v700h110zM31 -137c0 52 38 87 87 87s86 -35 86 -85v-109c0 -49 -36 -86 -85 -86h-83v62h70c20 0 28 10 28 29v21c-4 -1 -10 -2 -18 -2c-46 0 -85 33 -85 83z" />
    <glyph glyph-name="ldot" unicode="&#x140;" horiz-adv-x="413" 
d="M173 700v-700h-110v700h110zM240 261c0 50 38 87 87 87c48 0 86 -37 86 -87s-38 -86 -86 -86c-49 0 -87 36 -87 86z" />
    <glyph glyph-name="lslash" unicode="&#x142;" horiz-adv-x="336" 
d="M326 363l-103 -47v-316h-110v266l-65 -29l-38 79l103 47v337h110v-287l65 29z" />
    <glyph glyph-name="m" unicode="m" horiz-adv-x="829" 
d="M63 493h108v-69h14c23 45 66 77 133 77s111 -35 134 -83h14c21 44 62 83 141 83c89 0 165 -65 165 -167v-334h-110v326c0 51 -38 80 -91 80c-56 0 -98 -34 -98 -102v-304h-110v326c0 51 -36 80 -89 80c-57 0 -101 -34 -101 -102v-304h-110v493z" />
    <glyph glyph-name="n" unicode="n" horiz-adv-x="595" 
d="M63 493h108v-81h14c22 46 67 89 161 89c107 0 192 -73 192 -205v-296h-110v286c0 77 -43 119 -119 119c-86 0 -136 -54 -136 -149v-256h-110v493z" />
    <glyph glyph-name="nacute" unicode="&#x144;" horiz-adv-x="595" 
d="M286 700h125l-86 -130h-97zM63 493h108v-81h14c22 46 67 89 161 89c107 0 192 -73 192 -205v-296h-110v286c0 77 -43 119 -119 119c-86 0 -136 -54 -136 -149v-256h-110v493z" />
    <glyph glyph-name="ncaron" unicode="&#x148;" horiz-adv-x="595" 
d="M351 700h111l-94 -130h-139l-94 130h112l46 -67h12zM63 493h108v-81h14c22 46 67 89 161 89c107 0 192 -73 192 -205v-296h-110v286c0 77 -43 119 -119 119c-86 0 -136 -54 -136 -149v-256h-110v493z" />
    <glyph glyph-name="uni0146" unicode="&#x146;" horiz-adv-x="595" 
d="M63 493h108v-81h14c22 46 67 89 161 89c107 0 192 -73 192 -205v-296h-110v286c0 77 -43 119 -119 119c-86 0 -136 -54 -136 -149v-256h-110v493zM214 -137c0 52 38 87 87 87s86 -35 86 -85v-109c0 -49 -36 -86 -85 -86h-83v62h70c20 0 28 10 28 29v21
c-4 -1 -10 -2 -18 -2c-46 0 -85 33 -85 83z" />
    <glyph glyph-name="eng" unicode="&#x14b;" horiz-adv-x="595" 
d="M347 507c109 0 191 -71 191 -202v-411c0 -61 -38 -94 -93 -94h-131v99h85c20 0 29 10 29 32v362c0 77 -43 117 -119 117c-87 0 -136 -56 -136 -149v-261h-110v493h108v-75h14c22 46 68 89 162 89z" />
    <glyph glyph-name="ntilde" unicode="&#xf1;" horiz-adv-x="595" 
d="M109 615l52 64c23 29 47 45 81 45c33 0 55 -16 79 -47c10 -12 17 -22 33 -22s24 8 33 21l34 42l67 -53l-51 -64c-23 -29 -47 -45 -81 -45c-33 0 -55 16 -79 47c-10 12 -17 22 -33 22s-24 -8 -34 -21l-34 -42zM63 493h108v-81h14c22 46 67 89 161 89
c107 0 192 -73 192 -205v-296h-110v286c0 77 -43 119 -119 119c-86 0 -136 -54 -136 -149v-256h-110v493z" />
    <glyph glyph-name="o" unicode="o" horiz-adv-x="576" 
d="M32 247c0 154 111 260 256 260s256 -106 256 -260s-111 -261 -256 -261s-256 107 -256 261zM142 247c0 -99 59 -162 146 -162s146 63 146 162s-59 161 -146 161s-146 -62 -146 -161z" />
    <glyph glyph-name="oacute" unicode="&#xf3;" horiz-adv-x="576" 
d="M276 700h125l-86 -130h-97zM32 247c0 154 111 260 256 260s256 -106 256 -260s-111 -261 -256 -261s-256 107 -256 261zM142 247c0 -99 59 -162 146 -162s146 63 146 162s-59 161 -146 161s-146 -62 -146 -161z" />
    <glyph glyph-name="ocircumflex" unicode="&#xf4;" horiz-adv-x="576" 
d="M341 570l-46 68h-12l-46 -68h-112l94 130h139l94 -130h-111zM32 247c0 154 111 260 256 260s256 -106 256 -260s-111 -261 -256 -261s-256 107 -256 261zM142 247c0 -99 59 -162 146 -162s146 63 146 162s-59 161 -146 161s-146 -62 -146 -161z" />
    <glyph glyph-name="odieresis" unicode="&#xf6;" horiz-adv-x="576" 
d="M106 640c0 47 37 80 83 80s82 -33 82 -80c0 -46 -36 -80 -82 -80s-83 34 -83 80zM306 640c0 47 37 80 83 80s82 -33 82 -80c0 -46 -36 -80 -82 -80s-83 34 -83 80zM32 247c0 154 111 260 256 260s256 -106 256 -260s-111 -261 -256 -261s-256 107 -256 261zM142 247
c0 -99 59 -162 146 -162s146 63 146 162s-59 161 -146 161s-146 -62 -146 -161z" />
    <glyph glyph-name="ograve" unicode="&#xf2;" horiz-adv-x="576" 
d="M301 700l57 -130h-97l-86 130h126zM32 247c0 154 111 260 256 260s256 -106 256 -260s-111 -261 -256 -261s-256 107 -256 261zM142 247c0 -99 59 -162 146 -162s146 63 146 162s-59 161 -146 161s-146 -62 -146 -161z" />
    <glyph glyph-name="ohungarumlaut" unicode="&#x151;" horiz-adv-x="576" 
d="M204 700h123l-86 -130h-95zM359 700h124l-86 -130h-95zM32 247c0 154 111 260 256 260s256 -106 256 -260s-111 -261 -256 -261s-256 107 -256 261zM142 247c0 -99 59 -162 146 -162s146 63 146 162s-59 161 -146 161s-146 -62 -146 -161z" />
    <glyph glyph-name="omacron" unicode="&#x14d;" horiz-adv-x="576" 
d="M433 660v-90h-290v90h290zM32 247c0 154 111 260 256 260s256 -106 256 -260s-111 -261 -256 -261s-256 107 -256 261zM142 247c0 -99 59 -162 146 -162s146 63 146 162s-59 161 -146 161s-146 -62 -146 -161z" />
    <glyph glyph-name="oslash" unicode="&#xf8;" horiz-adv-x="576" 
d="M428 468c71 -44 116 -122 116 -221c0 -154 -111 -261 -256 -261c-15 0 -29 1 -43 3l-30 -77l-95 34l30 78c-72 44 -118 124 -118 223c0 154 111 260 256 260c16 0 31 -1 46 -4l28 73l94 -34zM142 247c0 -53 17 -96 46 -124l109 285h-9c-87 0 -146 -62 -146 -161zM288 85
c87 0 146 63 146 162c0 52 -16 94 -44 122l-109 -284h7z" />
    <glyph glyph-name="oslashacute" unicode="&#x1ff;" horiz-adv-x="576" 
d="M401 700l-86 -130h-97l58 130h125zM428 468c71 -44 116 -122 116 -221c0 -154 -111 -261 -256 -261c-15 0 -29 1 -43 3l-30 -77l-95 34l30 78c-72 44 -118 124 -118 223c0 154 111 260 256 260c16 0 31 -1 46 -4l28 73l94 -34zM142 247c0 -53 17 -96 46 -124l109 285h-9
c-87 0 -146 -62 -146 -161zM288 85c87 0 146 63 146 162c0 52 -16 94 -44 122l-109 -284h7z" />
    <glyph glyph-name="otilde" unicode="&#xf5;" horiz-adv-x="576" 
d="M99 615l52 64c23 29 47 45 81 45c33 0 55 -16 79 -47c10 -12 17 -22 33 -22s24 8 33 21l34 42l67 -53l-51 -64c-23 -29 -47 -45 -81 -45c-33 0 -55 16 -79 47c-10 12 -17 22 -33 22s-24 -8 -34 -21l-34 -42zM32 247c0 154 111 260 256 260s256 -106 256 -260
s-111 -261 -256 -261s-256 107 -256 261zM142 247c0 -99 59 -162 146 -162s146 63 146 162s-59 161 -146 161s-146 -62 -146 -161z" />
    <glyph glyph-name="oe" unicode="&#x153;" horiz-adv-x="607" 
d="M579 211h-216v-125c55 10 88 36 111 77l81 -64c-39 -48 -106 -113 -241 -113c-167 0 -282 107 -282 261s115 260 279 260c162 0 268 -104 268 -253v-43zM465 293c-5 58 -40 99 -102 113v-113h102zM142 247c0 -83 42 -141 117 -159v317c-75 -17 -117 -75 -117 -158z" />
    <glyph glyph-name="p" unicode="p" horiz-adv-x="609" 
d="M63 -200v693h108v-73h14c27 43 71 87 163 87c127 0 229 -108 229 -260s-102 -261 -229 -261c-92 0 -136 44 -163 88h-12v-274h-110zM319 84c85 0 148 59 148 163s-63 162 -148 162c-87 0 -146 -61 -146 -162s59 -163 146 -163z" />
    <glyph glyph-name="thorn" unicode="&#xfe;" horiz-adv-x="609" 
d="M63 -200v900h110v-280h12c27 43 71 87 163 87c127 0 229 -108 229 -260s-102 -261 -229 -261c-92 0 -136 44 -163 88h-12v-274h-110zM319 84c85 0 148 59 148 163s-63 162 -148 162c-87 0 -146 -61 -146 -162s59 -163 146 -163z" />
    <glyph glyph-name="q" unicode="q" horiz-adv-x="609" 
d="M546 -200h-110v274h-12c-26 -44 -71 -88 -163 -88c-126 0 -229 109 -229 261s103 260 229 260c92 0 137 -44 163 -87h14v73h108v-693zM290 84c87 0 146 62 146 163s-59 162 -146 162c-85 0 -148 -58 -148 -162s63 -163 148 -163z" />
    <glyph glyph-name="r" unicode="r" horiz-adv-x="375" 
d="M170 493v-76h14c18 54 59 78 126 78h52v-103h-80c-67 0 -109 -37 -109 -109v-283h-110v493h107z" />
    <glyph glyph-name="racute" unicode="&#x155;" horiz-adv-x="375" 
d="M199 700h125l-86 -130h-97zM170 493v-76h14c18 54 59 78 126 78h52v-103h-80c-67 0 -109 -37 -109 -109v-283h-110v493h107z" />
    <glyph glyph-name="rcaron" unicode="&#x159;" horiz-adv-x="375" 
d="M263 700h111l-94 -130h-139l-94 130h112l46 -67h12zM170 493v-76h14c18 54 59 78 126 78h52v-103h-80c-67 0 -109 -37 -109 -109v-283h-110v493h107z" />
    <glyph glyph-name="uni0157" unicode="&#x157;" horiz-adv-x="375" 
d="M170 493v-76h14c18 54 59 78 126 78h52v-103h-80c-67 0 -109 -37 -109 -109v-283h-110v493h107zM33 -137c0 52 38 87 87 87s86 -35 86 -85v-109c0 -49 -36 -86 -85 -86h-83v62h70c20 0 28 10 28 29v21c-4 -1 -10 -2 -18 -2c-46 0 -85 33 -85 83z" />
    <glyph glyph-name="s" unicode="s" horiz-adv-x="518" 
d="M50 358c0 92 86 149 193 149c101 0 170 -42 242 -120l-80 -61c-46 58 -101 91 -163 91c-51 0 -84 -22 -84 -58c0 -42 42 -49 95 -56l29 -4c135 -17 208 -51 208 -148s-91 -165 -220 -165c-138 0 -215 76 -257 147l92 54c31 -69 96 -109 168 -109c61 0 109 27 109 70
c0 44 -57 50 -110 57l-29 4c-125 16 -193 56 -193 149z" />
    <glyph glyph-name="sacute" unicode="&#x15b;" horiz-adv-x="518" 
d="M245 700h125l-86 -130h-97zM50 358c0 92 86 149 193 149c101 0 170 -42 242 -120l-80 -61c-46 58 -101 91 -163 91c-51 0 -84 -22 -84 -58c0 -42 42 -49 95 -56l29 -4c135 -17 208 -51 208 -148s-91 -165 -220 -165c-138 0 -215 76 -257 147l92 54
c31 -69 96 -109 168 -109c61 0 109 27 109 70c0 44 -57 50 -110 57l-29 4c-125 16 -193 56 -193 149z" />
    <glyph glyph-name="scaron" unicode="&#x161;" horiz-adv-x="518" 
d="M310 700h111l-94 -130h-139l-94 130h112l46 -67h12zM50 358c0 92 86 149 193 149c101 0 170 -42 242 -120l-80 -61c-46 58 -101 91 -163 91c-51 0 -84 -22 -84 -58c0 -42 42 -49 95 -56l29 -4c135 -17 208 -51 208 -148s-91 -165 -220 -165c-138 0 -215 76 -257 147
l92 54c31 -69 96 -109 168 -109c61 0 109 27 109 70c0 44 -57 50 -110 57l-29 4c-125 16 -193 56 -193 149z" />
    <glyph glyph-name="scedilla" unicode="&#x15f;" horiz-adv-x="518" 
d="M490 151c0 -89 -77 -154 -191 -164l-9 -47h10c9 13 26 25 52 25c42 0 77 -30 77 -81c0 -61 -45 -97 -104 -97c-46 0 -70 17 -89 34l38 54c11 -14 24 -23 45 -23c20 0 36 11 36 31c0 16 -10 28 -25 28c-11 0 -19 -5 -22 -14h-90v10l17 81c-116 11 -184 80 -222 145l92 54
c31 -69 96 -109 168 -109c61 0 109 27 109 70c0 44 -57 50 -110 57l-29 4c-125 16 -193 56 -193 149c0 92 86 149 193 149c101 0 170 -42 242 -120l-80 -61c-46 58 -101 91 -163 91c-51 0 -84 -22 -84 -58c0 -42 42 -49 95 -56l29 -4c135 -17 208 -51 208 -148z" />
    <glyph glyph-name="uni0219" unicode="&#x219;" horiz-adv-x="518" 
d="M50 358c0 92 86 149 193 149c101 0 170 -42 242 -120l-80 -61c-46 58 -101 91 -163 91c-51 0 -84 -22 -84 -58c0 -42 42 -49 95 -56l29 -4c135 -17 208 -51 208 -148s-91 -165 -220 -165c-138 0 -215 76 -257 147l92 54c31 -69 96 -109 168 -109c61 0 109 27 109 70
c0 44 -57 50 -110 57l-29 4c-125 16 -193 56 -193 149zM185 -137c0 52 38 87 87 87s86 -35 86 -85v-109c0 -49 -36 -86 -85 -86h-83v62h70c20 0 28 10 28 29v21c-4 -1 -10 -2 -18 -2c-46 0 -85 33 -85 83z" />
    <glyph glyph-name="germandbls" unicode="&#xdf;" horiz-adv-x="618" 
d="M57 0v433c0 173 104 281 261 281c121 0 206 -70 206 -161c0 -84 -48 -125 -110 -169c-12 -9 -17 -15 -17 -24c0 -11 9 -18 29 -25l23 -9c78 -29 150 -73 150 -168c0 -93 -71 -172 -193 -172c-106 0 -173 55 -211 105l79 66c27 -40 73 -79 131 -79c48 0 85 29 85 76
c0 41 -36 63 -84 82l-39 15c-60 23 -84 56 -84 99c0 47 30 74 70 104c33 25 63 53 63 94c0 42 -41 73 -98 73c-67 0 -151 -47 -151 -183v-438h-110z" />
    <glyph glyph-name="t" unicode="t" horiz-adv-x="418" 
d="M9 493h131v162h110v-162h140v-95h-140v-274c0 -20 9 -29 27 -29h85v-95h-132c-52 0 -90 37 -90 90v308h-131v95z" />
    <glyph glyph-name="tbar" unicode="&#x167;" horiz-adv-x="418" 
d="M390 398h-140v-94h140v-95h-140v-85c0 -20 9 -29 27 -29h85v-95h-132c-52 0 -90 37 -90 90v119h-131v95h131v94h-131v95h131v207h110v-207h140v-95z" />
    <glyph glyph-name="tcaron" unicode="&#x165;" horiz-adv-x="418" 
d="M328 747h113l-55 -180h-69zM9 493h131v162h110v-162h140v-95h-140v-274c0 -20 9 -29 27 -29h85v-95h-132c-52 0 -90 37 -90 90v308h-131v95z" />
    <glyph glyph-name="uni0163" unicode="&#x163;" horiz-adv-x="418" 
d="M390 398h-140v-274c0 -20 9 -29 27 -29h85v-95h-108l-12 -60h10c9 13 26 25 52 25c42 0 77 -30 77 -81c0 -61 -45 -97 -104 -97c-46 0 -70 17 -89 34l38 54c11 -14 24 -23 45 -23c20 0 36 11 36 31c0 16 -10 28 -25 28c-11 0 -19 -5 -22 -14h-90v10l22 101
c-32 13 -52 43 -52 82v308h-131v95h131v162h110v-162h140v-95z" />
    <glyph glyph-name="uni021B" unicode="&#x21b;" horiz-adv-x="418" 
d="M9 493h131v162h110v-162h140v-95h-140v-274c0 -20 9 -29 27 -29h85v-95h-132c-52 0 -90 37 -90 90v308h-131v95zM137 -137c0 52 38 87 87 87s86 -35 86 -85v-109c0 -49 -36 -86 -85 -86h-83v62h70c20 0 28 10 28 29v21c-4 -1 -10 -2 -18 -2c-46 0 -85 33 -85 83z" />
    <glyph glyph-name="u" unicode="u" horiz-adv-x="595" 
d="M532 0h-108v82h-14c-21 -46 -67 -90 -161 -90c-106 0 -192 74 -192 206v295h110v-285c0 -77 43 -120 119 -120c86 0 136 54 136 149v256h110v-493z" />
    <glyph glyph-name="uacute" unicode="&#xfa;" horiz-adv-x="595" 
d="M283 700h125l-86 -130h-97zM532 0h-108v82h-14c-21 -46 -67 -90 -161 -90c-106 0 -192 74 -192 206v295h110v-285c0 -77 43 -120 119 -120c86 0 136 54 136 149v256h110v-493z" />
    <glyph glyph-name="ubreve" unicode="&#x16d;" horiz-adv-x="595" 
d="M336 700h83v-21c0 -72 -49 -118 -124 -118s-124 46 -124 118v21h83v-17c0 -23 14 -41 41 -41s41 18 41 41v17zM532 0h-108v82h-14c-21 -46 -67 -90 -161 -90c-106 0 -192 74 -192 206v295h110v-285c0 -77 43 -120 119 -120c86 0 136 54 136 149v256h110v-493z" />
    <glyph glyph-name="ucircumflex" unicode="&#xfb;" horiz-adv-x="595" 
d="M348 570l-46 68h-12l-46 -68h-112l94 130h139l94 -130h-111zM532 0h-108v82h-14c-21 -46 -67 -90 -161 -90c-106 0 -192 74 -192 206v295h110v-285c0 -77 43 -120 119 -120c86 0 136 54 136 149v256h110v-493z" />
    <glyph glyph-name="udieresis" unicode="&#xfc;" horiz-adv-x="595" 
d="M113 640c0 47 37 80 83 80s82 -33 82 -80c0 -46 -36 -80 -82 -80s-83 34 -83 80zM313 640c0 47 37 80 83 80s82 -33 82 -80c0 -46 -36 -80 -82 -80s-83 34 -83 80zM532 0h-108v82h-14c-21 -46 -67 -90 -161 -90c-106 0 -192 74 -192 206v295h110v-285
c0 -77 43 -120 119 -120c86 0 136 54 136 149v256h110v-493z" />
    <glyph glyph-name="ugrave" unicode="&#xf9;" horiz-adv-x="595" 
d="M308 700l57 -130h-97l-86 130h126zM532 0h-108v82h-14c-21 -46 -67 -90 -161 -90c-106 0 -192 74 -192 206v295h110v-285c0 -77 43 -120 119 -120c86 0 136 54 136 149v256h110v-493z" />
    <glyph glyph-name="uhungarumlaut" unicode="&#x171;" horiz-adv-x="595" 
d="M211 700h123l-86 -130h-95zM366 700h124l-86 -130h-95zM532 0h-108v82h-14c-21 -46 -67 -90 -161 -90c-106 0 -192 74 -192 206v295h110v-285c0 -77 43 -120 119 -120c86 0 136 54 136 149v256h110v-493z" />
    <glyph glyph-name="umacron" unicode="&#x16b;" horiz-adv-x="595" 
d="M440 660v-90h-290v90h290zM532 0h-108v82h-14c-21 -46 -67 -90 -161 -90c-106 0 -192 74 -192 206v295h110v-285c0 -77 43 -120 119 -120c86 0 136 54 136 149v256h110v-493z" />
    <glyph glyph-name="uogonek" unicode="&#x173;" horiz-adv-x="595" 
d="M526 -90h45v-78h-72c-40 0 -80 25 -80 74c0 6 1 14 3 24l16 70h-14v82h-14c-21 -46 -67 -90 -161 -90c-106 0 -192 74 -192 206v295h110v-285c0 -77 43 -120 119 -120c86 0 136 54 136 149v256h110v-493h-14l-14 -60c-1 -3 -1 -6 -1 -8c0 -15 8 -22 23 -22z" />
    <glyph glyph-name="uring" unicode="&#x16f;" horiz-adv-x="595" 
d="M189 639c0 60 47 103 107 103s106 -42 106 -103s-48 -102 -106 -102c-59 0 -107 43 -107 102zM262 639c0 -19 14 -33 34 -33s33 14 33 33s-13 34 -33 34s-34 -15 -34 -34zM532 0h-108v82h-14c-21 -46 -67 -90 -161 -90c-106 0 -192 74 -192 206v295h110v-285
c0 -77 43 -120 119 -120c86 0 136 54 136 149v256h110v-493z" />
    <glyph glyph-name="v" unicode="v" horiz-adv-x="536" 
d="M11 493h119l132 -393h12l132 393h119l-177 -493h-160z" />
    <glyph glyph-name="w" unicode="w" horiz-adv-x="749" 
d="M20 493h112l68 -390h13l84 390h156l83 -390h13l68 390h112l-103 -493h-161l-84 390h-13l-84 -390h-160z" />
    <glyph glyph-name="wacute" unicode="&#x1e83;" horiz-adv-x="749" 
d="M363 700h125l-86 -130h-97zM20 493h112l68 -390h13l84 390h156l83 -390h13l68 390h112l-103 -493h-161l-84 390h-13l-84 -390h-160z" />
    <glyph glyph-name="wcircumflex" unicode="&#x175;" horiz-adv-x="749" 
d="M427 570l-46 68h-12l-46 -68h-112l94 130h139l94 -130h-111zM20 493h112l68 -390h13l84 390h156l83 -390h13l68 390h112l-103 -493h-161l-84 390h-13l-84 -390h-160z" />
    <glyph glyph-name="wdieresis" unicode="&#x1e85;" horiz-adv-x="749" 
d="M192 640c0 47 37 80 83 80s82 -33 82 -80c0 -46 -36 -80 -82 -80s-83 34 -83 80zM392 640c0 47 37 80 83 80s82 -33 82 -80c0 -46 -36 -80 -82 -80s-83 34 -83 80zM20 493h112l68 -390h13l84 390h156l83 -390h13l68 390h112l-103 -493h-161l-84 390h-13l-84 -390h-160z
" />
    <glyph glyph-name="wgrave" unicode="&#x1e81;" horiz-adv-x="749" 
d="M388 700l57 -130h-97l-86 130h126zM20 493h112l68 -390h13l84 390h156l83 -390h13l68 390h112l-103 -493h-161l-84 390h-13l-84 -390h-160z" />
    <glyph glyph-name="x" unicode="x" horiz-adv-x="568" 
d="M25 493h129l124 -175h12l124 175h129l-179 -242l184 -251h-131l-127 182h-12l-127 -182h-131l184 251z" />
    <glyph glyph-name="y" unicode="y" horiz-adv-x="553" 
d="M423 493h119l-281 -693h-119l77 180l-208 513h119l141 -364h12z" />
    <glyph glyph-name="yacute" unicode="&#xfd;" horiz-adv-x="553" 
d="M391 700l-86 -130h-97l58 130h125zM423 493h119l-281 -693h-119l77 180l-208 513h119l141 -364h12z" />
    <glyph glyph-name="ycircumflex" unicode="&#x177;" horiz-adv-x="553" 
d="M273 638l-46 -68h-112l94 130h139l94 -130h-111l-46 68h-12zM423 493h119l-281 -693h-119l77 180l-208 513h119l141 -364h12z" />
    <glyph glyph-name="ydieresis" unicode="&#xff;" horiz-adv-x="553" 
d="M179 560c-46 0 -83 34 -83 80c0 47 37 80 83 80s82 -33 82 -80c0 -46 -36 -80 -82 -80zM379 560c-46 0 -83 34 -83 80c0 47 37 80 83 80s82 -33 82 -80c0 -46 -36 -80 -82 -80zM423 493h119l-281 -693h-119l77 180l-208 513h119l141 -364h12z" />
    <glyph glyph-name="ygrave" unicode="&#x1ef3;" horiz-adv-x="553" 
d="M348 570h-97l-86 130h126zM423 493h119l-281 -693h-119l77 180l-208 513h119l141 -364h12z" />
    <glyph glyph-name="z" unicode="z" horiz-adv-x="522" 
d="M55 493h420v-86l-285 -313h293v-94h-438v86l286 313h-276v94z" />
    <glyph glyph-name="zacute" unicode="&#x17a;" horiz-adv-x="522" 
d="M252 700h125l-86 -130h-97zM55 493h420v-86l-285 -313h293v-94h-438v86l286 313h-276v94z" />
    <glyph glyph-name="zcaron" unicode="&#x17e;" horiz-adv-x="522" 
d="M317 700h111l-94 -130h-139l-94 130h112l46 -67h12zM55 493h420v-86l-285 -313h293v-94h-438v86l286 313h-276v94z" />
    <glyph glyph-name="zdotaccent" unicode="&#x17c;" horiz-adv-x="522" 
d="M182 640c0 47 37 80 83 80s82 -33 82 -80c0 -46 -36 -80 -82 -80s-83 34 -83 80zM55 493h420v-86l-285 -313h293v-94h-438v86l286 313h-276v94z" />
    <glyph glyph-name="a.ss01" horiz-adv-x="609" 
d="M546 0h-108v74h-14c-26 -44 -71 -88 -163 -88c-126 0 -229 109 -229 261s103 261 229 261c92 0 137 -45 163 -88h14v73h108v-493zM290 84c87 0 146 62 146 163s-59 163 -146 163c-85 0 -148 -59 -148 -163s63 -163 148 -163z" />
    <glyph glyph-name="aacute.ss01" horiz-adv-x="609" 
d="M292 700h125l-86 -130h-97zM546 0h-108v74h-14c-26 -44 -71 -88 -163 -88c-126 0 -229 109 -229 261s103 261 229 261c92 0 137 -45 163 -88h14v73h108v-493zM290 84c87 0 146 62 146 163s-59 163 -146 163c-85 0 -148 -59 -148 -163s63 -163 148 -163z" />
    <glyph glyph-name="abreve.ss01" horiz-adv-x="609" 
d="M345 700h83v-21c0 -72 -49 -118 -124 -118s-124 46 -124 118v21h83v-17c0 -23 14 -41 41 -41s41 18 41 41v17zM546 0h-108v74h-14c-26 -44 -71 -88 -163 -88c-126 0 -229 109 -229 261s103 261 229 261c92 0 137 -45 163 -88h14v73h108v-493zM290 84c87 0 146 62 146 163
s-59 163 -146 163c-85 0 -148 -59 -148 -163s63 -163 148 -163z" />
    <glyph glyph-name="acircumflex.ss01" horiz-adv-x="609" 
d="M357 570l-46 68h-12l-46 -68h-112l94 130h139l94 -130h-111zM546 0h-108v74h-14c-26 -44 -71 -88 -163 -88c-126 0 -229 109 -229 261s103 261 229 261c92 0 137 -45 163 -88h14v73h108v-493zM290 84c87 0 146 62 146 163s-59 163 -146 163c-85 0 -148 -59 -148 -163
s63 -163 148 -163z" />
    <glyph glyph-name="adieresis.ss01" horiz-adv-x="609" 
d="M122 640c0 47 37 80 83 80s82 -33 82 -80c0 -46 -36 -80 -82 -80s-83 34 -83 80zM322 640c0 47 37 80 83 80s82 -33 82 -80c0 -46 -36 -80 -82 -80s-83 34 -83 80zM546 0h-108v74h-14c-26 -44 -71 -88 -163 -88c-126 0 -229 109 -229 261s103 261 229 261
c92 0 137 -45 163 -88h14v73h108v-493zM290 84c87 0 146 62 146 163s-59 163 -146 163c-85 0 -148 -59 -148 -163s63 -163 148 -163z" />
    <glyph glyph-name="agrave.ss01" horiz-adv-x="609" 
d="M317 700l57 -130h-97l-86 130h126zM546 0h-108v74h-14c-26 -44 -71 -88 -163 -88c-126 0 -229 109 -229 261s103 261 229 261c92 0 137 -45 163 -88h14v73h108v-493zM290 84c87 0 146 62 146 163s-59 163 -146 163c-85 0 -148 -59 -148 -163s63 -163 148 -163z" />
    <glyph glyph-name="amacron.ss01" horiz-adv-x="609" 
d="M449 660v-90h-290v90h290zM546 0h-108v74h-14c-26 -44 -71 -88 -163 -88c-126 0 -229 109 -229 261s103 261 229 261c92 0 137 -45 163 -88h14v73h108v-493zM290 84c87 0 146 62 146 163s-59 163 -146 163c-85 0 -148 -59 -148 -163s63 -163 148 -163z" />
    <glyph glyph-name="aogonek.ss01" horiz-adv-x="609" 
d="M540 -90h45v-78h-72c-40 0 -80 25 -80 74c0 6 1 14 3 24l16 70h-14v74h-14c-26 -44 -71 -88 -163 -88c-126 0 -229 109 -229 261s103 261 229 261c92 0 137 -45 163 -88h14v73h108v-493h-14l-14 -60c-1 -3 -1 -6 -1 -8c0 -15 8 -22 23 -22zM290 84c87 0 146 62 146 163
s-59 163 -146 163c-85 0 -148 -59 -148 -163s63 -163 148 -163z" />
    <glyph glyph-name="aring.ss01" horiz-adv-x="609" 
d="M198 639c0 60 47 103 107 103s106 -42 106 -103s-48 -102 -106 -102c-59 0 -107 43 -107 102zM271 639c0 -19 14 -33 34 -33s33 14 33 33s-13 34 -33 34s-34 -15 -34 -34zM546 0h-108v74h-14c-26 -44 -71 -88 -163 -88c-126 0 -229 109 -229 261s103 261 229 261
c92 0 137 -45 163 -88h14v73h108v-493zM290 84c87 0 146 62 146 163s-59 163 -146 163c-85 0 -148 -59 -148 -163s63 -163 148 -163z" />
    <glyph glyph-name="aringacute.ss01" horiz-adv-x="609" 
d="M305 537c-59 0 -107 43 -107 102c0 58 45 101 102 103l39 88h126l-80 -121c16 -18 26 -42 26 -70c0 -61 -48 -102 -106 -102zM305 673c-20 0 -34 -15 -34 -34s14 -33 34 -33s33 14 33 33s-13 34 -33 34zM438 493h108v-493h-108v74h-14c-26 -44 -71 -88 -163 -88
c-126 0 -229 109 -229 261s103 261 229 261c92 0 137 -45 163 -88h14v73zM290 84c87 0 146 62 146 163s-59 163 -146 163c-85 0 -148 -59 -148 -163s63 -163 148 -163z" />
    <glyph glyph-name="atilde.ss01" horiz-adv-x="609" 
d="M115 615l52 64c23 29 47 45 81 45c33 0 55 -16 79 -47c10 -12 17 -22 33 -22s24 8 33 21l34 42l67 -53l-51 -64c-23 -29 -47 -45 -81 -45c-33 0 -55 16 -79 47c-10 12 -17 22 -33 22s-24 -8 -34 -21l-34 -42zM546 0h-108v74h-14c-26 -44 -71 -88 -163 -88
c-126 0 -229 109 -229 261s103 261 229 261c92 0 137 -45 163 -88h14v73h108v-493zM290 84c87 0 146 62 146 163s-59 163 -146 163c-85 0 -148 -59 -148 -163s63 -163 148 -163z" />
    <glyph glyph-name="g.ss02" horiz-adv-x="609" 
d="M438 493h108v-603c0 -53 -38 -90 -90 -90h-380v95h332c18 0 28 10 28 30v163h-12c-26 -44 -71 -88 -163 -88c-126 0 -229 105 -229 254c0 148 103 253 229 253c92 0 137 -44 163 -87h14v73zM290 98c87 0 146 58 146 156c0 97 -59 155 -146 155c-85 0 -148 -55 -148 -155
c0 -101 63 -156 148 -156z" />
    <glyph glyph-name="gbreve.ss02" horiz-adv-x="609" 
d="M306 561c-75 0 -124 46 -124 118v21h83v-17c0 -23 14 -41 41 -41s41 18 41 41v17h83v-21c0 -72 -49 -118 -124 -118zM438 493h108v-603c0 -53 -38 -90 -90 -90h-380v95h332c18 0 28 10 28 30v163h-12c-26 -44 -71 -88 -163 -88c-126 0 -229 105 -229 254
c0 148 103 253 229 253c92 0 137 -44 163 -87h14v73zM290 98c87 0 146 58 146 156c0 97 -59 155 -146 155c-85 0 -148 -55 -148 -155c0 -101 63 -156 148 -156z" />
    <glyph glyph-name="uni0123.ss02" horiz-adv-x="609" 
d="M306 554c-50 0 -87 34 -87 85v108c0 49 36 86 85 86h83v-62h-70c-19 0 -28 -9 -28 -29v-20c4 1 10 2 18 2c47 0 85 -33 85 -83c0 -53 -38 -87 -86 -87zM438 493h108v-603c0 -53 -38 -90 -90 -90h-380v95h332c18 0 28 10 28 30v163h-12c-26 -44 -71 -88 -163 -88
c-126 0 -229 105 -229 254c0 148 103 253 229 253c92 0 137 -44 163 -87h14v73zM290 98c87 0 146 58 146 156c0 97 -59 155 -146 155c-85 0 -148 -55 -148 -155c0 -101 63 -156 148 -156z" />
    <glyph glyph-name="gdotaccent.ss02" horiz-adv-x="609" 
d="M306 560c-46 0 -83 34 -83 80c0 47 37 80 83 80s82 -33 82 -80c0 -46 -36 -80 -82 -80zM438 493h108v-603c0 -53 -38 -90 -90 -90h-380v95h332c18 0 28 10 28 30v163h-12c-26 -44 -71 -88 -163 -88c-126 0 -229 105 -229 254c0 148 103 253 229 253c92 0 137 -44 163 -87
h14v73zM290 98c87 0 146 58 146 156c0 97 -59 155 -146 155c-85 0 -148 -55 -148 -155c0 -101 63 -156 148 -156z" />
    <glyph glyph-name="v.ss03" horiz-adv-x="538" 
d="M13 493h119l131 -455h12l131 455h119l-154 -493h-203z" />
    <glyph glyph-name="w.ss03" horiz-adv-x="753" 
d="M25 493h112l57 -455h13l70 455h200l69 -455h13l57 455h112l-71 -493h-204l-70 456h-13l-70 -456h-203z" />
    <glyph glyph-name="wacute.ss03" horiz-adv-x="753" 
d="M365 700h125l-86 -130h-97zM25 493h112l57 -455h13l70 455h200l69 -455h13l57 455h112l-71 -493h-204l-70 456h-13l-70 -456h-203z" />
    <glyph glyph-name="wcircumflex.ss03" horiz-adv-x="753" 
d="M429 570l-46 68h-12l-46 -68h-112l94 130h139l94 -130h-111zM25 493h112l57 -455h13l70 455h200l69 -455h13l57 455h112l-71 -493h-204l-70 456h-13l-70 -456h-203z" />
    <glyph glyph-name="wdieresis.ss03" horiz-adv-x="753" 
d="M194 640c0 47 37 80 83 80s82 -33 82 -80c0 -46 -36 -80 -82 -80s-83 34 -83 80zM394 640c0 47 37 80 83 80s82 -33 82 -80c0 -46 -36 -80 -82 -80s-83 34 -83 80zM25 493h112l57 -455h13l70 455h200l69 -455h13l57 455h112l-71 -493h-204l-70 456h-13l-70 -456h-203z
" />
    <glyph glyph-name="wgrave.ss03" horiz-adv-x="753" 
d="M390 700l57 -130h-97l-86 130h126zM25 493h112l57 -455h13l70 455h200l69 -455h13l57 455h112l-71 -493h-204l-70 456h-13l-70 -456h-203z" />
    <glyph glyph-name="y.ss03" horiz-adv-x="553" 
d="M421 493h119l-223 -693h-119l69 200h-95l-159 493h119l139 -455h12z" />
    <glyph glyph-name="yacute.ss03" horiz-adv-x="553" 
d="M391 700l-86 -130h-97l58 130h125zM421 493h119l-223 -693h-119l69 200h-95l-159 493h119l139 -455h12z" />
    <glyph glyph-name="ycircumflex.ss03" horiz-adv-x="553" 
d="M273 638l-46 -68h-112l94 130h139l94 -130h-111l-46 68h-12zM421 493h119l-223 -693h-119l69 200h-95l-159 493h119l139 -455h12z" />
    <glyph glyph-name="ydieresis.ss03" horiz-adv-x="553" 
d="M179 560c-46 0 -83 34 -83 80c0 47 37 80 83 80s82 -33 82 -80c0 -46 -36 -80 -82 -80zM379 560c-46 0 -83 34 -83 80c0 47 37 80 83 80s82 -33 82 -80c0 -46 -36 -80 -82 -80zM421 493h119l-223 -693h-119l69 200h-95l-159 493h119l139 -455h12z" />
    <glyph glyph-name="ygrave.ss03" horiz-adv-x="553" 
d="M348 570h-97l-86 130h126zM421 493h119l-223 -693h-119l69 200h-95l-159 493h119l139 -455h12z" />
    <glyph glyph-name="pi" unicode="&#x3c0;" 
d="M246 0h-110v392h-76v104h502v-104h-76v-258c0 -20 9 -30 27 -30h49v-104h-96c-52 0 -90 38 -90 90v302h-130v-392z" />
    <glyph glyph-name="zero" unicode="0" horiz-adv-x="608" 
d="M39 430c0 179 104 284 265 284c159 0 265 -105 265 -284v-160c0 -182 -104 -284 -265 -284s-265 102 -265 284v160zM155 434v-168c0 -111 50 -175 149 -175c101 0 149 66 149 175v168c0 111 -53 175 -149 175c-97 0 -149 -66 -149 -175z" />
    <glyph glyph-name="one" unicode="1" horiz-adv-x="433" 
d="M190 700h178v-700h-116v584h-12l-114 -195h-124z" />
    <glyph glyph-name="two" unicode="2" horiz-adv-x="575" 
d="M37 471c0 155 113 243 260 243c137 0 246 -89 246 -229c0 -144 -97 -203 -238 -244c-98 -29 -149 -51 -149 -124v-11h380v-106h-497v105c0 129 86 188 214 226c108 33 174 68 174 158c0 76 -54 120 -129 120c-86 0 -145 -47 -145 -142v-22h-116v26z" />
    <glyph glyph-name="three" unicode="3" horiz-adv-x="579" 
d="M49 700h484v-102l-200 -169v-12h26c102 0 188 -74 188 -199c0 -139 -110 -232 -257 -232c-159 0 -265 98 -265 236v38h116v-33c0 -78 54 -136 148 -136c88 0 142 54 142 128c0 73 -54 113 -124 113h-116v105l184 157h-326v106z" />
    <glyph glyph-name="four" unicode="4" horiz-adv-x="603" 
d="M291 700h188v-457h116v-106h-116v-137h-116v137h-348v102zM351 604l-211 -361h223v361h-12z" />
    <glyph glyph-name="five" unicode="5" horiz-adv-x="581" 
d="M58 700h471v-106h-355v-202h12c24 38 65 80 158 80c114 0 209 -88 209 -227c0 -152 -104 -259 -257 -259c-156 0 -264 96 -264 247v15h116v-10c0 -88 52 -147 146 -147c90 0 143 59 143 151c0 82 -50 129 -120 129c-56 0 -84 -30 -96 -53h-163v382z" />
    <glyph glyph-name="six" unicode="6" horiz-adv-x="574" 
d="M547 229c0 -144 -107 -242 -256 -243c-144 -1 -252 97 -252 237v245c0 154 110 246 257 246c144 0 243 -82 243 -220h-117c0 68 -40 115 -126 115c-89 0 -141 -52 -141 -136v-87h12c21 31 63 76 159 76c122 0 221 -94 221 -233zM292 366c-81 0 -137 -54 -137 -137
s57 -137 137 -137c82 0 139 55 139 137c0 83 -56 137 -139 137z" />
    <glyph glyph-name="seven" unicode="7" horiz-adv-x="533" 
d="M12 700h508v-102l-272 -598h-127l269 594h-378v106z" />
    <glyph glyph-name="eight" unicode="8" horiz-adv-x="582" 
d="M43 525c0 111 99 189 248 189s248 -78 248 -189c0 -92 -61 -135 -115 -156v-12c55 -15 126 -69 126 -168c0 -121 -108 -203 -259 -203s-259 82 -259 203c0 99 71 153 126 168v12c-53 21 -115 64 -115 156zM159 512c0 -60 52 -98 132 -98s132 38 132 98s-52 97 -132 97
s-132 -37 -132 -97zM148 200c0 -66 54 -109 143 -109c90 0 143 43 143 109s-53 109 -143 109c-89 0 -143 -43 -143 -109z" />
    <glyph glyph-name="nine" unicode="9" horiz-adv-x="575" 
d="M28 472c0 144 108 241 256 242c144 1 252 -96 252 -236v-245c0 -154 -109 -247 -257 -247c-144 0 -243 83 -243 221h117c0 -67 41 -115 126 -115c89 0 141 52 141 136v87h-12c-20 -31 -62 -76 -159 -76c-122 0 -221 94 -221 233zM283 335c81 0 137 54 137 137
s-57 137 -137 137c-82 0 -139 -55 -139 -137c0 -83 56 -137 139 -137z" />
    <glyph glyph-name="zero.lf" horiz-adv-x="608" 
d="M39 430c0 179 104 284 265 284c159 0 265 -105 265 -284v-160c0 -182 -104 -284 -265 -284s-265 102 -265 284v160zM155 434v-168c0 -111 50 -175 149 -175c101 0 149 66 149 175v168c0 111 -53 175 -149 175c-97 0 -149 -66 -149 -175z" />
    <glyph glyph-name="one.lf" horiz-adv-x="433" 
d="M190 700h178v-700h-116v584h-12l-114 -195h-124z" />
    <glyph glyph-name="two.lf" horiz-adv-x="575" 
d="M37 471c0 155 113 243 260 243c137 0 246 -89 246 -229c0 -144 -97 -203 -238 -244c-98 -29 -149 -51 -149 -124v-11h380v-106h-497v105c0 129 86 188 214 226c108 33 174 68 174 158c0 76 -54 120 -129 120c-86 0 -145 -47 -145 -142v-22h-116v26z" />
    <glyph glyph-name="three.lf" horiz-adv-x="579" 
d="M49 700h484v-102l-200 -169v-12h26c102 0 188 -74 188 -199c0 -139 -110 -232 -257 -232c-159 0 -265 98 -265 236v38h116v-33c0 -78 54 -136 148 -136c88 0 142 54 142 128c0 73 -54 113 -124 113h-116v105l184 157h-326v106z" />
    <glyph glyph-name="four.lf" horiz-adv-x="603" 
d="M291 700h188v-457h116v-106h-116v-137h-116v137h-348v102zM351 604l-211 -361h223v361h-12z" />
    <glyph glyph-name="five.lf" horiz-adv-x="581" 
d="M58 700h471v-106h-355v-202h12c24 38 65 80 158 80c114 0 209 -88 209 -227c0 -152 -104 -259 -257 -259c-156 0 -264 96 -264 247v15h116v-10c0 -88 52 -147 146 -147c90 0 143 59 143 151c0 82 -50 129 -120 129c-56 0 -84 -30 -96 -53h-163v382z" />
    <glyph glyph-name="six.lf" horiz-adv-x="574" 
d="M547 229c0 -144 -107 -242 -256 -243c-144 -1 -252 97 -252 237v245c0 154 110 246 257 246c144 0 243 -82 243 -220h-117c0 68 -40 115 -126 115c-89 0 -141 -52 -141 -136v-87h12c21 31 63 76 159 76c122 0 221 -94 221 -233zM292 366c-81 0 -137 -54 -137 -137
s57 -137 137 -137c82 0 139 55 139 137c0 83 -56 137 -139 137z" />
    <glyph glyph-name="seven.lf" horiz-adv-x="533" 
d="M12 700h508v-102l-272 -598h-127l269 594h-378v106z" />
    <glyph glyph-name="eight.lf" horiz-adv-x="582" 
d="M43 525c0 111 99 189 248 189s248 -78 248 -189c0 -92 -61 -135 -115 -156v-12c55 -15 126 -69 126 -168c0 -121 -108 -203 -259 -203s-259 82 -259 203c0 99 71 153 126 168v12c-53 21 -115 64 -115 156zM159 512c0 -60 52 -98 132 -98s132 38 132 98s-52 97 -132 97
s-132 -37 -132 -97zM148 200c0 -66 54 -109 143 -109c90 0 143 43 143 109s-53 109 -143 109c-89 0 -143 -43 -143 -109z" />
    <glyph glyph-name="nine.lf" horiz-adv-x="575" 
d="M28 472c0 144 108 241 256 242c144 1 252 -96 252 -236v-245c0 -154 -109 -247 -257 -247c-144 0 -243 83 -243 221h117c0 -67 41 -115 126 -115c89 0 141 52 141 136v87h-12c-20 -31 -62 -76 -159 -76c-122 0 -221 94 -221 233zM283 335c81 0 137 54 137 137
s-57 137 -137 137c-82 0 -139 -55 -139 -137c0 -83 56 -137 139 -137z" />
    <glyph glyph-name="one.lf.ss03" horiz-adv-x="433" 
d="M149 700h219v-700h-116v648h-12l-114 -259h-124z" />
    <glyph glyph-name="zero.lf.zero" horiz-adv-x="608" 
d="M304 714c159 0 265 -105 265 -284v-160c0 -182 -104 -284 -265 -284s-265 102 -265 284v160c0 179 104 284 265 284zM304 609c-97 0 -149 -66 -149 -175v-134l289 205c-19 67 -67 104 -140 104zM304 91c101 0 149 66 149 175v134l-289 -206c18 -66 65 -103 140 -103z" />
    <glyph glyph-name="zero.osf" horiz-adv-x="586" 
d="M32 248c0 154 114 262 261 262s261 -108 261 -262s-114 -262 -261 -262s-261 108 -261 262zM148 248c0 -90 60 -157 145 -157c87 0 145 67 145 157s-59 157 -145 157c-85 0 -145 -67 -145 -157z" />
    <glyph glyph-name="one.osf" horiz-adv-x="397" 
d="M133 493h201v-493h-116v411h-12l-78 -138h-116v10z" />
    <glyph glyph-name="two.osf" horiz-adv-x="557" 
d="M28 361c81 98 168 146 288 146c133 0 210 -67 210 -165c0 -111 -86 -152 -222 -168c-109 -12 -147 -24 -155 -68h372v-106h-490v41c0 146 78 201 247 225c92 14 132 29 132 72c0 42 -39 64 -103 64c-70 0 -135 -33 -187 -100z" />
    <glyph glyph-name="three.osf" horiz-adv-x="569" 
d="M132 28c4 -82 57 -136 148 -136c88 0 142 53 142 126c0 72 -54 113 -124 113h-116v99l181 157h-323v106h484v-100l-194 -165v-12h19c101 0 189 -73 189 -198c0 -140 -110 -231 -257 -231c-154 0 -254 87 -265 224z" />
    <glyph glyph-name="four.osf" horiz-adv-x="605" 
d="M282 493h194v-387h126v-106h-126v-200h-116v200h-341v100zM348 405l-201 -299h213v299h-12z" />
    <glyph glyph-name="five.osf" horiz-adv-x="577" 
d="M144 26c5 -82 56 -135 146 -135s143 59 143 151c0 82 -50 129 -120 129c-56 0 -84 -30 -96 -53h-163v375h471v-106h-355v-195h12c24 38 65 80 158 80c114 0 209 -88 209 -227c0 -153 -104 -259 -257 -259c-149 0 -254 88 -263 228z" />
    <glyph glyph-name="six.osf" horiz-adv-x="581" 
d="M425 515l116 16c-17 116 -112 183 -243 183c-147 0 -259 -92 -259 -246v-245c0 -140 108 -238 252 -237c149 1 256 99 256 243c0 139 -99 233 -221 233c-96 0 -138 -45 -159 -76h-12v87c0 84 54 136 143 136c77 0 119 -37 127 -94zM292 366c83 0 139 -54 139 -137
c0 -82 -57 -137 -139 -137c-80 0 -137 54 -137 137s56 137 137 137z" />
    <glyph glyph-name="seven.osf" horiz-adv-x="546" 
d="M19 493h508v-102l-272 -591h-127l269 587h-378v106z" />
    <glyph glyph-name="eight.osf" horiz-adv-x="588" 
d="M46 525c0 111 99 189 248 189s248 -78 248 -189c0 -92 -61 -135 -115 -156v-12c55 -15 126 -69 126 -168c0 -121 -108 -203 -259 -203s-259 82 -259 203c0 99 71 153 126 168v12c-53 21 -115 64 -115 156zM162 512c0 -60 52 -98 132 -98s132 38 132 98s-52 97 -132 97
s-132 -37 -132 -97zM151 200c0 -66 54 -109 143 -109c90 0 143 43 143 109s-53 109 -143 109c-89 0 -143 -43 -143 -109z" />
    <glyph glyph-name="nine.osf" horiz-adv-x="585" 
d="M162 -15c7 -56 48 -94 124 -94c89 0 141 52 141 137v80h-12c-20 -31 -62 -76 -159 -76c-122 0 -221 94 -221 233c0 144 108 241 256 242c144 1 252 -96 252 -236v-239c0 -154 -109 -246 -257 -246c-132 0 -225 69 -240 186zM290 128c81 0 137 54 137 137
s-57 137 -137 137c-82 0 -139 -55 -139 -137c0 -83 56 -137 139 -137z" />
    <glyph glyph-name="one.osf.ss03" horiz-adv-x="397" 
d="M117 493h217v-493h-116v441h-12l-78 -168h-116z" />
    <glyph glyph-name="zero.osf.zero" horiz-adv-x="586" 
d="M293 507c147 0 261 -107 261 -260c0 -154 -114 -261 -261 -261s-261 107 -261 261c0 153 114 260 261 260zM293 402c-85 0 -145 -66 -145 -155c0 -15 2 -29 5 -43l234 164c-25 22 -57 34 -94 34zM293 91c87 0 145 66 145 156c0 15 -2 29 -5 43l-234 -165
c25 -21 57 -34 94 -34z" />
    <glyph glyph-name="one.ss03" horiz-adv-x="433" 
d="M149 700h219v-700h-116v648h-12l-114 -259h-124z" />
    <glyph glyph-name="zero.tf" 
d="M55 430c0 179 99 284 255 284c154 0 255 -105 255 -284v-160c0 -182 -99 -284 -255 -284s-255 102 -255 284v160zM171 433v-166c0 -111 45 -175 139 -175c96 0 139 66 139 175v166c0 111 -48 175 -139 175c-92 0 -139 -66 -139 -175z" />
    <glyph glyph-name="one.tf" 
d="M401 106h166v-106h-498v106h216v478h-12l-74 -195h-121l133 311h190v-594z" />
    <glyph glyph-name="two.tf" 
d="M60 471c0 155 113 243 260 243c137 0 246 -89 246 -229c0 -144 -97 -203 -238 -244c-98 -29 -149 -51 -149 -124v-11h380v-106h-497v105c0 129 86 188 214 226c108 33 174 68 174 158c0 75 -54 118 -129 118c-86 0 -145 -46 -145 -140v-22h-116v26z" />
    <glyph glyph-name="three.tf" 
d="M68 700h484v-104l-200 -167v-12h26c102 0 188 -74 188 -199c0 -139 -110 -232 -257 -232c-159 0 -265 98 -265 236v38h116v-32c0 -78 54 -135 148 -135c88 0 142 53 142 126s-54 113 -124 113h-116v105l183 155h-325v108z" />
    <glyph glyph-name="four.tf" 
d="M304 700h188v-457h116v-106h-116v-137h-116v137h-331v102zM364 604l-196 -361h208v361h-12z" />
    <glyph glyph-name="five.tf" 
d="M74 700h471v-108h-355v-200h12c24 38 65 80 158 80c114 0 209 -88 209 -227c0 -152 -104 -259 -257 -259c-156 0 -264 96 -264 247v15h116v-10c0 -87 52 -145 146 -145c90 0 143 58 143 149c0 82 -50 129 -120 129c-56 0 -84 -30 -96 -53h-163v382z" />
    <glyph glyph-name="six.tf" 
d="M569 229c0 -144 -107 -242 -256 -243c-144 -1 -252 97 -252 237v245c0 154 110 246 257 246c144 0 243 -82 243 -220h-117c0 67 -40 114 -126 114c-89 0 -141 -52 -141 -135v-87h12c21 31 63 76 159 76c122 0 221 -94 221 -233zM314 364c-81 0 -137 -53 -137 -135
s57 -135 137 -135c82 0 139 54 139 135c0 82 -56 135 -139 135z" />
    <glyph glyph-name="seven.tf" 
d="M39 700h540v-103l-288 -597h-128l285 593h-409v107z" />
    <glyph glyph-name="eight.tf" 
d="M62 525c0 111 99 189 248 189s248 -78 248 -189c0 -92 -61 -135 -115 -156v-12c55 -15 126 -69 126 -168c0 -121 -108 -203 -259 -203s-259 82 -259 203c0 99 71 153 126 168v12c-53 21 -115 64 -115 156zM178 511c0 -59 52 -96 132 -96s132 37 132 96s-52 96 -132 96
s-132 -37 -132 -96zM167 201c0 -65 54 -108 143 -108c90 0 143 43 143 108s-53 107 -143 107c-89 0 -143 -42 -143 -107z" />
    <glyph glyph-name="nine.tf" 
d="M51 472c0 144 108 241 256 242c144 1 252 -96 252 -236v-245c0 -154 -109 -247 -257 -247c-144 0 -243 83 -243 221h117c0 -67 41 -114 126 -114c89 0 141 52 141 135v87h-12c-20 -31 -62 -76 -159 -76c-122 0 -221 94 -221 233zM306 337c81 0 137 53 137 135
s-57 135 -137 135c-82 0 -139 -54 -139 -135c0 -82 56 -135 139 -135z" />
    <glyph glyph-name="one.tf.ss03" 
d="M401 106h166v-106h-498v106h216v542h-12l-74 -259h-121l104 311h219v-594z" />
    <glyph glyph-name="zero.tf.zero" 
d="M310 714c154 0 255 -105 255 -284v-160c0 -182 -99 -284 -255 -284s-255 102 -255 284v160c0 179 99 284 255 284zM310 608c-92 0 -139 -66 -139 -175v-126l271 193c-16 69 -61 108 -132 108zM310 92c96 0 139 66 139 175v126l-271 -193c15 -69 59 -108 132 -108z" />
    <glyph glyph-name="zero.tosf" 
d="M49 253c0 152 114 257 261 257s261 -105 261 -257v-9c0 -152 -114 -258 -261 -258s-261 106 -261 258v9zM165 255v-14c0 -88 60 -149 145 -149c87 0 145 61 145 149v14c0 89 -59 149 -145 149c-85 0 -145 -60 -145 -149z" />
    <glyph glyph-name="one.tosf" 
d="M212 493h198v-387h169v-106h-523v106h238v299h-16l-65 -132h-114v10z" />
    <glyph glyph-name="two.tosf" 
d="M57 361c81 98 168 146 288 146c133 0 210 -67 210 -165c0 -111 -86 -152 -222 -168c-109 -12 -147 -24 -155 -68h372v-106h-490v41c0 146 78 201 247 225c92 14 132 29 132 72c0 42 -39 64 -103 64c-70 0 -135 -33 -187 -100z" />
    <glyph glyph-name="three.tosf" 
d="M155 28c3 -82 57 -136 148 -136c88 0 142 53 142 126c0 72 -54 113 -125 113h-115v99l181 157h-324v106h485v-100l-194 -165v-12h18c102 0 190 -73 190 -198c0 -140 -110 -231 -257 -231c-154 0 -254 87 -265 224z" />
    <glyph glyph-name="four.tosf" 
d="M293 493h195v-387h116v-106h-116v-200h-116v200h-346v100zM360 405l-208 -299h220v299h-12z" />
    <glyph glyph-name="five.tosf" 
d="M168 26c5 -82 56 -135 146 -135s143 59 143 151c0 82 -50 129 -120 129c-56 0 -84 -30 -96 -53h-163v375h471v-106h-355v-195h12c24 38 65 80 158 80c114 0 209 -88 209 -227c0 -153 -104 -259 -257 -259c-149 0 -254 88 -263 228z" />
    <glyph glyph-name="six.tosf" 
d="M446 515l116 16c-17 116 -112 183 -243 183c-147 0 -259 -92 -259 -246v-245c0 -140 108 -238 252 -237c149 1 256 99 256 243c0 139 -99 233 -221 233c-96 0 -138 -45 -159 -76h-12v87c0 84 54 136 143 136c77 0 119 -37 127 -94zM313 366c83 0 139 -54 139 -137
c0 -82 -57 -137 -139 -137c-80 0 -137 54 -137 137s56 137 137 137z" />
    <glyph glyph-name="seven.tosf" 
d="M34 493h540v-102l-288 -591h-128l285 587h-409v106z" />
    <glyph glyph-name="eight.tosf" 
d="M62 525c0 111 99 189 248 189s248 -78 248 -189c0 -92 -61 -135 -115 -156v-12c55 -15 126 -69 126 -168c0 -121 -108 -203 -259 -203s-259 82 -259 203c0 99 71 153 126 168v12c-53 21 -115 64 -115 156zM178 512c0 -60 52 -98 132 -98s132 38 132 98s-52 97 -132 97
s-132 -37 -132 -97zM167 200c0 -66 54 -109 143 -109c90 0 143 43 143 109s-53 109 -143 109c-89 0 -143 -43 -143 -109z" />
    <glyph glyph-name="nine.tosf" 
d="M180 -15c7 -56 48 -94 124 -94c89 0 141 52 141 137v83h-12c-20 -31 -62 -76 -159 -76c-122 0 -221 94 -221 233c0 144 108 241 256 242c144 1 252 -96 252 -236v-242c0 -154 -109 -246 -257 -246c-132 0 -225 69 -240 186zM308 131c81 0 137 54 137 137
s-57 137 -137 137c-82 0 -139 -55 -139 -137c0 -83 56 -137 139 -137z" />
    <glyph glyph-name="one.tosf.ss03" 
d="M197 493h213v-387h169v-106h-523v106h238v335h-12l-69 -168h-114z" />
    <glyph glyph-name="zero.tosf.zero" 
d="M310 507c147 0 261 -107 261 -260c0 -154 -114 -261 -261 -261s-261 107 -261 261c0 153 114 260 261 260zM310 402c-85 0 -145 -66 -145 -155c0 -15 2 -29 5 -43l234 164c-25 22 -57 34 -94 34zM310 91c87 0 145 66 145 156c0 15 -2 29 -5 43l-234 -165
c25 -21 57 -34 94 -34z" />
    <glyph glyph-name="zero.zero" horiz-adv-x="608" 
d="M304 714c159 0 265 -105 265 -284v-160c0 -182 -104 -284 -265 -284s-265 102 -265 284v160c0 179 104 284 265 284zM304 609c-97 0 -149 -66 -149 -175v-134l289 205c-19 67 -67 104 -140 104zM304 91c101 0 149 66 149 175v134l-289 -206c18 -66 65 -103 140 -103z" />
    <glyph glyph-name="zero.subs" horiz-adv-x="364" 
d="M22 4c0 99 59 159 160 159c98 0 160 -60 160 -159v-59c0 -99 -59 -158 -160 -158s-160 59 -160 158v59zM112 10v-70c0 -47 24 -76 70 -76c47 0 70 29 70 76v70c0 47 -23 76 -70 76c-46 0 -70 -29 -70 -76z" />
    <glyph glyph-name="one.subs" horiz-adv-x="256" 
d="M87 150h131v-350h-90v254h-10l-29 -60h-83v10z" />
    <glyph glyph-name="two.subs" horiz-adv-x="350" 
d="M180 163c88 0 150 -45 150 -121s-52 -106 -137 -124c-53 -11 -76 -22 -78 -44h213v-74h-308v44c0 80 45 119 132 138c61 14 88 30 88 61c0 29 -26 45 -60 45c-40 0 -68 -21 -69 -62h-89c2 87 68 137 158 137z" />
    <glyph glyph-name="three.subs" horiz-adv-x="346" 
d="M21 150h305v-61l-105 -67v-10c62 -3 106 -35 106 -100c0 -73 -67 -125 -154 -125c-93 0 -157 50 -159 136h89c1 -38 29 -60 68 -60c40 0 66 23 66 52c0 30 -22 47 -66 47h-64v57l88 57h-174v74z" />
    <glyph glyph-name="four.subs" horiz-adv-x="371" 
d="M156 150h147v-205h63v-72h-63v-73h-90v73h-200v66zM204 84l-94 -139h103v139h-9z" />
    <glyph glyph-name="five.subs" horiz-adv-x="353" 
d="M32 150h292v-74h-204v-67h10c15 10 35 26 83 26c67 0 122 -43 122 -114v-7c0 -71 -61 -127 -156 -127c-89 0 -148 51 -159 128h90c4 -30 30 -53 69 -53s66 21 66 54s-25 50 -55 50c-28 0 -43 -11 -53 -18h-105v202z" />
    <glyph glyph-name="six.subs" horiz-adv-x="354" 
d="M22 28c0 80 68 135 159 135c86 0 147 -45 150 -113h-89c-2 21 -20 39 -61 39c-43 0 -69 -24 -69 -60v-31h10c11 9 34 29 81 29c70 0 133 -40 133 -114c0 -77 -66 -126 -157 -126s-157 51 -157 127v114zM112 -88c0 -30 25 -52 67 -52s67 22 67 52s-25 51 -67 51
s-67 -21 -67 -51z" />
    <glyph glyph-name="seven.subs" horiz-adv-x="312" 
d="M4 150h304v-70l-141 -280h-96l140 276h-207v74z" />
    <glyph glyph-name="eight.subs" horiz-adv-x="356" 
d="M24 66c0 57 63 97 154 97s154 -40 154 -97v-3c0 -48 -37 -70 -60 -77v-10c26 -6 66 -30 66 -84v-2c0 -58 -60 -103 -160 -103s-160 45 -160 103v2c0 56 41 78 67 84v10c-23 7 -61 29 -61 77v3zM114 54c0 -22 24 -38 64 -38s64 16 64 38c0 23 -24 36 -64 36
s-64 -13 -64 -36zM108 -98c0 -27 27 -42 70 -42c44 0 70 15 70 42s-26 42 -70 42c-43 0 -70 -15 -70 -42z" />
    <glyph glyph-name="nine.subs" horiz-adv-x="354" 
d="M332 -78c0 -80 -66 -135 -155 -135c-82 0 -142 42 -156 108h94c6 -18 23 -34 62 -34c41 0 65 24 65 60v31h-10c-10 -9 -33 -29 -81 -29c-70 0 -133 39 -133 114c0 77 66 126 157 126s157 -51 157 -127v-114zM242 38c0 30 -25 52 -67 52s-67 -22 -67 -52s25 -51 67 -51
s67 21 67 51z" />
    <glyph glyph-name="zero.dnom" horiz-adv-x="364" 
d="M22 204c0 99 59 159 160 159c98 0 160 -60 160 -159v-59c0 -98 -59 -158 -160 -158s-160 60 -160 158v59zM112 210v-70c0 -46 24 -76 70 -76c47 0 70 30 70 76v70c0 47 -23 76 -70 76c-46 0 -70 -29 -70 -76z" />
    <glyph glyph-name="one.dnom" horiz-adv-x="256" 
d="M87 350h131v-350h-90v254h-10l-29 -60h-83v10z" />
    <glyph glyph-name="two.dnom" horiz-adv-x="350" 
d="M180 363c88 0 150 -45 150 -121c0 -75 -52 -105 -137 -123c-53 -11 -76 -22 -78 -45h213v-74h-308v44c0 81 45 119 132 139c61 13 88 29 88 60c0 29 -26 45 -60 45c-40 0 -68 -21 -69 -62h-89c2 87 68 137 158 137z" />
    <glyph glyph-name="three.dnom" horiz-adv-x="346" 
d="M21 350h305v-61l-105 -67v-10c62 -3 106 -35 106 -100c0 -73 -67 -125 -154 -125c-93 0 -157 50 -159 136h89c1 -38 29 -60 68 -60c40 0 66 23 66 52c0 31 -22 47 -66 47h-64v57l88 57h-174v74z" />
    <glyph glyph-name="four.dnom" horiz-adv-x="371" 
d="M156 350h147v-205h63v-72h-63v-73h-90v73h-200v66zM204 284l-94 -139h103v139h-9z" />
    <glyph glyph-name="five.dnom" horiz-adv-x="353" 
d="M32 350h292v-74h-204v-67h10c15 10 35 26 83 26c67 0 122 -43 122 -114v-7c0 -70 -61 -127 -156 -127c-89 0 -148 51 -159 129h90c4 -31 30 -54 69 -54s66 22 66 54c0 34 -25 51 -55 51c-28 0 -43 -12 -53 -19h-105v202z" />
    <glyph glyph-name="six.dnom" horiz-adv-x="354" 
d="M22 228c0 80 68 135 159 135c86 0 147 -45 150 -113h-89c-2 21 -20 39 -61 39c-43 0 -69 -24 -69 -60v-31h10c11 9 34 29 81 29c70 0 133 -39 133 -113c0 -77 -66 -127 -157 -127s-157 51 -157 127v114zM112 113c0 -30 25 -53 67 -53s67 23 67 53s-25 50 -67 50
s-67 -20 -67 -50z" />
    <glyph glyph-name="seven.dnom" horiz-adv-x="312" 
d="M4 350h304v-70l-141 -280h-96l140 276h-207v74z" />
    <glyph glyph-name="eight.dnom" horiz-adv-x="356" 
d="M24 266c0 57 63 97 154 97s154 -40 154 -97v-3c0 -48 -37 -69 -60 -76v-10c26 -6 66 -31 66 -84v-2c0 -58 -60 -104 -160 -104s-160 46 -160 104v2c0 55 41 78 67 84v10c-23 7 -61 28 -61 76v3zM114 254c0 -22 24 -38 64 -38s64 16 64 38c0 23 -24 36 -64 36
s-64 -13 -64 -36zM108 102c0 -27 27 -42 70 -42c44 0 70 15 70 42s-26 42 -70 42c-43 0 -70 -15 -70 -42z" />
    <glyph glyph-name="nine.dnom" horiz-adv-x="354" 
d="M332 122c0 -79 -66 -135 -155 -135c-82 0 -142 43 -156 109h94c6 -18 23 -35 62 -35c41 0 65 25 65 60v31h-10c-10 -9 -33 -29 -81 -29c-70 0 -133 40 -133 114c0 77 66 126 157 126s157 -51 157 -127v-114zM242 238c0 30 -25 52 -67 52s-67 -22 -67 -52s25 -51 67 -51
s67 21 67 51z" />
    <glyph glyph-name="zero.numr" horiz-adv-x="364" 
d="M22 554c0 99 59 159 160 159c98 0 160 -60 160 -159v-59c0 -98 -59 -158 -160 -158s-160 60 -160 158v59zM112 560v-70c0 -46 24 -76 70 -76c47 0 70 30 70 76v70c0 47 -23 76 -70 76c-46 0 -70 -29 -70 -76z" />
    <glyph glyph-name="one.numr" horiz-adv-x="256" 
d="M87 700h131v-350h-90v254h-10l-29 -60h-83v10z" />
    <glyph glyph-name="two.numr" horiz-adv-x="350" 
d="M180 706c88 0 150 -45 150 -121c0 -75 -52 -105 -137 -123c-53 -11 -76 -22 -78 -45h213v-74h-308v44c0 81 45 119 132 139c61 13 88 29 88 60c0 29 -26 45 -60 45c-40 0 -68 -21 -69 -62h-89c2 87 68 137 158 137z" />
    <glyph glyph-name="three.numr" horiz-adv-x="346" 
d="M21 700h305v-61l-105 -67v-10c62 -3 106 -35 106 -100c0 -73 -67 -125 -154 -125c-93 0 -157 50 -159 136h89c1 -38 29 -60 68 -60c40 0 66 23 66 52c0 31 -22 47 -66 47h-64v57l88 57h-174v74z" />
    <glyph glyph-name="four.numr" horiz-adv-x="371" 
d="M156 700h147v-205h63v-72h-63v-73h-90v73h-200v66zM204 634l-94 -139h103v139h-9z" />
    <glyph glyph-name="five.numr" horiz-adv-x="353" 
d="M32 700h292v-74h-204v-67h10c15 10 35 26 83 26c67 0 122 -43 122 -114v-7c0 -70 -61 -127 -156 -127c-89 0 -148 51 -159 129h90c4 -31 30 -54 69 -54s66 22 66 54c0 34 -25 51 -55 51c-28 0 -43 -12 -53 -19h-105v202z" />
    <glyph glyph-name="six.numr" horiz-adv-x="354" 
d="M22 578c0 80 68 135 159 135c86 0 147 -45 150 -113h-89c-2 21 -20 39 -61 39c-43 0 -69 -24 -69 -60v-31h10c11 9 34 29 81 29c70 0 133 -39 133 -113c0 -77 -66 -127 -157 -127s-157 51 -157 127v114zM112 463c0 -30 25 -53 67 -53s67 23 67 53s-25 50 -67 50
s-67 -20 -67 -50z" />
    <glyph glyph-name="seven.numr" horiz-adv-x="312" 
d="M4 700h304v-70l-141 -280h-96l140 276h-207v74z" />
    <glyph glyph-name="eight.numr" horiz-adv-x="356" 
d="M24 616c0 57 63 97 154 97s154 -40 154 -97v-3c0 -48 -37 -69 -60 -76v-10c26 -6 66 -31 66 -84v-2c0 -58 -60 -104 -160 -104s-160 46 -160 104v2c0 55 41 78 67 84v10c-23 7 -61 28 -61 76v3zM114 604c0 -22 24 -38 64 -38s64 16 64 38c0 23 -24 36 -64 36
s-64 -13 -64 -36zM108 452c0 -27 27 -42 70 -42c44 0 70 15 70 42s-26 42 -70 42c-43 0 -70 -15 -70 -42z" />
    <glyph glyph-name="nine.numr" horiz-adv-x="380" 
d="M341 472c0 -79 -66 -135 -155 -135c-83 0 -143 43 -156 109h93c6 -18 23 -35 62 -35c41 0 66 25 66 60v31h-10c-11 -9 -34 -29 -81 -29c-70 0 -133 40 -133 114c0 77 66 126 157 126s157 -51 157 -127v-114zM251 588c0 30 -25 52 -67 52s-67 -22 -67 -52s25 -51 67 -51
s67 21 67 51z" />
    <glyph glyph-name="zero.sups" horiz-adv-x="364" 
d="M22 554c0 99 59 159 160 159c98 0 160 -60 160 -159v-59c0 -98 -59 -158 -160 -158s-160 60 -160 158v59zM112 560v-70c0 -46 24 -76 70 -76c47 0 70 30 70 76v70c0 47 -23 76 -70 76c-46 0 -70 -29 -70 -76z" />
    <glyph glyph-name="one.sups" horiz-adv-x="256" 
d="M87 700h131v-350h-90v254h-10l-29 -60h-83v10z" />
    <glyph glyph-name="two.sups" horiz-adv-x="350" 
d="M180 706c88 0 150 -45 150 -121c0 -75 -52 -105 -137 -123c-53 -11 -76 -22 -78 -45h213v-74h-308v44c0 81 45 119 132 139c61 13 88 29 88 60c0 29 -26 45 -60 45c-40 0 -68 -21 -69 -62h-89c2 87 68 137 158 137z" />
    <glyph glyph-name="three.sups" horiz-adv-x="346" 
d="M21 700h305v-61l-105 -67v-10c62 -3 106 -35 106 -100c0 -73 -67 -125 -154 -125c-93 0 -157 50 -159 136h89c1 -38 29 -60 68 -60c40 0 66 23 66 52c0 31 -22 47 -66 47h-64v57l88 57h-174v74z" />
    <glyph glyph-name="four.sups" horiz-adv-x="371" 
d="M156 700h147v-205h63v-72h-63v-73h-90v73h-200v66zM204 634l-94 -139h103v139h-9z" />
    <glyph glyph-name="five.sups" horiz-adv-x="353" 
d="M32 700h292v-74h-204v-67h10c15 10 35 26 83 26c67 0 122 -43 122 -114v-7c0 -70 -61 -127 -156 -127c-89 0 -148 51 -159 129h90c4 -31 30 -54 69 -54s66 22 66 54c0 34 -25 51 -55 51c-28 0 -43 -12 -53 -19h-105v202z" />
    <glyph glyph-name="six.sups" horiz-adv-x="354" 
d="M22 578c0 80 68 135 159 135c86 0 147 -45 150 -113h-89c-2 21 -20 39 -61 39c-43 0 -69 -24 -69 -60v-31h10c11 9 34 29 81 29c70 0 133 -39 133 -113c0 -77 -66 -127 -157 -127s-157 51 -157 127v114zM112 463c0 -30 25 -53 67 -53s67 23 67 53s-25 50 -67 50
s-67 -20 -67 -50z" />
    <glyph glyph-name="seven.sups" horiz-adv-x="312" 
d="M4 700h304v-70l-141 -280h-96l140 276h-207v74z" />
    <glyph glyph-name="eight.sups" horiz-adv-x="356" 
d="M24 616c0 57 63 97 154 97s154 -40 154 -97v-3c0 -48 -37 -69 -60 -76v-10c26 -6 66 -31 66 -84v-2c0 -58 -60 -104 -160 -104s-160 46 -160 104v2c0 55 41 78 67 84v10c-23 7 -61 28 -61 76v3zM114 604c0 -22 24 -38 64 -38s64 16 64 38c0 23 -24 36 -64 36
s-64 -13 -64 -36zM108 452c0 -27 27 -42 70 -42c44 0 70 15 70 42s-26 42 -70 42c-43 0 -70 -15 -70 -42z" />
    <glyph glyph-name="nine.sups" horiz-adv-x="380" 
d="M341 472c0 -79 -66 -135 -155 -135c-83 0 -143 43 -156 109h93c6 -18 23 -35 62 -35c41 0 66 25 66 60v31h-10c-11 -9 -34 -29 -81 -29c-70 0 -133 40 -133 114c0 77 66 126 157 126s157 -51 157 -127v-114zM251 588c0 30 -25 52 -67 52s-67 -22 -67 -52s25 -51 67 -51
s67 21 67 51z" />
    <glyph glyph-name="fraction" unicode="&#x2044;" horiz-adv-x="626" 
d="M351 462l168 251l90 -66l-199 -229zM275 239l-168 -252l-89 67l198 229z" />
    <glyph glyph-name="onehalf" unicode="&#xbd;" horiz-adv-x="712" 
d="M357 462l168 251l90 -66l-199 -229zM87 700h131v-350h-90v254h-10l-29 -60h-83v10zM542 363c88 0 150 -45 150 -121c0 -75 -52 -105 -137 -123c-53 -11 -76 -22 -78 -45h213v-74h-308v44c0 81 45 119 132 139c61 13 88 29 88 60c0 29 -26 45 -60 45
c-40 0 -68 -21 -69 -62h-89c2 87 68 137 158 137zM281 239l-168 -252l-89 67l198 229z" />
    <glyph glyph-name="onequarter" unicode="&#xbc;" horiz-adv-x="703" 
d="M357 462l168 251l90 -66l-199 -229zM87 700h131v-350h-90v254h-10l-29 -60h-83v10zM488 350h147v-205h63v-72h-63v-73h-90v73h-200v66zM536 284l-94 -139h103v139h-9zM281 239l-168 -252l-89 67l198 229z" />
    <glyph glyph-name="threequarters" unicode="&#xbe;" horiz-adv-x="773" 
d="M427 462l168 251l90 -66l-199 -229zM21 700h305v-61l-105 -67v-10c62 -3 106 -35 106 -100c0 -73 -67 -125 -154 -125c-93 0 -157 50 -159 136h89c1 -38 29 -60 68 -60c40 0 66 23 66 52c0 31 -22 47 -66 47h-64v57l88 57h-174v74zM558 350h147v-205h63v-72h-63v-73h-90
v73h-200v66zM606 284l-94 -139h103v139h-9zM351 239l-168 -252l-89 67l198 229z" />
    <glyph glyph-name="oneeighth" unicode="&#x215b;" horiz-adv-x="718" 
d="M357 462l168 251l90 -66l-199 -229zM87 700h131v-350h-90v254h-10l-29 -60h-83v10zM386 266c0 57 63 97 154 97s154 -40 154 -97v-3c0 -48 -37 -69 -60 -76v-10c26 -6 66 -31 66 -84v-2c0 -58 -60 -104 -160 -104s-160 46 -160 104v2c0 55 41 78 67 84v10
c-23 7 -61 28 -61 76v3zM476 254c0 -22 24 -38 64 -38s64 16 64 38c0 23 -24 36 -64 36s-64 -13 -64 -36zM281 239l-168 -252l-89 67l198 229zM470 102c0 -27 27 -42 70 -42c44 0 70 15 70 42s-26 42 -70 42c-43 0 -70 -15 -70 -42z" />
    <glyph glyph-name="threeeighths" unicode="&#x215c;" horiz-adv-x="788" 
d="M427 462l168 251l90 -66l-199 -229zM21 700h305v-61l-105 -67v-10c62 -3 106 -35 106 -100c0 -73 -67 -125 -154 -125c-93 0 -157 50 -159 136h89c1 -38 29 -60 68 -60c40 0 66 23 66 52c0 31 -22 47 -66 47h-64v57l88 57h-174v74zM456 266c0 57 63 97 154 97
s154 -40 154 -97v-3c0 -48 -37 -69 -60 -76v-10c26 -6 66 -31 66 -84v-2c0 -58 -60 -104 -160 -104s-160 46 -160 104v2c0 55 41 78 67 84v10c-23 7 -61 28 -61 76v3zM546 254c0 -22 24 -38 64 -38s64 16 64 38c0 23 -24 36 -64 36s-64 -13 -64 -36zM351 239l-168 -252
l-89 67l198 229zM540 102c0 -27 27 -42 70 -42c44 0 70 15 70 42s-26 42 -70 42c-43 0 -70 -15 -70 -42z" />
    <glyph glyph-name="fiveeighths" unicode="&#x215d;" horiz-adv-x="795" 
d="M434 462l168 251l90 -66l-199 -229zM32 700h292v-74h-204v-67h10c15 10 35 26 83 26c67 0 122 -43 122 -114v-7c0 -70 -61 -127 -156 -127c-89 0 -148 51 -159 129h90c4 -31 30 -54 69 -54s66 22 66 54c0 34 -25 51 -55 51c-28 0 -43 -12 -53 -19h-105v202zM463 266
c0 57 63 97 154 97s154 -40 154 -97v-3c0 -48 -37 -69 -60 -76v-10c26 -6 66 -31 66 -84v-2c0 -58 -60 -104 -160 -104s-160 46 -160 104v2c0 55 41 78 67 84v10c-23 7 -61 28 -61 76v3zM553 254c0 -22 24 -38 64 -38s64 16 64 38c0 23 -24 36 -64 36s-64 -13 -64 -36z
M358 239l-168 -252l-89 67l198 229zM547 102c0 -27 27 -42 70 -42c44 0 70 15 70 42s-26 42 -70 42c-43 0 -70 -15 -70 -42z" />
    <glyph glyph-name="seveneighths" unicode="&#x215e;" horiz-adv-x="724" 
d="M363 462l168 251l90 -66l-199 -229zM4 700h304v-70l-141 -280h-96l140 276h-207v74zM392 266c0 57 63 97 154 97s154 -40 154 -97v-3c0 -48 -37 -69 -60 -76v-10c26 -6 66 -31 66 -84v-2c0 -58 -60 -104 -160 -104s-160 46 -160 104v2c0 55 41 78 67 84v10
c-23 7 -61 28 -61 76v3zM482 254c0 -22 24 -38 64 -38s64 16 64 38c0 23 -24 36 -64 36s-64 -13 -64 -36zM287 239l-168 -252l-89 67l198 229zM476 102c0 -27 27 -42 70 -42c44 0 70 15 70 42s-26 42 -70 42c-43 0 -70 -15 -70 -42z" />
    <glyph glyph-name="zero.subs.zero" horiz-adv-x="364" 
d="M182 163c98 0 160 -60 160 -159v-59c0 -99 -59 -158 -160 -158s-160 59 -160 158v59c0 99 59 159 160 159zM182 86c-46 0 -70 -29 -70 -76v-46l133 86c-10 23 -31 36 -63 36zM182 -136c47 0 70 29 70 76v50l-134 -86c10 -25 31 -40 64 -40z" />
    <glyph glyph-name="zero.dnom.zero" horiz-adv-x="364" 
d="M182 363c98 0 160 -60 160 -159v-59c0 -98 -59 -158 -160 -158s-160 60 -160 158v59c0 99 59 159 160 159zM182 286c-46 0 -70 -29 -70 -76v-46l133 86c-10 23 -31 36 -63 36zM182 64c47 0 70 30 70 76v50l-134 -86c10 -25 32 -40 64 -40z" />
    <glyph glyph-name="zero.numr.zero" horiz-adv-x="364" 
d="M182 713c98 0 160 -60 160 -159v-59c0 -98 -59 -158 -160 -158s-160 60 -160 158v59c0 99 59 159 160 159zM182 636c-46 0 -70 -29 -70 -76v-46l133 86c-10 23 -31 36 -63 36zM182 414c47 0 70 30 70 76v50l-134 -86c10 -25 32 -40 64 -40z" />
    <glyph glyph-name="zero.sups.zero" horiz-adv-x="364" 
d="M182 713c98 0 160 -60 160 -159v-59c0 -98 -59 -158 -160 -158s-160 60 -160 158v59c0 99 59 159 160 159zM182 636c-46 0 -70 -29 -70 -76v-46l133 86c-10 23 -31 36 -63 36zM182 414c47 0 70 30 70 76v50l-134 -86c10 -25 32 -40 64 -40z" />
    <glyph glyph-name="period" unicode="." horiz-adv-x="269" 
d="M48 73c0 50 38 86 87 86c48 0 86 -36 86 -86s-38 -87 -86 -87c-49 0 -87 37 -87 87z" />
    <glyph glyph-name="comma" unicode="," horiz-adv-x="269" 
d="M48 72c0 53 38 87 87 87s86 -34 86 -85v-119c0 -49 -36 -86 -85 -86h-83v62h70c20 0 28 10 28 29v32c-4 -1 -10 -2 -18 -2c-46 0 -85 32 -85 82z" />
    <glyph glyph-name="colon" unicode=":" horiz-adv-x="269" 
d="M48 424c0 50 38 86 87 86c48 0 86 -36 86 -86s-38 -87 -86 -87c-49 0 -87 37 -87 87zM48 73c0 50 38 86 87 86c48 0 86 -36 86 -86s-38 -87 -86 -87c-49 0 -87 37 -87 87z" />
    <glyph glyph-name="semicolon" unicode=";" horiz-adv-x="269" 
d="M48 424c0 50 38 86 87 86c48 0 86 -36 86 -86s-38 -87 -86 -87c-49 0 -87 37 -87 87zM48 72c0 53 38 87 87 87s86 -34 86 -85v-119c0 -49 -36 -86 -85 -86h-83v62h70c20 0 28 10 28 29v32c-4 -1 -10 -2 -18 -2c-46 0 -85 32 -85 82z" />
    <glyph glyph-name="ellipsis" unicode="&#x2026;" horiz-adv-x="649" 
d="M48 73c0 50 38 86 87 86c48 0 86 -36 86 -86s-38 -87 -86 -87c-49 0 -87 37 -87 87zM238 73c0 50 38 86 87 86c48 0 86 -36 86 -86s-38 -87 -86 -87c-49 0 -87 37 -87 87zM428 73c0 50 38 86 87 86c48 0 86 -36 86 -86s-38 -87 -86 -87c-49 0 -87 37 -87 87z" />
    <glyph glyph-name="exclam" unicode="!" horiz-adv-x="269" 
d="M77 700h115v-493h-115v493zM48 73c0 50 38 86 87 86c48 0 86 -36 86 -86s-38 -87 -86 -87c-49 0 -87 37 -87 87z" />
    <glyph glyph-name="exclamdown" unicode="&#xa1;" horiz-adv-x="269" 
d="M48 424c0 50 38 86 87 86c48 0 86 -36 86 -86s-38 -87 -86 -87c-49 0 -87 37 -87 87zM77 -200v490h115v-490h-115z" />
    <glyph glyph-name="question" unicode="?" horiz-adv-x="574" 
d="M38 497c0 134 108 217 252 217c142 0 242 -85 242 -200v-6c0 -109 -63 -159 -147 -197l-20 -9c-24 -11 -32 -23 -32 -53v-39h-116v46c0 68 22 107 81 133l20 9c70 32 98 57 98 111c0 57 -50 97 -126 97c-78 0 -136 -40 -136 -115v-29h-116v35zM189 73c0 50 38 86 86 86
c49 0 87 -36 87 -86s-38 -87 -87 -87c-48 0 -86 37 -86 87z" />
    <glyph glyph-name="questiondown" unicode="&#xbf;" horiz-adv-x="574" 
d="M212 424c0 50 38 86 86 86c49 0 87 -36 87 -86s-38 -87 -87 -87c-48 0 -86 37 -86 87zM535 3c0 -135 -107 -218 -251 -218c-142 0 -243 85 -243 200v6c0 110 64 160 147 197l20 9c24 11 32 24 32 53v36h116v-43c0 -68 -22 -106 -81 -133l-20 -9c-70 -31 -98 -56 -98 -111
c0 -57 51 -97 127 -97c78 0 135 40 135 116v28h116v-34z" />
    <glyph glyph-name="periodcentered" unicode="&#xb7;" horiz-adv-x="269" 
d="M48 350c0 50 38 87 87 87c48 0 86 -37 86 -87s-38 -86 -86 -86c-49 0 -87 36 -87 86z" />
    <glyph glyph-name="bullet" unicode="&#x2022;" horiz-adv-x="310" 
d="M20 350c0 74 61 136 135 136c75 0 136 -61 136 -136c0 -76 -64 -135 -136 -135s-135 62 -135 135z" />
    <glyph glyph-name="asterisk" unicode="*" 
d="M62 496h116l64 -23l6 15l-66 31l-78 78l62 62l78 -78l31 -66l15 6l-24 64v115h88v-115l-23 -64l15 -6l31 66l78 78l62 -62l-78 -78l-66 -31l6 -15l64 23h115v-88h-115l-64 24l-6 -15l66 -31l78 -78l-62 -62l-78 78l-31 66l-15 -6l23 -64v-116h-88v116l24 64l-15 6
l-31 -66l-78 -78l-62 62l78 78l66 31l-6 15l-64 -24h-116v88z" />
    <glyph glyph-name="numbersign" unicode="#" horiz-adv-x="652" 
d="M46 509h118v191h105v-191h115v191h105v-191h117v-100h-117v-117h117v-100h-117v-192h-105v192h-115v-192h-105v192h-118v100h118v117h-118v100zM269 409v-117h115v117h-115z" />
    <glyph glyph-name="slash" unicode="/" horiz-adv-x="497" 
d="M338 700h111l-294 -900h-111z" />
    <glyph glyph-name="backslash" unicode="\" horiz-adv-x="499" 
d="M161 700l294 -900h-111l-294 900h111z" />
    <glyph glyph-name="exclamdown.case" horiz-adv-x="269" 
d="M48 614c0 50 38 86 87 86c48 0 86 -36 86 -86s-38 -87 -86 -87c-49 0 -87 37 -87 87zM77 -14v494h115v-494h-115z" />
    <glyph glyph-name="questiondown.case" horiz-adv-x="574" 
d="M388 628c0 -50 -38 -87 -87 -87c-48 0 -86 37 -86 87s38 86 86 86c49 0 87 -36 87 -86zM538 204c0 -135 -107 -218 -251 -218c-142 0 -243 85 -243 201v6c0 109 64 159 147 196l20 9c24 11 32 24 32 53v39h116v-46c0 -68 -22 -106 -81 -133l-20 -9
c-70 -31 -98 -56 -98 -110c0 -57 51 -98 127 -98c78 0 135 41 135 116v28h116v-34z" />
    <glyph glyph-name="slash.case" horiz-adv-x="466" 
d="M305 737h116l-260 -778h-116z" />
    <glyph glyph-name="backslash.case" horiz-adv-x="466" 
d="M161 737l260 -778h-116l-260 778h116z" />
    <glyph glyph-name="parenleft" unicode="(" horiz-adv-x="417" 
d="M120 38v484c0 207 120 286 277 286v-101c-113 -2 -167 -65 -167 -194v-466c0 -129 54 -192 167 -194v-101c-157 0 -277 79 -277 286z" />
    <glyph glyph-name="parenright" unicode=")" horiz-adv-x="417" 
d="M297 38c0 -207 -120 -286 -277 -286v101c114 2 167 65 167 194v466c0 129 -53 192 -167 194v101c157 0 277 -79 277 -286v-484z" />
    <glyph glyph-name="braceleft" unicode="{" horiz-adv-x="403" 
d="M70 339h67c18 0 27 10 27 29v344c0 55 39 94 94 94h120v-101h-77c-18 0 -27 -10 -27 -30v-309c0 -48 -31 -79 -78 -79h-13v-13h13c47 0 78 -32 78 -80v-309c0 -20 9 -30 27 -30h77v-101h-120c-55 0 -94 39 -94 94v344c0 19 -9 29 -27 29h-67v118z" />
    <glyph glyph-name="braceright" unicode="}" horiz-adv-x="403" 
d="M333 339v-118h-67c-18 0 -27 -10 -27 -29v-344c0 -55 -38 -94 -93 -94h-121v101h77c18 0 27 10 27 30v309c0 48 31 80 78 80h13v12h-13c-47 0 -78 32 -78 80v309c0 20 -9 30 -27 30h-77v101h121c55 0 93 -39 93 -94v-344c0 -19 9 -29 27 -29h67z" />
    <glyph glyph-name="bracketleft" unicode="[" horiz-adv-x="359" 
d="M120 712c0 55 39 94 94 94h120v-101h-77c-18 0 -27 -10 -27 -30v-790c0 -20 9 -30 27 -30h77v-101h-120c-55 0 -94 39 -94 94v864z" />
    <glyph glyph-name="bracketright" unicode="]" horiz-adv-x="359" 
d="M239 712v-864c0 -55 -39 -94 -94 -94h-120v101h77c18 0 27 10 27 30v790c0 20 -9 30 -27 30h-77v101h120c55 0 94 -39 94 -94z" />
    <glyph glyph-name="parenleft.case" horiz-adv-x="417" 
d="M120 130v436c0 207 120 286 277 286v-105c-111 -2 -163 -63 -163 -190v-418c0 -127 52 -188 163 -190v-105c-157 0 -277 79 -277 286z" />
    <glyph glyph-name="parenright.case" horiz-adv-x="417" 
d="M297 130c0 -207 -120 -286 -277 -286v105c112 2 163 63 163 190v418c0 127 -51 188 -163 190v105c157 0 277 -79 277 -286v-436z" />
    <glyph glyph-name="braceleft.case" horiz-adv-x="403" 
d="M70 406h67c18 0 27 10 27 29v321c0 55 39 94 94 94h120v-105h-73c-18 0 -27 -10 -27 -30v-282c0 -48 -31 -79 -78 -79h-13v-13h13c47 0 78 -32 78 -80v-282c0 -20 9 -30 27 -30h73v-105h-120c-55 0 -94 39 -94 94v321c0 19 -9 29 -27 29h-67v118z" />
    <glyph glyph-name="braceright.case" horiz-adv-x="403" 
d="M333 406v-118h-67c-18 0 -27 -10 -27 -29v-321c0 -55 -38 -94 -93 -94h-121v105h73c18 0 27 10 27 30v282c0 48 31 80 78 80h13v13h-13c-47 0 -78 31 -78 79v282c0 20 -9 30 -27 30h-73v105h121c55 0 93 -39 93 -94v-321c0 -19 9 -29 27 -29h67z" />
    <glyph glyph-name="bracketleft.case" horiz-adv-x="359" 
d="M120 756c0 55 39 94 94 94h120v-105h-73c-18 0 -27 -10 -27 -30v-734c0 -20 9 -30 27 -30h73v-105h-120c-55 0 -94 39 -94 94v816z" />
    <glyph glyph-name="bracketright.case" horiz-adv-x="359" 
d="M239 756v-816c0 -55 -39 -94 -94 -94h-120v105h73c18 0 27 10 27 30v734c0 20 -9 30 -27 30h-73v105h120c55 0 94 -39 94 -94z" />
    <glyph glyph-name="hyphen" unicode="-" horiz-adv-x="460" 
d="M82 204v100h296v-100h-296z" />
    <glyph glyph-name="endash" unicode="&#x2013;" horiz-adv-x="612" 
d="M82 204v100h448v-100h-448z" />
    <glyph glyph-name="emdash" unicode="&#x2014;" horiz-adv-x="916" 
d="M82 204v100h752v-100h-752z" />
    <glyph glyph-name="underscore" unicode="_" 
d="M69 -148v100h482v-100h-482z" />
    <glyph glyph-name="hyphen.case" horiz-adv-x="460" 
d="M82 304v100h296v-100h-296z" />
    <glyph glyph-name="endash.case" horiz-adv-x="612" 
d="M82 304v100h448v-100h-448z" />
    <glyph glyph-name="emdash.case" horiz-adv-x="916" 
d="M82 304v100h752v-100h-752z" />
    <glyph glyph-name="quotesinglbase" unicode="&#x201a;" horiz-adv-x="269" 
d="M48 72c0 53 38 87 87 87s86 -34 86 -85v-119c0 -49 -36 -86 -85 -86h-83v62h70c20 0 28 10 28 29v32c-4 -1 -10 -2 -18 -2c-46 0 -85 32 -85 82z" />
    <glyph glyph-name="quotedblbase" unicode="&#x201e;" horiz-adv-x="464" 
d="M48 72c0 53 38 87 87 87s86 -34 86 -85v-119c0 -49 -36 -86 -85 -86h-83v62h70c20 0 28 10 28 29v32c-4 -1 -10 -2 -18 -2c-46 0 -85 32 -85 82zM243 72c0 53 38 87 87 87s86 -34 86 -85v-119c0 -49 -36 -86 -85 -86h-83v62h70c20 0 28 10 28 29v32c-4 -1 -10 -2 -18 -2
c-46 0 -85 32 -85 82z" />
    <glyph glyph-name="quotedblleft" unicode="&#x201c;" horiz-adv-x="464" 
d="M221 513c0 -52 -38 -87 -86 -87c-50 0 -87 35 -87 85v119c0 49 36 86 85 86h83v-62h-70c-19 0 -28 -10 -28 -29v-32c4 1 10 2 18 2c47 0 85 -32 85 -82zM416 513c0 -52 -38 -87 -86 -87c-50 0 -87 35 -87 85v119c0 49 36 86 85 86h83v-62h-70c-19 0 -28 -10 -28 -29v-32
c4 1 10 2 18 2c47 0 85 -32 85 -82z" />
    <glyph glyph-name="quotedblright" unicode="&#x201d;" horiz-adv-x="464" 
d="M48 629c0 52 38 87 87 87s86 -35 86 -85v-119c0 -49 -36 -86 -85 -86h-83v62h70c20 0 28 10 28 29v32c-4 -1 -10 -2 -18 -2c-46 0 -85 32 -85 82zM243 629c0 52 38 87 87 87s86 -35 86 -85v-119c0 -49 -36 -86 -85 -86h-83v62h70c20 0 28 10 28 29v32
c-4 -1 -10 -2 -18 -2c-46 0 -85 32 -85 82z" />
    <glyph glyph-name="quoteleft" unicode="&#x2018;" horiz-adv-x="269" 
d="M221 513c0 -52 -38 -87 -86 -87c-50 0 -87 35 -87 85v119c0 49 36 86 85 86h83v-62h-70c-19 0 -28 -10 -28 -29v-32c4 1 10 2 18 2c47 0 85 -32 85 -82z" />
    <glyph glyph-name="quoteright" unicode="&#x2019;" horiz-adv-x="269" 
d="M48 629c0 52 38 87 87 87s86 -35 86 -85v-119c0 -49 -36 -86 -85 -86h-83v62h70c20 0 28 10 28 29v32c-4 -1 -10 -2 -18 -2c-46 0 -85 32 -85 82z" />
    <glyph glyph-name="guillemotleft" unicode="&#xab;" horiz-adv-x="780" 
d="M62 307l314 178h6v-120l-209 -109v-16l209 -108v-120h-6l-314 178v117zM395 307l314 178h6v-120l-209 -109v-16l209 -108v-120h-6l-314 178v117z" />
    <glyph glyph-name="guillemotright" unicode="&#xbb;" horiz-adv-x="780" 
d="M382 307v-117l-314 -178h-6v120l208 108v16l-208 109v120h6zM715 307v-117l-314 -178h-6v120l209 108v16l-209 109v120h6z" />
    <glyph glyph-name="guilsinglleft" unicode="&#x2039;" horiz-adv-x="480" 
d="M62 312l347 173h6v-120l-245 -109v-16l245 -108v-120h-6l-347 173v127z" />
    <glyph glyph-name="guilsinglright" unicode="&#x203a;" horiz-adv-x="480" 
d="M419 312v-127l-347 -173h-6v120l244 108v16l-244 109v120h6z" />
    <glyph glyph-name="quotedbl" unicode="&#x22;" horiz-adv-x="464" 
d="M48 629c0 52 38 87 87 87s86 -35 86 -85v-119c0 -49 -36 -86 -85 -86h-83v62h70c20 0 28 10 28 29v32c-4 -1 -10 -2 -18 -2c-46 0 -85 32 -85 82zM243 629c0 52 38 87 87 87s86 -35 86 -85v-119c0 -49 -36 -86 -85 -86h-83v62h70c20 0 28 10 28 29v32
c-4 -1 -10 -2 -18 -2c-46 0 -85 32 -85 82z" />
    <glyph glyph-name="quotesingle" unicode="'" horiz-adv-x="269" 
d="M48 629c0 52 38 87 87 87s86 -35 86 -85v-119c0 -49 -36 -86 -85 -86h-83v62h70c20 0 28 10 28 29v32c-4 -1 -10 -2 -18 -2c-46 0 -85 32 -85 82z" />
    <glyph glyph-name="guillemotleft.case" horiz-adv-x="780" 
d="M62 397l314 178h6v-120l-209 -109v-16l209 -108v-120h-6l-314 178v117zM395 397l314 178h6v-120l-209 -109v-16l209 -108v-120h-6l-314 178v117z" />
    <glyph glyph-name="guillemotright.case" horiz-adv-x="780" 
d="M382 397v-117l-314 -178h-6v120l208 108v16l-208 109v120h6zM715 397v-117l-314 -178h-6v120l209 108v16l-209 109v120h6z" />
    <glyph glyph-name="guilsinglleft.case" horiz-adv-x="480" 
d="M62 402l347 173h6v-120l-245 -109v-16l245 -108v-120h-6l-347 173v127z" />
    <glyph glyph-name="guilsinglright.case" horiz-adv-x="480" 
d="M419 402v-127l-347 -173h-6v120l244 108v16l-244 109v120h6z" />
    <glyph glyph-name="space" unicode=" " horiz-adv-x="285" 
 />
    <glyph glyph-name="cent" unicode="&#xa2;" horiz-adv-x="599" 
d="M565 440h-116v16c0 72 -28 125 -87 144v-501c62 20 87 73 87 145v16h116v-19c0 -137 -69 -231 -203 -251v-106h-107v106c-136 19 -216 118 -216 282v156c0 160 79 262 216 282v106h107v-106c131 -20 203 -114 203 -249v-21zM155 265c0 -88 33 -147 100 -166v502
c-66 -21 -100 -82 -100 -166v-170z" />
    <glyph glyph-name="currency" unicode="&#xa4;" 
d="M42 549l70 70l60 -60c40 25 86 41 138 41c51 0 99 -16 138 -41l61 60l70 -70l-60 -61c25 -39 41 -87 41 -138c0 -52 -16 -98 -41 -138l60 -60l-70 -70l-61 60c-39 -27 -87 -42 -138 -42c-52 0 -98 15 -138 42l-60 -60l-70 70l60 60c-27 40 -42 86 -42 138
c0 51 15 99 42 138zM158 350c0 -84 67 -152 152 -152s152 67 152 152s-66 152 -152 152c-84 0 -152 -66 -152 -152z" />
    <glyph glyph-name="dollar" unicode="$" horiz-adv-x="606" 
d="M361 406c131 -30 205 -84 205 -200v-8c0 -117 -84 -193 -205 -209v-105h-107v106c-139 19 -224 110 -224 251v27h116v-20c0 -78 37 -130 108 -147v214c-120 30 -195 81 -195 198v6c0 106 83 177 195 192v105h107v-107c116 -19 197 -95 197 -216v-31h-116v22
c0 61 -31 98 -81 114v-192zM176 517c0 -47 28 -70 78 -86v170c-48 -12 -78 -43 -78 -84zM361 99c57 14 88 53 88 99c0 50 -31 75 -88 92v-191z" />
    <glyph glyph-name="Euro" unicode="&#x20ac;" horiz-adv-x="665" 
d="M631 440h-116v16c0 91 -45 152 -142 152c-87 0 -138 -53 -149 -135h149v-94h-152v-53h152v-94h-150c9 -88 59 -140 150 -140c102 0 142 62 142 152v16h116v-19c0 -155 -88 -255 -258 -255c-154 0 -252 87 -266 246h-70v94h68v53h-68v94h70c16 152 112 241 266 241
c166 0 258 -100 258 -253v-21z" />
    <glyph glyph-name="florin" unicode="&#x192;" 
d="M115 454h139v152c0 53 40 94 93 94h207v-104h-163c-18 0 -27 -10 -27 -30v-112h143v-104h-143v-256c0 -53 -40 -94 -93 -94h-196v104h152c18 0 27 10 27 30v216h-139v104z" />
    <glyph glyph-name="sterling" unicode="&#xa3;" horiz-adv-x="638" 
d="M60 386h70v104c0 144 83 224 218 224c143 0 230 -84 230 -224v-55h-112v58c0 71 -42 115 -115 115c-68 0 -109 -43 -109 -115v-107h110v-98h-110v-182h340v-106h-526v106h74v182h-70v98z" />
    <glyph glyph-name="yen" unicode="&#xa5;" 
d="M611 700l-184 -339h97v-94h-159v-53h159v-94h-159v-120h-116v120h-159v94h159v53h-159v94h98l-185 339h132l164 -310h16l164 310h132z" />
    <glyph glyph-name="plus" unicode="+" 
d="M101 400h157v159h104v-159h157v-100h-157v-159h-104v159h-157v100z" />
    <glyph glyph-name="minus" unicode="&#x2212;" 
d="M101 400h418v-100h-418v100z" />
    <glyph glyph-name="multiply" unicode="&#xd7;" 
d="M102 487l71 71l137 -137l138 137l71 -71l-137 -137l137 -136l-71 -71l-138 136l-137 -136l-71 71l137 136z" />
    <glyph glyph-name="divide" unicode="&#xf7;" 
d="M230 533c0 44 35 81 80 81c46 0 81 -37 81 -81s-36 -81 -81 -81s-80 37 -80 81zM101 400h418v-100h-418v100zM230 168c0 44 35 80 80 80c46 0 81 -36 81 -80c0 -45 -36 -81 -81 -81s-80 37 -80 81z" />
    <glyph glyph-name="equal" unicode="=" 
d="M101 382v100h418v-100h-418zM101 218v100h418v-100h-418z" />
    <glyph glyph-name="notequal" unicode="&#x2260;" 
d="M101 382v100h198l34 104l99 -31l-24 -73h111v-100h-144l-21 -64h165v-100h-198l-34 -103l-99 30l24 73h-111v100h143l22 64h-165z" />
    <glyph glyph-name="greater" unicode="&#x3e;" 
d="M520 282l-420 -152v108l312 104v16l-312 104v108l420 -151v-137z" />
    <glyph glyph-name="less" unicode="&#x3c;" 
d="M100 282v137l420 151v-108l-312 -104v-16l312 -104v-108z" />
    <glyph glyph-name="greaterequal" unicode="&#x2265;" 
d="M520 282l-420 -152v108l312 104v16l-312 104v108l420 -151v-137zM520 0h-419v96h419v-96z" />
    <glyph glyph-name="lessequal" unicode="&#x2264;" 
d="M100 282v137l420 151v-108l-312 -104v-16l312 -104v-108zM101 0v96h419v-96h-419z" />
    <glyph glyph-name="plusminus" unicode="&#xb1;" 
d="M101 300v100h159v159h100v-159h159v-100h-159v-145h-100v145h-159zM101 0v100h418v-100h-418z" />
    <glyph glyph-name="approxequal" unicode="&#x2248;" 
d="M342 496c13 -23 19 -34 38 -34c12 0 22 7 34 17l78 60l60 -78l-104 -80c-22 -18 -48 -33 -82 -33c-47 0 -70 22 -86 52c-12 24 -18 34 -37 34c-12 0 -23 -7 -34 -16l-79 -60l-60 78l104 80c22 17 48 32 83 32c47 0 70 -21 85 -52zM342 288c13 -23 19 -34 38 -34
c12 0 22 7 34 17l78 60l60 -78l-104 -80c-22 -18 -48 -33 -82 -33c-47 0 -70 22 -86 52c-12 24 -18 34 -37 34c-12 0 -23 -7 -34 -16l-80 -61l-60 78l105 81c22 17 48 32 83 32c47 0 70 -21 85 -52z" />
    <glyph glyph-name="asciitilde" unicode="~" 
d="M341 372c13 -23 19 -34 38 -34c12 0 22 7 34 17l86 66l60 -78l-112 -86c-22 -18 -48 -33 -82 -33c-47 0 -70 22 -86 52c-12 24 -18 34 -37 34c-12 0 -23 -7 -34 -16l-87 -66l-60 78l112 86c22 17 48 32 83 32c47 0 70 -21 85 -52z" />
    <glyph glyph-name="logicalnot" unicode="&#xac;" 
d="M101 300v100h418v-215h-100v115h-318z" />
    <glyph glyph-name="asciicircum" unicode="^" 
d="M394 700l155 -276h-125l-106 205h-16l-106 -205h-124l155 276h167z" />
    <glyph glyph-name="infinity" unicode="&#x221e;" 
d="M44 350c0 87 71 157 153 157c45 0 82 -17 104 -50h18c22 33 60 50 105 50c84 0 152 -70 152 -157c0 -88 -71 -157 -152 -157c-45 0 -83 18 -105 50h-18c-22 -32 -59 -50 -104 -50c-84 0 -153 73 -153 157zM262 350c0 34 -27 61 -61 61s-61 -27 -61 -61s27 -61 61 -61
s61 27 61 61zM358 350c0 -34 27 -61 61 -61s61 27 61 61s-27 61 -61 61s-61 -27 -61 -61z" />
    <glyph glyph-name="emptyset" unicode="&#x2205;" horiz-adv-x="640" 
d="M473 467c69 -44 114 -120 114 -214v-9c0 -152 -118 -258 -267 -258c-18 0 -36 2 -54 5l-41 -96l-98 41l40 93c-69 45 -114 121 -114 215v9c0 152 118 257 267 257c18 0 36 -2 54 -5l41 96l98 -41zM163 241c0 -47 18 -85 48 -112l119 277h-10c-90 0 -157 -60 -157 -151
v-14zM477 241v14c0 47 -18 86 -48 112l-119 -277h10c90 0 157 61 157 151z" />
    <glyph glyph-name="integral" unicode="&#x222b;" 
d="M365 566v-672c0 -53 -40 -94 -93 -94h-133v104h89c18 0 27 10 27 30v672c0 53 40 94 93 94h133v-104h-89c-18 0 -27 -10 -27 -30z" />
    <glyph glyph-name="product" unicode="&#x220f;" 
d="M69 0v700h482v-700h-116v590h-250v-590h-116z" />
    <glyph glyph-name="summation" unicode="&#x2211;" 
d="M68 596v104h484v-108h-313v-16l169 -183v-86l-169 -183v-16h313v-108h-484v104l219 238v16z" />
    <glyph glyph-name="radical" unicode="&#x221a;" 
d="M35 304v100h193l70 -308h16l164 760h111l-188 -856h-192l-69 304h-105z" />
    <glyph glyph-name="partialdiff" unicode="&#x2202;" 
d="M55 254c0 146 93 256 225 256c65 0 104 -19 130 -54h16c-34 101 -140 152 -270 167l19 101c254 -29 391 -183 391 -438c0 -180 -94 -300 -259 -300c-148 0 -252 108 -252 256v12zM308 91c86 0 143 59 143 163c0 92 -60 152 -143 152c-84 0 -143 -63 -143 -154v-8
c0 -94 58 -153 143 -153z" />
    <glyph glyph-name="uni00B5" unicode="&#xb5;" horiz-adv-x="595" 
d="M63 -200v696h110v-293c0 -77 43 -120 119 -120c86 0 136 54 136 149v264h110v-496h-108v76h-14c-17 -46 -55 -90 -127 -90c-57 0 -83 21 -102 37h-14v-223h-110z" />
    <glyph glyph-name="percent" unicode="%" horiz-adv-x="761" 
d="M417 462l168 252l90 -67l-199 -229zM42 554c0 99 60 159 162 159c99 0 162 -60 162 -159v-19c0 -98 -60 -158 -162 -158s-162 60 -162 158v19zM134 559v-28c0 -46 24 -76 70 -76c47 0 70 30 70 76v28c0 47 -23 76 -70 76c-46 0 -70 -29 -70 -76zM395 164
c0 99 60 159 162 159c99 0 162 -60 162 -159v-19c0 -98 -60 -158 -162 -158s-162 60 -162 158v19zM341 239l-168 -252l-89 67l198 229zM487 169v-28c0 -46 23 -76 70 -76c46 0 70 30 70 76v28c0 47 -24 76 -70 76c-47 0 -70 -29 -70 -76z" />
    <glyph glyph-name="perthousand" unicode="&#x2030;" horiz-adv-x="993" 
d="M675 647l-199 -229l-59 44l168 252zM204 713c99 0 162 -60 162 -159v-19c0 -98 -60 -158 -162 -158s-162 60 -162 158v19c0 99 60 159 162 159zM274 531v28c0 47 -23 76 -70 76c-46 0 -70 -29 -70 -76v-28c0 -46 24 -76 70 -76c47 0 70 30 70 76zM794 323
c94 0 157 -60 157 -159v-19c0 -98 -60 -158 -157 -158c-53 0 -95 18 -121 52c-26 -34 -68 -52 -121 -52c-97 0 -157 60 -157 158v19c0 99 60 159 157 159c52 0 94 -19 120 -52c27 33 68 52 122 52zM84 54l198 229l59 -44l-168 -252zM627 141v28c0 47 -24 76 -70 76
c-47 0 -71 -29 -71 -76v-28c0 -46 24 -76 71 -76c46 0 70 30 70 76zM859 141v28c0 47 -24 76 -70 76c-47 0 -70 -29 -70 -76v-28c0 -46 23 -76 70 -76c46 0 70 30 70 76z" />
    <glyph glyph-name="arrowup" unicode="&#x2191;" 
d="M35 474l233 232h85l232 -232l-73 -73l-120 120l-22 31l-9 -3l4 -38v-511h-109v511l3 38l-9 3l-21 -31l-121 -120z" />
    <glyph glyph-name="uni2197" unicode="&#x2197;" 
d="M170 496h326l59 -59v-326h-99v172l7 37l-9 5l-24 -30l-309 -310l-76 76l309 310l30 24l-5 9l-37 -7h-172v99z" />
    <glyph glyph-name="arrowright" unicode="&#x2192;" horiz-adv-x="800" 
d="M521 526l229 -230v-85l-229 -230l-72 73l120 120l31 22l-3 9l-38 -4h-509v105h509l38 -3l3 9l-31 21l-120 121z" />
    <glyph glyph-name="uni2198" unicode="&#x2198;" 
d="M170 0v99h172l37 -6l5 8l-30 25l-309 309l76 76l309 -309l24 -30l9 5l-7 37v171h99v-326l-59 -59h-326z" />
    <glyph glyph-name="arrowdown" unicode="&#x2193;" 
d="M36 226l72 72l121 -121l21 -31l9 3l-3 38v513h109v-513l-4 -38l9 -3l22 31l120 121l72 -72l-231 -232h-85z" />
    <glyph glyph-name="uni2199" unicode="&#x2199;" 
d="M450 0h-326l-59 59v326h99v-171l-6 -37l8 -5l25 30l308 309l76 -76l-308 -309l-30 -25l5 -8l37 6h171v-99z" />
    <glyph glyph-name="arrowleft" unicode="&#x2190;" horiz-adv-x="800" 
d="M280 526l72 -72l-121 -121l-31 -21l3 -9l38 3h509v-105h-509l-38 4l-3 -9l31 -22l121 -120l-72 -73l-230 230v85z" />
    <glyph glyph-name="uni2196" unicode="&#x2196;" 
d="M450 496v-99h-171l-37 7l-5 -9l30 -24l308 -310l-76 -76l-308 310l-25 30l-8 -5l6 -37v-172h-99v326l59 59h326z" />
    <glyph glyph-name="arrowboth" unicode="&#x2194;" horiz-adv-x="800" 
d="M526 520l224 -224v-85l-224 -225l-72 72l115 116l31 21l-3 9l-38 -3h-318l-38 3l-3 -9l31 -21l116 -116l-72 -72l-225 225v85l225 224l72 -72l-116 -115l-31 -22l3 -9l38 4h318l38 -4l3 9l-31 22l-115 115z" />
    <glyph glyph-name="arrowupdn" unicode="&#x2195;" 
d="M392 182l120 121l73 -73l-232 -233h-85l-233 233l73 73l121 -121l21 -31l9 3l-3 38v316l3 38l-9 3l-21 -31l-121 -120l-73 73l233 232h85l232 -232l-73 -73l-120 120l-22 31l-9 -3l4 -38v-316l-4 -38l9 -3z" />
    <glyph glyph-name="uni2197.case" horiz-adv-x="610" 
d="M170 700h326l59 -59v-326h-99v172l7 37l-9 5l-24 -30l-309 -310l-76 76l309 310l30 24l-5 9l-37 -7h-172v99z" />
    <glyph glyph-name="arrowright.case" horiz-adv-x="800" 
d="M521 626l229 -230v-85l-229 -229l-72 72l120 120l31 22l-3 9l-38 -4h-509v105h509l38 -3l3 9l-31 21l-120 121z" />
    <glyph glyph-name="arrowleft.case" horiz-adv-x="800" 
d="M280 626l72 -72l-121 -121l-31 -21l3 -9l38 3h509v-105h-509l-38 4l-3 -9l31 -22l121 -120l-72 -72l-230 229v85z" />
    <glyph glyph-name="uni2196.case" 
d="M450 700v-99h-171l-37 7l-5 -9l30 -24l308 -310l-76 -76l-308 310l-25 30l-8 -5l6 -37v-172h-99v326l59 59h326z" />
    <glyph glyph-name="arrowboth.case" horiz-adv-x="800" 
d="M526 621l224 -225v-85l-224 -224l-72 72l115 115l31 22l-3 9l-38 -4h-318l-38 4l-3 -9l31 -22l116 -115l-72 -72l-225 224v85l225 225l72 -72l-116 -116l-31 -21l3 -9l38 3h318l38 -3l3 9l-31 21l-115 116z" />
    <glyph glyph-name="lozenge" unicode="&#x25ca;" 
d="M48 350l174 350h176l174 -350l-174 -350h-176zM172 350l130 -264h16l130 264l-130 265h-16z" />
    <glyph glyph-name="at" unicode="@" horiz-adv-x="1034" 
d="M83 0v500c0 128 72 200 200 200h478c124 0 190 -65 190 -189v-411c0 -60 -39 -100 -100 -100h-139c-46 0 -75 27 -75 73v3h-16c-14 -46 -52 -90 -131 -90c-119 0 -204 105 -204 250v15c0 146 84 249 199 249c81 0 116 -46 129 -82h16v68h107v-356c0 -22 10 -33 30 -33h43
c24 0 33 10 33 35v378c0 61 -30 91 -91 91h-450c-75 0 -111 -36 -111 -111v-480c0 -75 36 -111 111 -111h634v-99h-653c-128 0 -200 72 -200 200zM395 238c0 -93 47 -151 116 -151c70 0 118 57 118 151v11c0 94 -48 150 -118 150c-69 0 -116 -57 -116 -150v-11z" />
    <glyph glyph-name="ampersand" unicode="&#x26;" horiz-adv-x="690" 
d="M34 199c0 78 45 140 100 181v15c-28 38 -46 78 -46 125v6c0 112 89 188 212 188c125 0 212 -78 212 -197v-21h-117v18c0 56 -35 94 -97 94c-58 0 -93 -36 -93 -84v-4c0 -55 43 -95 113 -165l113 -112h17l97 164h124l-144 -240v-17l151 -150h-150l-63 63h-16
c-45 -46 -101 -78 -182 -78c-141 0 -231 95 -231 214zM151 203c0 -57 46 -111 118 -111c45 0 78 18 104 43v16l-154 152h-15c-32 -23 -53 -56 -53 -96v-4z" />
    <glyph glyph-name="paragraph" unicode="&#xb6;" horiz-adv-x="610" 
d="M21 500c0 120 91 200 218 200h306v-700h-98v608h-86v-608h-98v288h-28c-126 0 -214 84 -214 200v12zM119 497v-6c0 -66 45 -111 113 -111h31v228h-31c-70 0 -113 -45 -113 -111z" />
    <glyph glyph-name="section" unicode="&#xa7;" horiz-adv-x="483" 
d="M58 560c0 97 77 154 179 154c114 0 194 -63 194 -164v-26h-98v17c0 47 -32 81 -94 81c-49 0 -82 -24 -82 -63c0 -49 47 -66 111 -76c118 -20 170 -72 170 -161c0 -33 -6 -61 -18 -85c12 -22 18 -47 18 -75v-8c0 -99 -68 -168 -192 -168c-130 0 -211 78 -211 198v16h98
v-13c0 -66 37 -109 113 -109c61 0 93 26 93 73c0 44 -24 66 -103 79c-115 19 -178 69 -178 163c0 32 7 58 21 81c-14 23 -21 49 -21 80v6zM268 319c27 -5 46 -9 66 -18c2 4 3 10 3 17c0 40 -22 64 -101 76c-28 4 -52 11 -74 20c-3 -6 -4 -13 -4 -21c0 -45 42 -63 110 -74z
" />
    <glyph glyph-name="copyright" unicode="&#xa9;" horiz-adv-x="732" 
d="M65 501c0 132 74 199 194 199h215c120 0 193 -67 193 -199v-301c0 -132 -73 -200 -193 -200h-215c-120 0 -194 68 -194 200v301zM161 485v-269c0 -82 36 -127 116 -127h178c81 0 116 45 116 127v269c0 82 -35 126 -116 126h-178c-80 0 -116 -44 -116 -126zM226 399
c0 101 54 155 143 155c97 0 139 -58 139 -143v-12h-90v19c0 30 -14 51 -49 51c-33 0 -51 -21 -51 -55v-127c0 -33 19 -54 51 -54c34 0 49 20 49 51v20h90v-13c0 -89 -44 -143 -138 -143c-90 0 -144 53 -144 154v97z" />
    <glyph glyph-name="registered" unicode="&#xae;" horiz-adv-x="558" 
d="M69 506c0 122 90 208 210 208s210 -86 210 -208s-90 -208 -210 -208s-210 86 -210 208zM112 506c0 -101 66 -167 167 -167s167 66 167 167s-66 167 -167 167s-167 -66 -167 -167zM207 619h85c49 0 75 -29 75 -62c0 -27 -12 -46 -40 -56v-6c22 -2 32 -18 32 -34v-64h-41
v61c0 13 -8 21 -21 21h-49v-82h-41v222zM248 582v-66h45c22 0 33 15 33 33c0 19 -11 33 -33 33h-45z" />
    <glyph glyph-name="trademark" unicode="&#x2122;" horiz-adv-x="597" 
d="M54 700h190v-37h-74v-185h-41v185h-75v37zM274 700h73l52 -185h4l52 185h73v-222h-41v185h-4l-52 -185h-60l-52 185h-4v-185h-41v222z" />
    <glyph glyph-name="degree" unicode="&#xb0;" horiz-adv-x="399" 
d="M47 571c0 85 68 145 153 145c87 0 152 -61 152 -145c0 -85 -67 -146 -152 -146s-153 62 -153 146zM138 571c0 -38 27 -61 62 -61s61 25 61 61c0 35 -26 60 -61 60s-62 -25 -62 -60z" />
    <glyph glyph-name="prime" unicode="&#x2032;" horiz-adv-x="310" 
d="M102 700h122l-54 -270h-79z" />
    <glyph glyph-name="primedbl" unicode="&#x2033;" horiz-adv-x="440" 
d="M90 700h122l-54 -270h-79zM244 700h121l-54 -270h-78z" />
    <glyph glyph-name="bar" unicode="|" horiz-adv-x="240" 
d="M175 806v-1052h-110v1052h110z" />
    <glyph glyph-name="brokenbar" unicode="&#xa6;" horiz-adv-x="240" 
d="M175 366h-110v440h110v-440zM65 194h110v-440h-110v440z" />
    <glyph glyph-name="dagger" unicode="&#x2020;" 
d="M86 416v108h166v176h116v-176h166v-108h-166v-416h-116v416h-166z" />
    <glyph glyph-name="daggerdbl" unicode="&#x2021;" 
d="M86 176v108h166v132h-166v108h166v176h116v-176h166v-108h-166v-132h166v-108h-166v-176h-116v176h-166z" />
    <glyph glyph-name="at.case" horiz-adv-x="1012" 
d="M80 127v446c0 128 72 200 200 200h462c124 0 190 -65 190 -189v-370c0 -60 -39 -100 -100 -100h-135c-45 0 -75 30 -75 72v4h-16c-14 -46 -52 -90 -131 -90c-119 0 -204 104 -204 242v15c0 139 84 241 199 241c81 0 116 -46 129 -82h16v68h107v-340c0 -22 10 -33 30 -33
h39c24 0 33 10 33 35v337c0 61 -30 91 -91 91h-434c-75 0 -111 -36 -111 -111v-426c0 -75 36 -111 111 -111h620v-99h-639c-128 0 -200 72 -200 200zM496 497c-69 0 -116 -56 -116 -142v-11c0 -86 47 -143 116 -143c70 0 118 56 118 143v11c0 87 -48 142 -118 142z" />
    <glyph glyph-name="bar.case" horiz-adv-x="240" 
d="M175 856v-1012h-110v1012h110z" />
    <glyph glyph-name="brokenbar.case" horiz-adv-x="240" 
d="M175 436h-110v420h110v-420zM65 264h110v-420h-110v420z" />
    <glyph glyph-name="uni0308" unicode="&#x308;" horiz-adv-x="0" 
d="M-410 640c0 47 37 80 83 80s82 -33 82 -80c0 -46 -36 -80 -82 -80s-83 34 -83 80zM-210 640c0 47 37 80 83 80s82 -33 82 -80c0 -46 -36 -80 -82 -80s-83 34 -83 80z" />
    <glyph glyph-name="uni0307" unicode="&#x307;" horiz-adv-x="0" 
d="M-210 640c0 47 37 80 83 80s82 -33 82 -80c0 -46 -36 -80 -82 -80s-83 34 -83 80z" />
    <glyph glyph-name="gravecomb" unicode="&#x300;" horiz-adv-x="0" 
d="M-102 700l57 -130h-97l-86 130h126z" />
    <glyph glyph-name="acutecomb" unicode="&#x301;" horiz-adv-x="0" 
d="M-170 700h125l-86 -130h-97z" />
    <glyph glyph-name="uni030B" unicode="&#x30b;" horiz-adv-x="0" 
d="M-324 700h123l-86 -130h-95zM-169 700h124l-86 -130h-95z" />
    <glyph glyph-name="uni0302" unicode="&#x302;" horiz-adv-x="0" 
d="M-156 570l-46 68h-12l-46 -68h-112l94 130h139l94 -130h-111z" />
    <glyph glyph-name="uni030C" unicode="&#x30c;" horiz-adv-x="0" 
d="M-156 700h111l-94 -130h-139l-94 130h112l46 -67h12z" />
    <glyph glyph-name="uni0306" unicode="&#x306;" horiz-adv-x="0" 
d="M-128 700h83v-21c0 -72 -49 -118 -124 -118s-124 46 -124 118v21h83v-17c0 -23 14 -41 41 -41s41 18 41 41v17z" />
    <glyph glyph-name="uni030A" unicode="&#x30a;" horiz-adv-x="0" 
d="M-258 639c0 60 47 103 107 103s106 -42 106 -103s-48 -102 -106 -102c-59 0 -107 43 -107 102zM-185 639c0 -19 14 -33 34 -33s33 14 33 33s-13 34 -33 34s-34 -15 -34 -34z" />
    <glyph glyph-name="tildecomb" unicode="&#x303;" horiz-adv-x="0" 
d="M-424 615l52 64c23 29 47 45 81 45c33 0 55 -16 79 -47c10 -12 17 -22 33 -22s24 8 33 21l34 42l67 -53l-51 -64c-23 -29 -47 -45 -81 -45c-33 0 -55 16 -79 47c-10 12 -17 22 -33 22s-24 -8 -34 -21l-34 -42z" />
    <glyph glyph-name="uni0304" unicode="&#x304;" horiz-adv-x="0" 
d="M-45 660v-90h-290v90h290z" />
    <glyph glyph-name="uni0312" unicode="&#x312;" horiz-adv-x="0" 
d="M-45 641c0 -53 -38 -87 -86 -87c-50 0 -87 34 -87 85v108c0 49 36 86 85 86h83v-62h-70c-19 0 -28 -9 -28 -29v-20c4 1 10 2 18 2c47 0 85 -33 85 -83z" />
    <glyph glyph-name="uni0326" unicode="&#x326;" horiz-adv-x="0" 
d="M-218 -137c0 52 38 87 87 87s86 -35 86 -85v-109c0 -49 -36 -86 -85 -86h-83v62h70c20 0 28 10 28 29v21c-4 -1 -10 -2 -18 -2c-46 0 -85 33 -85 83z" />
    <glyph glyph-name="uni0327" unicode="&#x327;" horiz-adv-x="0" 
d="M-229 32h63l-18 -92h10c9 13 26 25 52 25c42 0 77 -30 77 -81c0 -61 -45 -97 -104 -97c-46 0 -70 17 -89 34l38 54c11 -14 24 -23 45 -23c20 0 36 11 36 31c0 16 -10 28 -25 28c-11 0 -19 -5 -22 -14h-90v10z" />
    <glyph glyph-name="uni0328" unicode="&#x328;" horiz-adv-x="0" 
d="M-171 30h80l-21 -90c-1 -3 -1 -6 -1 -8c0 -15 8 -22 23 -22h45v-78h-72c-40 0 -80 25 -80 74c0 6 1 14 3 24z" />
    <glyph glyph-name="uni0335" unicode="&#x335;" horiz-adv-x="0" 
d="M-349 634h304v-79h-304v79z" />
    <glyph glyph-name="uni0336" unicode="&#x336;" horiz-adv-x="0" 
d="M-45 597v-97h-630v97h630z" />
    <glyph glyph-name="uni0337" unicode="&#x337;" horiz-adv-x="0" 
d="M-139 576l94 -34l-241 -630l-95 34z" />
    <glyph glyph-name="uni0338" unicode="&#x338;" horiz-adv-x="0" 
d="M-141 779l96 -30l-277 -840l-97 30z" />
    <glyph glyph-name="acute" unicode="&#xb4;" horiz-adv-x="273" 
d="M103 700h125l-86 -130h-97z" />
    <glyph glyph-name="breve" unicode="&#x2d8;" horiz-adv-x="338" 
d="M210 700h83v-21c0 -72 -49 -118 -124 -118s-124 46 -124 118v21h83v-17c0 -23 14 -41 41 -41s41 18 41 41v17z" />
    <glyph glyph-name="caron" unicode="&#x2c7;" horiz-adv-x="417" 
d="M261 700h111l-94 -130h-139l-94 130h112l46 -67h12z" />
    <glyph glyph-name="cedilla" unicode="&#xb8;" horiz-adv-x="301" 
d="M72 32h63l-18 -92h10c9 13 26 25 52 25c42 0 77 -30 77 -81c0 -61 -45 -97 -104 -97c-46 0 -70 17 -89 34l38 54c11 -14 24 -23 45 -23c20 0 36 11 36 31c0 16 -10 28 -25 28c-11 0 -19 -5 -22 -14h-90v10z" />
    <glyph glyph-name="circumflex" unicode="&#x2c6;" horiz-adv-x="417" 
d="M261 570l-46 68h-12l-46 -68h-112l94 130h139l94 -130h-111z" />
    <glyph glyph-name="dieresis" unicode="&#xa8;" horiz-adv-x="455" 
d="M45 640c0 47 37 80 83 80s82 -33 82 -80c0 -46 -36 -80 -82 -80s-83 34 -83 80zM245 640c0 47 37 80 83 80s82 -33 82 -80c0 -46 -36 -80 -82 -80s-83 34 -83 80z" />
    <glyph glyph-name="dotaccent" unicode="&#x2d9;" horiz-adv-x="255" 
d="M45 640c0 47 37 80 83 80s82 -33 82 -80c0 -46 -36 -80 -82 -80s-83 34 -83 80z" />
    <glyph glyph-name="grave" unicode="`" horiz-adv-x="273" 
d="M171 700l57 -130h-97l-86 130h126z" />
    <glyph glyph-name="hungarumlaut" unicode="&#x2dd;" horiz-adv-x="427" 
d="M103 700h123l-86 -130h-95zM258 700h124l-86 -130h-95z" />
    <glyph glyph-name="macron" unicode="&#xaf;" horiz-adv-x="380" 
d="M335 660v-90h-290v90h290z" />
    <glyph glyph-name="ogonek" unicode="&#x2db;" horiz-adv-x="242" 
d="M71 30h80l-21 -90c-1 -3 -1 -6 -1 -8c0 -15 8 -22 23 -22h45v-78h-72c-40 0 -80 25 -80 74c0 6 1 14 3 24z" />
    <glyph glyph-name="ring" unicode="&#x2da;" horiz-adv-x="303" 
d="M45 639c0 60 47 103 107 103s106 -42 106 -103s-48 -102 -106 -102c-59 0 -107 43 -107 102zM118 639c0 -19 14 -33 34 -33s33 14 33 33s-13 34 -33 34s-34 -15 -34 -34z" />
    <glyph glyph-name="tilde" unicode="&#x2dc;" horiz-adv-x="469" 
d="M45 615l52 64c23 29 47 45 81 45c33 0 55 -16 79 -47c10 -12 17 -22 33 -22s24 8 33 21l34 42l67 -53l-51 -64c-23 -29 -47 -45 -81 -45c-33 0 -55 16 -79 47c-10 12 -17 22 -33 22s-24 -8 -34 -21l-34 -42z" />
    <glyph glyph-name="uni0308.case" horiz-adv-x="0" 
d="M-418 821c0 46 37 80 83 80s82 -34 82 -80c0 -47 -36 -80 -82 -80s-83 33 -83 80zM-210 821c0 46 37 80 83 80s82 -34 82 -80c0 -47 -36 -80 -82 -80s-83 33 -83 80z" />
    <glyph glyph-name="uni0307.case" horiz-adv-x="0" 
d="M-210 821c0 46 37 80 83 80s82 -34 82 -80c0 -47 -36 -80 -82 -80s-83 33 -83 80z" />
    <glyph glyph-name="gravecomb.case" horiz-adv-x="0" 
d="M-99 880l54 -117h-100l-84 117h130z" />
    <glyph glyph-name="acutecomb.case" horiz-adv-x="0" 
d="M-174 880h129l-84 -117h-100z" />
    <glyph glyph-name="uni030B.case" horiz-adv-x="0" 
d="M-332 880h127l-84 -117h-98zM-172 880h127l-83 -117h-98z" />
    <glyph glyph-name="uni0302.case" horiz-adv-x="0" 
d="M-160 763l-45 58h-12l-45 -58h-116l98 117h137l98 -117h-115z" />
    <glyph glyph-name="uni030C.case" horiz-adv-x="0" 
d="M-160 882h115l-98 -117h-137l-98 117h116l45 -58h12z" />
    <glyph glyph-name="uni0306.case" horiz-adv-x="0" 
d="M-128 880h83v-8c0 -72 -49 -117 -124 -117s-124 45 -124 117v8h83v-4c0 -23 14 -40 41 -40s41 17 41 40v4z" />
    <glyph glyph-name="uni030A.case" horiz-adv-x="0" 
d="M-258 841c0 59 47 102 107 102s106 -42 106 -102c0 -62 -48 -103 -106 -103c-59 0 -107 43 -107 103zM-185 841c0 -19 14 -34 34 -34s33 15 33 34s-13 33 -33 33s-34 -14 -34 -33z" />
    <glyph glyph-name="tildecomb.case" horiz-adv-x="0" 
d="M-424 797l52 65c23 29 46 45 79 45s57 -16 81 -47c10 -13 17 -22 33 -22s24 8 33 20l34 43l67 -53l-51 -65c-23 -28 -45 -45 -79 -45s-57 16 -81 47c-10 13 -17 22 -33 22s-24 -8 -34 -20l-34 -43z" />
    <glyph glyph-name="uni0304.case" horiz-adv-x="0" 
d="M-45 853v-90h-290v90h290z" />
    <glyph glyph-name="uniE132" unicode="&#xe132;" horiz-adv-x="474" 
d="M106 700h125l-86 -130h-97zM344 700h125l-86 -130h-97zM173 493v-493h-110v493h110zM411 493v-603c0 -53 -38 -90 -90 -90h-134v94h86c18 0 28 10 28 30v569h110z" />
    <glyph glyph-name="uniE133" unicode="&#xe133;" horiz-adv-x="571" 
d="M103 880h129l-84 -117h-100zM437 880h129l-84 -117h-100zM60 700h116v-351h-116v351zM394 700h116v-490c0 -145 -80 -224 -218 -224c-143 0 -232 82 -232 224v47h116v-47c0 -71 39 -116 113 -116c72 0 105 44 105 116v490z" />
    <glyph glyph-name="ringacutecomb" horiz-adv-x="303" 
d="M312 830l-80 -121c16 -18 26 -42 26 -70c0 -61 -48 -102 -106 -102c-59 0 -107 43 -107 102s45 101 103 103l39 88h125zM152 606c20 0 33 14 33 33s-13 34 -33 34s-34 -15 -34 -34s14 -33 34 -33z" />
    <glyph glyph-name="Omega" 
d="M56 434c0 168 94 280 254 280c161 0 254 -112 254 -280v-122c0 -103 -37 -158 -90 -186v-16h102v-110h-228v120c87 28 100 94 100 206v100c0 116 -49 178 -138 178s-138 -64 -138 -178v-100c0 -114 14 -178 100 -206v-120h-228v110h102v16c-61 31 -90 98 -90 186v122z
" />
    <glyph glyph-name="Delta" 
d="M18 0l192 700h200l192 -700h-584zM168 110h284l-134 505h-16z" />
    </font>
</defs>
</svg>
