<?xml version="1.0" standalone="no"?>
<!DOCTYPE svg PUBLIC "-//W3C//DTD SVG 1.1//EN" "http://www.w3.org/Graphics/SVG/1.1/DTD/svg11.dtd" >
<svg>
<metadata>
Created by FontForge 20090622 at Fri Feb 22 05:08:24 2019
 By ffonts
Copyright 2016 Google Inc. &#38; Colophon Foundry. Copyright 2017 Florian Karsten. All rights reserved.
</metadata>
<defs>
<font id="SpaceGrotesk-Medium" horiz-adv-x="620" >
  <font-face 
    font-family="Space Grotesk Medium"
    font-weight="500"
    font-stretch="normal"
    units-per-em="1000"
    panose-1="0 0 6 0 0 0 0 0 0 0"
    ascent="800"
    descent="-200"
    x-height="490"
    cap-height="700"
    bbox="-670 -308 956 1000"
    underline-thickness="50"
    underline-position="-50"
    stemh="92"
    stemv="100"
    unicode-range="U+0020-U+E133"
  />
<missing-glyph horiz-adv-x="920" 
d="M100 616c0 133 72 199 193 199h334c121 0 193 -66 193 -199v-542c0 -133 -72 -199 -193 -199h-334c-121 0 -193 66 -193 199v542zM190 604v-518c0 -84 36 -129 118 -129h304c82 0 118 45 118 129v518c0 84 -36 129 -118 129h-304c-82 0 -118 -45 -118 -129zM292 449
c0 91 71 148 172 148s168 -60 168 -135v-5c0 -67 -38 -100 -104 -131l-13 -6c-14 -6 -20 -16 -20 -36v-32h-80v35c0 45 16 72 57 91l13 6c51 24 67 37 67 76c0 37 -35 66 -88 66s-92 -29 -92 -81v-22h-80v26zM401 158c0 31 25 55 55 55c31 0 55 -24 55 -55s-24 -55 -55 -55
c-30 0 -55 24 -55 55z" />
    <glyph glyph-name="f_f.liga" unicode="ff" horiz-adv-x="692" 
d="M538 490h140v-82h-140v-408h-94v408h-200v-408h-94v408h-136v82h136v124c0 52 34 86 84 86h124v-82h-88c-18 0 -26 -8 -26 -28v-100h200v124c0 52 34 86 84 86h124v-82h-88c-18 0 -26 -8 -26 -28v-100z" />
    <glyph glyph-name="f_f_i.liga" unicode="ffi" horiz-adv-x="902" 
d="M785 714c42 0 76 -32 76 -74s-34 -74 -76 -74s-76 32 -76 74s34 74 76 74zM538 490h294v-490h-94v408h-200v-408h-94v408h-200v-408h-94v408h-136v82h136v124c0 52 34 86 84 86h124v-82h-88c-18 0 -26 -8 -26 -28v-100h200v124c0 52 34 86 84 86h114v-82h-78
c-18 0 -26 -8 -26 -28v-100z" />
    <glyph glyph-name="f_f_j.liga" unicode="ffj" horiz-adv-x="902" 
d="M785 714c42 0 76 -32 76 -74s-34 -74 -76 -74s-76 32 -76 74s34 74 76 74zM538 490h294v-606c0 -50 -34 -84 -82 -84h-126v82h86c18 0 28 10 28 30v496h-200v-408h-94v408h-200v-408h-94v408h-136v82h136v124c0 52 34 86 84 86h124v-82h-88c-18 0 -26 -8 -26 -28v-100
h200v124c0 52 34 86 84 86h114v-82h-78c-18 0 -26 -8 -26 -28v-100z" />
    <glyph glyph-name="f_i.liga" unicode="fi" horiz-adv-x="608" 
d="M491 714c42 0 76 -32 76 -74s-34 -74 -76 -74s-76 32 -76 74s34 74 76 74zM244 490h294v-490h-94v408h-200v-408h-94v408h-136v82h136v124c0 52 34 86 84 86h114v-82h-78c-18 0 -26 -8 -26 -28v-100z" />
    <glyph glyph-name="f_j.liga" unicode="fj" horiz-adv-x="608" 
d="M491 714c42 0 76 -32 76 -74s-34 -74 -76 -74s-76 32 -76 74s34 74 76 74zM244 490h294v-606c0 -50 -34 -84 -82 -84h-126v82h86c18 0 28 10 28 30v496h-200v-408h-94v408h-136v82h136v124c0 52 34 86 84 86h114v-82h-78c-18 0 -26 -8 -26 -28v-100z" />
    <glyph glyph-name="f_l.liga" unicode="fl" horiz-adv-x="608" 
d="M14 490h136v124c0 52 34 86 84 86h114v-82h-78c-18 0 -26 -8 -26 -28v-100h126v-82h-126v-408h-94v408h-136v82zM444 700h94v-700h-94v700z" />
    <glyph glyph-name="f_lcaron.liga" unicode="f&#x13e;" horiz-adv-x="666" 
d="M14 490h136v124c0 52 34 86 84 86h114v-82h-78c-18 0 -26 -8 -26 -28v-100h126v-82h-126v-408h-94v408h-136v82zM538 700v-700h-94v700h94zM598 700h99l-53 -178h-57z" />
    <glyph glyph-name=".notdef" horiz-adv-x="920" 
d="M100 616c0 133 72 199 193 199h334c121 0 193 -66 193 -199v-542c0 -133 -72 -199 -193 -199h-334c-121 0 -193 66 -193 199v542zM190 604v-518c0 -84 36 -129 118 -129h304c82 0 118 45 118 129v518c0 84 -36 129 -118 129h-304c-82 0 -118 -45 -118 -129zM292 449
c0 91 71 148 172 148s168 -60 168 -135v-5c0 -67 -38 -100 -104 -131l-13 -6c-14 -6 -20 -16 -20 -36v-32h-80v35c0 45 16 72 57 91l13 6c51 24 67 37 67 76c0 37 -35 66 -88 66s-92 -29 -92 -81v-22h-80v26zM401 158c0 31 25 55 55 55c31 0 55 -24 55 -55s-24 -55 -55 -55
c-30 0 -55 24 -55 55z" />
    <glyph glyph-name="A" unicode="A" horiz-adv-x="632" 
d="M237 700h158l219 -700h-106l-51 168h-282l-51 -168h-106zM202 260h228l-108 352h-12z" />
    <glyph glyph-name="Aacute" unicode="&#xc1;" horiz-adv-x="632" 
d="M307 880h117l-80 -115h-92zM237 700h158l219 -700h-106l-51 168h-282l-51 -168h-106zM202 260h228l-108 352h-12z" />
    <glyph glyph-name="Abreve" unicode="&#x102;" horiz-adv-x="632" 
d="M356 880h76v-8c0 -68 -45 -113 -116 -113s-116 45 -116 113v8h76v-7c0 -22 14 -40 40 -40s40 18 40 40v7zM237 700h158l219 -700h-106l-51 168h-282l-51 -168h-106zM202 260h228l-108 352h-12z" />
    <glyph glyph-name="Acircumflex" unicode="&#xc2;" horiz-adv-x="632" 
d="M369 765l-47 56h-12l-47 -56h-108l102 115h118l102 -115h-108zM237 700h158l219 -700h-106l-51 168h-282l-51 -168h-106zM202 260h228l-108 352h-12z" />
    <glyph glyph-name="Adieresis" unicode="&#xc4;" horiz-adv-x="632" 
d="M140 819c0 42 34 74 76 74s76 -32 76 -74s-34 -74 -76 -74s-76 32 -76 74zM340 819c0 42 34 74 76 74s76 -32 76 -74s-34 -74 -76 -74s-76 32 -76 74zM237 700h158l219 -700h-106l-51 168h-282l-51 -168h-106zM202 260h228l-108 352h-12z" />
    <glyph glyph-name="Agrave" unicode="&#xc0;" horiz-adv-x="632" 
d="M325 880l55 -115h-92l-80 115h117zM237 700h158l219 -700h-106l-51 168h-282l-51 -168h-106zM202 260h228l-108 352h-12z" />
    <glyph glyph-name="Amacron" unicode="&#x100;" horiz-adv-x="632" 
d="M459 843v-78h-286v78h286zM237 700h158l219 -700h-106l-51 168h-282l-51 -168h-106zM202 260h228l-108 352h-12z" />
    <glyph glyph-name="Aogonek" unicode="&#x104;" horiz-adv-x="632" 
d="M596 -94h44v-72h-64c-40 0 -79 25 -79 74c0 6 1 14 3 24l15 68h-7l-51 168h-282l-51 -168h-106l219 700h158l219 -700h-25l-15 -64c-1 -3 -1 -6 -1 -8c0 -15 8 -22 23 -22zM202 260h228l-108 352h-12z" />
    <glyph glyph-name="Aring" unicode="&#xc5;" horiz-adv-x="632" 
d="M211 841c0 60 46 101 105 101s105 -41 105 -101s-46 -101 -105 -101s-105 41 -105 101zM279 841c0 -21 15 -37 37 -37s37 16 37 37s-15 37 -37 37s-37 -16 -37 -37zM237 700h158l219 -700h-106l-51 168h-282l-51 -168h-106zM202 260h228l-108 352h-12z" />
    <glyph glyph-name="Aringacute" unicode="&#x1fa;" horiz-adv-x="632" 
d="M316 740c-59 0 -105 41 -105 101s46 101 105 101h2l28 58h117l-65 -94c14 -17 23 -39 23 -65c0 -60 -46 -101 -105 -101zM316 878c-22 0 -37 -16 -37 -37s15 -37 37 -37s37 16 37 37s-15 37 -37 37zM395 700l219 -700h-106l-51 168h-282l-51 -168h-106l219 700h158z
M202 260h228l-108 352h-12z" />
    <glyph glyph-name="Atilde" unicode="&#xc3;" horiz-adv-x="632" 
d="M137 799l47 57c21 26 41 46 76 46c39 0 60 -21 84 -56c9 -13 15 -20 28 -20s20 7 28 17l38 47l57 -45l-47 -57c-21 -26 -41 -46 -76 -46c-39 0 -60 21 -84 56c-9 13 -15 20 -28 20s-20 -7 -28 -17l-38 -47zM237 700h158l219 -700h-106l-51 168h-282l-51 -168h-106z
M202 260h228l-108 352h-12z" />
    <glyph glyph-name="AE" unicode="&#xc6;" horiz-adv-x="572" 
d="M388 92h144v-92h-244v168h-121l-45 -168h-104l188 700h320v-92h-138v-211h114v-92h-114v-213zM288 260v348h-12l-87 -348h99z" />
    <glyph glyph-name="AEacute" unicode="&#x1fc;" horiz-adv-x="572" 
d="M446 880l-80 -115h-92l55 115h117zM388 92h144v-92h-244v168h-121l-45 -168h-104l188 700h320v-92h-138v-211h114v-92h-114v-213zM288 260v348h-12l-87 -348h99z" />
    <glyph glyph-name="B" unicode="B" horiz-adv-x="614" 
d="M72 700h289c121 0 207 -68 207 -188c0 -82 -46 -137 -116 -155v-12c67 -19 118 -74 118 -156c0 -118 -87 -189 -207 -189h-291v700zM172 608v-211h182c72 0 118 40 118 107c0 64 -49 104 -120 104h-180zM172 305v-213h182c71 0 120 40 120 105c0 67 -46 108 -118 108
h-184z" />
    <glyph glyph-name="C" unicode="C" horiz-adv-x="626" 
d="M48 428c0 182 102 286 274 286c168 0 262 -102 262 -252v-18h-100v14c0 97 -50 164 -162 164s-174 -68 -174 -190v-164c0 -122 62 -190 174 -190s162 66 162 164v14h100v-14c0 -156 -94 -256 -262 -256c-172 0 -274 104 -274 286v156z" />
    <glyph glyph-name="Cacute" unicode="&#x106;" horiz-adv-x="626" 
d="M311 880h117l-80 -115h-92zM48 428c0 182 102 286 274 286c168 0 262 -102 262 -252v-18h-100v14c0 97 -50 164 -162 164s-174 -68 -174 -190v-164c0 -122 62 -190 174 -190s162 66 162 164v14h100v-14c0 -156 -94 -256 -262 -256c-172 0 -274 104 -274 286v156z" />
    <glyph glyph-name="Ccaron" unicode="&#x10c;" horiz-adv-x="626" 
d="M373 880h108l-102 -115h-118l-102 115h108l47 -56h12zM48 428c0 182 102 286 274 286c168 0 262 -102 262 -252v-18h-100v14c0 97 -50 164 -162 164s-174 -68 -174 -190v-164c0 -122 62 -190 174 -190s162 66 162 164v14h100v-14c0 -156 -94 -256 -262 -256
c-172 0 -274 104 -274 286v156z" />
    <glyph glyph-name="Ccedilla" unicode="&#xc7;" horiz-adv-x="626" 
d="M584 444h-100v14c0 97 -50 164 -162 164s-174 -68 -174 -190v-164c0 -122 62 -190 174 -190s162 66 162 164v14h100v-14c0 -149 -86 -247 -241 -255l-10 -48h8c10 16 27 27 53 27c47 0 77 -36 77 -82c0 -59 -43 -96 -99 -96c-53 0 -79 27 -94 48l50 40
c7 -18 17 -31 41 -31c20 0 38 12 38 36c0 20 -13 33 -30 33c-12 0 -20 -5 -24 -14h-83v8l17 79c-151 14 -239 116 -239 285v156c0 182 102 286 274 286c168 0 262 -102 262 -252v-18z" />
    <glyph glyph-name="Cdotaccent" unicode="&#x10a;" horiz-adv-x="626" 
d="M244 819c0 42 34 74 76 74s76 -32 76 -74s-34 -74 -76 -74s-76 32 -76 74zM48 428c0 182 102 286 274 286c168 0 262 -102 262 -252v-18h-100v14c0 97 -50 164 -162 164s-174 -68 -174 -190v-164c0 -122 62 -190 174 -190s162 66 162 164v14h100v-14
c0 -156 -94 -256 -262 -256c-172 0 -274 104 -274 286v156z" />
    <glyph glyph-name="D" unicode="D" 
d="M72 700h216c178 0 284 -90 284 -272v-156c0 -182 -106 -272 -284 -272h-216v700zM172 608v-516h114c122 0 186 54 186 182v152c0 128 -64 182 -186 182h-114z" />
    <glyph glyph-name="Eth" unicode="&#xd0;" 
d="M288 700c178 0 284 -90 284 -272v-156c0 -182 -106 -272 -284 -272h-216v312h-82v84h82v304h216zM472 274v152c0 128 -64 182 -186 182h-114v-212h118v-84h-118v-220h114c122 0 186 54 186 182z" />
    <glyph glyph-name="Dcaron" unicode="&#x10e;" 
d="M338 880h108l-102 -115h-118l-102 115h108l47 -56h12zM72 700h216c178 0 284 -90 284 -272v-156c0 -182 -106 -272 -284 -272h-216v700zM172 608v-516h114c122 0 186 54 186 182v152c0 128 -64 182 -186 182h-114z" />
    <glyph glyph-name="Dcroat" unicode="&#x110;" 
d="M288 700c178 0 284 -90 284 -272v-156c0 -182 -106 -272 -284 -272h-216v312h-82v84h82v304h216zM472 274v152c0 128 -64 182 -186 182h-114v-212h118v-84h-118v-220h114c122 0 186 54 186 182z" />
    <glyph glyph-name="E" unicode="E" horiz-adv-x="564" 
d="M72 700h448v-92h-348v-211h320v-92h-320v-213h352v-92h-452v700z" />
    <glyph glyph-name="Eacute" unicode="&#xc9;" horiz-adv-x="564" 
d="M294 880h117l-80 -115h-92zM72 700h448v-92h-348v-211h320v-92h-320v-213h352v-92h-452v700z" />
    <glyph glyph-name="Ecaron" unicode="&#x11a;" horiz-adv-x="564" 
d="M356 880h108l-102 -115h-118l-102 115h108l47 -56h12zM72 700h448v-92h-348v-211h320v-92h-320v-213h352v-92h-452v700z" />
    <glyph glyph-name="Ecircumflex" unicode="&#xca;" horiz-adv-x="564" 
d="M356 765l-47 56h-12l-47 -56h-108l102 115h118l102 -115h-108zM72 700h448v-92h-348v-211h320v-92h-320v-213h352v-92h-452v700z" />
    <glyph glyph-name="Edieresis" unicode="&#xcb;" horiz-adv-x="564" 
d="M127 819c0 42 34 74 76 74s76 -32 76 -74s-34 -74 -76 -74s-76 32 -76 74zM327 819c0 42 34 74 76 74s76 -32 76 -74s-34 -74 -76 -74s-76 32 -76 74zM72 700h448v-92h-348v-211h320v-92h-320v-213h352v-92h-452v700z" />
    <glyph glyph-name="Edotaccent" unicode="&#x116;" horiz-adv-x="564" 
d="M227 819c0 42 34 74 76 74s76 -32 76 -74s-34 -74 -76 -74s-76 32 -76 74zM72 700h448v-92h-348v-211h320v-92h-320v-213h352v-92h-452v700z" />
    <glyph glyph-name="Egrave" unicode="&#xc8;" horiz-adv-x="564" 
d="M312 880l55 -115h-92l-80 115h117zM72 700h448v-92h-348v-211h320v-92h-320v-213h352v-92h-452v700z" />
    <glyph glyph-name="Emacron" unicode="&#x112;" horiz-adv-x="564" 
d="M446 843v-78h-286v78h286zM72 700h448v-92h-348v-211h320v-92h-320v-213h352v-92h-452v700z" />
    <glyph glyph-name="Eogonek" unicode="&#x118;" horiz-adv-x="564" 
d="M348 0l-15 -64c-1 -3 -1 -6 -1 -8c0 -15 8 -22 23 -22h44v-72h-64c-40 0 -79 25 -79 74c0 6 1 14 3 24l15 68h-202v700h448v-92h-348v-211h320v-92h-320v-213h352v-92h-176z" />
    <glyph glyph-name="F" unicode="F" horiz-adv-x="530" 
d="M72 700h436v-92h-336v-211h318v-92h-318v-305h-100v700z" />
    <glyph glyph-name="G" unicode="G" horiz-adv-x="626" 
d="M48 272v156c0 182 102 286 273 286c166 0 257 -102 257 -256v-9h-100v9c0 99 -46 164 -157 164s-173 -68 -173 -190v-164c0 -122 62 -190 173 -190s157 66 157 164v12h-189v91h289v-103c0 -156 -91 -256 -257 -256c-171 0 -273 104 -273 286z" />
    <glyph glyph-name="Gbreve" unicode="&#x11e;" horiz-adv-x="626" 
d="M358 880h76v-8c0 -68 -45 -113 -116 -113s-116 45 -116 113v8h76v-7c0 -22 14 -40 40 -40s40 18 40 40v7zM48 272v156c0 182 102 286 273 286c166 0 257 -102 257 -256v-9h-100v9c0 99 -46 164 -157 164s-173 -68 -173 -190v-164c0 -122 62 -190 173 -190s157 66 157 164
v12h-189v91h289v-103c0 -156 -91 -256 -257 -256c-171 0 -273 104 -273 286z" />
    <glyph glyph-name="uni0122" unicode="&#x122;" horiz-adv-x="626" 
d="M48 272v156c0 182 102 286 273 286c166 0 257 -102 257 -256v-9h-100v9c0 99 -46 164 -157 164s-173 -68 -173 -190v-164c0 -122 62 -190 173 -190s157 66 157 164v12h-189v91h289v-103c0 -156 -91 -256 -257 -256c-171 0 -273 104 -273 286zM247 -128c0 48 35 78 78 78
c45 0 78 -30 78 -76v-100c0 -47 -34 -82 -81 -82h-71v56h63c18 0 27 10 27 30v21c-4 -1 -9 -2 -17 -2c-41 0 -77 28 -77 75z" />
    <glyph glyph-name="Gdotaccent" unicode="&#x120;" horiz-adv-x="626" 
d="M242 819c0 42 34 74 76 74s76 -32 76 -74s-34 -74 -76 -74s-76 32 -76 74zM48 272v156c0 182 102 286 273 286c166 0 257 -102 257 -256v-9h-100v9c0 99 -46 164 -157 164s-173 -68 -173 -190v-164c0 -122 62 -190 173 -190s157 66 157 164v12h-189v91h289v-103
c0 -156 -91 -256 -257 -256c-171 0 -273 104 -273 286z" />
    <glyph glyph-name="H" unicode="H" horiz-adv-x="648" 
d="M72 700h100v-303h304v303h100v-700h-100v305h-304v-305h-100v700z" />
    <glyph glyph-name="Hbar" unicode="&#x126;" horiz-adv-x="648" 
d="M634 594v-84h-58v-510h-100v305h-304v-305h-100v510h-58v84h58v106h100v-106h304v106h100v-106h58zM476 397v113h-304v-113h304z" />
    <glyph glyph-name="I" unicode="I" horiz-adv-x="244" 
d="M72 700h100v-700h-100v700z" />
    <glyph glyph-name="IJ" unicode="&#x132;" horiz-adv-x="580" 
d="M70 700h100v-345h-100v345zM410 700h100v-490c0 -145 -77 -224 -214 -224c-139 0 -226 80 -226 224v58h100v-58c0 -80 42 -132 125 -132c82 0 115 52 115 132v490z" />
    <glyph glyph-name="Iacute" unicode="&#xcd;" horiz-adv-x="244" 
d="M113 880h117l-80 -115h-92zM72 700h100v-700h-100v700z" />
    <glyph glyph-name="Icircumflex" unicode="&#xce;" horiz-adv-x="244" 
d="M175 765l-47 56h-12l-47 -56h-108l102 115h118l102 -115h-108zM72 700h100v-700h-100v700z" />
    <glyph glyph-name="Idieresis" unicode="&#xcf;" horiz-adv-x="244" 
d="M-54 819c0 42 34 74 76 74s76 -32 76 -74s-34 -74 -76 -74s-76 32 -76 74zM146 819c0 42 34 74 76 74s76 -32 76 -74s-34 -74 -76 -74s-76 32 -76 74zM72 700h100v-700h-100v700z" />
    <glyph glyph-name="Idotaccent" unicode="&#x130;" horiz-adv-x="244" 
d="M46 819c0 42 34 74 76 74s76 -32 76 -74s-34 -74 -76 -74s-76 32 -76 74zM72 700h100v-700h-100v700z" />
    <glyph glyph-name="Igrave" unicode="&#xcc;" horiz-adv-x="244" 
d="M131 880l55 -115h-92l-80 115h117zM72 700h100v-700h-100v700z" />
    <glyph glyph-name="Imacron" unicode="&#x12a;" horiz-adv-x="244" 
d="M265 843v-78h-286v78h286zM72 700h100v-700h-100v700z" />
    <glyph glyph-name="Iogonek" unicode="&#x12e;" horiz-adv-x="244" 
d="M166 -94h44v-72h-64c-40 0 -79 25 -79 74c0 6 1 14 3 24l15 68h-13v700h100v-700h-13l-15 -64c-1 -3 -1 -6 -1 -8c0 -15 8 -22 23 -22z" />
    <glyph glyph-name="J" unicode="J" horiz-adv-x="550" 
d="M480 700v-490c0 -145 -77 -224 -224 -224c-149 0 -236 80 -236 224v58h100v-58c0 -80 42 -132 135 -132c92 0 125 52 125 132v490h100z" />
    <glyph glyph-name="K" unicode="K" horiz-adv-x="650" 
d="M650 700l-302 -281l297 -419h-120l-250 351l-103 -96v-255h-100v700h100v-308h12l328 308h138z" />
    <glyph glyph-name="uni0136" unicode="&#x136;" horiz-adv-x="650" 
d="M650 700l-302 -281l297 -419h-120l-250 351l-103 -96v-255h-100v700h100v-308h12l328 308h138zM322 -50c45 0 78 -30 78 -76v-100c0 -47 -34 -82 -81 -82h-71v56h63c18 0 27 10 27 30v21c-4 -1 -9 -2 -17 -2c-41 0 -77 28 -77 75c0 48 35 78 78 78z" />
    <glyph glyph-name="L" unicode="L" horiz-adv-x="536" 
d="M72 700h100v-608h344v-92h-444v700z" />
    <glyph glyph-name="Lacute" unicode="&#x139;" horiz-adv-x="536" 
d="M113 880h117l-80 -115h-92zM72 700h100v-608h344v-92h-444v700z" />
    <glyph glyph-name="Lcaron" unicode="&#x13d;" horiz-adv-x="536" 
d="M72 700h100v-608h344v-92h-444v700zM242 700h99l-53 -178h-57z" />
    <glyph glyph-name="uni013B" unicode="&#x13b;" horiz-adv-x="536" 
d="M72 700h100v-608h344v-92h-444v700zM220 -128c0 48 35 78 78 78c45 0 78 -30 78 -76v-100c0 -47 -34 -82 -81 -82h-71v56h63c18 0 27 10 27 30v21c-4 -1 -9 -2 -17 -2c-41 0 -77 28 -77 75z" />
    <glyph glyph-name="Ldot" unicode="&#x13f;" horiz-adv-x="536" 
d="M72 700h100v-608h344v-92h-444v700zM308 350c0 44 35 78 78 78s78 -34 78 -78s-35 -78 -78 -78s-78 34 -78 78z" />
    <glyph glyph-name="Lslash" unicode="&#x141;" 
d="M115 700h100v-287l58 30l41 -81l-99 -50v-218h338v-94h-438v261l-54 -27l-41 81l95 47v338z" />
    <glyph glyph-name="M" unicode="M" horiz-adv-x="872" 
d="M72 700h180l178 -596h12l178 596h180v-700h-100v594h-12l-177 -594h-150l-177 594h-12v-594h-100v700z" />
    <glyph glyph-name="N" unicode="N" horiz-adv-x="658" 
d="M72 700h184l218 -611h12v611h100v-700h-186l-216 610h-12v-610h-100v700z" />
    <glyph glyph-name="Nacute" unicode="&#x143;" horiz-adv-x="658" 
d="M317 880h117l-80 -115h-92zM72 700h184l218 -611h12v611h100v-700h-186l-216 610h-12v-610h-100v700z" />
    <glyph glyph-name="Ncaron" unicode="&#x147;" horiz-adv-x="658" 
d="M379 880h108l-102 -115h-118l-102 115h108l47 -56h12zM72 700h184l218 -611h12v611h100v-700h-186l-216 610h-12v-610h-100v700z" />
    <glyph glyph-name="uni0145" unicode="&#x145;" horiz-adv-x="658" 
d="M72 700h184l218 -611h12v611h100v-700h-186l-216 610h-12v-610h-100v700zM248 -128c0 48 35 78 78 78c45 0 78 -30 78 -76v-100c0 -47 -34 -82 -81 -82h-71v56h63c18 0 27 10 27 30v21c-4 -1 -9 -2 -17 -2c-41 0 -77 28 -77 75z" />
    <glyph glyph-name="Eng" unicode="&#x14a;" horiz-adv-x="658" 
d="M486 700h100v-814c0 -53 -35 -86 -85 -86h-191v86h148c19 0 28 10 28 31v83h-86l-216 610h-12v-610h-100v700h184l218 -611h12v611z" />
    <glyph glyph-name="Ntilde" unicode="&#xd1;" horiz-adv-x="658" 
d="M147 799l47 57c21 26 41 46 76 46c39 0 60 -21 84 -56c9 -13 15 -20 28 -20s20 7 28 17l38 47l57 -45l-47 -57c-21 -26 -41 -46 -76 -46c-39 0 -60 21 -84 56c-9 13 -15 20 -28 20s-20 -7 -28 -17l-38 -47zM72 700h184l218 -611h12v611h100v-700h-186l-216 610h-12v-610
h-100v700z" />
    <glyph glyph-name="O" unicode="O" horiz-adv-x="640" 
d="M48 428c0 180 102 286 272 286c166 0 272 -106 272 -286v-156c0 -180 -102 -286 -272 -286s-272 106 -272 286v156zM148 430v-160c0 -124 56 -192 172 -192s172 68 172 192v160c0 124 -56 192 -172 192s-172 -68 -172 -192z" />
    <glyph glyph-name="Oacute" unicode="&#xd3;" horiz-adv-x="640" 
d="M311 880h117l-80 -115h-92zM48 428c0 180 102 286 272 286c166 0 272 -106 272 -286v-156c0 -180 -102 -286 -272 -286s-272 106 -272 286v156zM148 430v-160c0 -124 56 -192 172 -192s172 68 172 192v160c0 124 -56 192 -172 192s-172 -68 -172 -192z" />
    <glyph glyph-name="Ocircumflex" unicode="&#xd4;" horiz-adv-x="640" 
d="M373 765l-47 56h-12l-47 -56h-108l102 115h118l102 -115h-108zM48 428c0 180 102 286 272 286c166 0 272 -106 272 -286v-156c0 -180 -102 -286 -272 -286s-272 106 -272 286v156zM148 430v-160c0 -124 56 -192 172 -192s172 68 172 192v160c0 124 -56 192 -172 192
s-172 -68 -172 -192z" />
    <glyph glyph-name="Odieresis" unicode="&#xd6;" horiz-adv-x="640" 
d="M144 819c0 42 34 74 76 74s76 -32 76 -74s-34 -74 -76 -74s-76 32 -76 74zM344 819c0 42 34 74 76 74s76 -32 76 -74s-34 -74 -76 -74s-76 32 -76 74zM48 428c0 180 102 286 272 286c166 0 272 -106 272 -286v-156c0 -180 -102 -286 -272 -286s-272 106 -272 286v156z
M148 430v-160c0 -124 56 -192 172 -192s172 68 172 192v160c0 124 -56 192 -172 192s-172 -68 -172 -192z" />
    <glyph glyph-name="Ograve" unicode="&#xd2;" horiz-adv-x="640" 
d="M329 880l55 -115h-92l-80 115h117zM48 428c0 180 102 286 272 286c166 0 272 -106 272 -286v-156c0 -180 -102 -286 -272 -286s-272 106 -272 286v156zM148 430v-160c0 -124 56 -192 172 -192s172 68 172 192v160c0 124 -56 192 -172 192s-172 -68 -172 -192z" />
    <glyph glyph-name="Ohungarumlaut" unicode="&#x150;" horiz-adv-x="640" 
d="M249 880h117l-80 -115h-92zM403 880h117l-80 -115h-92zM48 428c0 180 102 286 272 286c166 0 272 -106 272 -286v-156c0 -180 -102 -286 -272 -286s-272 106 -272 286v156zM148 430v-160c0 -124 56 -192 172 -192s172 68 172 192v160c0 124 -56 192 -172 192
s-172 -68 -172 -192z" />
    <glyph glyph-name="Omacron" unicode="&#x14c;" horiz-adv-x="640" 
d="M463 843v-78h-286v78h286zM48 428c0 180 102 286 272 286c166 0 272 -106 272 -286v-156c0 -180 -102 -286 -272 -286s-272 106 -272 286v156zM148 430v-160c0 -124 56 -192 172 -192s172 68 172 192v160c0 124 -56 192 -172 192s-172 -68 -172 -192z" />
    <glyph glyph-name="Oslash" unicode="&#xd8;" horiz-adv-x="640" 
d="M475 674c74 -47 117 -131 117 -246v-156c0 -180 -102 -286 -272 -286c-25 0 -48 2 -69 7l-27 -81l-84 26l28 85c-77 46 -120 132 -120 249v156c0 180 102 286 272 286c26 0 51 -3 74 -8l23 70l83 -26zM148 270c0 -68 17 -120 52 -152l165 500c-14 3 -29 4 -45 4
c-116 0 -172 -68 -172 -192v-160zM492 270v160c0 66 -16 116 -48 149l-164 -498c12 -2 26 -3 40 -3c116 0 172 68 172 192z" />
    <glyph glyph-name="Oslashacute" unicode="&#x1fe;" horiz-adv-x="640" 
d="M428 880l-80 -115h-92l55 115h117zM475 674c74 -47 117 -131 117 -246v-156c0 -180 -102 -286 -272 -286c-25 0 -48 2 -69 7l-27 -81l-84 26l28 85c-77 46 -120 132 -120 249v156c0 180 102 286 272 286c26 0 51 -3 74 -8l23 70l83 -26zM148 270c0 -68 17 -120 52 -152
l165 500c-14 3 -29 4 -45 4c-116 0 -172 -68 -172 -192v-160zM492 270v160c0 66 -16 116 -48 149l-164 -498c12 -2 26 -3 40 -3c116 0 172 68 172 192z" />
    <glyph glyph-name="Otilde" unicode="&#xd5;" horiz-adv-x="640" 
d="M141 799l47 57c21 26 41 46 76 46c39 0 60 -21 84 -56c9 -13 15 -20 28 -20s20 7 28 17l38 47l57 -45l-47 -57c-21 -26 -41 -46 -76 -46c-39 0 -60 21 -84 56c-9 13 -15 20 -28 20s-20 -7 -28 -17l-38 -47zM48 428c0 180 102 286 272 286c166 0 272 -106 272 -286v-156
c0 -180 -102 -286 -272 -286s-272 106 -272 286v156zM148 430v-160c0 -124 56 -192 172 -192s172 68 172 192v160c0 124 -56 192 -172 192s-172 -68 -172 -192z" />
    <glyph glyph-name="OE" unicode="&#x152;" horiz-adv-x="568" 
d="M384 92h144v-92h-244c-148 0 -236 104 -236 282v136c0 178 88 282 236 282h238v-92h-138v-211h114v-92h-114v-213zM284 90v520c-90 0 -136 -66 -136 -186v-148c0 -120 46 -186 136 -186z" />
    <glyph glyph-name="P" unicode="P" horiz-adv-x="586" 
d="M72 700h272c128 0 216 -83 216 -210s-91 -210 -216 -210h-172v-280h-100v700zM172 608v-236h161c81 0 127 42 127 118s-44 118 -127 118h-161z" />
    <glyph glyph-name="Thorn" unicode="&#xde;" horiz-adv-x="586" 
d="M72 700h100v-130h172c128 0 216 -83 216 -210s-91 -210 -216 -210h-172v-150h-100v700zM172 478v-236h161c81 0 127 42 127 118s-44 118 -127 118h-161z" />
    <glyph glyph-name="Q" unicode="Q" horiz-adv-x="640" 
d="M320 714c166 0 272 -106 272 -286v-156c0 -162 -82 -264 -222 -283v-46c0 -20 10 -30 28 -30h53v-88h-99c-48 0 -82 34 -82 84v80c-140 19 -222 121 -222 283v156c0 180 102 286 272 286zM492 270v160c0 124 -56 192 -172 192s-172 -68 -172 -192v-160
c0 -124 56 -192 172 -192s172 68 172 192z" />
    <glyph glyph-name="R" unicode="R" horiz-adv-x="616" 
d="M580 493c0 -108 -68 -184 -168 -203l156 -290h-110l-148 286h-138v-286h-100v700h292c128 0 216 -82 216 -207zM172 608v-230h181c81 0 127 41 127 115s-44 115 -127 115h-181z" />
    <glyph glyph-name="Racute" unicode="&#x154;" horiz-adv-x="616" 
d="M411 880l-80 -115h-92l55 115h117zM580 493c0 -108 -68 -184 -168 -203l156 -290h-110l-148 286h-138v-286h-100v700h292c128 0 216 -82 216 -207zM172 608v-230h181c81 0 127 41 127 115s-44 115 -127 115h-181z" />
    <glyph glyph-name="Rcaron" unicode="&#x158;" horiz-adv-x="616" 
d="M362 765h-118l-102 115h108l47 -56h12l47 56h108zM580 493c0 -108 -68 -184 -168 -203l156 -290h-110l-148 286h-138v-286h-100v700h292c128 0 216 -82 216 -207zM172 608v-230h181c81 0 127 41 127 115s-44 115 -127 115h-181z" />
    <glyph glyph-name="uni0156" unicode="&#x156;" horiz-adv-x="616" 
d="M580 493c0 -108 -68 -184 -168 -203l156 -290h-110l-148 286h-138v-286h-100v700h292c128 0 216 -82 216 -207zM172 608v-230h181c81 0 127 41 127 115s-44 115 -127 115h-181zM311 -50c45 0 78 -30 78 -76v-100c0 -47 -34 -82 -81 -82h-71v56h63c18 0 27 10 27 30v21
c-4 -1 -9 -2 -17 -2c-41 0 -77 28 -77 75c0 48 35 78 78 78z" />
    <glyph glyph-name="S" unicode="S" horiz-adv-x="604" 
d="M298 714c145 0 256 -77 256 -220v-32h-100v24c0 90 -64 138 -156 138c-78 0 -134 -41 -134 -103c0 -64 42 -89 141 -111l46 -10c130 -28 209 -84 209 -204c0 -129 -106 -210 -250 -210c-171 0 -278 100 -278 254v32h100v-24c0 -111 64 -172 179 -172c93 0 149 50 149 117
s-45 94 -134 113l-46 10c-125 27 -216 74 -216 204c0 119 104 194 234 194z" />
    <glyph glyph-name="Sacute" unicode="&#x15a;" horiz-adv-x="604" 
d="M288 880h117l-80 -115h-92zM298 714c145 0 256 -77 256 -220v-32h-100v24c0 90 -64 138 -156 138c-78 0 -134 -41 -134 -103c0 -64 42 -89 141 -111l46 -10c130 -28 209 -84 209 -204c0 -129 -106 -210 -250 -210c-171 0 -278 100 -278 254v32h100v-24
c0 -111 64 -172 179 -172c93 0 149 50 149 117s-45 94 -134 113l-46 10c-125 27 -216 74 -216 204c0 119 104 194 234 194z" />
    <glyph glyph-name="Scaron" unicode="&#x160;" horiz-adv-x="604" 
d="M350 880h108l-102 -115h-118l-102 115h108l47 -56h12zM298 714c145 0 256 -77 256 -220v-32h-100v24c0 90 -64 138 -156 138c-78 0 -134 -41 -134 -103c0 -64 42 -89 141 -111l46 -10c130 -28 209 -84 209 -204c0 -129 -106 -210 -250 -210c-171 0 -278 100 -278 254v32
h100v-24c0 -111 64 -172 179 -172c93 0 149 50 149 117s-45 94 -134 113l-46 10c-125 27 -216 74 -216 204c0 119 104 194 234 194z" />
    <glyph glyph-name="Scedilla" unicode="&#x15e;" horiz-adv-x="604" 
d="M560 196c0 -121 -93 -200 -224 -209l-10 -48h8c10 16 27 27 53 27c47 0 77 -36 77 -82c0 -59 -43 -96 -99 -96c-53 0 -79 27 -94 48l50 40c7 -18 17 -31 41 -31c20 0 38 12 38 36c0 20 -13 33 -30 33c-12 0 -20 -5 -24 -14h-83v8l17 79c-153 11 -248 108 -248 253v32h100
v-24c0 -111 64 -172 179 -172c93 0 149 50 149 117s-45 94 -134 113l-46 10c-125 27 -216 74 -216 204c0 119 104 194 234 194c145 0 256 -77 256 -220v-32h-100v24c0 90 -64 138 -156 138c-78 0 -134 -41 -134 -103c0 -64 42 -89 141 -111l46 -10c130 -28 209 -84 209 -204
z" />
    <glyph glyph-name="uni0218" unicode="&#x218;" horiz-adv-x="604" 
d="M298 714c145 0 256 -77 256 -220v-32h-100v24c0 90 -64 138 -156 138c-78 0 -134 -41 -134 -103c0 -64 42 -89 141 -111l46 -10c130 -28 209 -84 209 -204c0 -129 -106 -210 -250 -210c-171 0 -278 100 -278 254v32h100v-24c0 -111 64 -172 179 -172c93 0 149 50 149 117
s-45 94 -134 113l-46 10c-125 27 -216 74 -216 204c0 119 104 194 234 194zM234 -128c0 48 35 78 78 78c45 0 78 -30 78 -76v-100c0 -47 -34 -82 -81 -82h-71v56h63c18 0 27 10 27 30v21c-4 -1 -9 -2 -17 -2c-41 0 -77 28 -77 75z" />
    <glyph glyph-name="uni1E9E" unicode="&#x1e9e;" horiz-adv-x="635" 
d="M70 0v436c0 178 104 264 256 264h256v-86l-157 -209c-7 -10 -15 -22 -15 -36c0 -17 11 -26 32 -35l27 -12c66 -29 138 -75 138 -167c0 -95 -67 -169 -185 -169s-193 74 -193 182h102c0 -52 35 -88 91 -88s85 34 85 75c0 43 -38 62 -74 78l-41 18c-55 24 -82 59 -82 110
c0 52 26 83 59 125l96 122h-139c-83 0 -156 -47 -156 -168v-440h-100z" />
    <glyph glyph-name="T" unicode="T" horiz-adv-x="592" 
d="M20 700h552v-92h-226v-608h-100v608h-226v92z" />
    <glyph glyph-name="Tbar" unicode="&#x166;" horiz-adv-x="592" 
d="M572 608h-226v-212h100v-84h-100v-312h-100v312h-100v84h100v212h-226v92h552v-92z" />
    <glyph glyph-name="Tcaron" unicode="&#x164;" horiz-adv-x="592" 
d="M349 880h108l-102 -115h-118l-102 115h108l47 -56h12zM20 700h552v-92h-226v-608h-100v608h-226v92z" />
    <glyph glyph-name="uni0162" unicode="&#x162;" horiz-adv-x="592" 
d="M346 0h-23l-13 -61h8c10 16 27 27 53 27c47 0 77 -36 77 -82c0 -59 -43 -96 -99 -96c-53 0 -79 27 -94 48l50 40c7 -18 17 -31 41 -31c20 0 38 12 38 36c0 20 -13 33 -30 33c-12 0 -20 -5 -24 -14h-83v8l20 92h-21v608h-226v92h552v-92h-226v-608z" />
    <glyph glyph-name="uni021A" unicode="&#x21a;" horiz-adv-x="592" 
d="M20 700h552v-92h-226v-608h-100v608h-226v92zM218 -128c0 48 35 78 78 78c45 0 78 -30 78 -76v-100c0 -47 -34 -82 -81 -82h-71v56h63c18 0 27 10 27 30v21c-4 -1 -9 -2 -17 -2c-41 0 -77 28 -77 75z" />
    <glyph glyph-name="U" unicode="U" horiz-adv-x="664" 
d="M70 700h100v-464c0 -103 54 -158 162 -158s162 55 162 158v464h100v-464c0 -162 -96 -250 -262 -250s-262 88 -262 250v464z" />
    <glyph glyph-name="Uacute" unicode="&#xda;" horiz-adv-x="664" 
d="M323 880h117l-80 -115h-92zM70 700h100v-464c0 -103 54 -158 162 -158s162 55 162 158v464h100v-464c0 -162 -96 -250 -262 -250s-262 88 -262 250v464z" />
    <glyph glyph-name="Ubreve" unicode="&#x16c;" horiz-adv-x="664" 
d="M372 880h76v-8c0 -68 -45 -113 -116 -113s-116 45 -116 113v8h76v-7c0 -22 14 -40 40 -40s40 18 40 40v7zM70 700h100v-464c0 -103 54 -158 162 -158s162 55 162 158v464h100v-464c0 -162 -96 -250 -262 -250s-262 88 -262 250v464z" />
    <glyph glyph-name="Ucircumflex" unicode="&#xdb;" horiz-adv-x="664" 
d="M385 765l-47 56h-12l-47 -56h-108l102 115h118l102 -115h-108zM70 700h100v-464c0 -103 54 -158 162 -158s162 55 162 158v464h100v-464c0 -162 -96 -250 -262 -250s-262 88 -262 250v464z" />
    <glyph glyph-name="Udieresis" unicode="&#xdc;" horiz-adv-x="664" 
d="M156 819c0 42 34 74 76 74s76 -32 76 -74s-34 -74 -76 -74s-76 32 -76 74zM356 819c0 42 34 74 76 74s76 -32 76 -74s-34 -74 -76 -74s-76 32 -76 74zM70 700h100v-464c0 -103 54 -158 162 -158s162 55 162 158v464h100v-464c0 -162 -96 -250 -262 -250s-262 88 -262 250
v464z" />
    <glyph glyph-name="Ugrave" unicode="&#xd9;" horiz-adv-x="664" 
d="M341 880l55 -115h-92l-80 115h117zM70 700h100v-464c0 -103 54 -158 162 -158s162 55 162 158v464h100v-464c0 -162 -96 -250 -262 -250s-262 88 -262 250v464z" />
    <glyph glyph-name="Uhungarumlaut" unicode="&#x170;" horiz-adv-x="664" 
d="M261 880h117l-80 -115h-92zM415 880h117l-80 -115h-92zM70 700h100v-464c0 -103 54 -158 162 -158s162 55 162 158v464h100v-464c0 -162 -96 -250 -262 -250s-262 88 -262 250v464z" />
    <glyph glyph-name="Umacron" unicode="&#x16a;" horiz-adv-x="664" 
d="M475 843v-78h-286v78h286zM70 700h100v-464c0 -103 54 -158 162 -158s162 55 162 158v464h100v-464c0 -162 -96 -250 -262 -250s-262 88 -262 250v464z" />
    <glyph glyph-name="Uogonek" unicode="&#x172;" horiz-adv-x="664" 
d="M494 700h100v-464c0 -150 -83 -237 -227 -249l-12 -51c-1 -3 -1 -6 -1 -8c0 -15 8 -22 23 -22h44v-72h-64c-40 0 -79 25 -79 74c0 6 1 14 3 24l13 56c-143 13 -224 99 -224 248v464h100v-464c0 -103 54 -158 162 -158s162 55 162 158v464z" />
    <glyph glyph-name="Uring" unicode="&#x16e;" horiz-adv-x="664" 
d="M227 841c0 60 46 101 105 101s105 -41 105 -101s-46 -101 -105 -101s-105 41 -105 101zM295 841c0 -21 15 -37 37 -37s37 16 37 37s-15 37 -37 37s-37 -16 -37 -37zM70 700h100v-464c0 -103 54 -158 162 -158s162 55 162 158v464h100v-464c0 -162 -96 -250 -262 -250
s-262 88 -262 250v464z" />
    <glyph glyph-name="V" unicode="V" horiz-adv-x="616" 
d="M14 700h108l180 -610h12l180 610h108l-215 -700h-158z" />
    <glyph glyph-name="W" unicode="W" horiz-adv-x="816" 
d="M28 700h102l80 -610h12l105 610h162l105 -610h12l80 610h102l-97 -700h-172l-105 610h-12l-105 -610h-172z" />
    <glyph glyph-name="Wacute" unicode="&#x1e82;" horiz-adv-x="816" 
d="M399 880h117l-80 -115h-92zM28 700h102l80 -610h12l105 610h162l105 -610h12l80 610h102l-97 -700h-172l-105 610h-12l-105 -610h-172z" />
    <glyph glyph-name="Wcircumflex" unicode="&#x174;" horiz-adv-x="816" 
d="M461 765l-47 56h-12l-47 -56h-108l102 115h118l102 -115h-108zM28 700h102l80 -610h12l105 610h162l105 -610h12l80 610h102l-97 -700h-172l-105 610h-12l-105 -610h-172z" />
    <glyph glyph-name="Wdieresis" unicode="&#x1e84;" horiz-adv-x="816" 
d="M232 819c0 42 34 74 76 74s76 -32 76 -74s-34 -74 -76 -74s-76 32 -76 74zM432 819c0 42 34 74 76 74s76 -32 76 -74s-34 -74 -76 -74s-76 32 -76 74zM28 700h102l80 -610h12l105 610h162l105 -610h12l80 610h102l-97 -700h-172l-105 610h-12l-105 -610h-172z" />
    <glyph glyph-name="Wgrave" unicode="&#x1e80;" horiz-adv-x="816" 
d="M417 880l55 -115h-92l-80 115h117zM28 700h102l80 -610h12l105 610h162l105 -610h12l80 610h102l-97 -700h-172l-105 610h-12l-105 -610h-172z" />
    <glyph glyph-name="X" unicode="X" 
d="M24 700h116l164 -277h12l164 277h116l-208 -341v-12l212 -347h-117l-167 283h-12l-167 -283h-117l212 347v12z" />
    <glyph glyph-name="Y" unicode="Y" horiz-adv-x="608" 
d="M8 700h114l176 -325h12l176 325h114l-246 -441v-259h-100v259z" />
    <glyph glyph-name="Yacute" unicode="&#xdd;" horiz-adv-x="608" 
d="M295 880h117l-80 -115h-92zM8 700h114l176 -325h12l176 325h114l-246 -441v-259h-100v259z" />
    <glyph glyph-name="Ycircumflex" unicode="&#x176;" horiz-adv-x="608" 
d="M357 765l-47 56h-12l-47 -56h-108l102 115h118l102 -115h-108zM8 700h114l176 -325h12l176 325h114l-246 -441v-259h-100v259z" />
    <glyph glyph-name="Ydieresis" unicode="&#x178;" horiz-adv-x="608" 
d="M128 819c0 42 34 74 76 74s76 -32 76 -74s-34 -74 -76 -74s-76 32 -76 74zM328 819c0 42 34 74 76 74s76 -32 76 -74s-34 -74 -76 -74s-76 32 -76 74zM8 700h114l176 -325h12l176 325h114l-246 -441v-259h-100v259z" />
    <glyph glyph-name="Ygrave" unicode="&#x1ef2;" horiz-adv-x="608" 
d="M313 880l55 -115h-92l-80 115h117zM8 700h114l176 -325h12l176 325h114l-246 -441v-259h-100v259z" />
    <glyph glyph-name="Z" unicode="Z" horiz-adv-x="575" 
d="M52 700h477v-88l-365 -520h371v-92h-493v88l365 520h-355v92z" />
    <glyph glyph-name="Zacute" unicode="&#x179;" horiz-adv-x="575" 
d="M282 880h117l-80 -115h-92zM52 700h477v-88l-365 -520h371v-92h-493v88l365 520h-355v92z" />
    <glyph glyph-name="Zcaron" unicode="&#x17d;" horiz-adv-x="575" 
d="M344 880h108l-102 -115h-118l-102 115h108l47 -56h12zM52 700h477v-88l-365 -520h371v-92h-493v88l365 520h-355v92z" />
    <glyph glyph-name="Zdotaccent" unicode="&#x17b;" horiz-adv-x="575" 
d="M215 819c0 42 34 74 76 74s76 -32 76 -74s-34 -74 -76 -74s-76 32 -76 74zM52 700h477v-88l-365 -520h371v-92h-493v88l365 520h-355v92z" />
    <glyph glyph-name="A.ss03" horiz-adv-x="632" 
d="M219 700h194l199 -700h-106l-46 168h-288l-46 -168h-106zM198 260h236l-112 405h-12z" />
    <glyph glyph-name="Aacute.ss03" horiz-adv-x="632" 
d="M307 880h117l-80 -115h-92zM219 700h194l199 -700h-106l-46 168h-288l-46 -168h-106zM198 260h236l-112 405h-12z" />
    <glyph glyph-name="Abreve.ss03" horiz-adv-x="632" 
d="M356 880h76v-8c0 -68 -45 -113 -116 -113s-116 45 -116 113v8h76v-7c0 -22 14 -40 40 -40s40 18 40 40v7zM219 700h194l199 -700h-106l-46 168h-288l-46 -168h-106zM198 260h236l-112 405h-12z" />
    <glyph glyph-name="Acircumflex.ss03" horiz-adv-x="632" 
d="M369 765l-47 56h-12l-47 -56h-108l102 115h118l102 -115h-108zM219 700h194l199 -700h-106l-46 168h-288l-46 -168h-106zM198 260h236l-112 405h-12z" />
    <glyph glyph-name="Adieresis.ss03" horiz-adv-x="632" 
d="M140 819c0 42 34 74 76 74s76 -32 76 -74s-34 -74 -76 -74s-76 32 -76 74zM340 819c0 42 34 74 76 74s76 -32 76 -74s-34 -74 -76 -74s-76 32 -76 74zM219 700h194l199 -700h-106l-46 168h-288l-46 -168h-106zM198 260h236l-112 405h-12z" />
    <glyph glyph-name="Agrave.ss03" horiz-adv-x="632" 
d="M325 880l55 -115h-92l-80 115h117zM219 700h194l199 -700h-106l-46 168h-288l-46 -168h-106zM198 260h236l-112 405h-12z" />
    <glyph glyph-name="Amacron.ss03" horiz-adv-x="632" 
d="M459 843v-78h-286v78h286zM219 700h194l199 -700h-106l-46 168h-288l-46 -168h-106zM198 260h236l-112 405h-12z" />
    <glyph glyph-name="Aogonek.ss03" horiz-adv-x="632" 
d="M596 -94h44v-72h-64c-40 0 -79 25 -79 74c0 6 1 14 3 24l15 68h-9l-46 168h-288l-46 -168h-106l199 700h194l199 -700h-23l-15 -64c-1 -3 -1 -6 -1 -8c0 -15 8 -22 23 -22zM198 260h236l-112 405h-12z" />
    <glyph glyph-name="Aring.ss03" horiz-adv-x="632" 
d="M211 841c0 60 46 101 105 101s105 -41 105 -101s-46 -101 -105 -101s-105 41 -105 101zM279 841c0 -21 15 -37 37 -37s37 16 37 37s-15 37 -37 37s-37 -16 -37 -37zM219 700h194l199 -700h-106l-46 168h-288l-46 -168h-106zM198 260h236l-112 405h-12z" />
    <glyph glyph-name="Aringacute.ss03" horiz-adv-x="632" 
d="M316 740c-59 0 -105 41 -105 101s46 101 105 101h2l28 58h117l-65 -94c14 -17 23 -39 23 -65c0 -60 -46 -101 -105 -101zM316 878c-22 0 -37 -16 -37 -37s15 -37 37 -37s37 16 37 37s-15 37 -37 37zM413 700l199 -700h-106l-46 168h-288l-46 -168h-106l199 700h194z
M198 260h236l-112 405h-12z" />
    <glyph glyph-name="Atilde.ss03" horiz-adv-x="632" 
d="M137 799l47 57c21 26 41 46 76 46c39 0 60 -21 84 -56c9 -13 15 -20 28 -20s20 7 28 17l38 47l57 -45l-47 -57c-21 -26 -41 -46 -76 -46c-39 0 -60 21 -84 56c-9 13 -15 20 -28 20s-20 -7 -28 -17l-38 -47zM219 700h194l199 -700h-106l-46 168h-288l-46 -168h-106z
M198 260h236l-112 405h-12z" />
    <glyph glyph-name="AE.ss03" horiz-adv-x="574" 
d="M390 92h144v-92h-244v168h-127l-39 -168h-106l170 700h340v-92h-138v-211h114v-92h-114v-213zM290 260v405h-12l-94 -405h106z" />
    <glyph glyph-name="AEacute.ss03" horiz-adv-x="574" 
d="M448 880l-80 -115h-92l55 115h117zM390 92h144v-92h-244v168h-127l-39 -168h-106l170 700h340v-92h-138v-211h114v-92h-114v-213zM290 260v405h-12l-94 -405h106z" />
    <glyph glyph-name="M.ss03" horiz-adv-x="872" 
d="M72 700h202l156 -665h12l156 665h202v-700h-100v665h-12l-155 -665h-194l-155 665h-12v-665h-100v700z" />
    <glyph glyph-name="N.ss03" horiz-adv-x="658" 
d="M72 700h204l198 -665h12v665h100v-700h-206l-196 665h-12v-665h-100v700z" />
    <glyph glyph-name="Nacute.ss03" horiz-adv-x="658" 
d="M317 880h117l-80 -115h-92zM72 700h204l198 -665h12v665h100v-700h-206l-196 665h-12v-665h-100v700z" />
    <glyph glyph-name="Ncaron.ss03" horiz-adv-x="658" 
d="M379 880h108l-102 -115h-118l-102 115h108l47 -56h12zM72 700h204l198 -665h12v665h100v-700h-206l-196 665h-12v-665h-100v700z" />
    <glyph glyph-name="uni0145.ss03" horiz-adv-x="658" 
d="M72 700h204l198 -665h12v665h100v-700h-206l-196 665h-12v-665h-100v700zM248 -128c0 48 35 78 78 78c45 0 78 -30 78 -76v-100c0 -47 -34 -82 -81 -82h-71v56h63c18 0 27 10 27 30v21c-4 -1 -9 -2 -17 -2c-41 0 -77 28 -77 75z" />
    <glyph glyph-name="Eng.ss03" horiz-adv-x="658" 
d="M486 700h100v-814c0 -53 -35 -86 -85 -86h-191v84h148c19 0 28 10 28 31v85h-102l-200 650h-12v-650h-100v700h200l202 -651h12v651z" />
    <glyph glyph-name="Ntilde.ss03" horiz-adv-x="658" 
d="M147 799l47 57c21 26 41 46 76 46c39 0 60 -21 84 -56c9 -13 15 -20 28 -20s20 7 28 17l38 47l57 -45l-47 -57c-21 -26 -41 -46 -76 -46c-39 0 -60 21 -84 56c-9 13 -15 20 -28 20s-20 -7 -28 -17l-38 -47zM72 700h204l198 -665h12v665h100v-700h-206l-196 665h-12v-665
h-100v700z" />
    <glyph glyph-name="V.ss03" horiz-adv-x="616" 
d="M16 700h108l178 -665h12l178 665h108l-195 -700h-194z" />
    <glyph glyph-name="W.ss03" horiz-adv-x="816" 
d="M32 700h102l74 -665h12l90 665h196l90 -665h12l74 665h102l-82 -700h-198l-90 665h-12l-90 -665h-198z" />
    <glyph glyph-name="Wacute.ss03" horiz-adv-x="816" 
d="M399 880h117l-80 -115h-92zM32 700h102l74 -665h12l90 665h196l90 -665h12l74 665h102l-82 -700h-198l-90 665h-12l-90 -665h-198z" />
    <glyph glyph-name="Wcircumflex.ss03" horiz-adv-x="816" 
d="M461 765l-47 56h-12l-47 -56h-108l102 115h118l102 -115h-108zM32 700h102l74 -665h12l90 665h196l90 -665h12l74 665h102l-82 -700h-198l-90 665h-12l-90 -665h-198z" />
    <glyph glyph-name="Wdieresis.ss03" horiz-adv-x="816" 
d="M232 819c0 42 34 74 76 74s76 -32 76 -74s-34 -74 -76 -74s-76 32 -76 74zM432 819c0 42 34 74 76 74s76 -32 76 -74s-34 -74 -76 -74s-76 32 -76 74zM32 700h102l74 -665h12l90 665h196l90 -665h12l74 665h102l-82 -700h-198l-90 665h-12l-90 -665h-198z" />
    <glyph glyph-name="Wgrave.ss03" horiz-adv-x="816" 
d="M417 880l55 -115h-92l-80 115h117zM32 700h102l74 -665h12l90 665h196l90 -665h12l74 665h102l-82 -700h-198l-90 665h-12l-90 -665h-198z" />
    <glyph glyph-name="I.ss04" horiz-adv-x="392" 
d="M40 700h312v-88h-106v-524h106v-88h-312v88h106v524h-106v88z" />
    <glyph glyph-name="IJ.ss04" horiz-adv-x="672" 
d="M40 700h252v-88h-76v-276h-100v276h-76v88zM376 700h276v-88h-76v-402c0 -145 -77 -224 -224 -224c-149 0 -236 80 -236 224v38h100v-38c0 -80 42 -132 135 -132c92 0 125 52 125 132v402h-100v88z" />
    <glyph glyph-name="Iacute.ss04" horiz-adv-x="392" 
d="M187 880h117l-80 -115h-92zM40 700h312v-88h-106v-524h106v-88h-312v88h106v524h-106v88z" />
    <glyph glyph-name="Icircumflex.ss04" horiz-adv-x="392" 
d="M249 765l-47 56h-12l-47 -56h-108l102 115h118l102 -115h-108zM40 700h312v-88h-106v-524h106v-88h-312v88h106v524h-106v88z" />
    <glyph glyph-name="Idieresis.ss04" horiz-adv-x="392" 
d="M20 819c0 42 34 74 76 74s76 -32 76 -74s-34 -74 -76 -74s-76 32 -76 74zM220 819c0 42 34 74 76 74s76 -32 76 -74s-34 -74 -76 -74s-76 32 -76 74zM40 700h312v-88h-106v-524h106v-88h-312v88h106v524h-106v88z" />
    <glyph glyph-name="Idotaccent.ss04" horiz-adv-x="392" 
d="M120 819c0 42 34 74 76 74s76 -32 76 -74s-34 -74 -76 -74s-76 32 -76 74zM40 700h312v-88h-106v-524h106v-88h-312v88h106v524h-106v88z" />
    <glyph glyph-name="Igrave.ss04" horiz-adv-x="392" 
d="M205 880l55 -115h-92l-80 115h117zM40 700h312v-88h-106v-524h106v-88h-312v88h106v524h-106v88z" />
    <glyph glyph-name="Imacron.ss04" horiz-adv-x="392" 
d="M339 843v-78h-286v78h286zM40 700h312v-88h-106v-524h106v-88h-312v88h106v524h-106v88z" />
    <glyph glyph-name="Iogonek.ss04" horiz-adv-x="392" 
d="M352 612h-106v-524h106v-88h-119l-15 -64c-1 -3 -1 -6 -1 -8c0 -15 8 -22 23 -22h44v-72h-64c-40 0 -79 25 -79 74c0 6 1 14 3 24l15 68h-119v88h106v524h-106v88h312v-88z" />
    <glyph glyph-name="J.ss04" horiz-adv-x="576" 
d="M280 700h276v-88h-76v-402c0 -145 -77 -224 -224 -224c-149 0 -236 80 -236 224v58h100v-58c0 -80 42 -132 135 -132c92 0 125 52 125 132v402h-100v88z" />
    <glyph glyph-name="R.ss05" horiz-adv-x="622" 
d="M72 700h294c131 0 212 -83 212 -197c0 -98 -57 -141 -102 -162v-12c46 -4 80 -39 80 -86v-243h-100v226c0 34 -14 54 -54 54h-230v-280h-100v700zM172 608v-236h180c85 0 126 50 126 118s-41 118 -126 118h-180z" />
    <glyph glyph-name="Racute.ss05" horiz-adv-x="622" 
d="M294 880h117l-80 -115h-92zM72 700h294c131 0 212 -83 212 -197c0 -98 -57 -141 -102 -162v-12c46 -4 80 -39 80 -86v-243h-100v226c0 34 -14 54 -54 54h-230v-280h-100v700zM172 608v-236h180c85 0 126 50 126 118s-41 118 -126 118h-180z" />
    <glyph glyph-name="Rcaron.ss05" horiz-adv-x="622" 
d="M356 880h108l-102 -115h-118l-102 115h108l47 -56h12zM72 700h294c131 0 212 -83 212 -197c0 -98 -57 -141 -102 -162v-12c46 -4 80 -39 80 -86v-243h-100v226c0 34 -14 54 -54 54h-230v-280h-100v700zM172 608v-236h180c85 0 126 50 126 118s-41 118 -126 118h-180z" />
    <glyph glyph-name="uni0156.ss05" horiz-adv-x="622" 
d="M72 700h294c131 0 212 -83 212 -197c0 -98 -57 -141 -102 -162v-12c46 -4 80 -39 80 -86v-243h-100v226c0 34 -14 54 -54 54h-230v-280h-100v700zM172 608v-236h180c85 0 126 50 126 118s-41 118 -126 118h-180zM233 -128c0 48 35 78 78 78c45 0 78 -30 78 -76v-100
c0 -47 -34 -82 -81 -82h-71v56h63c18 0 27 10 27 30v21c-4 -1 -9 -2 -17 -2c-41 0 -77 28 -77 75z" />
    <glyph glyph-name="a" unicode="a" horiz-adv-x="568" 
d="M54 361c35 76 113 143 233 143c132 0 217 -77 217 -195v-309h-92v77h-14c-21 -44 -72 -91 -173 -91c-110 0 -181 60 -181 148c0 89 61 137 187 149l181 17v13c0 67 -47 107 -127 107s-127 -39 -150 -96zM139 138c0 -46 37 -74 102 -74c115 0 171 69 171 154v8l-171 -16
c-57 -5 -102 -22 -102 -72z" />
    <glyph glyph-name="aacute" unicode="&#xe1;" horiz-adv-x="568" 
d="M282 700h109l-84 -130h-86zM54 361c35 76 113 143 233 143c132 0 217 -77 217 -195v-309h-92v77h-14c-21 -44 -72 -91 -173 -91c-110 0 -181 60 -181 148c0 89 61 137 187 149l181 17v13c0 67 -47 107 -127 107s-127 -39 -150 -96zM139 138c0 -46 37 -74 102 -74
c115 0 171 69 171 154v8l-171 -16c-57 -5 -102 -22 -102 -72z" />
    <glyph glyph-name="abreve" unicode="&#x103;" horiz-adv-x="568" 
d="M325 700h76v-23c0 -68 -45 -113 -116 -113s-116 45 -116 113v23h76v-22c0 -22 14 -40 40 -40s40 18 40 40v22zM54 361c35 76 113 143 233 143c132 0 217 -77 217 -195v-309h-92v77h-14c-21 -44 -72 -91 -173 -91c-110 0 -181 60 -181 148c0 89 61 137 187 149l181 17v13
c0 67 -47 107 -127 107s-127 -39 -150 -96zM139 138c0 -46 37 -74 102 -74c115 0 171 69 171 154v8l-171 -16c-57 -5 -102 -22 -102 -72z" />
    <glyph glyph-name="acircumflex" unicode="&#xe2;" horiz-adv-x="568" 
d="M340 570l-49 71h-12l-49 -71h-100l94 130h122l94 -130h-100zM54 361c35 76 113 143 233 143c132 0 217 -77 217 -195v-309h-92v77h-14c-21 -44 -72 -91 -173 -91c-110 0 -181 60 -181 148c0 89 61 137 187 149l181 17v13c0 67 -47 107 -127 107s-127 -39 -150 -96z
M139 138c0 -46 37 -74 102 -74c115 0 171 69 171 154v8l-171 -16c-57 -5 -102 -22 -102 -72z" />
    <glyph glyph-name="adieresis" unicode="&#xe4;" horiz-adv-x="568" 
d="M114 640c0 42 34 74 76 74s76 -32 76 -74s-34 -74 -76 -74s-76 32 -76 74zM304 640c0 42 34 74 76 74s76 -32 76 -74s-34 -74 -76 -74s-76 32 -76 74zM54 361c35 76 113 143 233 143c132 0 217 -77 217 -195v-309h-92v77h-14c-21 -44 -72 -91 -173 -91
c-110 0 -181 60 -181 148c0 89 61 137 187 149l181 17v13c0 67 -47 107 -127 107s-127 -39 -150 -96zM139 138c0 -46 37 -74 102 -74c115 0 171 69 171 154v8l-171 -16c-57 -5 -102 -22 -102 -72z" />
    <glyph glyph-name="agrave" unicode="&#xe0;" horiz-adv-x="568" 
d="M288 700l61 -130h-86l-84 130h109zM54 361c35 76 113 143 233 143c132 0 217 -77 217 -195v-309h-92v77h-14c-21 -44 -72 -91 -173 -91c-110 0 -181 60 -181 148c0 89 61 137 187 149l181 17v13c0 67 -47 107 -127 107s-127 -39 -150 -96zM139 138c0 -46 37 -74 102 -74
c115 0 171 69 171 154v8l-171 -16c-57 -5 -102 -22 -102 -72z" />
    <glyph glyph-name="amacron" unicode="&#x101;" horiz-adv-x="568" 
d="M428 648v-78h-286v78h286zM54 361c35 76 113 143 233 143c132 0 217 -77 217 -195v-309h-92v77h-14c-21 -44 -72 -91 -173 -91c-110 0 -181 60 -181 148c0 89 61 137 187 149l181 17v13c0 67 -47 107 -127 107s-127 -39 -150 -96zM139 138c0 -46 37 -74 102 -74
c115 0 171 69 171 154v8l-171 -16c-57 -5 -102 -22 -102 -72z" />
    <glyph glyph-name="aogonek" unicode="&#x105;" horiz-adv-x="568" 
d="M502 -94h44v-72h-64c-40 0 -79 25 -79 74c0 6 1 14 3 24l15 68h-9v77h-14c-21 -44 -72 -91 -173 -91c-110 0 -181 60 -181 148c0 89 61 137 187 149l181 17v13c0 67 -47 107 -127 107s-127 -39 -150 -96l-81 37c35 76 113 143 233 143c132 0 217 -77 217 -195v-309h-9
l-15 -64c-1 -3 -1 -6 -1 -8c0 -15 8 -22 23 -22zM412 218v8l-171 -16c-57 -5 -102 -22 -102 -72c0 -46 37 -74 102 -74c115 0 171 69 171 154z" />
    <glyph glyph-name="aring" unicode="&#xe5;" horiz-adv-x="568" 
d="M180 639c0 60 46 101 105 101s105 -41 105 -101s-46 -101 -105 -101s-105 41 -105 101zM248 639c0 -21 15 -37 37 -37s37 16 37 37s-15 37 -37 37s-37 -16 -37 -37zM54 361c35 76 113 143 233 143c132 0 217 -77 217 -195v-309h-92v77h-14c-21 -44 -72 -91 -173 -91
c-110 0 -181 60 -181 148c0 89 61 137 187 149l181 17v13c0 67 -47 107 -127 107s-127 -39 -150 -96zM139 138c0 -46 37 -74 102 -74c115 0 171 69 171 154v8l-171 -16c-57 -5 -102 -22 -102 -72z" />
    <glyph glyph-name="aringacute" unicode="&#x1fb;" horiz-adv-x="568" 
d="M285 538c-59 0 -105 41 -105 101s46 101 105 101h3l42 90h109l-77 -120c17 -17 28 -42 28 -71c0 -60 -46 -101 -105 -101zM285 676c-22 0 -37 -16 -37 -37s15 -37 37 -37s37 16 37 37s-15 37 -37 37zM287 504c132 0 217 -77 217 -195v-309h-92v77h-14
c-21 -44 -72 -91 -173 -91c-110 0 -181 60 -181 148c0 89 61 137 187 149l181 17v13c0 67 -47 107 -127 107s-127 -39 -150 -96l-81 37c35 76 113 143 233 143zM412 218v8l-171 -16c-57 -5 -102 -22 -102 -72c0 -46 37 -74 102 -74c115 0 171 69 171 154z" />
    <glyph glyph-name="atilde" unicode="&#xe3;" horiz-adv-x="568" 
d="M106 612l47 57c21 26 41 46 76 46c39 0 60 -21 84 -56c9 -13 15 -20 28 -20s20 7 28 17l38 47l57 -45l-47 -57c-21 -26 -41 -46 -76 -46c-39 0 -60 21 -84 56c-9 13 -15 20 -28 20s-20 -7 -28 -17l-38 -47zM54 361c35 76 113 143 233 143c132 0 217 -77 217 -195v-309
h-92v77h-14c-21 -44 -72 -91 -173 -91c-110 0 -181 60 -181 148c0 89 61 137 187 149l181 17v13c0 67 -47 107 -127 107s-127 -39 -150 -96zM139 138c0 -46 37 -74 102 -74c115 0 171 69 171 154v8l-171 -16c-57 -5 -102 -22 -102 -72z" />
    <glyph glyph-name="ae" unicode="&#xe6;" horiz-adv-x="575" 
d="M541 211h-211v-140c56 9 96 36 122 85l70 -52c-39 -53 -115 -118 -241 -118c-141 0 -237 56 -237 159s97 142 192 142h4v131c-46 -5 -92 -44 -115 -95l-73 46c38 69 108 135 229 135c150 0 260 -105 260 -246v-47zM443 287c-2 69 -45 116 -113 131v-131h113zM228 74h12
v137h-12c-46 0 -91 -19 -91 -68s45 -69 91 -69z" />
    <glyph glyph-name="aeacute" unicode="&#x1fd;" horiz-adv-x="575" 
d="M391 700l-84 -130h-86l61 130h109zM541 211h-211v-140c56 9 96 36 122 85l70 -52c-39 -53 -115 -118 -241 -118c-141 0 -237 56 -237 159s97 142 192 142h4v131c-46 -5 -92 -44 -115 -95l-73 46c38 69 108 135 229 135c150 0 260 -105 260 -246v-47zM443 287
c-2 69 -45 116 -113 131v-131h113zM228 74h12v137h-12c-46 0 -91 -19 -91 -68s45 -69 91 -69z" />
    <glyph glyph-name="b" unicode="b" horiz-adv-x="612" 
d="M70 700h94v-287h12c27 45 72 91 168 91c129 0 230 -107 230 -259s-101 -259 -230 -259c-96 0 -141 46 -168 91h-14v-77h-92v700zM320 420c-96 0 -156 -67 -156 -175s60 -175 156 -175c94 0 160 63 160 175s-66 175 -160 175z" />
    <glyph glyph-name="c" unicode="c" horiz-adv-x="566" 
d="M38 245c0 150 108 259 254 259c132 0 218 -81 238 -190l-92 -19c-8 69 -59 123 -146 123c-94 0 -160 -69 -160 -173s66 -173 162 -173c94 0 132 59 145 122l93 -18c-22 -93 -93 -190 -238 -190c-148 0 -256 109 -256 259z" />
    <glyph glyph-name="cacute" unicode="&#x107;" horiz-adv-x="566" 
d="M289 700h109l-84 -130h-86zM38 245c0 150 108 259 254 259c132 0 218 -81 238 -190l-92 -19c-8 69 -59 123 -146 123c-94 0 -160 -69 -160 -173s66 -173 162 -173c94 0 132 59 145 122l93 -18c-22 -93 -93 -190 -238 -190c-148 0 -256 109 -256 259z" />
    <glyph glyph-name="ccaron" unicode="&#x10d;" horiz-adv-x="566" 
d="M347 700h100l-94 -130h-122l-94 130h100l49 -71h12zM38 245c0 150 108 259 254 259c132 0 218 -81 238 -190l-92 -19c-8 69 -59 123 -146 123c-94 0 -160 -69 -160 -173s66 -173 162 -173c94 0 132 59 145 122l93 -18c-22 -93 -93 -190 -238 -190
c-148 0 -256 109 -256 259z" />
    <glyph glyph-name="ccedilla" unicode="&#xe7;" horiz-adv-x="566" 
d="M532 176c-21 -88 -86 -180 -216 -189l-10 -48h8c10 16 27 27 53 27c47 0 77 -36 77 -82c0 -59 -43 -96 -99 -96c-53 0 -79 27 -94 48l50 40c7 -18 17 -31 41 -31c20 0 38 12 38 36c0 20 -13 33 -30 33c-12 0 -20 -5 -24 -14h-83v8l17 80c-130 15 -222 119 -222 257
c0 150 108 259 254 259c132 0 218 -81 238 -190l-92 -19c-8 69 -59 123 -146 123c-94 0 -160 -69 -160 -173s66 -173 162 -173c94 0 132 59 145 122z" />
    <glyph glyph-name="cdotaccent" unicode="&#x10b;" horiz-adv-x="566" 
d="M216 640c0 42 34 74 76 74s76 -32 76 -74s-34 -74 -76 -74s-76 32 -76 74zM38 245c0 150 108 259 254 259c132 0 218 -81 238 -190l-92 -19c-8 69 -59 123 -146 123c-94 0 -160 -69 -160 -173s66 -173 162 -173c94 0 132 59 145 122l93 -18c-22 -93 -93 -190 -238 -190
c-148 0 -256 109 -256 259z" />
    <glyph glyph-name="d" unicode="d" horiz-adv-x="612" 
d="M542 700v-700h-92v77h-14c-27 -45 -72 -91 -168 -91c-129 0 -230 107 -230 259s101 259 230 259c96 0 141 -46 168 -91h12v287h94zM292 420c-94 0 -160 -63 -160 -175s66 -175 160 -175c96 0 156 67 156 175s-60 175 -156 175z" />
    <glyph glyph-name="eth" unicode="&#xf0;" horiz-adv-x="585" 
d="M141 631l18 88c37 -5 72 -13 107 -24l20 47l75 -29l-20 -49c143 -74 204 -228 204 -397c0 -179 -111 -281 -256 -281c-143 0 -251 107 -251 259s98 259 232 259c70 0 113 -26 138 -61h12c-19 62 -59 108 -112 138l-21 -46l-75 29l21 48c-29 9 -60 16 -92 19zM132 245
c0 -108 64 -173 158 -173s158 65 158 173s-64 173 -158 173s-158 -65 -158 -173z" />
    <glyph glyph-name="dcaron" unicode="&#x10f;" horiz-adv-x="675" 
d="M542 700v-700h-92v77h-14c-27 -45 -72 -91 -168 -91c-129 0 -230 107 -230 259s101 259 230 259c96 0 141 -46 168 -91h12v287h94zM607 700h99l-53 -178h-57zM292 420c-94 0 -160 -63 -160 -175s66 -175 160 -175c96 0 156 67 156 175s-60 175 -156 175z" />
    <glyph glyph-name="dcroat" unicode="&#x111;" horiz-adv-x="612" 
d="M636 632v-74h-94v-558h-92v77h-14c-27 -45 -72 -91 -168 -91c-129 0 -230 107 -230 259s101 259 230 259c96 0 141 -46 168 -91h12v145h-124v74h124v68h94v-68h94zM292 70c96 0 156 67 156 175s-60 175 -156 175c-94 0 -160 -63 -160 -175s66 -175 160 -175z" />
    <glyph glyph-name="e" unicode="e" horiz-adv-x="556" 
d="M38 249c0 144 102 257 244 257c144 0 240 -106 240 -248v-47h-386c6 -88 68 -143 156 -143c72 0 114 36 140 88l79 -45c-37 -60 -100 -125 -217 -125c-152 0 -256 115 -256 263zM136 287h288c-2 84 -56 137 -142 137s-139 -50 -146 -137z" />
    <glyph glyph-name="eacute" unicode="&#xe9;" horiz-adv-x="556" 
d="M280 700h109l-84 -130h-86zM38 249c0 144 102 257 244 257c144 0 240 -106 240 -248v-47h-386c6 -88 68 -143 156 -143c72 0 114 36 140 88l79 -45c-37 -60 -100 -125 -217 -125c-152 0 -256 115 -256 263zM136 287h288c-2 84 -56 137 -142 137s-139 -50 -146 -137z" />
    <glyph glyph-name="ecaron" unicode="&#x11b;" horiz-adv-x="556" 
d="M338 700h100l-94 -130h-122l-94 130h100l49 -71h12zM38 249c0 144 102 257 244 257c144 0 240 -106 240 -248v-47h-386c6 -88 68 -143 156 -143c72 0 114 36 140 88l79 -45c-37 -60 -100 -125 -217 -125c-152 0 -256 115 -256 263zM136 287h288c-2 84 -56 137 -142 137
s-139 -50 -146 -137z" />
    <glyph glyph-name="ecircumflex" unicode="&#xea;" horiz-adv-x="556" 
d="M338 570l-49 71h-12l-49 -71h-100l94 130h122l94 -130h-100zM38 249c0 144 102 257 244 257c144 0 240 -106 240 -248v-47h-386c6 -88 68 -143 156 -143c72 0 114 36 140 88l79 -45c-37 -60 -100 -125 -217 -125c-152 0 -256 115 -256 263zM136 287h288
c-2 84 -56 137 -142 137s-139 -50 -146 -137z" />
    <glyph glyph-name="edieresis" unicode="&#xeb;" horiz-adv-x="556" 
d="M112 640c0 42 34 74 76 74s76 -32 76 -74s-34 -74 -76 -74s-76 32 -76 74zM302 640c0 42 34 74 76 74s76 -32 76 -74s-34 -74 -76 -74s-76 32 -76 74zM38 249c0 144 102 257 244 257c144 0 240 -106 240 -248v-47h-386c6 -88 68 -143 156 -143c72 0 114 36 140 88l79 -45
c-37 -60 -100 -125 -217 -125c-152 0 -256 115 -256 263zM136 287h288c-2 84 -56 137 -142 137s-139 -50 -146 -137z" />
    <glyph glyph-name="edotaccent" unicode="&#x117;" horiz-adv-x="556" 
d="M207 640c0 42 34 74 76 74s76 -32 76 -74s-34 -74 -76 -74s-76 32 -76 74zM38 249c0 144 102 257 244 257c144 0 240 -106 240 -248v-47h-386c6 -88 68 -143 156 -143c72 0 114 36 140 88l79 -45c-37 -60 -100 -125 -217 -125c-152 0 -256 115 -256 263zM136 287h288
c-2 84 -56 137 -142 137s-139 -50 -146 -137z" />
    <glyph glyph-name="egrave" unicode="&#xe8;" horiz-adv-x="556" 
d="M286 700l61 -130h-86l-84 130h109zM38 249c0 144 102 257 244 257c144 0 240 -106 240 -248v-47h-386c6 -88 68 -143 156 -143c72 0 114 36 140 88l79 -45c-37 -60 -100 -125 -217 -125c-152 0 -256 115 -256 263zM136 287h288c-2 84 -56 137 -142 137
s-139 -50 -146 -137z" />
    <glyph glyph-name="emacron" unicode="&#x113;" horiz-adv-x="556" 
d="M426 648v-78h-286v78h286zM38 249c0 144 102 257 244 257c144 0 240 -106 240 -248v-47h-386c6 -88 68 -143 156 -143c72 0 114 36 140 88l79 -45c-37 -60 -100 -125 -217 -125c-152 0 -256 115 -256 263zM136 287h288c-2 84 -56 137 -142 137s-139 -50 -146 -137z" />
    <glyph glyph-name="eogonek" unicode="&#x119;" horiz-adv-x="556" 
d="M522 258v-47h-386c6 -88 68 -143 156 -143c72 0 114 36 140 88l79 -45c-34 -55 -90 -115 -190 -124l-12 -51c-1 -3 -1 -6 -1 -8c0 -15 8 -22 23 -22h44v-72h-64c-40 0 -79 25 -79 74c0 6 1 14 3 24l13 58c-127 20 -210 126 -210 259c0 144 102 257 244 257
c144 0 240 -106 240 -248zM136 287h288c-2 84 -56 137 -142 137s-139 -50 -146 -137z" />
    <glyph glyph-name="f" unicode="f" horiz-adv-x="398" 
d="M14 490h136v124c0 52 34 86 84 86h124v-82h-88c-18 0 -26 -8 -26 -28v-100h140v-82h-140v-408h-94v408h-136v82z" />
    <glyph glyph-name="g" unicode="g" horiz-adv-x="612" 
d="M450 490h92v-475c0 -132 -94 -229 -241 -229c-132 0 -207 65 -255 136l84 49c28 -53 79 -101 165 -101c90 0 153 48 153 150v69h-12c-27 -45 -72 -91 -168 -91c-129 0 -230 104 -230 253s101 253 230 253c96 0 141 -46 168 -91h14v77zM292 82c96 0 156 64 156 169
s-60 169 -156 169c-94 0 -160 -60 -160 -169s66 -169 160 -169z" />
    <glyph glyph-name="gbreve" unicode="&#x11f;" horiz-adv-x="612" 
d="M305 564c-71 0 -116 45 -116 113v23h76v-22c0 -22 14 -40 40 -40s40 18 40 40v22h76v-23c0 -68 -45 -113 -116 -113zM450 490h92v-475c0 -132 -94 -229 -241 -229c-132 0 -207 65 -255 136l84 49c28 -53 79 -101 165 -101c90 0 153 48 153 150v69h-12
c-27 -45 -72 -91 -168 -91c-129 0 -230 104 -230 253s101 253 230 253c96 0 141 -46 168 -91h14v77zM292 82c96 0 156 64 156 169s-60 169 -156 169c-94 0 -160 -60 -160 -169s66 -169 160 -169z" />
    <glyph glyph-name="uni0123" unicode="&#x123;" horiz-adv-x="612" 
d="M305 562c-45 0 -78 30 -78 76v100c0 47 34 82 81 82h71v-56h-63c-18 0 -27 -10 -27 -30v-21c4 1 9 2 17 2c41 0 77 -28 77 -75c0 -48 -35 -78 -78 -78zM450 490h92v-475c0 -132 -94 -229 -241 -229c-132 0 -207 65 -255 136l84 49c28 -53 79 -101 165 -101
c90 0 153 48 153 150v69h-12c-27 -45 -72 -91 -168 -91c-129 0 -230 104 -230 253s101 253 230 253c96 0 141 -46 168 -91h14v77zM292 82c96 0 156 64 156 169s-60 169 -156 169c-94 0 -160 -60 -160 -169s66 -169 160 -169z" />
    <glyph glyph-name="gdotaccent" unicode="&#x121;" horiz-adv-x="612" 
d="M305 566c-42 0 -76 32 -76 74s34 74 76 74s76 -32 76 -74s-34 -74 -76 -74zM450 490h92v-475c0 -132 -94 -229 -241 -229c-132 0 -207 65 -255 136l84 49c28 -53 79 -101 165 -101c90 0 153 48 153 150v69h-12c-27 -45 -72 -91 -168 -91c-129 0 -230 104 -230 253
s101 253 230 253c96 0 141 -46 168 -91h14v77zM292 82c96 0 156 64 156 169s-60 169 -156 169c-94 0 -160 -60 -160 -169s66 -169 160 -169z" />
    <glyph glyph-name="h" unicode="h" horiz-adv-x="596" 
d="M70 700h94v-293h12c23 46 68 91 165 91c103 0 191 -68 191 -203v-295h-94v287c0 85 -46 129 -126 129c-91 0 -148 -58 -148 -160v-256h-94v700z" />
    <glyph glyph-name="hbar" unicode="&#x127;" horiz-adv-x="596" 
d="M341 498c103 0 191 -68 191 -203v-295h-94v287c0 85 -46 129 -126 129c-91 0 -148 -58 -148 -160v-256h-94v558h-94v74h94v68h94v-68h124v-74h-124v-151h12c23 46 68 91 165 91z" />
    <glyph glyph-name="i" unicode="i" horiz-adv-x="234" 
d="M41 640c0 42 34 74 76 74s76 -32 76 -74s-34 -74 -76 -74s-76 32 -76 74zM164 490v-490h-94v490h94z" />
    <glyph glyph-name="dotlessi" unicode="&#x131;" horiz-adv-x="234" 
d="M164 490v-490h-94v490h94z" />
    <glyph glyph-name="iacute" unicode="&#xed;" horiz-adv-x="234" 
d="M114 700h109l-84 -130h-86zM164 490v-490h-94v490h94z" />
    <glyph glyph-name="icircumflex" unicode="&#xee;" horiz-adv-x="234" 
d="M172 570l-49 71h-12l-49 -71h-100l94 130h122l94 -130h-100zM164 490v-490h-94v490h94z" />
    <glyph glyph-name="idieresis" unicode="&#xef;" horiz-adv-x="234" 
d="M-54 640c0 42 34 74 76 74s76 -32 76 -74s-34 -74 -76 -74s-76 32 -76 74zM136 640c0 42 34 74 76 74s76 -32 76 -74s-34 -74 -76 -74s-76 32 -76 74zM164 490v-490h-94v490h94z" />
    <glyph glyph-name="i.loclTRK" horiz-adv-x="234" 
d="M41 640c0 42 34 74 76 74s76 -32 76 -74s-34 -74 -76 -74s-76 32 -76 74zM164 490v-490h-94v490h94z" />
    <glyph glyph-name="igrave" unicode="&#xec;" horiz-adv-x="234" 
d="M120 700l61 -130h-86l-84 130h109zM164 490v-490h-94v490h94z" />
    <glyph glyph-name="ij" unicode="&#x133;" horiz-adv-x="468" 
d="M41 640c0 42 34 74 76 74s76 -32 76 -74s-34 -74 -76 -74s-76 32 -76 74zM275 640c0 42 34 74 76 74s76 -32 76 -74s-34 -74 -76 -74s-76 32 -76 74zM164 490v-490h-94v490h94zM398 490v-606c0 -50 -34 -84 -82 -84h-126v82h86c18 0 28 10 28 30v578h94z" />
    <glyph glyph-name="imacron" unicode="&#x12b;" horiz-adv-x="234" 
d="M260 648v-78h-286v78h286zM164 490v-490h-94v490h94z" />
    <glyph glyph-name="iogonek" unicode="&#x12f;" horiz-adv-x="234" 
d="M117 566c-42 0 -76 32 -76 74s34 74 76 74s76 -32 76 -74s-34 -74 -76 -74zM161 -94h44v-72h-64c-40 0 -79 25 -79 74c0 6 1 14 3 24l15 68h-10v490h94v-490h-10l-15 -64c-1 -3 -1 -6 -1 -8c0 -15 8 -22 23 -22z" />
    <glyph glyph-name="j" unicode="j" horiz-adv-x="234" 
d="M41 640c0 42 34 74 76 74s76 -32 76 -74s-34 -74 -76 -74s-76 32 -76 74zM164 490v-606c0 -50 -34 -84 -82 -84h-126v82h86c18 0 28 10 28 30v578h94z" />
    <glyph glyph-name="uni0237" unicode="&#x237;" horiz-adv-x="234" 
d="M164 490v-606c0 -50 -34 -84 -82 -84h-126v82h86c18 0 28 10 28 30v578h94z" />
    <glyph glyph-name="uni006A0301" horiz-adv-x="234" 
d="M114 700h109l-84 -130h-86zM164 490v-606c0 -50 -34 -84 -82 -84h-126v82h86c18 0 28 10 28 30v578h94z" />
    <glyph glyph-name="k" unicode="k" horiz-adv-x="572" 
d="M558 490l-225 -189l221 -301h-113l-176 243l-101 -84v-159h-94v700h94v-417h12l244 207h138z" />
    <glyph glyph-name="uni0137" unicode="&#x137;" horiz-adv-x="572" 
d="M558 490l-225 -189l221 -301h-113l-176 243l-101 -84v-159h-94v700h94v-417h12l244 207h138zM296 -50c45 0 78 -30 78 -76v-100c0 -47 -34 -82 -81 -82h-71v56h63c18 0 27 10 27 30v21c-4 -1 -9 -2 -17 -2c-41 0 -77 28 -77 75c0 48 35 78 78 78z" />
    <glyph glyph-name="l" unicode="l" horiz-adv-x="234" 
d="M164 700v-700h-94v700h94z" />
    <glyph glyph-name="lacute" unicode="&#x13a;" horiz-adv-x="234" 
d="M108 880h117l-80 -115h-92zM164 700v-700h-94v700h94z" />
    <glyph glyph-name="lcaron" unicode="&#x13e;" horiz-adv-x="292" 
d="M164 700v-700h-94v700h94zM224 700h99l-53 -178h-57z" />
    <glyph glyph-name="uni013C" unicode="&#x13c;" horiz-adv-x="234" 
d="M164 700v-700h-94v700h94zM39 -128c0 48 35 78 78 78c45 0 78 -30 78 -76v-100c0 -47 -34 -82 -81 -82h-71v56h63c18 0 27 10 27 30v21c-4 -1 -9 -2 -17 -2c-41 0 -77 28 -77 75z" />
    <glyph glyph-name="ldot" unicode="&#x140;" horiz-adv-x="390" 
d="M164 700v-700h-94v700h94zM234 262c0 44 35 78 78 78s78 -34 78 -78s-35 -78 -78 -78s-78 34 -78 78z" />
    <glyph glyph-name="lslash" unicode="&#x142;" horiz-adv-x="323" 
d="M313 361l-104 -49v-312h-94v268l-70 -33l-35 72l105 49v344h94v-300l70 33z" />
    <glyph glyph-name="m" unicode="m" horiz-adv-x="832" 
d="M70 490h92v-64h14c25 42 69 72 134 72c71 0 112 -37 136 -82h14c20 41 62 82 142 82c87 0 166 -62 166 -163v-335h-94v329c0 57 -43 89 -101 89c-61 0 -107 -38 -107 -112v-306h-94v329c0 57 -39 89 -96 89c-63 0 -112 -38 -112 -112v-306h-94v490z" />
    <glyph glyph-name="n" unicode="n" horiz-adv-x="596" 
d="M70 490h92v-83h14c23 46 68 91 165 91c103 0 191 -68 191 -203v-295h-94v287c0 85 -46 129 -126 129c-91 0 -148 -58 -148 -160v-256h-94v490z" />
    <glyph glyph-name="nacute" unicode="&#x144;" horiz-adv-x="596" 
d="M300 700h109l-84 -130h-86zM70 490h92v-83h14c23 46 68 91 165 91c103 0 191 -68 191 -203v-295h-94v287c0 85 -46 129 -126 129c-91 0 -148 -58 -148 -160v-256h-94v490z" />
    <glyph glyph-name="ncaron" unicode="&#x148;" horiz-adv-x="596" 
d="M358 700h100l-94 -130h-122l-94 130h100l49 -71h12zM70 490h92v-83h14c23 46 68 91 165 91c103 0 191 -68 191 -203v-295h-94v287c0 85 -46 129 -126 129c-91 0 -148 -58 -148 -160v-256h-94v490z" />
    <glyph glyph-name="uni0146" unicode="&#x146;" horiz-adv-x="596" 
d="M70 490h92v-83h14c23 46 68 91 165 91c103 0 191 -68 191 -203v-295h-94v287c0 85 -46 129 -126 129c-91 0 -148 -58 -148 -160v-256h-94v490zM222 -128c0 48 35 78 78 78c45 0 78 -30 78 -76v-100c0 -47 -34 -82 -81 -82h-71v56h63c18 0 27 10 27 30v21
c-4 -1 -9 -2 -17 -2c-41 0 -77 28 -77 75z" />
    <glyph glyph-name="eng" unicode="&#x14b;" horiz-adv-x="596" 
d="M343 504c103 0 189 -69 189 -204v-414c0 -53 -35 -86 -85 -86h-123v84h86c19 0 28 10 28 31v378c0 85 -46 129 -126 129c-91 0 -148 -58 -148 -160v-262h-94v490h92v-77h14c23 46 70 91 167 91z" />
    <glyph glyph-name="ntilde" unicode="&#xf1;" horiz-adv-x="596" 
d="M124 612l47 57c21 26 41 46 76 46c39 0 60 -21 84 -56c9 -13 15 -20 28 -20s20 7 28 17l38 47l57 -45l-47 -57c-21 -26 -41 -46 -76 -46c-39 0 -60 21 -84 56c-9 13 -15 20 -28 20s-20 -7 -28 -17l-38 -47zM70 490h92v-83h14c23 46 68 91 165 91c103 0 191 -68 191 -203
v-295h-94v287c0 85 -46 129 -126 129c-91 0 -148 -58 -148 -160v-256h-94v490z" />
    <glyph glyph-name="o" unicode="o" horiz-adv-x="580" 
d="M38 245c0 152 108 259 252 259s252 -107 252 -259s-108 -259 -252 -259s-252 107 -252 259zM132 245c0 -108 64 -173 158 -173s158 65 158 173s-64 173 -158 173s-158 -65 -158 -173z" />
    <glyph glyph-name="oacute" unicode="&#xf3;" horiz-adv-x="580" 
d="M287 700h109l-84 -130h-86zM38 245c0 152 108 259 252 259s252 -107 252 -259s-108 -259 -252 -259s-252 107 -252 259zM132 245c0 -108 64 -173 158 -173s158 65 158 173s-64 173 -158 173s-158 -65 -158 -173z" />
    <glyph glyph-name="ocircumflex" unicode="&#xf4;" horiz-adv-x="580" 
d="M345 570l-49 71h-12l-49 -71h-100l94 130h122l94 -130h-100zM38 245c0 152 108 259 252 259s252 -107 252 -259s-108 -259 -252 -259s-252 107 -252 259zM132 245c0 -108 64 -173 158 -173s158 65 158 173s-64 173 -158 173s-158 -65 -158 -173z" />
    <glyph glyph-name="odieresis" unicode="&#xf6;" horiz-adv-x="580" 
d="M119 640c0 42 34 74 76 74s76 -32 76 -74s-34 -74 -76 -74s-76 32 -76 74zM309 640c0 42 34 74 76 74s76 -32 76 -74s-34 -74 -76 -74s-76 32 -76 74zM38 245c0 152 108 259 252 259s252 -107 252 -259s-108 -259 -252 -259s-252 107 -252 259zM132 245
c0 -108 64 -173 158 -173s158 65 158 173s-64 173 -158 173s-158 -65 -158 -173z" />
    <glyph glyph-name="ograve" unicode="&#xf2;" horiz-adv-x="580" 
d="M293 700l61 -130h-86l-84 130h109zM38 245c0 152 108 259 252 259s252 -107 252 -259s-108 -259 -252 -259s-252 107 -252 259zM132 245c0 -108 64 -173 158 -173s158 65 158 173s-64 173 -158 173s-158 -65 -158 -173z" />
    <glyph glyph-name="ohungarumlaut" unicode="&#x151;" horiz-adv-x="580" 
d="M220 700h109l-84 -130h-86zM364 700h109l-84 -130h-86zM38 245c0 152 108 259 252 259s252 -107 252 -259s-108 -259 -252 -259s-252 107 -252 259zM132 245c0 -108 64 -173 158 -173s158 65 158 173s-64 173 -158 173s-158 -65 -158 -173z" />
    <glyph glyph-name="omacron" unicode="&#x14d;" horiz-adv-x="580" 
d="M433 648v-78h-286v78h286zM38 245c0 152 108 259 252 259s252 -107 252 -259s-108 -259 -252 -259s-252 107 -252 259zM132 245c0 -108 64 -173 158 -173s158 65 158 173s-64 173 -158 173s-158 -65 -158 -173z" />
    <glyph glyph-name="oslash" unicode="&#xf8;" horiz-adv-x="580" 
d="M422 469c73 -43 120 -124 120 -224c0 -152 -108 -259 -252 -259c-17 0 -34 2 -50 4l-27 -71l-80 29l27 72c-74 43 -122 124 -122 225c0 152 108 259 252 259c18 0 36 -2 53 -5l25 66l79 -29zM132 245c0 -64 22 -113 60 -142l120 314c-7 1 -15 1 -22 1
c-94 0 -158 -65 -158 -173zM290 72c94 0 158 65 158 173c0 63 -22 111 -58 140l-119 -312c6 -1 13 -1 19 -1z" />
    <glyph glyph-name="oslashacute" unicode="&#x1ff;" horiz-adv-x="580" 
d="M396 700l-84 -130h-86l61 130h109zM422 469c73 -43 120 -124 120 -224c0 -152 -108 -259 -252 -259c-17 0 -34 2 -50 4l-27 -71l-80 29l27 72c-74 43 -122 124 -122 225c0 152 108 259 252 259c18 0 36 -2 53 -5l25 66l79 -29zM132 245c0 -64 22 -113 60 -142l120 314
c-7 1 -15 1 -22 1c-94 0 -158 -65 -158 -173zM290 72c94 0 158 65 158 173c0 63 -22 111 -58 140l-119 -312c6 -1 13 -1 19 -1z" />
    <glyph glyph-name="otilde" unicode="&#xf5;" horiz-adv-x="580" 
d="M111 612l47 57c21 26 41 46 76 46c39 0 60 -21 84 -56c9 -13 15 -20 28 -20s20 7 28 17l38 47l57 -45l-47 -57c-21 -26 -41 -46 -76 -46c-39 0 -60 21 -84 56c-9 13 -15 20 -28 20s-20 -7 -28 -17l-38 -47zM38 245c0 152 108 259 252 259s252 -107 252 -259
s-108 -259 -252 -259s-252 107 -252 259zM132 245c0 -108 64 -173 158 -173s158 65 158 173s-64 173 -158 173s-158 -65 -158 -173z" />
    <glyph glyph-name="oe" unicode="&#x153;" horiz-adv-x="596" 
d="M562 211h-211v-140c56 9 96 36 122 85l70 -52c-39 -53 -109 -118 -235 -118c-156 0 -270 107 -270 259s114 259 268 259c150 0 256 -104 256 -246v-47zM464 287c-2 70 -45 117 -113 131v-131h113zM132 245c0 -94 49 -156 129 -173v346c-80 -17 -129 -79 -129 -173z" />
    <glyph glyph-name="p" unicode="p" horiz-adv-x="612" 
d="M70 -200v690h92v-77h14c27 45 72 91 168 91c129 0 230 -107 230 -259s-101 -259 -230 -259c-96 0 -141 46 -168 91h-12v-277h-94zM320 70c94 0 160 63 160 175s-66 175 -160 175c-96 0 -156 -67 -156 -175s60 -175 156 -175z" />
    <glyph glyph-name="thorn" unicode="&#xfe;" horiz-adv-x="612" 
d="M70 -200v900h94v-287h12c27 45 72 91 168 91c129 0 230 -107 230 -259s-101 -259 -230 -259c-96 0 -141 46 -168 91h-12v-277h-94zM320 70c94 0 160 63 160 175s-66 175 -160 175c-96 0 -156 -67 -156 -175s60 -175 156 -175z" />
    <glyph glyph-name="q" unicode="q" horiz-adv-x="612" 
d="M542 -200h-94v277h-12c-27 -45 -72 -91 -168 -91c-129 0 -230 107 -230 259s101 259 230 259c96 0 141 -46 168 -91h14v77h92v-690zM292 70c96 0 156 67 156 175s-60 175 -156 175c-94 0 -160 -63 -160 -175s66 -175 160 -175z" />
    <glyph glyph-name="r" unicode="r" horiz-adv-x="376" 
d="M160 490v-80h14c17 52 57 82 128 82h56v-92h-86c-70 0 -108 -40 -108 -114v-286h-94v490h90z" />
    <glyph glyph-name="racute" unicode="&#x155;" horiz-adv-x="376" 
d="M216 700h109l-84 -130h-86zM160 490v-80h14c17 52 57 82 128 82h56v-92h-86c-70 0 -108 -40 -108 -114v-286h-94v490h90z" />
    <glyph glyph-name="rcaron" unicode="&#x159;" horiz-adv-x="376" 
d="M274 700h100l-94 -130h-122l-94 130h100l49 -71h12zM160 490v-80h14c17 52 57 82 128 82h56v-92h-86c-70 0 -108 -40 -108 -114v-286h-94v490h90z" />
    <glyph glyph-name="uni0157" unicode="&#x157;" horiz-adv-x="376" 
d="M160 490v-80h14c17 52 57 82 128 82h56v-92h-86c-70 0 -108 -40 -108 -114v-286h-94v490h90zM40 -128c0 48 35 78 78 78c45 0 78 -30 78 -76v-100c0 -47 -34 -82 -81 -82h-71v56h63c18 0 27 10 27 30v21c-4 -1 -9 -2 -17 -2c-41 0 -77 28 -77 75z" />
    <glyph glyph-name="s" unicode="s" horiz-adv-x="527" 
d="M60 359c0 93 87 145 187 145s166 -39 243 -125l-70 -50c-54 70 -113 97 -171 97c-55 0 -96 -24 -96 -66c0 -48 48 -53 101 -61l41 -6c111 -16 198 -43 198 -145c0 -98 -90 -162 -216 -162c-139 0 -217 82 -255 154l84 45c31 -74 94 -119 174 -119c70 0 120 31 120 79
c0 51 -63 55 -116 63l-41 6c-110 16 -183 52 -183 145z" />
    <glyph glyph-name="sacute" unicode="&#x15b;" horiz-adv-x="527" 
d="M257 700h109l-84 -130h-86zM60 359c0 93 87 145 187 145s166 -39 243 -125l-70 -50c-54 70 -113 97 -171 97c-55 0 -96 -24 -96 -66c0 -48 48 -53 101 -61l41 -6c111 -16 198 -43 198 -145c0 -98 -90 -162 -216 -162c-139 0 -217 82 -255 154l84 45
c31 -74 94 -119 174 -119c70 0 120 31 120 79c0 51 -63 55 -116 63l-41 6c-110 16 -183 52 -183 145z" />
    <glyph glyph-name="scaron" unicode="&#x161;" horiz-adv-x="527" 
d="M315 700h100l-94 -130h-122l-94 130h100l49 -71h12zM60 359c0 93 87 145 187 145s166 -39 243 -125l-70 -50c-54 70 -113 97 -171 97c-55 0 -96 -24 -96 -66c0 -48 48 -53 101 -61l41 -6c111 -16 198 -43 198 -145c0 -98 -90 -162 -216 -162c-139 0 -217 82 -255 154
l84 45c31 -74 94 -119 174 -119c70 0 120 31 120 79c0 51 -63 55 -116 63l-41 6c-110 16 -183 52 -183 145z" />
    <glyph glyph-name="scedilla" unicode="&#x15f;" horiz-adv-x="527" 
d="M493 148c0 -92 -79 -153 -192 -161l-10 -48h8c10 16 27 27 53 27c47 0 77 -36 77 -82c0 -59 -43 -96 -99 -96c-53 0 -79 27 -94 48l50 40c7 -18 17 -31 41 -31c20 0 38 12 38 36c0 20 -13 33 -30 33c-12 0 -20 -5 -24 -14h-83v8l17 79c-119 12 -188 87 -223 153l84 45
c31 -74 94 -119 174 -119c70 0 120 31 120 79c0 51 -63 55 -116 63l-41 6c-110 16 -183 52 -183 145s87 145 187 145s166 -39 243 -125l-70 -50c-54 70 -113 97 -171 97c-55 0 -96 -24 -96 -66c0 -48 48 -53 101 -61l41 -6c111 -16 198 -43 198 -145z" />
    <glyph glyph-name="uni0219" unicode="&#x219;" horiz-adv-x="527" 
d="M60 359c0 93 87 145 187 145s166 -39 243 -125l-70 -50c-54 70 -113 97 -171 97c-55 0 -96 -24 -96 -66c0 -48 48 -53 101 -61l41 -6c111 -16 198 -43 198 -145c0 -98 -90 -162 -216 -162c-139 0 -217 82 -255 154l84 45c31 -74 94 -119 174 -119c70 0 120 31 120 79
c0 51 -63 55 -116 63l-41 6c-110 16 -183 52 -183 145zM199 -128c0 48 35 78 78 78c45 0 78 -30 78 -76v-100c0 -47 -34 -82 -81 -82h-71v56h63c18 0 27 10 27 30v21c-4 -1 -9 -2 -17 -2c-41 0 -77 28 -77 75z" />
    <glyph glyph-name="germandbls" unicode="&#xdf;" horiz-adv-x="615" 
d="M64 0v436c0 166 99 278 256 278c117 0 196 -69 196 -155c0 -81 -44 -121 -114 -174c-13 -10 -18 -16 -18 -25c0 -12 11 -19 33 -28l20 -8c73 -29 154 -74 154 -172c0 -88 -69 -166 -185 -166c-106 0 -181 56 -219 115l76 54c27 -45 79 -87 141 -87c48 0 93 27 93 81
c0 47 -44 69 -93 90l-36 15c-60 25 -82 57 -82 98c0 49 37 76 74 105c35 27 64 56 64 96c0 46 -44 79 -104 79c-67 0 -162 -48 -162 -190v-442h-94z" />
    <glyph glyph-name="t" unicode="t" horiz-adv-x="416" 
d="M14 490h136v170h94v-170h144v-82h-144v-298c0 -20 8 -28 26 -28h90v-82h-128c-48 0 -82 34 -82 84v324h-136v82z" />
    <glyph glyph-name="tbar" unicode="&#x167;" horiz-adv-x="416" 
d="M388 408h-144v-107h144v-82h-144v-109c0 -20 8 -28 26 -28h90v-82h-128c-48 0 -82 34 -82 84v135h-136v82h136v107h-136v82h136v210h94v-210h144v-82z" />
    <glyph glyph-name="tcaron" unicode="&#x165;" horiz-adv-x="416" 
d="M324 749h99l-53 -178h-57zM14 490h136v170h94v-170h144v-82h-144v-298c0 -20 8 -28 26 -28h90v-82h-128c-48 0 -82 34 -82 84v324h-136v82z" />
    <glyph glyph-name="uni0163" unicode="&#x163;" horiz-adv-x="416" 
d="M388 408h-144v-298c0 -20 8 -28 26 -28h90v-82h-99l-13 -61h8c10 16 27 27 53 27c47 0 77 -36 77 -82c0 -59 -43 -96 -99 -96c-53 0 -79 27 -94 48l50 40c7 -18 17 -31 41 -31c20 0 38 12 38 36c0 20 -13 33 -30 33c-12 0 -20 -5 -24 -14h-83v8l21 96
c-34 10 -56 40 -56 80v324h-136v82h136v170h94v-170h144v-82z" />
    <glyph glyph-name="uni021B" unicode="&#x21b;" horiz-adv-x="416" 
d="M14 490h136v170h94v-170h144v-82h-144v-298c0 -20 8 -28 26 -28h90v-82h-128c-48 0 -82 34 -82 84v324h-136v82zM156 -128c0 48 35 78 78 78c45 0 78 -30 78 -76v-100c0 -47 -34 -82 -81 -82h-71v56h63c18 0 27 10 27 30v21c-4 -1 -9 -2 -17 -2c-41 0 -77 28 -77 75z" />
    <glyph glyph-name="u" unicode="u" horiz-adv-x="596" 
d="M526 0h-92v83h-14c-23 -46 -68 -91 -165 -91c-103 0 -191 68 -191 203v295h94v-287c0 -85 46 -129 126 -129c91 0 148 58 148 160v256h94v-490z" />
    <glyph glyph-name="uacute" unicode="&#xfa;" horiz-adv-x="596" 
d="M292 700h109l-84 -130h-86zM526 0h-92v83h-14c-23 -46 -68 -91 -165 -91c-103 0 -191 68 -191 203v295h94v-287c0 -85 46 -129 126 -129c91 0 148 58 148 160v256h94v-490z" />
    <glyph glyph-name="ubreve" unicode="&#x16d;" horiz-adv-x="596" 
d="M335 700h76v-23c0 -68 -45 -113 -116 -113s-116 45 -116 113v23h76v-22c0 -22 14 -40 40 -40s40 18 40 40v22zM526 0h-92v83h-14c-23 -46 -68 -91 -165 -91c-103 0 -191 68 -191 203v295h94v-287c0 -85 46 -129 126 -129c91 0 148 58 148 160v256h94v-490z" />
    <glyph glyph-name="ucircumflex" unicode="&#xfb;" horiz-adv-x="596" 
d="M350 570l-49 71h-12l-49 -71h-100l94 130h122l94 -130h-100zM526 0h-92v83h-14c-23 -46 -68 -91 -165 -91c-103 0 -191 68 -191 203v295h94v-287c0 -85 46 -129 126 -129c91 0 148 58 148 160v256h94v-490z" />
    <glyph glyph-name="udieresis" unicode="&#xfc;" horiz-adv-x="596" 
d="M124 640c0 42 34 74 76 74s76 -32 76 -74s-34 -74 -76 -74s-76 32 -76 74zM314 640c0 42 34 74 76 74s76 -32 76 -74s-34 -74 -76 -74s-76 32 -76 74zM526 0h-92v83h-14c-23 -46 -68 -91 -165 -91c-103 0 -191 68 -191 203v295h94v-287c0 -85 46 -129 126 -129
c91 0 148 58 148 160v256h94v-490z" />
    <glyph glyph-name="ugrave" unicode="&#xf9;" horiz-adv-x="596" 
d="M298 700l61 -130h-86l-84 130h109zM526 0h-92v83h-14c-23 -46 -68 -91 -165 -91c-103 0 -191 68 -191 203v295h94v-287c0 -85 46 -129 126 -129c91 0 148 58 148 160v256h94v-490z" />
    <glyph glyph-name="uhungarumlaut" unicode="&#x171;" horiz-adv-x="596" 
d="M225 700h109l-84 -130h-86zM369 700h109l-84 -130h-86zM526 0h-92v83h-14c-23 -46 -68 -91 -165 -91c-103 0 -191 68 -191 203v295h94v-287c0 -85 46 -129 126 -129c91 0 148 58 148 160v256h94v-490z" />
    <glyph glyph-name="umacron" unicode="&#x16b;" horiz-adv-x="596" 
d="M438 648v-78h-286v78h286zM526 0h-92v83h-14c-23 -46 -68 -91 -165 -91c-103 0 -191 68 -191 203v295h94v-287c0 -85 46 -129 126 -129c91 0 148 58 148 160v256h94v-490z" />
    <glyph glyph-name="uogonek" unicode="&#x173;" horiz-adv-x="596" 
d="M524 -94h44v-72h-64c-40 0 -79 25 -79 74c0 6 1 14 3 24l15 68h-9v83h-14c-23 -46 -68 -91 -165 -91c-103 0 -191 68 -191 203v295h94v-287c0 -85 46 -129 126 -129c91 0 148 58 148 160v256h94v-490h-9l-15 -64c-1 -3 -1 -6 -1 -8c0 -15 8 -22 23 -22z" />
    <glyph glyph-name="uring" unicode="&#x16f;" horiz-adv-x="596" 
d="M190 639c0 60 46 101 105 101s105 -41 105 -101s-46 -101 -105 -101s-105 41 -105 101zM258 639c0 -21 15 -37 37 -37s37 16 37 37s-15 37 -37 37s-37 -16 -37 -37zM526 0h-92v83h-14c-23 -46 -68 -91 -165 -91c-103 0 -191 68 -191 203v295h94v-287
c0 -85 46 -129 126 -129c91 0 148 58 148 160v256h94v-490z" />
    <glyph glyph-name="v" unicode="v" horiz-adv-x="540" 
d="M20 490h102l142 -400h12l142 400h102l-183 -490h-134z" />
    <glyph glyph-name="w" unicode="w" horiz-adv-x="754" 
d="M30 490h98l77 -392h14l89 392h138l89 -392h14l77 392h98l-109 -490h-142l-89 392h-14l-91 -392h-140z" />
    <glyph glyph-name="wacute" unicode="&#x1e83;" horiz-adv-x="754" 
d="M374 700h109l-84 -130h-86zM30 490h98l77 -392h14l89 392h138l89 -392h14l77 392h98l-109 -490h-142l-89 392h-14l-91 -392h-140z" />
    <glyph glyph-name="wcircumflex" unicode="&#x175;" horiz-adv-x="754" 
d="M432 570l-49 71h-12l-49 -71h-100l94 130h122l94 -130h-100zM30 490h98l77 -392h14l89 392h138l89 -392h14l77 392h98l-109 -490h-142l-89 392h-14l-91 -392h-140z" />
    <glyph glyph-name="wdieresis" unicode="&#x1e85;" horiz-adv-x="754" 
d="M206 640c0 42 34 74 76 74s76 -32 76 -74s-34 -74 -76 -74s-76 32 -76 74zM396 640c0 42 34 74 76 74s76 -32 76 -74s-34 -74 -76 -74s-76 32 -76 74zM30 490h98l77 -392h14l89 392h138l89 -392h14l77 392h98l-109 -490h-142l-89 392h-14l-91 -392h-140z" />
    <glyph glyph-name="wgrave" unicode="&#x1e81;" horiz-adv-x="754" 
d="M380 700l61 -130h-86l-84 130h109zM30 490h98l77 -392h14l89 392h138l89 -392h14l77 392h98l-109 -490h-142l-89 392h-14l-91 -392h-140z" />
    <glyph glyph-name="x" unicode="x" horiz-adv-x="568" 
d="M34 490h112l132 -180h12l132 180h112l-184 -238l192 -252h-113l-139 192h-12l-139 -192h-113l192 252z" />
    <glyph glyph-name="y" unicode="y" horiz-adv-x="558" 
d="M436 490h102l-290 -690h-102l83 191l-209 499h102l151 -372h12z" />
    <glyph glyph-name="yacute" unicode="&#xfd;" horiz-adv-x="558" 
d="M388 700l-84 -130h-86l61 130h109zM436 490h102l-290 -690h-102l83 191l-209 499h102l151 -372h12z" />
    <glyph glyph-name="ycircumflex" unicode="&#x177;" horiz-adv-x="558" 
d="M276 641l-49 -71h-100l94 130h122l94 -130h-100l-49 71h-12zM436 490h102l-290 -690h-102l83 191l-209 499h102l151 -372h12z" />
    <glyph glyph-name="ydieresis" unicode="&#xff;" horiz-adv-x="558" 
d="M187 566c-42 0 -76 32 -76 74s34 74 76 74s76 -32 76 -74s-34 -74 -76 -74zM377 566c-42 0 -76 32 -76 74s34 74 76 74s76 -32 76 -74s-34 -74 -76 -74zM436 490h102l-290 -690h-102l83 191l-209 499h102l151 -372h12z" />
    <glyph glyph-name="ygrave" unicode="&#x1ef3;" horiz-adv-x="558" 
d="M346 570h-86l-84 130h109zM436 490h102l-290 -690h-102l83 191l-209 499h102l151 -372h12z" />
    <glyph glyph-name="z" unicode="z" horiz-adv-x="516" 
d="M58 490h408v-74l-297 -336h305v-80h-426v74l297 336h-287v80z" />
    <glyph glyph-name="zacute" unicode="&#x17a;" horiz-adv-x="516" 
d="M260 700h109l-84 -130h-86zM58 490h408v-74l-297 -336h305v-80h-426v74l297 336h-287v80z" />
    <glyph glyph-name="zcaron" unicode="&#x17e;" horiz-adv-x="516" 
d="M318 700h100l-94 -130h-122l-94 130h100l49 -71h12zM58 490h408v-74l-297 -336h305v-80h-426v74l297 336h-287v80z" />
    <glyph glyph-name="zdotaccent" unicode="&#x17c;" horiz-adv-x="516" 
d="M187 640c0 42 34 74 76 74s76 -32 76 -74s-34 -74 -76 -74s-76 32 -76 74zM58 490h408v-74l-297 -336h305v-80h-426v74l297 336h-287v80z" />
    <glyph glyph-name="a.ss01" horiz-adv-x="612" 
d="M542 0h-92v77h-14c-27 -45 -72 -91 -168 -91c-129 0 -230 107 -230 259s101 261 230 261c96 0 141 -48 168 -93h14v77h92v-490zM292 70c96 0 156 67 156 175s-60 177 -156 177c-94 0 -160 -65 -160 -177s66 -175 160 -175z" />
    <glyph glyph-name="aacute.ss01" horiz-adv-x="612" 
d="M303 700h109l-84 -130h-86zM542 0h-92v77h-14c-27 -45 -72 -91 -168 -91c-129 0 -230 107 -230 259s101 261 230 261c96 0 141 -48 168 -93h14v77h92v-490zM292 70c96 0 156 67 156 175s-60 177 -156 177c-94 0 -160 -65 -160 -177s66 -175 160 -175z" />
    <glyph glyph-name="abreve.ss01" horiz-adv-x="612" 
d="M346 700h76v-23c0 -68 -45 -113 -116 -113s-116 45 -116 113v23h76v-22c0 -22 14 -40 40 -40s40 18 40 40v22zM542 0h-92v77h-14c-27 -45 -72 -91 -168 -91c-129 0 -230 107 -230 259s101 261 230 261c96 0 141 -48 168 -93h14v77h92v-490zM292 70c96 0 156 67 156 175
s-60 177 -156 177c-94 0 -160 -65 -160 -177s66 -175 160 -175z" />
    <glyph glyph-name="acircumflex.ss01" horiz-adv-x="612" 
d="M361 570l-49 71h-12l-49 -71h-100l94 130h122l94 -130h-100zM542 0h-92v77h-14c-27 -45 -72 -91 -168 -91c-129 0 -230 107 -230 259s101 261 230 261c96 0 141 -48 168 -93h14v77h92v-490zM292 70c96 0 156 67 156 175s-60 177 -156 177c-94 0 -160 -65 -160 -177
s66 -175 160 -175z" />
    <glyph glyph-name="adieresis.ss01" horiz-adv-x="612" 
d="M135 640c0 42 34 74 76 74s76 -32 76 -74s-34 -74 -76 -74s-76 32 -76 74zM325 640c0 42 34 74 76 74s76 -32 76 -74s-34 -74 -76 -74s-76 32 -76 74zM542 0h-92v77h-14c-27 -45 -72 -91 -168 -91c-129 0 -230 107 -230 259s101 261 230 261c96 0 141 -48 168 -93h14v77
h92v-490zM292 70c96 0 156 67 156 175s-60 177 -156 177c-94 0 -160 -65 -160 -177s66 -175 160 -175z" />
    <glyph glyph-name="agrave.ss01" horiz-adv-x="612" 
d="M309 700l61 -130h-86l-84 130h109zM542 0h-92v77h-14c-27 -45 -72 -91 -168 -91c-129 0 -230 107 -230 259s101 261 230 261c96 0 141 -48 168 -93h14v77h92v-490zM292 70c96 0 156 67 156 175s-60 177 -156 177c-94 0 -160 -65 -160 -177s66 -175 160 -175z" />
    <glyph glyph-name="amacron.ss01" horiz-adv-x="612" 
d="M449 648v-78h-286v78h286zM542 0h-92v77h-14c-27 -45 -72 -91 -168 -91c-129 0 -230 107 -230 259s101 261 230 261c96 0 141 -48 168 -93h14v77h92v-490zM292 70c96 0 156 67 156 175s-60 177 -156 177c-94 0 -160 -65 -160 -177s66 -175 160 -175z" />
    <glyph glyph-name="aogonek.ss01" horiz-adv-x="612" 
d="M541 -94h44v-72h-64c-40 0 -79 25 -79 74c0 6 1 14 3 24l15 68h-10v77h-14c-27 -45 -72 -91 -168 -91c-129 0 -230 107 -230 259s101 261 230 261c96 0 141 -48 168 -93h14v77h92v-490h-8l-15 -64c-1 -3 -1 -6 -1 -8c0 -15 8 -22 23 -22zM292 70c96 0 156 67 156 175
s-60 177 -156 177c-94 0 -160 -65 -160 -177s66 -175 160 -175z" />
    <glyph glyph-name="aring.ss01" horiz-adv-x="612" 
d="M201 639c0 60 46 101 105 101s105 -41 105 -101s-46 -101 -105 -101s-105 41 -105 101zM269 639c0 -21 15 -37 37 -37s37 16 37 37s-15 37 -37 37s-37 -16 -37 -37zM542 0h-92v77h-14c-27 -45 -72 -91 -168 -91c-129 0 -230 107 -230 259s101 261 230 261
c96 0 141 -48 168 -93h14v77h92v-490zM292 70c96 0 156 67 156 175s-60 177 -156 177c-94 0 -160 -65 -160 -177s66 -175 160 -175z" />
    <glyph glyph-name="aringacute.ss01" horiz-adv-x="612" 
d="M306 538c-59 0 -105 41 -105 101s46 101 105 101h3l42 90h109l-77 -120c17 -17 28 -42 28 -71c0 -60 -46 -101 -105 -101zM306 676c-22 0 -37 -16 -37 -37s15 -37 37 -37s37 16 37 37s-15 37 -37 37zM450 490h92v-490h-92v77h-14c-27 -45 -72 -91 -168 -91
c-129 0 -230 107 -230 259s101 261 230 261c96 0 141 -48 168 -93h14v77zM292 70c96 0 156 67 156 175s-60 177 -156 177c-94 0 -160 -65 -160 -177s66 -175 160 -175z" />
    <glyph glyph-name="atilde.ss01" horiz-adv-x="612" 
d="M127 612l47 57c21 26 41 46 76 46c39 0 60 -21 84 -56c9 -13 15 -20 28 -20s20 7 28 17l38 47l57 -45l-47 -57c-21 -26 -41 -46 -76 -46c-39 0 -60 21 -84 56c-9 13 -15 20 -28 20s-20 -7 -28 -17l-38 -47zM542 0h-92v77h-14c-27 -45 -72 -91 -168 -91
c-129 0 -230 107 -230 259s101 261 230 261c96 0 141 -48 168 -93h14v77h92v-490zM292 70c96 0 156 67 156 175s-60 177 -156 177c-94 0 -160 -65 -160 -177s66 -175 160 -175z" />
    <glyph glyph-name="g.ss02" horiz-adv-x="612" 
d="M450 490h92v-606c0 -50 -34 -84 -82 -84h-380v82h340c18 0 28 10 28 30v177h-12c-27 -45 -72 -91 -168 -91c-129 0 -230 104 -230 253s101 253 230 253c96 0 141 -46 168 -91h14v77zM292 82c96 0 156 64 156 169s-60 169 -156 169c-94 0 -160 -60 -160 -169
s66 -169 160 -169z" />
    <glyph glyph-name="gbreve.ss02" horiz-adv-x="612" 
d="M305 564c-71 0 -116 45 -116 113v23h76v-22c0 -22 14 -40 40 -40s40 18 40 40v22h76v-23c0 -68 -45 -113 -116 -113zM450 490h92v-606c0 -50 -34 -84 -82 -84h-380v82h340c18 0 28 10 28 30v177h-12c-27 -45 -72 -91 -168 -91c-129 0 -230 104 -230 253s101 253 230 253
c96 0 141 -46 168 -91h14v77zM292 82c96 0 156 64 156 169s-60 169 -156 169c-94 0 -160 -60 -160 -169s66 -169 160 -169z" />
    <glyph glyph-name="uni0123.ss02" horiz-adv-x="612" 
d="M305 562c-45 0 -78 30 -78 76v100c0 47 34 82 81 82h71v-56h-63c-18 0 -27 -10 -27 -30v-21c4 1 9 2 17 2c41 0 77 -28 77 -75c0 -48 -35 -78 -78 -78zM450 490h92v-606c0 -50 -34 -84 -82 -84h-380v82h340c18 0 28 10 28 30v177h-12c-27 -45 -72 -91 -168 -91
c-129 0 -230 104 -230 253s101 253 230 253c96 0 141 -46 168 -91h14v77zM292 82c96 0 156 64 156 169s-60 169 -156 169c-94 0 -160 -60 -160 -169s66 -169 160 -169z" />
    <glyph glyph-name="gdotaccent.ss02" horiz-adv-x="612" 
d="M305 566c-42 0 -76 32 -76 74s34 74 76 74s76 -32 76 -74s-34 -74 -76 -74zM450 490h92v-606c0 -50 -34 -84 -82 -84h-380v82h340c18 0 28 10 28 30v177h-12c-27 -45 -72 -91 -168 -91c-129 0 -230 104 -230 253s101 253 230 253c96 0 141 -46 168 -91h14v77zM292 82
c96 0 156 64 156 169s-60 169 -156 169c-94 0 -160 -60 -160 -169s66 -169 160 -169z" />
    <glyph glyph-name="v.ss03" horiz-adv-x="540" 
d="M22 490h102l140 -455h12l140 455h102l-159 -490h-178z" />
    <glyph glyph-name="w.ss03" horiz-adv-x="754" 
d="M32 490h98l67 -455h14l76 455h180l76 -455h14l67 455h98l-78 -490h-184l-76 455h-14l-78 -455h-182z" />
    <glyph glyph-name="wacute.ss03" horiz-adv-x="754" 
d="M374 700h109l-84 -130h-86zM32 490h98l67 -455h14l76 455h180l76 -455h14l67 455h98l-78 -490h-184l-76 455h-14l-78 -455h-182z" />
    <glyph glyph-name="wcircumflex.ss03" horiz-adv-x="754" 
d="M432 570l-49 71h-12l-49 -71h-100l94 130h122l94 -130h-100zM32 490h98l67 -455h14l76 455h180l76 -455h14l67 455h98l-78 -490h-184l-76 455h-14l-78 -455h-182z" />
    <glyph glyph-name="wdieresis.ss03" horiz-adv-x="754" 
d="M206 640c0 42 34 74 76 74s76 -32 76 -74s-34 -74 -76 -74s-76 32 -76 74zM396 640c0 42 34 74 76 74s76 -32 76 -74s-34 -74 -76 -74s-76 32 -76 74zM32 490h98l67 -455h14l76 455h180l76 -455h14l67 455h98l-78 -490h-184l-76 455h-14l-78 -455h-182z" />
    <glyph glyph-name="wgrave.ss03" horiz-adv-x="754" 
d="M380 700l61 -130h-86l-84 130h109zM32 490h98l67 -455h14l76 455h180l76 -455h14l67 455h98l-78 -490h-184l-76 455h-14l-78 -455h-182z" />
    <glyph glyph-name="y.ss03" horiz-adv-x="558" 
d="M434 490h102l-234 -690h-102l70 200h-82l-166 490h102l149 -455h12z" />
    <glyph glyph-name="yacute.ss03" horiz-adv-x="558" 
d="M388 700l-84 -130h-86l61 130h109zM434 490h102l-234 -690h-102l70 200h-82l-166 490h102l149 -455h12z" />
    <glyph glyph-name="ycircumflex.ss03" horiz-adv-x="558" 
d="M276 641l-49 -71h-100l94 130h122l94 -130h-100l-49 71h-12zM434 490h102l-234 -690h-102l70 200h-82l-166 490h102l149 -455h12z" />
    <glyph glyph-name="ydieresis.ss03" horiz-adv-x="558" 
d="M187 566c-42 0 -76 32 -76 74s34 74 76 74s76 -32 76 -74s-34 -74 -76 -74zM377 566c-42 0 -76 32 -76 74s34 74 76 74s76 -32 76 -74s-34 -74 -76 -74zM434 490h102l-234 -690h-102l70 200h-82l-166 490h102l149 -455h12z" />
    <glyph glyph-name="ygrave.ss03" horiz-adv-x="558" 
d="M346 570h-86l-84 130h109zM434 490h102l-234 -690h-102l70 200h-82l-166 490h102l149 -455h12z" />
    <glyph glyph-name="pi" unicode="&#x3c0;" 
d="M234 0h-94v408h-74v88h490v-88h-74v-290c0 -20 9 -30 27 -30h47v-88h-85c-48 0 -83 35 -83 84v324h-154v-408z" />
    <glyph glyph-name="zero" unicode="0" 
d="M48 428c0 180 100 286 262 286c158 0 262 -106 262 -286v-156c0 -180 -100 -286 -262 -286s-262 106 -262 286v156zM148 430v-160c0 -124 54 -192 162 -192s162 68 162 192v160c0 124 -54 192 -162 192s-162 -68 -162 -192z" />
    <glyph glyph-name="one" unicode="1" horiz-adv-x="428" 
d="M200 700h156v-700h-100v607h-12l-130 -213h-110z" />
    <glyph glyph-name="two" unicode="2" horiz-adv-x="582" 
d="M46 476c0 145 104 238 257 238c138 0 239 -90 239 -226c0 -151 -111 -205 -246 -250c-98 -33 -148 -56 -148 -136v-10h384v-92h-486v90c0 131 81 186 208 228c116 38 188 75 188 174c0 83 -61 130 -139 130c-100 0 -157 -54 -157 -152v-22h-100v28z" />
    <glyph glyph-name="three" unicode="3" horiz-adv-x="586" 
d="M59 700h473v-89l-206 -180v-12h26c106 0 192 -80 192 -204c0 -136 -112 -229 -250 -229c-152 0 -262 96 -262 234v47h100v-41c0 -89 61 -148 160 -148c93 0 152 58 152 139c0 79 -61 126 -135 126h-109v92l194 173h-335v92z" />
    <glyph glyph-name="four" unicode="4" horiz-adv-x="600" 
d="M302 700h170v-472h118v-92h-118v-136h-100v136h-348v88zM360 621l-225 -393h237v393h-12z" />
    <glyph glyph-name="five" unicode="5" horiz-adv-x="594" 
d="M70 700h466v-92h-367v-222h12c29 48 73 86 165 86c120 0 212 -93 212 -232c0 -146 -103 -254 -255 -254c-154 0 -261 96 -261 250v12h100v-10c0 -96 57 -160 161 -160c98 0 155 64 155 162c0 90 -54 142 -131 142c-62 0 -92 -34 -105 -58h-152v376z" />
    <glyph glyph-name="six" unicode="6" horiz-adv-x="582" 
d="M548 228c0 -144 -107 -242 -252 -242c-141 0 -248 97 -248 241v245c0 143 106 242 252 242c143 0 238 -83 238 -218h-100c0 76 -43 126 -138 126s-152 -61 -152 -149v-94h12c24 38 69 86 168 86c117 0 220 -93 220 -237zM296 377c-87 0 -148 -60 -148 -149
s61 -150 148 -150c91 0 152 61 152 150s-61 149 -152 149z" />
    <glyph glyph-name="seven" unicode="7" horiz-adv-x="538" 
d="M20 700h496v-88l-273 -612h-108l271 608h-386v92z" />
    <glyph glyph-name="eight" unicode="8" horiz-adv-x="596" 
d="M54 526c0 112 96 188 244 188s244 -76 244 -188c0 -98 -70 -139 -118 -155v-12c52 -14 130 -66 130 -170c0 -120 -106 -203 -256 -203s-256 83 -256 203c0 104 78 156 130 170v12c-48 16 -118 57 -118 155zM154 516c0 -64 55 -106 144 -106s144 42 144 106
s-55 106 -144 106s-144 -42 -144 -106zM142 198c0 -74 61 -120 156 -120s156 46 156 120s-61 120 -156 120s-156 -46 -156 -120z" />
    <glyph glyph-name="nine" unicode="9" horiz-adv-x="582" 
d="M34 472c0 144 107 242 252 242c141 0 248 -97 248 -241v-245c0 -143 -106 -242 -252 -242c-143 0 -238 83 -238 218h100c0 -76 43 -126 138 -126s152 61 152 149v94h-12c-24 -38 -69 -86 -168 -86c-117 0 -220 93 -220 237zM286 323c87 0 148 60 148 149
s-61 150 -148 150c-91 0 -152 -61 -152 -150s61 -149 152 -149z" />
    <glyph glyph-name="zero.lf" 
d="M48 428c0 180 100 286 262 286c158 0 262 -106 262 -286v-156c0 -180 -100 -286 -262 -286s-262 106 -262 286v156zM148 430v-160c0 -124 54 -192 162 -192s162 68 162 192v160c0 124 -54 192 -162 192s-162 -68 -162 -192z" />
    <glyph glyph-name="one.lf" horiz-adv-x="428" 
d="M200 700h156v-700h-100v607h-12l-130 -213h-110z" />
    <glyph glyph-name="two.lf" horiz-adv-x="582" 
d="M46 476c0 145 104 238 257 238c138 0 239 -90 239 -226c0 -151 -111 -205 -246 -250c-98 -33 -148 -56 -148 -136v-10h384v-92h-486v90c0 131 81 186 208 228c116 38 188 75 188 174c0 83 -61 130 -139 130c-100 0 -157 -54 -157 -152v-22h-100v28z" />
    <glyph glyph-name="three.lf" horiz-adv-x="586" 
d="M59 700h473v-89l-206 -180v-12h26c106 0 192 -80 192 -204c0 -136 -112 -229 -250 -229c-152 0 -262 96 -262 234v47h100v-41c0 -89 61 -148 160 -148c93 0 152 58 152 139c0 79 -61 126 -135 126h-109v92l194 173h-335v92z" />
    <glyph glyph-name="four.lf" horiz-adv-x="600" 
d="M302 700h170v-472h118v-92h-118v-136h-100v136h-348v88zM360 621l-225 -393h237v393h-12z" />
    <glyph glyph-name="five.lf" horiz-adv-x="594" 
d="M70 700h466v-92h-367v-222h12c29 48 73 86 165 86c120 0 212 -93 212 -232c0 -146 -103 -254 -255 -254c-154 0 -261 96 -261 250v12h100v-10c0 -96 57 -160 161 -160c98 0 155 64 155 162c0 90 -54 142 -131 142c-62 0 -92 -34 -105 -58h-152v376z" />
    <glyph glyph-name="six.lf" horiz-adv-x="582" 
d="M548 228c0 -144 -107 -242 -252 -242c-141 0 -248 97 -248 241v245c0 143 106 242 252 242c143 0 238 -83 238 -218h-100c0 76 -43 126 -138 126s-152 -61 -152 -149v-94h12c24 38 69 86 168 86c117 0 220 -93 220 -237zM296 377c-87 0 -148 -60 -148 -149
s61 -150 148 -150c91 0 152 61 152 150s-61 149 -152 149z" />
    <glyph glyph-name="seven.lf" horiz-adv-x="538" 
d="M20 700h496v-88l-273 -612h-108l271 608h-386v92z" />
    <glyph glyph-name="eight.lf" horiz-adv-x="596" 
d="M54 526c0 112 96 188 244 188s244 -76 244 -188c0 -98 -70 -139 -118 -155v-12c52 -14 130 -66 130 -170c0 -120 -106 -203 -256 -203s-256 83 -256 203c0 104 78 156 130 170v12c-48 16 -118 57 -118 155zM154 516c0 -64 55 -106 144 -106s144 42 144 106
s-55 106 -144 106s-144 -42 -144 -106zM142 198c0 -74 61 -120 156 -120s156 46 156 120s-61 120 -156 120s-156 -46 -156 -120z" />
    <glyph glyph-name="nine.lf" horiz-adv-x="582" 
d="M34 472c0 144 107 242 252 242c141 0 248 -97 248 -241v-245c0 -143 -106 -242 -252 -242c-143 0 -238 83 -238 218h100c0 -76 43 -126 138 -126s152 61 152 149v94h-12c-24 -38 -69 -86 -168 -86c-117 0 -220 93 -220 237zM286 323c87 0 148 60 148 149
s-61 150 -148 150c-91 0 -152 -61 -152 -150s61 -149 152 -149z" />
    <glyph glyph-name="one.lf.ss03" horiz-adv-x="428" 
d="M166 700h190v-700h-100v655h-12l-130 -261h-110z" />
    <glyph glyph-name="zero.lf.zero" 
d="M310 714c158 0 262 -106 262 -286v-156c0 -180 -100 -286 -262 -286s-262 106 -262 286v156c0 180 100 286 262 286zM310 622c-108 0 -162 -68 -162 -192v-140l313 225c-20 70 -71 107 -151 107zM310 78c108 0 162 68 162 192v140l-313 -225c20 -70 71 -107 151 -107z
" />
    <glyph glyph-name="zero.osf" horiz-adv-x="588" 
d="M38 248c0 150 112 262 256 262s256 -112 256 -262s-112 -262 -256 -262s-256 112 -256 262zM138 248c0 -100 63 -170 156 -170c96 0 156 70 156 170s-63 170 -156 170s-156 -70 -156 -170z" />
    <glyph glyph-name="one.osf" horiz-adv-x="394" 
d="M149 490h175v-490h-100v419h-12l-96 -147h-104v8z" />
    <glyph glyph-name="two.osf" horiz-adv-x="550" 
d="M28 354c75 99 161 150 281 150c124 0 209 -61 209 -161c0 -111 -90 -150 -244 -169c-103 -13 -134 -36 -140 -82h378v-92h-480v38c0 141 71 194 237 225c103 19 149 34 149 82c0 46 -48 69 -113 69c-74 0 -134 -30 -194 -104z" />
    <glyph glyph-name="three.osf" horiz-adv-x="558" 
d="M114 26c4 -96 64 -152 160 -152c93 0 152 58 152 139c0 79 -61 126 -135 126h-109v88l194 171h-335v92h473v-89l-202 -174v-12h22c106 0 192 -79 192 -204c0 -138 -112 -229 -250 -229c-149 0 -249 85 -262 228z" />
    <glyph glyph-name="four.osf" horiz-adv-x="614" 
d="M297 490h175v-398h138v-92h-138v-200h-100v200h-354v88zM360 417l-229 -325h241v325h-12z" />
    <glyph glyph-name="five.osf" horiz-adv-x="574" 
d="M130 24c6 -88 62 -146 161 -146c98 0 155 64 155 162c0 90 -54 142 -131 142c-62 0 -92 -34 -105 -58h-152v366h466v-92h-367v-212h12c29 48 73 86 165 86c120 0 212 -93 212 -232c0 -146 -103 -254 -255 -254c-147 0 -251 88 -260 229z" />
    <glyph glyph-name="six.osf" horiz-adv-x="580" 
d="M435 519l98 15c-16 113 -108 180 -237 180c-146 0 -254 -99 -254 -242v-245c0 -144 107 -241 248 -241c145 0 252 98 252 242s-103 237 -220 237c-99 0 -144 -48 -168 -86h-12v94c0 88 59 149 154 149c85 0 130 -40 139 -103zM290 377c91 0 152 -60 152 -149
s-61 -150 -152 -150c-87 0 -148 61 -148 150s61 149 148 149z" />
    <glyph glyph-name="seven.osf" horiz-adv-x="540" 
d="M22 490h496v-88l-273 -602h-108l271 598h-386v92z" />
    <glyph glyph-name="eight.osf" horiz-adv-x="596" 
d="M54 526c0 112 96 188 244 188s244 -76 244 -188c0 -98 -70 -139 -118 -155v-12c52 -14 130 -66 130 -170c0 -120 -106 -203 -256 -203s-256 83 -256 203c0 104 78 156 130 170v12c-48 16 -118 57 -118 155zM154 516c0 -64 55 -106 144 -106s144 42 144 106
s-55 106 -144 106s-144 -42 -144 -106zM142 198c0 -74 61 -120 156 -120s156 46 156 120s-61 120 -156 120s-156 -46 -156 -120z" />
    <glyph glyph-name="nine.osf" horiz-adv-x="588" 
d="M151 -16c7 -65 51 -106 137 -106c95 0 152 61 152 149v84h-12c-24 -38 -69 -86 -168 -86c-117 0 -220 93 -220 237s107 242 252 242c141 0 248 -97 248 -241v-235c0 -143 -106 -242 -252 -242c-132 0 -222 70 -236 187zM292 113c87 0 148 60 148 149s-61 150 -148 150
c-91 0 -152 -61 -152 -150s61 -149 152 -149z" />
    <glyph glyph-name="one.osf.ss03" horiz-adv-x="394" 
d="M135 490h189v-490h-100v445h-12l-96 -173h-104z" />
    <glyph glyph-name="zero.osf.zero" horiz-adv-x="588" 
d="M294 504c144 0 256 -110 256 -259s-112 -259 -256 -259s-256 110 -256 259s112 259 256 259zM294 412c-93 0 -156 -68 -156 -167c0 -18 2 -34 6 -50l254 179c-26 24 -62 38 -104 38zM294 78c96 0 156 68 156 167c0 18 -2 34 -6 50l-254 -179c26 -24 62 -38 104 -38z" />
    <glyph glyph-name="one.ss03" horiz-adv-x="428" 
d="M166 700h190v-700h-100v655h-12l-130 -261h-110z" />
    <glyph glyph-name="zero.tf" 
d="M56 428c0 180 96 286 254 286c154 0 254 -106 254 -286v-156c0 -180 -96 -286 -254 -286s-254 106 -254 286v156zM156 430v-160c0 -124 50 -192 154 -192s154 68 154 192v160c0 124 -50 192 -154 192s-154 -68 -154 -192z" />
    <glyph glyph-name="one.tf" 
d="M391 92h170v-92h-492v92h222v515h-12l-90 -213h-108l142 306h168v-608z" />
    <glyph glyph-name="two.tf" 
d="M66 476c0 145 104 238 257 238c138 0 239 -90 239 -226c0 -151 -111 -205 -246 -250c-98 -33 -148 -56 -148 -136v-10h384v-92h-486v90c0 131 81 186 208 228c116 38 188 75 188 174c0 83 -61 130 -139 130c-100 0 -157 -54 -157 -152v-22h-100v28z" />
    <glyph glyph-name="three.tf" 
d="M75 700h473v-89l-206 -180v-12h26c106 0 192 -80 192 -204c0 -136 -112 -229 -250 -229c-152 0 -262 96 -262 234v47h100v-41c0 -89 61 -148 160 -148c93 0 152 58 152 139c0 79 -61 126 -135 126h-109v92l194 173h-335v92z" />
    <glyph glyph-name="four.tf" 
d="M320 700h170v-472h118v-92h-118v-136h-100v136h-332v88zM378 621l-211 -393h223v393h-12z" />
    <glyph glyph-name="five.tf" 
d="M80 700h466v-92h-367v-222h12c29 48 73 86 165 86c120 0 212 -93 212 -232c0 -146 -103 -254 -255 -254c-154 0 -261 96 -261 250v12h100v-10c0 -96 57 -160 161 -160c98 0 155 64 155 162c0 90 -54 142 -131 142c-62 0 -92 -34 -105 -58h-152v376z" />
    <glyph glyph-name="six.tf" 
d="M566 228c0 -144 -107 -242 -252 -242c-141 0 -248 97 -248 241v245c0 143 106 242 252 242c143 0 238 -83 238 -218h-100c0 76 -43 126 -138 126s-152 -61 -152 -149v-94h12c24 38 69 86 168 86c117 0 220 -93 220 -237zM314 377c-87 0 -148 -60 -148 -149
s61 -150 148 -150c91 0 152 61 152 150s-61 149 -152 149z" />
    <glyph glyph-name="seven.tf" 
d="M42 700h532v-88l-291 -612h-110l289 608h-420v92z" />
    <glyph glyph-name="eight.tf" 
d="M66 526c0 112 96 188 244 188s244 -76 244 -188c0 -98 -70 -139 -118 -155v-12c52 -14 130 -66 130 -170c0 -120 -106 -203 -256 -203s-256 83 -256 203c0 104 78 156 130 170v12c-48 16 -118 57 -118 155zM166 516c0 -64 55 -106 144 -106s144 42 144 106
s-55 106 -144 106s-144 -42 -144 -106zM154 198c0 -74 61 -120 156 -120s156 46 156 120s-61 120 -156 120s-156 -46 -156 -120z" />
    <glyph glyph-name="nine.tf" 
d="M54 472c0 144 107 242 252 242c141 0 248 -97 248 -241v-245c0 -143 -106 -242 -252 -242c-143 0 -238 83 -238 218h100c0 -76 43 -126 138 -126s152 61 152 149v94h-12c-24 -38 -69 -86 -168 -86c-117 0 -220 93 -220 237zM306 323c87 0 148 60 148 149
s-61 150 -148 150c-91 0 -152 -61 -152 -150s61 -149 152 -149z" />
    <glyph glyph-name="one.tf.ss03" 
d="M391 92h170v-92h-492v92h222v563h-12l-90 -261h-108l120 306h190v-608z" />
    <glyph glyph-name="zero.tf.zero" 
d="M310 714c154 0 254 -106 254 -286v-156c0 -180 -96 -286 -254 -286s-254 106 -254 286v156c0 180 96 286 254 286zM310 622c-104 0 -154 -68 -154 -192v-134l299 214c-18 73 -66 112 -145 112zM310 78c104 0 154 68 154 192v134l-299 -214c18 -73 66 -112 145 -112z" />
    <glyph glyph-name="zero.tosf" 
d="M54 253c0 150 112 257 256 257s256 -107 256 -257v-10c0 -150 -112 -257 -256 -257s-256 107 -256 257v10zM154 255v-14c0 -100 63 -163 156 -163c96 0 156 63 156 163v14c0 100 -63 163 -156 163s-156 -63 -156 -163z" />
    <glyph glyph-name="one.tosf" 
d="M239 490h163v-398h180v-92h-516v92h236v311h-14l-76 -131h-100v8z" />
    <glyph glyph-name="two.tosf" 
d="M60 354c75 99 161 150 281 150c124 0 209 -61 209 -161c0 -111 -90 -150 -244 -169c-103 -13 -134 -36 -140 -82h378v-92h-480v38c0 141 71 194 237 225c103 19 149 34 149 82c0 46 -48 69 -113 69c-74 0 -134 -30 -194 -104z" />
    <glyph glyph-name="three.tosf" 
d="M142 26c4 -96 64 -152 160 -152c93 0 152 58 152 139c0 79 -61 126 -135 126h-109v88l194 171h-335v92h473v-89l-202 -174v-12h22c106 0 192 -79 192 -204c0 -138 -112 -229 -250 -229c-149 0 -249 85 -262 228z" />
    <glyph glyph-name="four.tosf" 
d="M315 490h175v-398h118v-92h-118v-200h-100v200h-364v88zM378 417l-239 -325h251v325h-12z" />
    <glyph glyph-name="five.tosf" 
d="M156 24c6 -88 62 -146 161 -146c98 0 155 64 155 162c0 90 -54 142 -131 142c-62 0 -92 -34 -105 -58h-152v366h466v-92h-367v-212h12c29 48 73 86 165 86c120 0 212 -93 212 -232c0 -146 -103 -254 -255 -254c-147 0 -251 88 -260 229z" />
    <glyph glyph-name="six.tosf" 
d="M457 519l98 15c-16 113 -108 180 -237 180c-146 0 -254 -99 -254 -242v-245c0 -144 107 -241 248 -241c145 0 252 98 252 242s-103 237 -220 237c-99 0 -144 -48 -168 -86h-12v94c0 88 59 149 154 149c85 0 130 -40 139 -103zM312 377c91 0 152 -60 152 -149
s-61 -150 -152 -150c-87 0 -148 61 -148 150s61 149 148 149z" />
    <glyph glyph-name="seven.tosf" 
d="M36 490h532v-88l-291 -602h-110l289 598h-420v92z" />
    <glyph glyph-name="eight.tosf" 
d="M66 526c0 112 96 188 244 188s244 -76 244 -188c0 -98 -70 -139 -118 -155v-12c52 -14 130 -66 130 -170c0 -120 -106 -203 -256 -203s-256 83 -256 203c0 104 78 156 130 170v12c-48 16 -118 57 -118 155zM166 516c0 -64 55 -106 144 -106s144 42 144 106
s-55 106 -144 106s-144 -42 -144 -106zM154 198c0 -74 61 -120 156 -120s156 46 156 120s-61 120 -156 120s-156 -46 -156 -120z" />
    <glyph glyph-name="nine.tosf" 
d="M167 -16c7 -65 51 -106 137 -106c95 0 152 61 152 149v90h-12c-24 -38 -69 -86 -168 -86c-117 0 -220 93 -220 237s107 242 252 242c141 0 248 -97 248 -241v-241c0 -143 -106 -242 -252 -242c-132 0 -222 70 -236 187zM308 119c87 0 148 60 148 149s-61 150 -148 150
c-91 0 -152 -61 -152 -150s61 -149 152 -149z" />
    <glyph glyph-name="one.tosf.ss03" 
d="M215 490h187v-398h180v-92h-516v92h236v353h-12l-78 -173h-100z" />
    <glyph glyph-name="zero.tosf.zero" 
d="M310 504c144 0 256 -110 256 -259s-112 -259 -256 -259s-256 110 -256 259s112 259 256 259zM310 412c-93 0 -156 -68 -156 -167c0 -18 2 -34 6 -50l254 179c-26 24 -62 38 -104 38zM310 78c96 0 156 68 156 167c0 18 -2 34 -6 50l-254 -179c26 -24 62 -38 104 -38z" />
    <glyph glyph-name="zero.zero" 
d="M310 714c158 0 262 -106 262 -286v-156c0 -180 -100 -286 -262 -286s-262 106 -262 286v156c0 180 100 286 262 286zM310 622c-108 0 -162 -68 -162 -192v-140l313 225c-20 70 -71 107 -151 107zM310 78c108 0 162 68 162 192v140l-313 -225c20 -70 71 -107 151 -107z
" />
    <glyph glyph-name="zero.subs" horiz-adv-x="368" 
d="M24 4c0 99 59 160 160 160c98 0 160 -61 160 -160v-59c0 -99 -59 -159 -160 -159s-160 60 -160 159v59zM104 9v-68c0 -52 27 -85 80 -85s80 33 80 85v68c0 52 -27 85 -80 85s-80 -33 -80 -85z" />
    <glyph glyph-name="one.subs" horiz-adv-x="262" 
d="M105 150h111v-350h-80v262h-10l-41 -68h-77v10z" />
    <glyph glyph-name="two.subs" horiz-adv-x="352" 
d="M181 164c89 0 151 -44 151 -121c0 -76 -52 -107 -136 -125c-62 -13 -82 -26 -84 -50h218v-68h-308v44c0 81 48 115 133 133c66 14 97 32 97 67c0 32 -30 50 -71 50c-49 0 -78 -25 -79 -71h-80c2 87 68 141 159 141z" />
    <glyph glyph-name="three.subs" horiz-adv-x="344" 
d="M22 150h302v-54l-108 -73v-10c67 -4 108 -36 108 -102c0 -74 -69 -125 -153 -125c-93 0 -157 52 -157 137h80c0 -45 31 -67 76 -67s74 24 74 57s-25 51 -74 51h-62v52l94 66h-180v68z" />
    <glyph glyph-name="four.subs" horiz-adv-x="369" 
d="M163 150h133v-207h65v-68h-65v-75h-80v75h-200v62zM207 90l-102 -147h111v147h-9z" />
    <glyph glyph-name="five.subs" horiz-adv-x="354" 
d="M34 150h290v-68h-212v-73h10c16 11 36 29 86 29c69 0 126 -44 126 -117v-7c0 -71 -60 -128 -154 -128c-90 0 -151 54 -158 133h82c0 -35 32 -63 76 -63s74 25 74 61c0 37 -29 57 -63 57c-33 0 -51 -12 -62 -19h-95v195z" />
    <glyph glyph-name="six.subs" horiz-adv-x="354" 
d="M24 30c0 79 67 134 157 134c87 0 151 -45 151 -114h-80c0 26 -26 46 -71 46c-48 0 -77 -27 -77 -66v-33h10c10 9 31 33 87 33c70 0 133 -44 133 -117c0 -77 -65 -127 -155 -127s-155 50 -155 125v119zM104 -88c0 -33 28 -58 75 -58s75 25 75 58s-28 56 -75 56
s-75 -23 -75 -56z" />
    <glyph glyph-name="seven.subs" horiz-adv-x="310" 
d="M6 150h298v-64l-143 -286h-84l140 282h-211v68z" />
    <glyph glyph-name="eight.subs" horiz-adv-x="360" 
d="M26 68c0 57 63 96 154 96s154 -39 154 -96v-3c0 -49 -37 -72 -63 -79v-10c29 -7 69 -31 69 -84v-2c0 -58 -60 -104 -160 -104s-160 46 -160 104v2c0 53 40 77 70 84v10c-27 7 -64 30 -64 79v3zM106 56c0 -25 28 -42 74 -42s74 17 74 42s-28 40 -74 40s-74 -15 -74 -40z
M100 -100c0 -30 30 -46 80 -46s80 16 80 46s-30 46 -80 46s-80 -16 -80 -46z" />
    <glyph glyph-name="nine.subs" horiz-adv-x="354" 
d="M330 -80c0 -79 -65 -134 -153 -134c-83 0 -144 40 -155 109h83c7 -22 27 -41 70 -41c47 0 75 27 75 66v33h-10c-10 -9 -31 -33 -87 -33c-70 0 -133 44 -133 117c0 77 65 127 155 127s155 -50 155 -125v-119zM250 38c0 33 -28 58 -75 58s-75 -25 -75 -58s28 -56 75 -56
s75 23 75 56z" />
    <glyph glyph-name="zero.dnom" horiz-adv-x="368" 
d="M24 204c0 99 59 160 160 160c98 0 160 -61 160 -160v-59c0 -99 -59 -159 -160 -159s-160 60 -160 159v59zM104 209v-68c0 -52 27 -85 80 -85s80 33 80 85v68c0 52 -27 85 -80 85s-80 -33 -80 -85z" />
    <glyph glyph-name="one.dnom" horiz-adv-x="262" 
d="M105 350h111v-350h-80v262h-10l-41 -68h-77v10z" />
    <glyph glyph-name="two.dnom" horiz-adv-x="352" 
d="M181 364c89 0 151 -44 151 -121c0 -76 -52 -107 -136 -125c-62 -13 -82 -26 -84 -50h218v-68h-308v44c0 81 48 115 133 133c66 14 97 32 97 67c0 32 -30 50 -71 50c-49 0 -78 -25 -79 -71h-80c2 87 68 141 159 141z" />
    <glyph glyph-name="three.dnom" horiz-adv-x="344" 
d="M22 350h302v-54l-108 -73v-10c67 -4 108 -36 108 -102c0 -74 -69 -125 -153 -125c-93 0 -157 52 -157 137h80c0 -45 31 -67 76 -67s74 24 74 57s-25 51 -74 51h-62v52l94 66h-180v68z" />
    <glyph glyph-name="four.dnom" horiz-adv-x="369" 
d="M163 350h133v-207h65v-68h-65v-75h-80v75h-200v62zM207 290l-102 -147h111v147h-9z" />
    <glyph glyph-name="five.dnom" horiz-adv-x="354" 
d="M34 350h290v-68h-212v-73h10c16 11 36 29 86 29c69 0 126 -44 126 -117v-7c0 -71 -60 -128 -154 -128c-90 0 -151 54 -158 133h82c0 -35 32 -63 76 -63s74 25 74 61c0 37 -29 57 -63 57c-33 0 -51 -12 -62 -19h-95v195z" />
    <glyph glyph-name="six.dnom" horiz-adv-x="354" 
d="M24 230c0 79 67 134 157 134c87 0 151 -45 151 -114h-80c0 26 -26 46 -71 46c-48 0 -77 -27 -77 -66v-33h10c10 9 31 33 87 33c70 0 133 -44 133 -117c0 -77 -65 -127 -155 -127s-155 50 -155 125v119zM104 112c0 -33 28 -58 75 -58s75 25 75 58s-28 56 -75 56
s-75 -23 -75 -56z" />
    <glyph glyph-name="seven.dnom" horiz-adv-x="310" 
d="M6 350h298v-64l-143 -286h-84l140 282h-211v68z" />
    <glyph glyph-name="eight.dnom" horiz-adv-x="360" 
d="M26 268c0 57 63 96 154 96s154 -39 154 -96v-3c0 -49 -37 -72 -63 -79v-10c29 -7 69 -31 69 -84v-2c0 -58 -60 -104 -160 -104s-160 46 -160 104v2c0 53 40 77 70 84v10c-27 7 -64 30 -64 79v3zM106 256c0 -25 28 -42 74 -42s74 17 74 42s-28 40 -74 40s-74 -15 -74 -40z
M100 100c0 -30 30 -46 80 -46s80 16 80 46s-30 46 -80 46s-80 -16 -80 -46z" />
    <glyph glyph-name="nine.dnom" horiz-adv-x="354" 
d="M330 120c0 -79 -65 -134 -153 -134c-83 0 -144 40 -155 109h83c7 -22 27 -41 70 -41c47 0 75 27 75 66v33h-10c-10 -9 -31 -33 -87 -33c-70 0 -133 44 -133 117c0 77 65 127 155 127s155 -50 155 -125v-119zM250 238c0 33 -28 58 -75 58s-75 -25 -75 -58s28 -56 75 -56
s75 23 75 56z" />
    <glyph glyph-name="zero.numr" horiz-adv-x="368" 
d="M24 554c0 99 59 160 160 160c98 0 160 -61 160 -160v-59c0 -99 -59 -159 -160 -159s-160 60 -160 159v59zM104 559v-68c0 -52 27 -85 80 -85s80 33 80 85v68c0 52 -27 85 -80 85s-80 -33 -80 -85z" />
    <glyph glyph-name="one.numr" horiz-adv-x="262" 
d="M105 700h111v-350h-80v262h-10l-41 -68h-77v10z" />
    <glyph glyph-name="two.numr" horiz-adv-x="352" 
d="M181 700c89 0 151 -44 151 -121c0 -76 -52 -107 -136 -125c-62 -13 -82 -26 -84 -50h218v-68h-308v44c0 81 48 115 133 133c66 14 97 32 97 67c0 32 -30 50 -71 50c-49 0 -78 -25 -79 -71h-80c2 87 68 141 159 141z" />
    <glyph glyph-name="three.numr" horiz-adv-x="344" 
d="M22 700h302v-54l-108 -73v-10c67 -4 108 -36 108 -102c0 -74 -69 -125 -153 -125c-93 0 -157 52 -157 137h80c0 -45 31 -67 76 -67s74 24 74 57s-25 51 -74 51h-62v52l94 66h-180v68z" />
    <glyph glyph-name="four.numr" horiz-adv-x="369" 
d="M163 700h133v-207h65v-68h-65v-75h-80v75h-200v62zM207 640l-102 -147h111v147h-9z" />
    <glyph glyph-name="five.numr" horiz-adv-x="354" 
d="M34 700h290v-68h-212v-73h10c16 11 36 29 86 29c69 0 126 -44 126 -117v-7c0 -71 -60 -128 -154 -128c-90 0 -151 54 -158 133h82c0 -35 32 -63 76 -63s74 25 74 61c0 37 -29 57 -63 57c-33 0 -51 -12 -62 -19h-95v195z" />
    <glyph glyph-name="six.numr" horiz-adv-x="354" 
d="M24 580c0 79 67 134 157 134c87 0 151 -45 151 -114h-80c0 26 -26 46 -71 46c-48 0 -77 -27 -77 -66v-33h10c10 9 31 33 87 33c70 0 133 -44 133 -117c0 -77 -65 -127 -155 -127s-155 50 -155 125v119zM104 462c0 -33 28 -58 75 -58s75 25 75 58s-28 56 -75 56
s-75 -23 -75 -56z" />
    <glyph glyph-name="seven.numr" horiz-adv-x="310" 
d="M6 700h298v-64l-143 -286h-84l140 282h-211v68z" />
    <glyph glyph-name="eight.numr" horiz-adv-x="360" 
d="M26 618c0 57 63 96 154 96s154 -39 154 -96v-3c0 -49 -37 -72 -63 -79v-10c29 -7 69 -31 69 -84v-2c0 -58 -60 -104 -160 -104s-160 46 -160 104v2c0 53 40 77 70 84v10c-27 7 -64 30 -64 79v3zM106 606c0 -25 28 -42 74 -42s74 17 74 42s-28 40 -74 40s-74 -15 -74 -40z
M100 450c0 -30 30 -46 80 -46s80 16 80 46s-30 46 -80 46s-80 -16 -80 -46z" />
    <glyph glyph-name="nine.numr" horiz-adv-x="380" 
d="M332 470c0 -79 -65 -134 -153 -134c-83 0 -144 40 -155 109h83c7 -22 27 -41 70 -41c47 0 75 27 75 66v33h-10c-10 -9 -31 -33 -87 -33c-70 0 -133 44 -133 117c0 77 65 127 155 127s155 -50 155 -125v-119zM252 588c0 33 -28 58 -75 58s-75 -25 -75 -58s28 -56 75 -56
s75 23 75 56z" />
    <glyph glyph-name="zero.sups" horiz-adv-x="368" 
d="M24 554c0 99 59 160 160 160c98 0 160 -61 160 -160v-59c0 -99 -59 -159 -160 -159s-160 60 -160 159v59zM104 559v-68c0 -52 27 -85 80 -85s80 33 80 85v68c0 52 -27 85 -80 85s-80 -33 -80 -85z" />
    <glyph glyph-name="one.sups" horiz-adv-x="262" 
d="M105 700h111v-350h-80v262h-10l-41 -68h-77v10z" />
    <glyph glyph-name="two.sups" horiz-adv-x="352" 
d="M181 700c89 0 151 -44 151 -121c0 -76 -52 -107 -136 -125c-62 -13 -82 -26 -84 -50h218v-68h-308v44c0 81 48 115 133 133c66 14 97 32 97 67c0 32 -30 50 -71 50c-49 0 -78 -25 -79 -71h-80c2 87 68 141 159 141z" />
    <glyph glyph-name="three.sups" horiz-adv-x="344" 
d="M22 700h302v-54l-108 -73v-10c67 -4 108 -36 108 -102c0 -74 -69 -125 -153 -125c-93 0 -157 52 -157 137h80c0 -45 31 -67 76 -67s74 24 74 57s-25 51 -74 51h-62v52l94 66h-180v68z" />
    <glyph glyph-name="four.sups" horiz-adv-x="369" 
d="M163 700h133v-207h65v-68h-65v-75h-80v75h-200v62zM207 640l-102 -147h111v147h-9z" />
    <glyph glyph-name="five.sups" horiz-adv-x="354" 
d="M34 700h290v-68h-212v-73h10c16 11 36 29 86 29c69 0 126 -44 126 -117v-7c0 -71 -60 -128 -154 -128c-90 0 -151 54 -158 133h82c0 -35 32 -63 76 -63s74 25 74 61c0 37 -29 57 -63 57c-33 0 -51 -12 -62 -19h-95v195z" />
    <glyph glyph-name="six.sups" horiz-adv-x="354" 
d="M24 580c0 79 67 134 157 134c87 0 151 -45 151 -114h-80c0 26 -26 46 -71 46c-48 0 -77 -27 -77 -66v-33h10c10 9 31 33 87 33c70 0 133 -44 133 -117c0 -77 -65 -127 -155 -127s-155 50 -155 125v119zM104 462c0 -33 28 -58 75 -58s75 25 75 58s-28 56 -75 56
s-75 -23 -75 -56z" />
    <glyph glyph-name="seven.sups" horiz-adv-x="310" 
d="M6 700h298v-64l-143 -286h-84l140 282h-211v68z" />
    <glyph glyph-name="eight.sups" horiz-adv-x="360" 
d="M26 618c0 57 63 96 154 96s154 -39 154 -96v-3c0 -49 -37 -72 -63 -79v-10c29 -7 69 -31 69 -84v-2c0 -58 -60 -104 -160 -104s-160 46 -160 104v2c0 53 40 77 70 84v10c-27 7 -64 30 -64 79v3zM106 606c0 -25 28 -42 74 -42s74 17 74 42s-28 40 -74 40s-74 -15 -74 -40z
M100 450c0 -30 30 -46 80 -46s80 16 80 46s-30 46 -80 46s-80 -16 -80 -46z" />
    <glyph glyph-name="nine.sups" horiz-adv-x="380" 
d="M332 470c0 -79 -65 -134 -153 -134c-83 0 -144 40 -155 109h83c7 -22 27 -41 70 -41c47 0 75 27 75 66v33h-10c-10 -9 -31 -33 -87 -33c-70 0 -133 44 -133 117c0 77 65 127 155 127s155 -50 155 -125v-119zM252 588c0 33 -28 58 -75 58s-75 -25 -75 -58s28 -56 75 -56
s75 23 75 56z" />
    <glyph glyph-name="fraction" unicode="&#x2044;" 
d="M352 462l172 248l76 -56l-194 -232zM268 238l-172 -248l-76 56l194 232z" />
    <glyph glyph-name="onehalf" unicode="&#xbd;" horiz-adv-x="714" 
d="M364 462l172 248l76 -56l-194 -232zM105 700h111v-350h-80v262h-10l-41 -68h-77v10zM543 364c89 0 151 -44 151 -121c0 -76 -52 -107 -136 -125c-62 -13 -82 -26 -84 -50h218v-68h-308v44c0 81 48 115 133 133c66 14 97 32 97 67c0 32 -30 50 -71 50
c-49 0 -78 -25 -79 -71h-80c2 87 68 141 159 141zM280 238l-172 -248l-76 56l194 232z" />
    <glyph glyph-name="onequarter" unicode="&#xbc;" horiz-adv-x="701" 
d="M364 462l172 248l76 -56l-194 -232zM105 700h111v-350h-80v262h-10l-41 -68h-77v10zM495 350h133v-207h65v-68h-65v-75h-80v75h-200v62zM539 290l-102 -147h111v147h-9zM280 238l-172 -248l-76 56l194 232z" />
    <glyph glyph-name="threequarters" unicode="&#xbe;" horiz-adv-x="763" 
d="M426 462l172 248l76 -56l-194 -232zM22 700h302v-54l-108 -73v-10c67 -4 108 -36 108 -102c0 -74 -69 -125 -153 -125c-93 0 -157 52 -157 137h80c0 -45 31 -67 76 -67s74 24 74 57s-25 51 -74 51h-62v52l94 66h-180v68zM557 350h133v-207h65v-68h-65v-75h-80v75h-200v62
zM601 290l-102 -147h111v147h-9zM342 238l-172 -248l-76 56l194 232z" />
    <glyph glyph-name="oneeighth" unicode="&#x215b;" horiz-adv-x="722" 
d="M364 462l172 248l76 -56l-194 -232zM105 700h111v-350h-80v262h-10l-41 -68h-77v10zM388 268c0 57 63 96 154 96s154 -39 154 -96v-3c0 -49 -37 -72 -63 -79v-10c29 -7 69 -31 69 -84v-2c0 -58 -60 -104 -160 -104s-160 46 -160 104v2c0 53 40 77 70 84v10
c-27 7 -64 30 -64 79v3zM468 256c0 -25 28 -42 74 -42s74 17 74 42s-28 40 -74 40s-74 -15 -74 -40zM280 238l-172 -248l-76 56l194 232zM462 100c0 -30 30 -46 80 -46s80 16 80 46s-30 46 -80 46s-80 -16 -80 -46z" />
    <glyph glyph-name="threeeighths" unicode="&#x215c;" horiz-adv-x="784" 
d="M426 462l172 248l76 -56l-194 -232zM22 700h302v-54l-108 -73v-10c67 -4 108 -36 108 -102c0 -74 -69 -125 -153 -125c-93 0 -157 52 -157 137h80c0 -45 31 -67 76 -67s74 24 74 57s-25 51 -74 51h-62v52l94 66h-180v68zM450 268c0 57 63 96 154 96s154 -39 154 -96v-3
c0 -49 -37 -72 -63 -79v-10c29 -7 69 -31 69 -84v-2c0 -58 -60 -104 -160 -104s-160 46 -160 104v2c0 53 40 77 70 84v10c-27 7 -64 30 -64 79v3zM530 256c0 -25 28 -42 74 -42s74 17 74 42s-28 40 -74 40s-74 -15 -74 -40zM342 238l-172 -248l-76 56l194 232zM524 100
c0 -30 30 -46 80 -46s80 16 80 46s-30 46 -80 46s-80 -16 -80 -46z" />
    <glyph glyph-name="fiveeighths" unicode="&#x215d;" horiz-adv-x="794" 
d="M436 462l172 248l76 -56l-194 -232zM34 700h290v-68h-212v-73h10c16 11 36 29 86 29c69 0 126 -44 126 -117v-7c0 -71 -60 -128 -154 -128c-90 0 -151 54 -158 133h82c0 -35 32 -63 76 -63s74 25 74 61c0 37 -29 57 -63 57c-33 0 -51 -12 -62 -19h-95v195zM460 268
c0 57 63 96 154 96s154 -39 154 -96v-3c0 -49 -37 -72 -63 -79v-10c29 -7 69 -31 69 -84v-2c0 -58 -60 -104 -160 -104s-160 46 -160 104v2c0 53 40 77 70 84v10c-27 7 -64 30 -64 79v3zM540 256c0 -25 28 -42 74 -42s74 17 74 42s-28 40 -74 40s-74 -15 -74 -40zM352 238
l-172 -248l-76 56l194 232zM534 100c0 -30 30 -46 80 -46s80 16 80 46s-30 46 -80 46s-80 -16 -80 -46z" />
    <glyph glyph-name="seveneighths" unicode="&#x215e;" horiz-adv-x="720" 
d="M362 462l172 248l76 -56l-194 -232zM6 700h298v-64l-143 -286h-84l140 282h-211v68zM386 268c0 57 63 96 154 96s154 -39 154 -96v-3c0 -49 -37 -72 -63 -79v-10c29 -7 69 -31 69 -84v-2c0 -58 -60 -104 -160 -104s-160 46 -160 104v2c0 53 40 77 70 84v10
c-27 7 -64 30 -64 79v3zM466 256c0 -25 28 -42 74 -42s74 17 74 42s-28 40 -74 40s-74 -15 -74 -40zM278 238l-172 -248l-76 56l194 232zM460 100c0 -30 30 -46 80 -46s80 16 80 46s-30 46 -80 46s-80 -16 -80 -46z" />
    <glyph glyph-name="zero.subs.zero" horiz-adv-x="368" 
d="M184 164c98 0 160 -61 160 -160v-59c0 -99 -59 -159 -160 -159s-160 60 -160 159v59c0 99 59 160 160 160zM184 94c-53 0 -80 -33 -80 -85v-51l151 97c-12 25 -36 39 -71 39zM184 -144c53 0 80 33 80 85v55l-152 -98c11 -26 35 -42 72 -42z" />
    <glyph glyph-name="zero.dnom.zero" horiz-adv-x="368" 
d="M184 364c98 0 160 -61 160 -160v-59c0 -99 -59 -159 -160 -159s-160 60 -160 159v59c0 99 59 160 160 160zM184 294c-53 0 -80 -33 -80 -85v-51l151 97c-12 25 -36 39 -71 39zM184 56c53 0 80 33 80 85v55l-152 -98c11 -26 35 -42 72 -42z" />
    <glyph glyph-name="zero.numr.zero" horiz-adv-x="368" 
d="M184 714c98 0 160 -61 160 -160v-59c0 -99 -59 -159 -160 -159s-160 60 -160 159v59c0 99 59 160 160 160zM184 644c-53 0 -80 -33 -80 -85v-51l151 97c-12 25 -36 39 -71 39zM184 406c53 0 80 33 80 85v55l-152 -98c11 -26 35 -42 72 -42z" />
    <glyph glyph-name="zero.sups.zero" horiz-adv-x="368" 
d="M184 714c98 0 160 -61 160 -160v-59c0 -99 -59 -159 -160 -159s-160 60 -160 159v59c0 99 59 160 160 160zM184 644c-53 0 -80 -33 -80 -85v-51l151 97c-12 25 -36 39 -71 39zM184 406c53 0 80 33 80 85v55l-152 -98c11 -26 35 -42 72 -42z" />
    <glyph glyph-name="period" unicode="." horiz-adv-x="256" 
d="M50 64c0 44 35 78 78 78s78 -34 78 -78s-35 -78 -78 -78s-78 34 -78 78z" />
    <glyph glyph-name="comma" unicode="," horiz-adv-x="256" 
d="M50 64c0 48 35 78 78 78c45 0 78 -30 78 -76v-110c0 -47 -34 -82 -81 -82h-71v56h63c18 0 27 10 27 30v31c-4 -1 -9 -2 -17 -2c-41 0 -77 28 -77 75z" />
    <glyph glyph-name="colon" unicode=":" horiz-adv-x="256" 
d="M50 432c0 44 35 78 78 78s78 -34 78 -78s-35 -78 -78 -78s-78 34 -78 78zM50 64c0 44 35 78 78 78s78 -34 78 -78s-35 -78 -78 -78s-78 34 -78 78z" />
    <glyph glyph-name="semicolon" unicode=";" horiz-adv-x="256" 
d="M50 432c0 44 35 78 78 78s78 -34 78 -78s-35 -78 -78 -78s-78 34 -78 78zM50 64c0 48 35 78 78 78c45 0 78 -30 78 -76v-110c0 -47 -34 -82 -81 -82h-71v56h63c18 0 27 10 27 30v31c-4 -1 -9 -2 -17 -2c-41 0 -77 28 -77 75z" />
    <glyph glyph-name="ellipsis" unicode="&#x2026;" horiz-adv-x="616" 
d="M50 64c0 44 35 78 78 78s78 -34 78 -78s-35 -78 -78 -78s-78 34 -78 78zM230 64c0 44 35 78 78 78s78 -34 78 -78s-35 -78 -78 -78s-78 34 -78 78zM410 64c0 44 35 78 78 78s78 -34 78 -78s-35 -78 -78 -78s-78 34 -78 78z" />
    <glyph glyph-name="exclam" unicode="!" horiz-adv-x="256" 
d="M79 700h98v-505h-98v505zM50 64c0 44 35 78 78 78s78 -34 78 -78s-35 -78 -78 -78s-78 34 -78 78z" />
    <glyph glyph-name="exclamdown" unicode="&#xa1;" horiz-adv-x="256" 
d="M50 432c0 44 35 78 78 78s78 -34 78 -78s-35 -78 -78 -78s-78 34 -78 78zM79 -200v501h98v-501h-98z" />
    <glyph glyph-name="question" unicode="?" horiz-adv-x="556" 
d="M36 501c0 131 101 213 245 213c142 0 237 -86 237 -193v-8c0 -100 -51 -152 -147 -196l-22 -10c-24 -11 -32 -23 -32 -53v-52h-100v56c0 68 20 102 75 127l22 10c80 36 104 64 104 122c0 60 -55 105 -137 105c-84 0 -145 -45 -145 -127v-33h-100v39zM189 64
c0 44 35 78 78 78s78 -34 78 -78s-35 -78 -78 -78s-78 34 -78 78z" />
    <glyph glyph-name="questiondown" unicode="&#xbf;" horiz-adv-x="556" 
d="M209 432c0 44 35 78 78 78s78 -34 78 -78s-35 -78 -78 -78s-78 34 -78 78zM518 -1c0 -131 -101 -213 -245 -213c-142 0 -237 86 -237 193v8c0 100 51 152 147 196l22 10c24 11 32 23 32 53v48h100v-52c0 -68 -20 -102 -75 -127l-22 -10c-80 -36 -104 -64 -104 -122
c0 -60 55 -105 137 -105c84 0 145 45 145 127v33h100v-39z" />
    <glyph glyph-name="periodcentered" unicode="&#xb7;" horiz-adv-x="256" 
d="M50 350c0 44 35 78 78 78s78 -34 78 -78s-35 -78 -78 -78s-78 34 -78 78z" />
    <glyph glyph-name="bullet" unicode="&#x2022;" horiz-adv-x="310" 
d="M28 350c0 69 58 127 127 127s127 -58 127 -127c0 -70 -59 -127 -127 -127s-127 58 -127 127z" />
    <glyph glyph-name="asterisk" unicode="*" 
d="M62 492h125l55 -19l5 14l-58 29l-83 83l57 57l83 -83l29 -58l14 5l-19 55v125h80v-125l-19 -55l14 -5l29 58l83 83l57 -57l-83 -83l-58 -29l5 -14l55 19h125v-80h-125l-55 19l-5 -14l58 -29l83 -83l-57 -57l-83 83l-29 58l-14 -5l19 -55v-125h-80v125l19 55l-14 5
l-29 -58l-83 -83l-57 57l83 83l58 29l-5 14l-55 -19h-125v80z" />
    <glyph glyph-name="numbersign" unicode="#" horiz-adv-x="684" 
d="M60 501h127v199h94v-199h122v199h94v-199h127v-88h-127v-126h127v-88h-127v-199h-94v199h-122v-199h-94v199h-127v88h127v126h-127v88zM281 413v-126h122v126h-122z" />
    <glyph glyph-name="slash" unicode="/" horiz-adv-x="490" 
d="M342 700h96l-294 -900h-96z" />
    <glyph glyph-name="backslash" unicode="\" horiz-adv-x="492" 
d="M150 700l294 -900h-96l-294 900h96z" />
    <glyph glyph-name="exclamdown.case" horiz-adv-x="256" 
d="M50 622c0 44 35 78 78 78s78 -34 78 -78s-35 -78 -78 -78s-78 34 -78 78zM79 -14v505h98v-505h-98z" />
    <glyph glyph-name="questiondown.case" horiz-adv-x="556" 
d="M365 636c0 -44 -35 -78 -78 -78s-78 34 -78 78s35 78 78 78s78 -34 78 -78zM518 199c0 -131 -101 -213 -245 -213c-142 0 -237 86 -237 193v8c0 100 51 152 147 196l22 10c24 11 32 23 32 53v52h100v-56c0 -68 -20 -102 -75 -127l-22 -10c-80 -36 -104 -64 -104 -122
c0 -60 55 -105 137 -105c84 0 145 45 145 127v33h100v-39z" />
    <glyph glyph-name="slash.case" horiz-adv-x="456" 
d="M308 737h100l-260 -778h-100z" />
    <glyph glyph-name="backslash.case" horiz-adv-x="456" 
d="M148 737l260 -778h-100l-260 778h100z" />
    <glyph glyph-name="parenleft" unicode="(" horiz-adv-x="412" 
d="M130 26v508c0 204 122 274 262 274v-86c-115 -2 -168 -65 -168 -194v-496c0 -129 53 -192 168 -194v-86c-140 0 -262 70 -262 274z" />
    <glyph glyph-name="parenright" unicode=")" horiz-adv-x="412" 
d="M282 26c0 -204 -122 -274 -262 -274v86c115 2 168 65 168 194v496c0 129 -53 192 -168 194v86c140 0 262 -70 262 -274v-508z" />
    <glyph glyph-name="braceleft" unicode="{" horiz-adv-x="402" 
d="M80 330h65c18 0 27 10 27 29v361c0 50 35 86 85 86h115v-86h-79c-18 0 -27 -10 -27 -30v-325c0 -51 -31 -79 -78 -79h-10v-12h10c47 0 78 -28 78 -79v-325c0 -20 9 -30 27 -30h79v-86h-115c-50 0 -85 36 -85 86v361c0 19 -9 29 -27 29h-65v100z" />
    <glyph glyph-name="braceright" unicode="}" horiz-adv-x="402" 
d="M322 330v-100h-65c-18 0 -27 -10 -27 -29v-361c0 -50 -35 -86 -85 -86h-115v86h79c18 0 27 10 27 30v325c0 51 31 80 78 80h10v10h-10c-47 0 -78 29 -78 80v325c0 20 -9 30 -27 30h-79v86h115c50 0 85 -36 85 -86v-361c0 -19 9 -29 27 -29h65z" />
    <glyph glyph-name="bracketleft" unicode="[" horiz-adv-x="360" 
d="M130 720c0 50 36 86 86 86h114v-86h-79c-18 0 -27 -10 -27 -30v-820c0 -20 9 -30 27 -30h79v-86h-114c-50 0 -86 36 -86 86v880z" />
    <glyph glyph-name="bracketright" unicode="]" horiz-adv-x="360" 
d="M230 720v-880c0 -50 -36 -86 -86 -86h-114v86h79c18 0 27 10 27 30v820c0 20 -9 30 -27 30h-79v86h114c50 0 86 -36 86 -86z" />
    <glyph glyph-name="parenleft.case" horiz-adv-x="412" 
d="M130 118v460c0 204 122 274 262 274v-90c-113 -2 -164 -63 -164 -190v-448c0 -127 51 -188 164 -190v-90c-140 0 -262 70 -262 274z" />
    <glyph glyph-name="parenright.case" horiz-adv-x="412" 
d="M282 118c0 -204 -122 -274 -262 -274v90c113 2 164 63 164 190v448c0 127 -51 188 -164 190v90c140 0 262 -70 262 -274v-460z" />
    <glyph glyph-name="braceleft.case" horiz-adv-x="402" 
d="M80 396h65c18 0 27 10 27 29v339c0 50 35 86 85 86h115v-90h-75c-18 0 -27 -10 -27 -30v-299c0 -51 -31 -79 -78 -79h-10v-12h10c47 0 78 -28 78 -79v-299c0 -20 9 -30 27 -30h75v-90h-115c-50 0 -85 36 -85 86v339c0 19 -9 29 -27 29h-65v100z" />
    <glyph glyph-name="braceright.case" horiz-adv-x="402" 
d="M322 396v-100h-65c-18 0 -27 -10 -27 -29v-339c0 -50 -35 -86 -85 -86h-115v90h75c18 0 27 10 27 30v299c0 51 31 79 78 79h10v12h-10c-47 0 -78 28 -78 79v299c0 20 -9 30 -27 30h-75v90h115c50 0 85 -36 85 -86v-339c0 -19 9 -29 27 -29h65z" />
    <glyph glyph-name="bracketleft.case" horiz-adv-x="360" 
d="M130 764c0 50 36 86 86 86h114v-90h-75c-18 0 -27 -10 -27 -30v-764c0 -20 9 -30 27 -30h75v-90h-114c-50 0 -86 36 -86 86v832z" />
    <glyph glyph-name="bracketright.case" horiz-adv-x="360" 
d="M230 764v-832c0 -50 -36 -86 -86 -86h-114v90h75c18 0 27 10 27 30v764c0 20 -9 30 -27 30h-75v90h114c50 0 86 -36 86 -86z" />
    <glyph glyph-name="hyphen" unicode="-" horiz-adv-x="460" 
d="M82 209v86h296v-86h-296z" />
    <glyph glyph-name="endash" unicode="&#x2013;" horiz-adv-x="612" 
d="M82 209v86h448v-86h-448z" />
    <glyph glyph-name="emdash" unicode="&#x2014;" horiz-adv-x="916" 
d="M82 209v86h752v-86h-752z" />
    <glyph glyph-name="underscore" unicode="_" 
d="M73 -134v86h474v-86h-474z" />
    <glyph glyph-name="hyphen.case" horiz-adv-x="460" 
d="M82 309v86h296v-86h-296z" />
    <glyph glyph-name="endash.case" horiz-adv-x="612" 
d="M82 309v86h448v-86h-448z" />
    <glyph glyph-name="emdash.case" horiz-adv-x="916" 
d="M82 309v86h752v-86h-752z" />
    <glyph glyph-name="quotesinglbase" unicode="&#x201a;" horiz-adv-x="256" 
d="M50 64c0 48 35 78 78 78c45 0 78 -30 78 -76v-110c0 -47 -34 -82 -81 -82h-71v56h63c18 0 27 10 27 30v31c-4 -1 -9 -2 -17 -2c-41 0 -77 28 -77 75z" />
    <glyph glyph-name="quotedblbase" unicode="&#x201e;" horiz-adv-x="436" 
d="M50 64c0 48 35 78 78 78c45 0 78 -30 78 -76v-110c0 -47 -34 -82 -81 -82h-71v56h63c18 0 27 10 27 30v31c-4 -1 -9 -2 -17 -2c-41 0 -77 28 -77 75zM230 64c0 48 35 78 78 78c45 0 78 -30 78 -76v-110c0 -47 -34 -82 -81 -82h-71v56h63c18 0 27 10 27 30v31
c-4 -1 -9 -2 -17 -2c-41 0 -77 28 -77 75z" />
    <glyph glyph-name="quotedblleft" unicode="&#x201c;" horiz-adv-x="436" 
d="M206 526c0 -48 -35 -78 -78 -78c-45 0 -78 30 -78 76v110c0 47 34 82 81 82h71v-56h-63c-18 0 -27 -10 -27 -30v-31c4 1 9 2 17 2c41 0 77 -28 77 -75zM386 526c0 -48 -35 -78 -78 -78c-45 0 -78 30 -78 76v110c0 47 34 82 81 82h71v-56h-63c-18 0 -27 -10 -27 -30v-31
c4 1 9 2 17 2c41 0 77 -28 77 -75z" />
    <glyph glyph-name="quotedblright" unicode="&#x201d;" horiz-adv-x="436" 
d="M50 638c0 48 35 78 78 78c45 0 78 -30 78 -76v-110c0 -47 -34 -82 -81 -82h-71v56h63c18 0 27 10 27 30v31c-4 -1 -9 -2 -17 -2c-41 0 -77 28 -77 75zM230 638c0 48 35 78 78 78c45 0 78 -30 78 -76v-110c0 -47 -34 -82 -81 -82h-71v56h63c18 0 27 10 27 30v31
c-4 -1 -9 -2 -17 -2c-41 0 -77 28 -77 75z" />
    <glyph glyph-name="quoteleft" unicode="&#x2018;" horiz-adv-x="256" 
d="M206 526c0 -48 -35 -78 -78 -78c-45 0 -78 30 -78 76v110c0 47 34 82 81 82h71v-56h-63c-18 0 -27 -10 -27 -30v-31c4 1 9 2 17 2c41 0 77 -28 77 -75z" />
    <glyph glyph-name="quoteright" unicode="&#x2019;" horiz-adv-x="256" 
d="M50 638c0 48 35 78 78 78c45 0 78 -30 78 -76v-110c0 -47 -34 -82 -81 -82h-71v56h63c18 0 27 10 27 30v31c-4 -1 -9 -2 -17 -2c-41 0 -77 28 -77 75z" />
    <glyph glyph-name="guillemotleft" unicode="&#xab;" horiz-adv-x="780" 
d="M65 299l314 180h6v-104l-226 -120v-14l226 -120v-104h-6l-314 180v102zM391 299l314 180h6v-104l-225 -120v-14l225 -120v-104h-6l-314 180v102z" />
    <glyph glyph-name="guillemotright" unicode="&#xbb;" horiz-adv-x="780" 
d="M385 299v-102l-314 -180h-6v104l225 120v14l-225 120v104h6zM711 299v-102l-314 -180h-6v104l226 120v14l-226 120v104h6z" />
    <glyph glyph-name="guilsinglleft" unicode="&#x2039;" horiz-adv-x="480" 
d="M65 303l340 176h6v-104l-255 -120v-14l255 -120v-104h-6l-340 176v110z" />
    <glyph glyph-name="guilsinglright" unicode="&#x203a;" horiz-adv-x="480" 
d="M415 303v-110l-340 -176h-6v104l255 120v14l-255 120v104h6z" />
    <glyph glyph-name="quotedbl" unicode="&#x22;" horiz-adv-x="436" 
d="M50 638c0 48 35 78 78 78c45 0 78 -30 78 -76v-110c0 -47 -34 -82 -81 -82h-71v56h63c18 0 27 10 27 30v31c-4 -1 -9 -2 -17 -2c-41 0 -77 28 -77 75zM230 638c0 48 35 78 78 78c45 0 78 -30 78 -76v-110c0 -47 -34 -82 -81 -82h-71v56h63c18 0 27 10 27 30v31
c-4 -1 -9 -2 -17 -2c-41 0 -77 28 -77 75z" />
    <glyph glyph-name="quotesingle" unicode="'" horiz-adv-x="256" 
d="M50 638c0 48 35 78 78 78c45 0 78 -30 78 -76v-110c0 -47 -34 -82 -81 -82h-71v56h63c18 0 27 10 27 30v31c-4 -1 -9 -2 -17 -2c-41 0 -77 28 -77 75z" />
    <glyph glyph-name="guillemotleft.case" horiz-adv-x="780" 
d="M65 389l314 180h6v-104l-226 -120v-14l226 -120v-104h-6l-314 180v102zM391 389l314 180h6v-104l-225 -120v-14l225 -120v-104h-6l-314 180v102z" />
    <glyph glyph-name="guillemotright.case" horiz-adv-x="780" 
d="M385 389v-102l-314 -180h-6v104l225 120v14l-225 120v104h6zM711 389v-102l-314 -180h-6v104l226 120v14l-226 120v104h6z" />
    <glyph glyph-name="guilsinglleft.case" horiz-adv-x="480" 
d="M65 393l340 176h6v-104l-255 -120v-14l255 -120v-104h-6l-340 176v110z" />
    <glyph glyph-name="guilsinglright.case" horiz-adv-x="480" 
d="M415 393v-110l-340 -176h-6v104l255 120v14l-255 120v104h6z" />
    <glyph glyph-name="space" unicode=" " horiz-adv-x="300" 
 />
    <glyph glyph-name="cent" unicode="&#xa2;" horiz-adv-x="612" 
d="M570 444h-100v14c0 81 -34 141 -108 159v-534c74 17 108 77 108 159v14h100v-14c0 -140 -74 -235 -208 -253v-105h-94v105c-140 17 -220 118 -220 283v156c0 165 80 266 220 283v105h94v-105c134 -18 208 -114 208 -249v-18zM148 268c0 -103 42 -168 120 -185v534
c-78 -17 -120 -82 -120 -185v-164z" />
    <glyph glyph-name="currency" unicode="&#xa4;" 
d="M45 552l63 63l60 -59c40 27 88 44 142 44c53 0 102 -17 142 -44l60 59l63 -63l-59 -60c27 -40 44 -89 44 -142c0 -54 -17 -102 -44 -142l59 -60l-63 -63l-60 59c-40 -29 -89 -44 -142 -44c-54 0 -102 15 -142 44l-60 -59l-63 63l59 60c-29 40 -44 88 -44 142
c0 53 15 102 44 142zM148 350c0 -90 71 -162 162 -162c90 0 162 71 162 162c0 90 -71 162 -162 162c-90 0 -162 -71 -162 -162z" />
    <glyph glyph-name="dollar" unicode="$" horiz-adv-x="604" 
d="M351 400c130 -28 209 -83 209 -201v-6c0 -115 -87 -191 -210 -205v-104h-94v106c-139 19 -224 113 -224 250v32h100v-24c0 -91 44 -148 124 -165v239c-112 27 -192 75 -192 195v6c0 104 82 174 192 188v105h94v-105c119 -17 204 -92 204 -217v-32h-100v24
c0 71 -41 115 -104 130v-216h1zM164 521c0 -52 28 -78 92 -98v195c-55 -12 -92 -48 -92 -97zM350 81c69 12 110 56 110 112c0 61 -37 89 -110 107v-219z" />
    <glyph glyph-name="Euro" unicode="&#x20ac;" horiz-adv-x="668" 
d="M626 444h-100v14c0 97 -48 164 -156 164c-99 0 -156 -57 -165 -160h165v-84h-166v-56h166v-84h-165c9 -103 66 -160 165 -160c108 0 156 66 156 164v14h100v-14c0 -156 -92 -256 -256 -256c-157 0 -253 91 -265 252h-73v84h72v56h-72v84h73c12 161 108 252 265 252
c164 0 256 -102 256 -252v-18z" />
    <glyph glyph-name="florin" unicode="&#x192;" 
d="M124 446h137v168c0 49 36 86 85 86h192v-88h-156c-18 0 -27 -10 -27 -30v-136h142v-88h-142v-272c0 -49 -36 -86 -85 -86h-184v88h148c18 0 27 10 27 30v240h-137v88z" />
    <glyph glyph-name="sterling" unicode="&#xa3;" horiz-adv-x="638" 
d="M64 380h70v110c0 142 81 224 215 224c139 0 225 -84 225 -224v-52h-98v53c0 80 -43 131 -126 131c-76 0 -118 -51 -118 -131v-111h120v-86h-120v-202h346v-92h-518v92h74v202h-70v86z" />
    <glyph glyph-name="yen" unicode="&#xa5;" 
d="M600 700l-191 -343h102v-84h-157v-56h157v-84h-157v-133h-100v133h-157v84h157v56h-157v84h102l-191 343h114l175 -323h14l175 323h114z" />
    <glyph glyph-name="plus" unicode="+" 
d="M101 393h164v166h90v-166h164v-86h-164v-166h-90v166h-164v86z" />
    <glyph glyph-name="minus" unicode="&#x2212;" 
d="M101 393h418v-86h-418v86z" />
    <glyph glyph-name="multiply" unicode="&#xd7;" 
d="M107 492l61 61l142 -142l142 142l61 -61l-142 -142l142 -142l-61 -61l-142 142l-142 -142l-61 61l142 142z" />
    <glyph glyph-name="divide" unicode="&#xf7;" 
d="M235 524c0 42 33 76 75 76c43 0 75 -35 75 -76s-33 -75 -75 -75c-43 0 -75 35 -75 75zM101 393h418v-86h-418v86zM235 176c0 41 33 75 75 75c43 0 75 -34 75 -75c0 -42 -33 -76 -75 -76c-43 0 -75 35 -75 76z" />
    <glyph glyph-name="equal" unicode="=" 
d="M101 384v86h418v-86h-418zM101 230v86h418v-86h-418z" />
    <glyph glyph-name="notequal" unicode="&#x2260;" 
d="M101 384v86h201l36 109l85 -27l-27 -82h123v-86h-151l-22 -68h173v-86h-202l-35 -108l-85 26l27 82h-123v86h151l22 68h-173z" />
    <glyph glyph-name="greater" unicode="&#x3e;" 
d="M520 291l-420 -161v96l326 117v14l-326 117v96l420 -161v-118z" />
    <glyph glyph-name="less" unicode="&#x3c;" 
d="M100 291v118l420 161v-96l-326 -117v-14l326 -117v-96z" />
    <glyph glyph-name="greaterequal" unicode="&#x2265;" 
d="M520 291l-420 -161v96l326 117v14l-326 117v96l420 -161v-118zM520 0h-420v84h420v-84z" />
    <glyph glyph-name="lessequal" unicode="&#x2264;" 
d="M100 291v118l420 161v-96l-326 -117v-14l326 -117v-96zM100 0v84h420v-84h-420z" />
    <glyph glyph-name="plusminus" unicode="&#xb1;" 
d="M101 307v86h166v166h86v-166h166v-86h-166v-159h-86v159h-166zM101 0v86h418v-86h-418z" />
    <glyph glyph-name="approxequal" unicode="&#x2248;" 
d="M343 482c9 -20 14 -33 33 -33c11 0 19 6 29 14l87 69l50 -63l-103 -80c-21 -16 -43 -30 -76 -30c-47 0 -68 26 -85 63c-9 20 -14 33 -33 33c-11 0 -19 -6 -29 -14l-87 -69l-50 63l103 80c21 16 43 30 76 30c47 0 68 -26 85 -63zM343 292c9 -20 14 -33 33 -33
c11 0 19 6 29 14l87 69l50 -63l-103 -80c-21 -16 -43 -30 -76 -30c-47 0 -68 26 -85 63c-9 20 -14 33 -33 33c-11 0 -19 -6 -29 -14l-87 -69l-50 63l103 80c21 16 43 30 76 30c47 0 68 -26 85 -63z" />
    <glyph glyph-name="asciitilde" unicode="~" 
d="M343 368c9 -20 14 -33 33 -33c11 0 19 6 29 14l87 69l50 -63l-103 -80c-21 -16 -43 -30 -76 -30c-47 0 -68 26 -85 63c-9 20 -14 33 -33 33c-11 0 -19 -6 -29 -14l-87 -69l-50 63l103 80c21 16 43 30 76 30c47 0 68 -26 85 -63z" />
    <glyph glyph-name="logicalnot" unicode="&#xac;" 
d="M101 307v86h418v-186h-86v100h-332z" />
    <glyph glyph-name="asciicircum" unicode="^" 
d="M383 700l164 -276h-109l-121 213h-14l-121 -213h-109l164 276h146z" />
    <glyph glyph-name="infinity" unicode="&#x221e;" 
d="M50 350c0 82 67 151 147 151c46 0 83 -20 104 -52h18c21 32 58 52 104 52c81 0 147 -68 147 -151c0 -85 -70 -151 -147 -151c-46 0 -83 20 -104 52h-18c-21 -32 -58 -52 -104 -52c-80 0 -147 70 -147 151zM268 350c0 37 -30 67 -67 67s-67 -30 -67 -67s30 -67 67 -67
s67 30 67 67zM352 350c0 -37 30 -67 67 -67s67 30 67 67s-30 67 -67 67s-67 -30 -67 -67z" />
    <glyph glyph-name="emptyset" unicode="&#x2205;" horiz-adv-x="640" 
d="M467 468c71 -44 117 -121 117 -215v-10c0 -150 -118 -257 -264 -257c-20 0 -40 2 -59 6l-41 -94l-88 36l41 94c-71 44 -117 121 -117 215v10c0 150 118 257 264 257c20 0 40 -2 59 -6l41 94l88 -36zM150 241c0 -57 22 -102 58 -131l135 311c-7 1 -15 1 -23 1
c-98 0 -170 -65 -170 -167v-14zM490 241v14c0 57 -22 102 -58 131l-135 -311c7 -1 15 -1 23 -1c98 0 170 65 170 167z" />
    <glyph glyph-name="integral" unicode="&#x222b;" 
d="M357 582v-696c0 -49 -36 -86 -85 -86h-127v88h91c18 0 27 10 27 30v696c0 49 36 86 85 86h127v-88h-91c-18 0 -27 -10 -27 -30z" />
    <glyph glyph-name="product" unicode="&#x220f;" 
d="M73 0v700h474v-700h-100v606h-274v-606h-100z" />
    <glyph glyph-name="summation" unicode="&#x2211;" 
d="M72 612v88h476v-92h-334v-14l186 -208v-72l-186 -208v-14h334v-92h-476v88l224 255v14z" />
    <glyph glyph-name="radical" unicode="&#x221a;" 
d="M41 309v86h177l77 -317h14l180 778h96l-200 -856h-168l-75 309h-101z" />
    <glyph glyph-name="partialdiff" unicode="&#x2202;" 
d="M58 254c0 146 97 256 231 256c66 0 111 -25 136 -62h14c-33 109 -148 168 -279 183l18 88c250 -31 384 -187 384 -439c0 -176 -92 -294 -254 -294c-147 0 -250 108 -250 256v12zM309 75c95 0 156 70 156 179c0 99 -67 167 -156 167c-91 0 -156 -71 -156 -168v-10
c0 -101 64 -168 156 -168z" />
    <glyph glyph-name="uni00B5" unicode="&#xb5;" horiz-adv-x="596" 
d="M70 -200v696h94v-299c0 -85 46 -129 126 -129c91 0 148 58 148 160v268h94v-496h-92v77h-14c-19 -46 -57 -91 -137 -91c-61 0 -90 23 -111 39h-14v-225h-94z" />
    <glyph glyph-name="percent" unicode="%" horiz-adv-x="764" 
d="M48 554c0 99 59 160 160 160c98 0 160 -61 160 -160v-19c0 -99 -59 -159 -160 -159s-160 60 -160 159v19zM424 462l172 248l76 -56l-194 -232zM128 559v-28c0 -52 27 -85 80 -85s80 33 80 85v28c0 52 -27 85 -80 85s-80 -33 -80 -85zM396 164c0 99 59 160 160 160
c98 0 160 -61 160 -160v-19c0 -99 -59 -159 -160 -159s-160 60 -160 159v19zM340 238l-172 -248l-76 56l194 232zM476 169v-28c0 -52 27 -85 80 -85s80 33 80 85v28c0 52 -27 85 -80 85s-80 -33 -80 -85z" />
    <glyph glyph-name="perthousand" unicode="&#x2030;" horiz-adv-x="1004" 
d="M208 714c98 0 160 -61 160 -160v-19c0 -99 -59 -159 -160 -159s-160 60 -160 159v19c0 99 59 160 160 160zM672 654l-194 -232l-54 40l172 248zM288 531v28c0 52 -27 85 -80 85s-80 -33 -80 -85v-28c0 -52 27 -85 80 -85s80 33 80 85zM801 324c93 0 155 -61 155 -160v-19
c0 -99 -59 -159 -155 -159c-55 0 -98 20 -125 56c-27 -36 -70 -56 -125 -56c-96 0 -155 60 -155 159v19c0 99 59 160 155 160c54 0 98 -21 125 -57c26 36 69 57 125 57zM92 46l194 232l54 -40l-172 -248zM636 141v28c0 52 -27 85 -80 85s-80 -33 -80 -85v-28
c0 -52 27 -85 80 -85s80 33 80 85zM876 141v28c0 52 -27 85 -80 85s-80 -33 -80 -85v-28c0 -52 27 -85 80 -85s80 33 80 85z" />
    <glyph glyph-name="arrowup" unicode="&#x2191;" 
d="M40 470l236 236h68l236 -236l-62 -62l-135 135l-21 29l-9 -3l3 -36v-533h-92v533l3 36l-9 3l-21 -29l-135 -135z" />
    <glyph glyph-name="uni2197" unicode="&#x2197;" 
d="M183 496h328l49 -49v-328h-82v194l5 35l-8 5l-24 -28l-338 -340l-63 63l339 339l28 24l-5 8l-35 -5h-194v82z" />
    <glyph glyph-name="arrowright" unicode="&#x2192;" horiz-adv-x="800" 
d="M520 516l230 -230v-68l-230 -230l-60 60l133 133l29 21l-3 9l-36 -3h-533v88h533l36 -3l3 9l-29 21l-133 133z" />
    <glyph glyph-name="uni2198" unicode="&#x2198;" 
d="M183 0v82h194l35 -5l5 8l-28 24l-339 339l63 63l338 -340l24 -28l8 5l-5 35v194h82v-328l-49 -49h-328z" />
    <glyph glyph-name="arrowdown" unicode="&#x2193;" 
d="M42 228l60 60l135 -135l21 -29l9 3l-3 36v537h92v-537l-3 -36l9 -3l21 29l135 135l60 -60l-234 -234h-68z" />
    <glyph glyph-name="uni2199" unicode="&#x2199;" 
d="M437 0h-328l-49 49v328h82v-194l-5 -35l8 -5l24 28l338 340l63 -63l-339 -339l-28 -24l5 -8l35 5h194v-82z" />
    <glyph glyph-name="arrowleft" unicode="&#x2190;" horiz-adv-x="800" 
d="M280 516l60 -60l-133 -133l-29 -21l3 -9l36 3h533v-88h-533l-36 3l-3 -9l29 -21l133 -133l-60 -60l-230 230v68z" />
    <glyph glyph-name="uni2196" unicode="&#x2196;" 
d="M437 496v-82h-194l-35 5l-5 -8l28 -24l339 -339l-63 -63l-338 340l-24 28l-8 -5l5 -35v-194h-82v328l49 49h328z" />
    <glyph glyph-name="arrowboth" unicode="&#x2194;" horiz-adv-x="800" 
d="M520 515l230 -230v-68l-230 -230l-60 60l133 133l29 21l-3 9l-36 -3h-366l-36 3l-3 -9l29 -21l133 -133l-60 -60l-230 230v68l230 230l60 -60l-133 -133l-29 -21l3 -9l36 3h366l36 -3l3 9l-29 21l-133 133z" />
    <glyph glyph-name="arrowupdn" unicode="&#x2195;" 
d="M383 163l135 135l62 -62l-236 -236h-68l-236 236l62 62l135 -135l21 -29l9 3l-3 36v354l3 36l-9 3l-21 -29l-135 -135l-62 62l236 236h68l236 -236l-62 -62l-135 135l-21 29l-9 -3l3 -36v-354l-3 -36l9 -3z" />
    <glyph glyph-name="uni2197.case" 
d="M183 700h328l49 -49v-328h-82v194l5 35l-8 5l-24 -28l-338 -340l-63 63l339 339l28 24l-5 8l-35 -5h-194v82z" />
    <glyph glyph-name="arrowright.case" horiz-adv-x="800" 
d="M520 616l230 -230v-68l-230 -230l-60 60l133 133l29 21l-3 9l-36 -3h-533v88h533l36 -3l3 9l-29 21l-133 133z" />
    <glyph glyph-name="arrowleft.case" horiz-adv-x="800" 
d="M280 616l60 -60l-133 -133l-29 -21l3 -9l36 3h533v-88h-533l-36 3l-3 -9l29 -21l133 -133l-60 -60l-230 230v68z" />
    <glyph glyph-name="uni2196.case" 
d="M437 700v-82h-194l-35 5l-5 -8l28 -24l339 -339l-63 -63l-338 340l-24 28l-8 -5l5 -35v-194h-82v328l49 49h328z" />
    <glyph glyph-name="arrowboth.case" horiz-adv-x="800" 
d="M520 616l230 -230v-68l-230 -230l-60 60l133 133l29 21l-3 9l-36 -3h-366l-36 3l-3 -9l29 -21l133 -133l-60 -60l-230 230v68l230 230l60 -60l-133 -133l-29 -21l3 -9l36 3h366l36 -3l3 9l-29 21l-133 133z" />
    <glyph glyph-name="lozenge" unicode="&#x25ca;" 
d="M53 350l182 350h150l182 -350l-182 -350h-150zM160 350l143 -277h14l143 277l-143 277h-14z" />
    <glyph glyph-name="at" unicode="@" horiz-adv-x="1028" 
d="M84 -8v516c0 126 66 192 192 192h476c126 0 192 -66 192 -192v-400c0 -66 -42 -108 -108 -108h-120c-47 0 -74 27 -74 76v4h-14c-10 -45 -52 -94 -138 -94c-112 0 -204 95 -204 247v14c0 152 92 247 204 247c88 0 128 -58 134 -90h14v76h92v-362c0 -24 11 -36 33 -36h49
c31 0 40 9 40 40v384c0 76 -34 110 -110 110h-456c-76 0 -110 -34 -110 -110v-512c0 -76 34 -110 110 -110h638v-84h-648c-126 0 -192 66 -192 192zM380 235c0 -102 53 -163 127 -163s129 59 129 163v10c0 104 -55 163 -129 163s-127 -61 -127 -163v-10z" />
    <glyph glyph-name="ampersand" unicode="&#x26;" horiz-adv-x="680" 
d="M34 196c0 81 52 142 105 182v13c-31 40 -51 84 -51 134v6c0 112 88 183 206 183c120 0 206 -73 206 -192v-26h-100v23c0 64 -42 103 -108 103c-62 0 -104 -37 -104 -93v-4c0 -60 43 -101 113 -170l130 -128h14l103 180h106l-141 -246v-14l149 -147h-132l-71 69h-14
c-48 -51 -106 -84 -187 -84c-136 0 -224 91 -224 211zM134 196c0 -60 44 -119 124 -119c54 0 93 23 123 55v14l-167 163h-13c-42 -28 -67 -65 -67 -109v-4z" />
    <glyph glyph-name="paragraph" unicode="&#xb6;" horiz-adv-x="614" 
d="M26 502c0 120 91 198 218 198h298v-700h-88v618h-94v-618h-88v292h-30c-128 0 -216 81 -216 198v12zM114 499v-6c0 -70 46 -119 128 -119h30v244h-30c-83 0 -128 -50 -128 -119z" />
    <glyph glyph-name="section" unicode="&#xa7;" horiz-adv-x="492" 
d="M63 563c0 95 78 151 179 151c114 0 194 -63 194 -163v-29h-88v21c0 54 -42 89 -105 89c-53 0 -91 -27 -91 -71c0 -55 49 -72 121 -83c116 -19 169 -69 169 -159c0 -33 -6 -60 -19 -84c13 -23 19 -48 19 -76v-8c0 -98 -66 -165 -190 -165c-131 0 -212 77 -212 198v18h88
v-15c0 -73 42 -119 124 -119c66 0 102 30 102 81c0 48 -26 72 -113 85c-118 19 -178 69 -178 161c0 32 7 57 22 81c-14 23 -22 49 -22 81v6zM273 314c30 -5 54 -11 75 -21c3 6 5 13 5 22c0 46 -25 71 -112 83c-33 5 -60 13 -83 23c-4 -8 -6 -16 -6 -26c0 -48 39 -69 121 -81
z" />
    <glyph glyph-name="copyright" unicode="&#xa9;" horiz-adv-x="740" 
d="M72 501c0 133 72 199 193 199h210c121 0 193 -66 193 -199v-302c0 -133 -72 -199 -193 -199h-210c-121 0 -193 66 -193 199v302zM162 489v-278c0 -84 36 -129 118 -129h180c82 0 118 45 118 129v278c0 84 -36 129 -118 129h-180c-82 0 -118 -45 -118 -129zM228 400
c0 105 53 160 146 160c98 0 140 -61 140 -146v-11h-86v18c0 33 -14 59 -55 59c-36 0 -57 -25 -57 -67v-127c0 -40 23 -64 57 -64c39 0 55 23 55 57v20h86v-11c0 -94 -45 -146 -138 -146c-96 0 -148 52 -148 157v101z" />
    <glyph glyph-name="registered" unicode="&#xae;" horiz-adv-x="496" 
d="M38 506c0 122 90 208 210 208s210 -86 210 -208s-90 -208 -210 -208s-210 86 -210 208zM80 506c0 -102 66 -168 168 -168s168 66 168 168s-66 168 -168 168s-168 -66 -168 -168zM176 619h85c49 0 75 -29 75 -62c0 -27 -12 -46 -40 -56v-6c22 -2 32 -18 32 -34v-64h-40v61
c0 13 -8 21 -21 21h-51v-82h-40v222zM216 583v-68h46c22 0 34 15 34 34s-12 34 -34 34h-46z" />
    <glyph glyph-name="trademark" unicode="&#x2122;" horiz-adv-x="574" 
d="M42 700h190v-36h-75v-186h-40v186h-75v36zM262 700h71l54 -186h4l54 186h71v-222h-40v186h-4l-54 -186h-58l-54 186h-4v-186h-40v222z" />
    <glyph glyph-name="degree" unicode="&#xb0;" horiz-adv-x="400" 
d="M50 575c0 83 66 141 150 141c88 0 150 -60 150 -141c0 -83 -66 -141 -150 -141s-150 61 -150 141zM132 575c0 -44 29 -67 68 -67c40 0 68 28 68 67s-28 67 -68 67c-39 0 -68 -28 -68 -67z" />
    <glyph glyph-name="prime" unicode="&#x2032;" horiz-adv-x="310" 
d="M108 700h109l-51 -260h-70z" />
    <glyph glyph-name="primedbl" unicode="&#x2033;" horiz-adv-x="440" 
d="M100 700h108l-51 -260h-69zM247 700h108l-51 -260h-69z" />
    <glyph glyph-name="bar" unicode="|" horiz-adv-x="238" 
d="M166 806v-1052h-94v1052h94z" />
    <glyph glyph-name="brokenbar" unicode="&#xa6;" horiz-adv-x="238" 
d="M166 366h-94v440h94v-440zM72 194h94v-440h-94v440z" />
    <glyph glyph-name="dagger" unicode="&#x2020;" 
d="M88 424v92h172v184h100v-184h172v-92h-172v-424h-100v424h-172z" />
    <glyph glyph-name="daggerdbl" unicode="&#x2021;" 
d="M88 184v92h172v148h-172v92h172v184h100v-184h172v-92h-172v-148h172v-92h-172v-184h-100v184h-172z" />
    <glyph glyph-name="at.case" horiz-adv-x="1004" 
d="M84 122v456c0 126 66 192 192 192h452c126 0 192 -66 192 -192v-354c0 -66 -42 -108 -108 -108h-112c-45 0 -74 30 -74 74v6h-14c-10 -45 -52 -94 -138 -94c-112 0 -204 95 -204 241v14c0 146 92 241 204 241c88 0 128 -58 134 -90h14v76h92v-350c0 -24 11 -36 33 -36h41
c31 0 40 9 40 40v338c0 76 -34 110 -110 110h-432c-76 0 -110 -34 -110 -110v-452c0 -76 34 -110 110 -110h618v-84h-628c-126 0 -192 66 -192 192zM491 512c-74 0 -127 -61 -127 -157v-10c0 -96 53 -157 127 -157s129 59 129 157v10c0 98 -55 157 -129 157z" />
    <glyph glyph-name="bar.case" horiz-adv-x="238" 
d="M166 856v-1012h-94v1012h94z" />
    <glyph glyph-name="brokenbar.case" horiz-adv-x="238" 
d="M166 436h-94v420h94v-420zM72 264h94v-420h-94v420z" />
    <glyph glyph-name="uni0308" unicode="&#x308;" horiz-adv-x="0" 
d="M-392 640c0 42 34 74 76 74s76 -32 76 -74s-34 -74 -76 -74s-76 32 -76 74zM-202 640c0 42 34 74 76 74s76 -32 76 -74s-34 -74 -76 -74s-76 32 -76 74z" />
    <glyph glyph-name="uni0307" unicode="&#x307;" horiz-adv-x="0" 
d="M-202 640c0 42 34 74 76 74s76 -32 76 -74s-34 -74 -76 -74s-76 32 -76 74z" />
    <glyph glyph-name="gravecomb" unicode="&#x300;" horiz-adv-x="0" 
d="M-111 700l61 -130h-86l-84 130h109z" />
    <glyph glyph-name="acutecomb" unicode="&#x301;" horiz-adv-x="0" 
d="M-159 700h109l-84 -130h-86z" />
    <glyph glyph-name="uni030B" unicode="&#x30b;" horiz-adv-x="0" 
d="M-303 700h109l-84 -130h-86zM-159 700h109l-84 -130h-86z" />
    <glyph glyph-name="uni0302" unicode="&#x302;" horiz-adv-x="0" 
d="M-150 570l-49 71h-12l-49 -71h-100l94 130h122l94 -130h-100z" />
    <glyph glyph-name="uni030C" unicode="&#x30c;" horiz-adv-x="0" 
d="M-150 700h100l-94 -130h-122l-94 130h100l49 -71h12z" />
    <glyph glyph-name="uni0306" unicode="&#x306;" horiz-adv-x="0" 
d="M-126 700h76v-23c0 -68 -45 -113 -116 -113s-116 45 -116 113v23h76v-22c0 -22 14 -40 40 -40s40 18 40 40v22z" />
    <glyph glyph-name="uni030A" unicode="&#x30a;" horiz-adv-x="0" 
d="M-260 639c0 60 46 101 105 101s105 -41 105 -101s-46 -101 -105 -101s-105 41 -105 101zM-192 639c0 -21 15 -37 37 -37s37 16 37 37s-15 37 -37 37s-37 -16 -37 -37z" />
    <glyph glyph-name="tildecomb" unicode="&#x303;" horiz-adv-x="0" 
d="M-408 612l47 57c21 26 41 46 76 46c39 0 60 -21 84 -56c9 -13 15 -20 28 -20s20 7 28 17l38 47l57 -45l-47 -57c-21 -26 -41 -46 -76 -46c-39 0 -60 21 -84 56c-9 13 -15 20 -28 20s-20 -7 -28 -17l-38 -47z" />
    <glyph glyph-name="uni0304" unicode="&#x304;" horiz-adv-x="0" 
d="M-50 648v-78h-286v78h286z" />
    <glyph glyph-name="uni0312" unicode="&#x312;" horiz-adv-x="0" 
d="M-50 640c0 -48 -35 -78 -78 -78c-45 0 -78 30 -78 76v100c0 47 34 82 81 82h71v-56h-63c-18 0 -27 -10 -27 -30v-21c4 1 9 2 17 2c41 0 77 -28 77 -75z" />
    <glyph glyph-name="uni0326" unicode="&#x326;" horiz-adv-x="0" 
d="M-206 -128c0 48 35 78 78 78c45 0 78 -30 78 -76v-100c0 -47 -34 -82 -81 -82h-71v56h63c18 0 27 10 27 30v21c-4 -1 -9 -2 -17 -2c-41 0 -77 28 -77 75z" />
    <glyph glyph-name="uni0327" unicode="&#x327;" horiz-adv-x="0" 
d="M-224 32h56l-20 -93h8c10 16 27 27 53 27c47 0 77 -36 77 -82c0 -59 -43 -96 -99 -96c-53 0 -79 27 -94 48l50 40c7 -18 17 -31 41 -31c20 0 38 12 38 36c0 20 -13 33 -30 33c-12 0 -20 -5 -24 -14h-83v8z" />
    <glyph glyph-name="uni0328" unicode="&#x328;" horiz-adv-x="0" 
d="M-168 30h74l-22 -94c-1 -3 -1 -6 -1 -8c0 -15 8 -22 23 -22h44v-72h-64c-40 0 -79 25 -79 74c0 6 1 14 3 24z" />
    <glyph glyph-name="uni0335" unicode="&#x335;" horiz-adv-x="0" 
d="M-362 632h312v-74h-312v74z" />
    <glyph glyph-name="uni0336" unicode="&#x336;" horiz-adv-x="0" 
d="M-50 588v-84h-620v84h620z" />
    <glyph glyph-name="uni0337" unicode="&#x337;" horiz-adv-x="0" 
d="M-129 565l79 -29l-234 -617l-80 29z" />
    <glyph glyph-name="uni0338" unicode="&#x338;" horiz-adv-x="0" 
d="M-133 776l83 -26l-276 -838l-84 26z" />
    <glyph glyph-name="acute" unicode="&#xb4;" horiz-adv-x="270" 
d="M111 700h109l-84 -130h-86z" />
    <glyph glyph-name="breve" unicode="&#x2d8;" horiz-adv-x="332" 
d="M206 700h76v-23c0 -68 -45 -113 -116 -113s-116 45 -116 113v23h76v-22c0 -22 14 -40 40 -40s40 18 40 40v22z" />
    <glyph glyph-name="caron" unicode="&#x2c7;" horiz-adv-x="410" 
d="M260 700h100l-94 -130h-122l-94 130h100l49 -71h12z" />
    <glyph glyph-name="cedilla" unicode="&#xb8;" horiz-adv-x="301" 
d="M77 32h56l-20 -93h8c10 16 27 27 53 27c47 0 77 -36 77 -82c0 -59 -43 -96 -99 -96c-53 0 -79 27 -94 48l50 40c7 -18 17 -31 41 -31c20 0 38 12 38 36c0 20 -13 33 -30 33c-12 0 -20 -5 -24 -14h-83v8z" />
    <glyph glyph-name="circumflex" unicode="&#x2c6;" horiz-adv-x="410" 
d="M260 570l-49 71h-12l-49 -71h-100l94 130h122l94 -130h-100z" />
    <glyph glyph-name="dieresis" unicode="&#xa8;" horiz-adv-x="442" 
d="M50 640c0 42 34 74 76 74s76 -32 76 -74s-34 -74 -76 -74s-76 32 -76 74zM240 640c0 42 34 74 76 74s76 -32 76 -74s-34 -74 -76 -74s-76 32 -76 74z" />
    <glyph glyph-name="dotaccent" unicode="&#x2d9;" horiz-adv-x="252" 
d="M50 640c0 42 34 74 76 74s76 -32 76 -74s-34 -74 -76 -74s-76 32 -76 74z" />
    <glyph glyph-name="grave" unicode="`" horiz-adv-x="270" 
d="M159 700l61 -130h-86l-84 130h109z" />
    <glyph glyph-name="hungarumlaut" unicode="&#x2dd;" horiz-adv-x="414" 
d="M111 700h109l-84 -130h-86zM255 700h109l-84 -130h-86z" />
    <glyph glyph-name="macron" unicode="&#xaf;" horiz-adv-x="386" 
d="M336 648v-78h-286v78h286z" />
    <glyph glyph-name="ogonek" unicode="&#x2db;" horiz-adv-x="243" 
d="M75 30h74l-22 -94c-1 -3 -1 -6 -1 -8c0 -15 8 -22 23 -22h44v-72h-64c-40 0 -79 25 -79 74c0 6 1 14 3 24z" />
    <glyph glyph-name="ring" unicode="&#x2da;" horiz-adv-x="310" 
d="M50 639c0 60 46 101 105 101s105 -41 105 -101s-46 -101 -105 -101s-105 41 -105 101zM118 639c0 -21 15 -37 37 -37s37 16 37 37s-15 37 -37 37s-37 -16 -37 -37z" />
    <glyph glyph-name="tilde" unicode="&#x2dc;" horiz-adv-x="458" 
d="M50 612l47 57c21 26 41 46 76 46c39 0 60 -21 84 -56c9 -13 15 -20 28 -20s20 7 28 17l38 47l57 -45l-47 -57c-21 -26 -41 -46 -76 -46c-39 0 -60 21 -84 56c-9 13 -15 20 -28 20s-20 -7 -28 -17l-38 -47z" />
    <glyph glyph-name="uni0308.case" horiz-adv-x="0" 
d="M-402 819c0 42 34 74 76 74s76 -32 76 -74s-34 -74 -76 -74s-76 32 -76 74zM-202 819c0 42 34 74 76 74s76 -32 76 -74s-34 -74 -76 -74s-76 32 -76 74z" />
    <glyph glyph-name="uni0307.case" horiz-adv-x="0" 
d="M-202 819c0 42 34 74 76 74s76 -32 76 -74s-34 -74 -76 -74s-76 32 -76 74z" />
    <glyph glyph-name="gravecomb.case" horiz-adv-x="0" 
d="M-105 880l55 -115h-92l-80 115h117z" />
    <glyph glyph-name="acutecomb.case" horiz-adv-x="0" 
d="M-167 880h117l-80 -115h-92z" />
    <glyph glyph-name="uni030B.case" horiz-adv-x="0" 
d="M-321 880h117l-80 -115h-92zM-167 880h117l-80 -115h-92z" />
    <glyph glyph-name="uni0302.case" horiz-adv-x="0" 
d="M-158 765l-47 56h-12l-47 -56h-108l102 115h118l102 -115h-108z" />
    <glyph glyph-name="uni030C.case" horiz-adv-x="0" 
d="M-158 880h108l-102 -115h-118l-102 115h108l47 -56h12z" />
    <glyph glyph-name="uni0306.case" horiz-adv-x="0" 
d="M-126 880h76v-8c0 -68 -45 -113 -116 -113s-116 45 -116 113v8h76v-7c0 -22 14 -40 40 -40s40 18 40 40v7z" />
    <glyph glyph-name="uni030A.case" horiz-adv-x="0" 
d="M-260 841c0 60 46 101 105 101s105 -41 105 -101s-46 -101 -105 -101s-105 41 -105 101zM-192 841c0 -21 15 -37 37 -37s37 16 37 37s-15 37 -37 37s-37 -16 -37 -37z" />
    <glyph glyph-name="tildecomb.case" horiz-adv-x="0" 
d="M-408 799l47 57c21 26 41 46 76 46c39 0 60 -21 84 -56c9 -13 15 -20 28 -20s20 7 28 17l38 47l57 -45l-47 -57c-21 -26 -41 -46 -76 -46c-39 0 -60 21 -84 56c-9 13 -15 20 -28 20s-20 -7 -28 -17l-38 -47z" />
    <glyph glyph-name="uni0304.case" horiz-adv-x="0" 
d="M-50 843v-78h-286v78h286z" />
    <glyph glyph-name="uniE132" unicode="&#xe132;" horiz-adv-x="468" 
d="M114 700h109l-84 -130h-86zM348 700h109l-84 -130h-86zM164 490v-490h-94v490h94zM398 490v-606c0 -50 -34 -84 -82 -84h-126v82h86c18 0 28 10 28 30v578h94z" />
    <glyph glyph-name="uniE133" unicode="&#xe133;" horiz-adv-x="576" 
d="M108 880h117l-80 -115h-92zM448 880h117l-80 -115h-92zM67 700h100v-345h-100v345zM407 700h100v-490c0 -145 -77 -224 -214 -224c-139 0 -226 80 -226 224v58h100v-58c0 -80 42 -132 125 -132c82 0 115 52 115 132v490z" />
    <glyph glyph-name="ringacutecomb" horiz-adv-x="310" 
d="M232 710c17 -17 28 -42 28 -71c0 -60 -46 -101 -105 -101s-105 41 -105 101s46 101 105 101h3l42 90h109zM155 602c22 0 37 16 37 37s-15 37 -37 37s-37 -16 -37 -37s15 -37 37 -37z" />
    <glyph glyph-name="Omega" 
d="M60 434c0 167 93 280 250 280c158 0 250 -113 250 -280v-136c0 -103 -36 -163 -88 -190v-14h100v-94h-222v102c90 29 110 96 110 206v118c0 120 -52 194 -150 194c-100 0 -150 -78 -150 -194v-118c0 -111 20 -177 110 -206v-102h-222v94h100v14c-57 29 -88 94 -88 190
v136z" />
    <glyph glyph-name="Delta" 
d="M18 0l205 700h174l205 -700h-584zM150 94h320l-153 533h-14z" />
    </font>
</defs>
</svg>
