<svg data-v-fde0c5aa="" xmlns="http://www.w3.org/2000/svg" viewBox="0 0 300 300" class="iconLeftSlogan"><!----><defs data-v-fde0c5aa=""><!----></defs><rect data-v-fde0c5aa="" fill="#000000" x="0" y="0" width="300px" height="300px" class="logo-background-square"></rect><defs data-v-fde0c5aa=""><!----></defs><g data-v-fde0c5aa="" id="035a3d5d-f6e7-43af-8e19-ca5e983003d2" fill="#FFFFFF" transform="matrix(1.998007740194725,0,0,1.998007740194725,102.67688028343728,122.06788072229722)"><path d="M0.87 3.98L0.87 13.78L4.23 13.78C6.86 13.78 8.26 12.47 8.26 9.80L8.26 7.95C8.26 5.28 6.86 3.98 4.23 3.98ZM2.72 5.71L4.26 5.71C5.84 5.71 6.41 6.50 6.41 7.90L6.41 9.86C6.41 11.26 5.84 12.04 4.26 12.04L2.72 12.04ZM9.24 8.43L10.67 9.35C11.10 8.62 11.68 8.15 12.60 8.15C13.55 8.15 14.06 8.67 14.06 9.32L14.06 9.49L11.27 9.80C9.98 9.94 9.10 10.70 9.10 11.80C9.10 13.13 10.14 13.97 11.70 13.97C13.20 13.97 13.72 13.24 13.89 12.94L14.08 12.94L14.08 13.78L15.82 13.78L15.82 9.34C15.82 7.71 14.59 6.64 12.70 6.64C11.00 6.64 10.07 7.39 9.24 8.43ZM10.95 11.70C10.95 11.30 11.27 11.06 11.93 10.98L14.06 10.72L14.06 10.84C14.06 11.79 13.37 12.52 12.14 12.52C11.35 12.52 10.95 12.18 10.95 11.70ZM17.42 6.83L17.42 13.78L19.18 13.78L19.18 10.19C19.18 8.96 19.78 8.26 20.92 8.26C21.92 8.26 22.48 8.83 22.48 9.80L22.48 13.78L24.25 13.78L24.25 9.63C24.25 7.83 23.09 6.72 21.55 6.72C20.27 6.72 19.63 7.31 19.35 7.95L19.15 7.95L19.15 6.83ZM29.65 3.98L29.65 13.78L31.50 13.78L31.50 5.71L31.67 5.71L33.91 13.78L37.18 13.78L37.18 3.98L35.34 3.98L35.34 12.04L35.17 12.04L32.93 3.98ZM38.47 10.30C38.47 12.49 40.07 13.97 42.11 13.97C44.16 13.97 45.75 12.49 45.75 10.30C45.75 8.12 44.16 6.64 42.11 6.64C40.07 6.64 38.47 8.12 38.47 10.30ZM40.24 10.30C40.24 9.07 40.99 8.26 42.11 8.26C43.23 8.26 43.99 9.07 43.99 10.30C43.99 11.54 43.23 12.35 42.11 12.35C40.99 12.35 40.24 11.54 40.24 10.30ZM48.75 6.83L47.01 6.83L47.01 13.78L48.78 13.78L48.78 9.88C48.78 8.90 49.42 8.43 50.32 8.43L51.35 8.43L51.35 6.80L50.65 6.80C49.77 6.80 49.18 7.07 48.92 7.84L48.75 7.84ZM52.39 6.83L52.39 13.78L54.15 13.78L54.15 9.55C54.15 8.68 54.68 8.26 55.41 8.26C56.08 8.26 56.55 8.62 56.55 9.27L56.55 13.78L58.31 13.78L58.31 9.55C58.31 8.68 58.84 8.26 59.57 8.26C60.24 8.26 60.70 8.62 60.70 9.27L60.70 13.78L62.47 13.78L62.47 9.13C62.47 7.69 61.45 6.72 60.17 6.72C59.07 6.72 58.51 7.25 58.20 7.90L58.00 7.90C57.71 7.20 57.05 6.72 56.15 6.72C55.19 6.72 54.61 7.20 54.32 7.87L54.12 7.87L54.12 6.83ZM63.73 8.43L65.16 9.35C65.59 8.62 66.16 8.15 67.09 8.15C68.04 8.15 68.54 8.67 68.54 9.32L68.54 9.49L65.76 9.80C64.47 9.94 63.59 10.70 63.59 11.80C63.59 13.13 64.62 13.97 66.19 13.97C67.69 13.97 68.21 13.24 68.38 12.94L68.57 12.94L68.57 13.78L70.31 13.78L70.31 9.34C70.31 7.71 69.08 6.64 67.19 6.64C65.49 6.64 64.55 7.39 63.73 8.43ZM65.44 11.70C65.44 11.30 65.76 11.06 66.42 10.98L68.54 10.72L68.54 10.84C68.54 11.79 67.86 12.52 66.63 12.52C65.84 12.52 65.44 12.18 65.44 11.70ZM71.90 6.83L71.90 13.78L73.67 13.78L73.67 10.19C73.67 8.96 74.27 8.26 75.40 8.26C76.41 8.26 76.97 8.83 76.97 9.80L76.97 13.78L78.74 13.78L78.74 9.63C78.74 7.83 77.57 6.72 76.03 6.72C74.76 6.72 74.12 7.31 73.84 7.95L73.64 7.95L73.64 6.83Z"></path></g><defs data-v-fde0c5aa=""><!----></defs><g data-v-fde0c5aa="" id="514aef4f-4aff-405a-9513-6719ab58c6dd" stroke="none" fill="#39DAA2" transform="matrix(0.514156609011083,0,0,0.514156609011083,40,127.12695293476101)"><path d="M96.295 48.146h-7.408a3.702 3.702 0 0 1 0-7.404h7.408a3.704 3.704 0 0 1 3.704 3.701 3.703 3.703 0 0 1-3.704 3.703zM81.744 23.492a3.705 3.705 0 0 1-5.238 0 3.7 3.7 0 0 1 0-5.236l5.238-5.238a3.703 3.703 0 1 1 5.237 5.238l-5.237 5.236zM76.285 52.396a22.26 22.26 0 0 0 1.494-7.953c0-12.27-9.951-22.222-22.226-22.222-7.142 0-13.481 3.384-17.547 8.619a29.628 29.628 0 0 0-8.377-1.21C13.266 29.63 0 42.895 0 59.258c0 16.365 13.266 29.63 29.629 29.63h29.628c12.274 0 22.226-9.951 22.226-22.222a22.123 22.123 0 0 0-5.198-14.27zM55.553 29.63c8.183 0 14.817 6.634 14.817 14.813 0 .969-.102 1.912-.279 2.828a22.12 22.12 0 0 0-10.834-2.828c-1.289 0-2.535.17-3.766.38A29.833 29.833 0 0 0 45.067 33.98a14.765 14.765 0 0 1 10.486-4.35zm3.704 51.85h-29.63c-12.273 0-22.221-9.948-22.221-22.222s9.948-22.22 22.221-22.22c10.541 0 19.325 7.358 21.604 17.204 2.315-1.498 5.062-2.392 8.026-2.392 8.183 0 14.813 6.635 14.813 14.816.001 8.18-6.63 14.814-14.813 14.814zM55.553 14.813a3.704 3.704 0 0 1-3.704-3.702V3.704a3.705 3.705 0 0 1 7.408 0v7.407a3.7 3.7 0 0 1-3.704 3.702zM29.365 23.492l-5.236-5.236a3.703 3.703 0 1 1 5.236-5.238l5.237 5.238a3.703 3.703 0 0 1-5.237 5.236z"></path></g><defs data-v-fde0c5aa=""><!----></defs><g data-v-fde0c5aa="" id="9baf78d5-608e-4cc4-9858-4aba1008d0af" fill="#FFFFFF" transform="matrix(0.6025749961523771,0,0,0.6025749961523771,104.14398826789049,158.71464099916486)"><path d="M1.75 4.65C1.75 4.03 2.11 3.08 4.21 3.08C5.91 3.08 6.69 3.82 6.80 4.75L7.88 4.75C7.80 3.36 6.68 2.10 4.21 2.10C1.89 2.10 0.73 3.15 0.73 4.66C0.73 7.84 7.07 6.69 7.07 8.96C7.07 10.05 6.09 10.60 4.52 10.60C2.91 10.60 1.61 10.05 1.54 8.71L0.45 8.71C0.59 10.37 1.71 11.59 4.45 11.59C6.73 11.59 8.12 10.64 8.12 8.92C8.12 5.68 1.75 6.80 1.75 4.65ZM20.86 2.10C18.05 2.10 16.16 4.21 16.16 6.85C16.16 9.48 18.05 11.59 20.86 11.59C23.67 11.59 25.56 9.48 25.56 6.85C25.56 4.21 23.67 2.10 20.86 2.10ZM20.86 10.57C18.61 10.57 17.21 8.93 17.21 6.85C17.21 4.76 18.61 3.12 20.86 3.12C23.11 3.12 24.51 4.76 24.51 6.85C24.51 8.93 23.11 10.57 20.86 10.57ZM40.94 3.22L40.94 2.21L34.24 2.21L34.24 11.48L35.29 11.48L35.29 7.46L40.32 7.46L40.32 6.44L35.29 6.44L35.29 3.22ZM55.99 2.21L48.47 2.21L48.47 3.22L51.70 3.22L51.70 11.48L52.75 11.48L52.75 3.22L55.99 3.22ZM69.89 3.70L72.39 11.48L73.58 11.48L76.47 2.21L75.36 2.21L72.98 10.00L70.49 2.21L69.29 2.21L66.79 10.00L64.41 2.21L63.31 2.21L66.19 11.48L67.38 11.48ZM88.42 2.21L87.11 2.21L83.17 11.48L84.34 11.48L85.47 8.79L90.06 8.79L91.20 11.48L92.36 11.48ZM85.88 7.83L87.77 3.30L89.66 7.83ZM101.58 7.92L104.80 7.92L107.04 11.48L108.29 11.48L105.85 7.74C106.89 7.50 108.09 6.90 108.09 5.11C108.09 3.35 106.88 2.21 104.97 2.21L100.53 2.21L100.53 11.48L101.58 11.48ZM101.58 3.21L104.85 3.21C106.16 3.21 107.04 3.93 107.04 5.11C107.04 6.55 105.78 6.93 104.79 6.93L101.58 6.93ZM123.72 3.22L123.72 2.21L116.90 2.21L116.90 11.48L123.72 11.48L123.72 10.47L117.95 10.47L117.95 7.35L123.10 7.35L123.10 6.33L117.95 6.33L117.95 3.22ZM149.21 3.22L149.21 2.21L142.39 2.21L142.39 11.48L149.21 11.48L149.21 10.47L143.44 10.47L143.44 7.35L148.60 7.35L148.60 6.33L143.44 6.33L143.44 3.22ZM164.85 2.21L164.85 10.01L159.12 2.21L157.91 2.21L157.91 11.48L158.96 11.48L158.96 3.65L164.68 11.48L165.90 11.48L165.90 2.21ZM179.14 2.10C176.36 2.10 174.58 4.21 174.58 6.85C174.58 9.48 176.29 11.59 179.12 11.59C180.80 11.59 181.89 10.74 182.48 9.84L182.48 11.48L183.44 11.48L183.44 6.55L179.09 6.55L179.09 7.50L182.48 7.50C182.48 9.44 180.88 10.57 179.20 10.57C176.95 10.57 175.63 8.93 175.63 6.85C175.63 4.76 176.97 3.12 179.23 3.12C180.64 3.12 181.65 3.74 182.21 4.73L183.36 4.73C182.67 3.18 181.13 2.10 179.14 2.10ZM193.34 2.21L192.29 2.21L192.29 11.48L193.34 11.48ZM209.55 2.21L209.55 10.01L203.83 2.21L202.61 2.21L202.61 11.48L203.66 11.48L203.66 3.65L209.38 11.48L210.60 11.48L210.60 2.21ZM226.69 3.22L226.69 2.21L219.87 2.21L219.87 11.48L226.69 11.48L226.69 10.47L220.92 10.47L220.92 7.35L226.07 7.35L226.07 6.33L220.92 6.33L220.92 3.22ZM242.20 3.22L242.20 2.21L235.38 2.21L235.38 11.48L242.20 11.48L242.20 10.47L236.43 10.47L236.43 7.35L241.58 7.35L241.58 6.33L236.43 6.33L236.43 3.22ZM251.94 7.92L255.16 7.92L257.40 11.48L258.65 11.48L256.21 7.74C257.25 7.50 258.45 6.90 258.45 5.11C258.45 3.35 257.24 2.21 255.33 2.21L250.89 2.21L250.89 11.48L251.94 11.48ZM251.94 3.21L255.21 3.21C256.52 3.21 257.40 3.93 257.40 5.11C257.40 6.55 256.14 6.93 255.15 6.93L251.94 6.93Z"></path></g></svg>