<svg data-v-423bf9ae="" xmlns="http://www.w3.org/2000/svg" viewBox="0 0 467.68766907672295 60" class="font"><!----><!----><!----><g data-v-423bf9ae="" id="505362b3-7dfe-4fbc-8b56-e5cb8e30f86f" fill="black" transform="matrix(6.006006143610182,0,0,6.006006143610182,-5.22522873041504,-23.903905042961156)"><path d="M0.87 3.98L0.87 13.78L4.23 13.78C6.86 13.78 8.26 12.47 8.26 9.80L8.26 7.95C8.26 5.28 6.86 3.98 4.23 3.98ZM2.72 5.71L4.26 5.71C5.84 5.71 6.41 6.50 6.41 7.90L6.41 9.86C6.41 11.26 5.84 12.04 4.26 12.04L2.72 12.04ZM9.24 8.43L10.67 9.35C11.10 8.62 11.68 8.15 12.60 8.15C13.55 8.15 14.06 8.67 14.06 9.32L14.06 9.49L11.27 9.80C9.98 9.94 9.10 10.70 9.10 11.80C9.10 13.13 10.14 13.97 11.70 13.97C13.20 13.97 13.72 13.24 13.89 12.94L14.08 12.94L14.08 13.78L15.82 13.78L15.82 9.34C15.82 7.71 14.59 6.64 12.70 6.64C11.00 6.64 10.07 7.39 9.24 8.43ZM10.95 11.70C10.95 11.30 11.27 11.06 11.93 10.98L14.06 10.72L14.06 10.84C14.06 11.79 13.37 12.52 12.14 12.52C11.35 12.52 10.95 12.18 10.95 11.70ZM17.42 6.83L17.42 13.78L19.18 13.78L19.18 10.19C19.18 8.96 19.78 8.26 20.92 8.26C21.92 8.26 22.48 8.83 22.48 9.80L22.48 13.78L24.25 13.78L24.25 9.63C24.25 7.83 23.09 6.72 21.55 6.72C20.27 6.72 19.63 7.31 19.35 7.95L19.15 7.95L19.15 6.83ZM29.65 3.98L29.65 13.78L31.50 13.78L31.50 5.71L31.67 5.71L33.91 13.78L37.18 13.78L37.18 3.98L35.34 3.98L35.34 12.04L35.17 12.04L32.93 3.98ZM38.47 10.30C38.47 12.49 40.07 13.97 42.11 13.97C44.16 13.97 45.75 12.49 45.75 10.30C45.75 8.12 44.16 6.64 42.11 6.64C40.07 6.64 38.47 8.12 38.47 10.30ZM40.24 10.30C40.24 9.07 40.99 8.26 42.11 8.26C43.23 8.26 43.99 9.07 43.99 10.30C43.99 11.54 43.23 12.35 42.11 12.35C40.99 12.35 40.24 11.54 40.24 10.30ZM48.75 6.83L47.01 6.83L47.01 13.78L48.78 13.78L48.78 9.88C48.78 8.90 49.42 8.43 50.32 8.43L51.35 8.43L51.35 6.80L50.65 6.80C49.77 6.80 49.18 7.07 48.92 7.84L48.75 7.84ZM52.39 6.83L52.39 13.78L54.15 13.78L54.15 9.55C54.15 8.68 54.68 8.26 55.41 8.26C56.08 8.26 56.55 8.62 56.55 9.27L56.55 13.78L58.31 13.78L58.31 9.55C58.31 8.68 58.84 8.26 59.57 8.26C60.24 8.26 60.70 8.62 60.70 9.27L60.70 13.78L62.47 13.78L62.47 9.13C62.47 7.69 61.45 6.72 60.17 6.72C59.07 6.72 58.51 7.25 58.20 7.90L58.00 7.90C57.71 7.20 57.05 6.72 56.15 6.72C55.19 6.72 54.61 7.20 54.32 7.87L54.12 7.87L54.12 6.83ZM63.73 8.43L65.16 9.35C65.59 8.62 66.16 8.15 67.09 8.15C68.04 8.15 68.54 8.67 68.54 9.32L68.54 9.49L65.76 9.80C64.47 9.94 63.59 10.70 63.59 11.80C63.59 13.13 64.62 13.97 66.19 13.97C67.69 13.97 68.21 13.24 68.38 12.94L68.57 12.94L68.57 13.78L70.31 13.78L70.31 9.34C70.31 7.71 69.08 6.64 67.19 6.64C65.49 6.64 64.55 7.39 63.73 8.43ZM65.44 11.70C65.44 11.30 65.76 11.06 66.42 10.98L68.54 10.72L68.54 10.84C68.54 11.79 67.86 12.52 66.63 12.52C65.84 12.52 65.44 12.18 65.44 11.70ZM71.90 6.83L71.90 13.78L73.67 13.78L73.67 10.19C73.67 8.96 74.27 8.26 75.40 8.26C76.41 8.26 76.97 8.83 76.97 9.80L76.97 13.78L78.74 13.78L78.74 9.63C78.74 7.83 77.57 6.72 76.03 6.72C74.76 6.72 74.12 7.31 73.84 7.95L73.64 7.95L73.64 6.83Z"></path></g><!----><!----></svg>